<?xml version="1.0" standalone="no"?>
<!DOCTYPE svg PUBLIC "-//W3C//DTD SVG 20010904//EN" "http://www.w3.org/TR/2001/REC-SVG-20010904/DTD/svg10.dtd">
<!-- Created using Krita: https://krita.org -->
<svg xmlns="http://www.w3.org/2000/svg" 
    xmlns:xlink="http://www.w3.org/1999/xlink"
    xmlns:krita="http://krita.org/namespaces/svg/krita"
    xmlns:sodipodi="http://sodipodi.sourceforge.net/DTD/sodipodi-0.dtd"
    width="1000pt"
    height="1000pt"
    viewBox="0 0 1000 1000">
<defs>
  <linearGradient id="gradient0" gradientUnits="objectBoundingBox" x1="0" y1="0" x2="1" y2="1" spreadMethod="pad">
   <stop stop-color="#0092c4" offset="0" stop-opacity="0.290196078431373"/>
   <stop stop-color="#8400b6" offset="0.512396694214876" stop-opacity="0.4"/>
   <stop stop-color="#e10042" offset="0.979338842975207" stop-opacity="0.501960784313725"/>
  </linearGradient>
  <linearGradient id="gradient1" gradientUnits="objectBoundingBox" x1="0" y1="0" x2="1" y2="1" spreadMethod="pad">
   <stop stop-color="#ffb400" offset="0" stop-opacity="1"/>
   <stop stop-color="#d69500" offset="1" stop-opacity="1"/>
  </linearGradient>
  <linearGradient id="gradient2" gradientUnits="objectBoundingBox" x1="0.33952641091902" y1="0.16686030884266" x2="0.824079579834704" y2="0.932792375605039" spreadMethod="pad">
   <stop stop-color="#ffb400" offset="0" stop-opacity="1"/>
   <stop stop-color="#d69500" offset="1" stop-opacity="1"/>
  </linearGradient>
  <linearGradient id="gradient3" gradientUnits="objectBoundingBox" x1="0.293093047554776" y1="0.105810205678105" x2="0.664604863107421" y2="0.792449211939102" spreadMethod="pad">
   <stop stop-color="#ffb400" offset="0" stop-opacity="1"/>
   <stop stop-color="#d69500" offset="1" stop-opacity="1"/>
  </linearGradient>
  <linearGradient id="gradient4" gradientUnits="objectBoundingBox" x1="0" y1="0" x2="1" y2="1" spreadMethod="pad">
   <stop stop-color="#ff0034" offset="0" stop-opacity="1"/>
   <stop stop-color="#542ac1" offset="0.483471074380165" stop-opacity="1"/>
   <stop stop-color="#24bcd0" offset="1" stop-opacity="1"/>
  </linearGradient>
  <linearGradient id="gradient5" gradientUnits="objectBoundingBox" x1="0" y1="0" x2="1" y2="1" spreadMethod="pad">
   <stop stop-color="#008ac7" offset="0" stop-opacity="0.588235294117647"/>
   <stop stop-color="#6600a5" offset="0.528925619834711" stop-opacity="0.458823529411765"/>
   <stop stop-color="#e6003f" offset="0.979338842975207" stop-opacity="0.349019607843137"/>
  </linearGradient>
 </defs>
<path id="shape0" transform="matrix(0.667398333597841 -0.131105298419632 0.129501793995941 0.659235611013871 706.542938468068 439.67844542265)" fill="#122021" fill-rule="evenodd" stroke="#122021" stroke-width="1" stroke-linecap="square" stroke-linejoin="bevel" d="M11.5483 0.45273C22.2947 3.38357 28.9705 21.6199 31.5757 55.1618C35.4835 105.475 35.5695 147.173 29.4903 145.273C23.411 143.372 25.0741 117.332 21.1663 113.425C17.2585 109.517 12.3895 102.059 9.9471 94.2433C7.50473 86.4277 -5.05986 14.13 2.26725 6.80289C9.59436 -0.524218 9.59436 -0.524218 11.5483 0.45273Z"/><path id="shape1" transform="matrix(0.667398333597841 -0.131105298419632 0.129501793995941 0.659235611013871 746.151491685196 538.355293358474)" fill="none" stroke="#122021" stroke-width="8" stroke-linecap="square" stroke-linejoin="bevel" d="M0.170284 0C-2.65457 13.8084 30.602 8.59659 30.602 25.1435"/><path id="shape01" transform="matrix(0.748119527204336 0.00836632059071267 -0.00836632059071267 0.748119527204336 517.488123917326 359.158533952249)" fill="#122021" fill-opacity="0.909803921568627" fill-rule="evenodd" stroke="#000000" stroke-opacity="0" stroke-width="0" stroke-linecap="square" stroke-linejoin="bevel" d="M8.16854 6.76221C14.6887 -1.27934 20.8829 -2.14869 26.751 4.15414C35.5533 13.6084 38.1613 88.9164 33.5972 96.0886C29.0331 103.261 30.6631 108.477 21.5349 107.173C12.4067 105.869 4.90845 104.239 2.30038 98.6967C-0.307691 93.1545 -0.6337 45.8833 0.996344 40.3411C2.62639 34.799 2.62639 34.799 8.16854 6.76221Z"/><path id="shape11" transform="matrix(0.748119527204336 0.00836632059071267 -0.00836632059071267 0.748119527204336 513.469273520837 439.260214129228)" fill="#122021" fill-opacity="0.909803921568627" fill-rule="evenodd" stroke="#000000" stroke-opacity="0" stroke-width="0" stroke-linecap="square" stroke-linejoin="bevel" d="M13.971 0.512472C24.2557 1.18321 30.6837 4.87228 33.2548 11.5797C37.1116 21.6408 34.4286 91.3978 30.7395 91.3978C27.0505 91.3978 11.1204 86.1996 6.92826 88.3795C2.73614 90.5594 -0.952935 35.0556 0.220861 27.1744C1.39466 19.2932 9.44354 -0.493639 12.1265 0.0094166C14.8095 0.512472 14.8095 0.512472 13.971 0.512472Z"/><path id="shape2" transform="matrix(0.748119527204336 0.00836632059071267 -0.00836632059071267 0.748119527204336 489.915221050392 511.939662811467)" fill="#122021" fill-opacity="0.909803921568627" stroke="#122021" stroke-width="7" stroke-linecap="square" stroke-linejoin="bevel" d="M48.6251 0C48.3882 12.0155 45.0251 11.6398 44.9427 12.8886C42.6581 17.6412 5.22057 3.37142 0 24.9456"/><path id="shape0" transform="translate(40.8033781203563, 439.508687280524)" fill="#000000" fill-opacity="0.0980392156862745" fill-rule="evenodd" stroke="#000000" stroke-opacity="0" stroke-width="0" stroke-linecap="square" stroke-linejoin="bevel" d="M675.397 156.812C643.636 149.611 621.518 145.343 609.043 144.006C590.33 142.001 503.647 146.011 496.197 136.654C488.746 127.298 446.642 107.249 423.251 111.927C399.86 116.605 370.454 115.937 353.078 119.278C335.701 122.62 354.508 176.558 399.953 181.904C445.399 187.251 387.443 190.004 379.423 185.326C371.403 180.647 337.706 146.011 336.37 128.635C335.033 111.258 295.602 130.64 268.202 129.971C240.801 129.303 242.805 117.942 213.4 125.293C183.994 132.645 161.939 148.684 139.216 152.694C116.494 156.704 85.7511 142.001 71.7164 143.338C62.36 144.229 58.3501 143.115 59.6867 139.996C66.8154 135.541 73.2758 133.536 79.0679 133.981C87.756 134.65 113.82 151.357 142.558 142.001C171.296 132.645 197.36 111.927 216.073 109.254C234.786 106.58 272.211 100.565 250.825 91.209C229.439 81.8525 92.4342 64.4763 65.7016 54.4515C38.9689 44.4268 -27.1945 37.7436 12.2362 25.0456C51.6669 12.3476 111.815 -2.35537 141.89 0.317897C171.964 2.99116 411.221 43.0902 437.286 45.0951C463.35 47.1001 672.533 83.1892 696.592 91.8773C720.652 100.565 738.85 112.428 726.152 111.76C713.454 111.092 703.944 92.5456 679.216 92.5456C654.489 92.5456 630.429 92.5456 630.429 108.585C630.429 124.625 638.449 131.308 605.033 127.298C571.617 123.288 530.182 127.298 566.271 131.308C602.36 135.318 653.468 140.87 675.397 156.812Z"/><path id="shape1" transform="translate(341.389883352433, 24.0010483441727)" fill="url(#gradient0)" fill-rule="evenodd" stroke="#000000" stroke-width="1" stroke-linecap="square" stroke-linejoin="bevel" d="M283.939 214.338C195.479 88.7221 130.402 22.0402 88.7079 14.2917C26.1668 2.66904 0 -6.81851 0 6.46456C0 19.7476 3.79442 81.4155 16.524 84.7362C29.2536 88.057 211.989 212.124 227.486 234.262C242.983 256.401 242.983 256.401 283.939 214.338Z"/><path id="shape02" transform="matrix(0.912715312984648 0.408596033492273 -0.408596033492273 0.912715312984648 606.993216833437 212.632329665644)" fill="#000000" fill-rule="evenodd" stroke="#000000" stroke-opacity="0" stroke-width="0" stroke-linecap="square" stroke-linejoin="bevel" d="M62.6721 62.7345C55.575 47.7037 48.478 38.4141 41.3809 34.8656C30.7354 29.5428 4.81104 7.7904 0.552813 1.40305C-2.28601 -2.85518 6.07308 3.28374 19.5575 10.3808L63.7366 35.3979C76.7602 48.6341 83.1495 56.1911 82.9046 58.0687C82.5372 60.8852 84.8639 60.7876 82.0474 62.7345C79.2309 64.6814 82.7821 65.661 76.5369 65.2936C70.2916 64.9263 70.2916 64.9263 62.6721 62.7345Z"/><path id="shape03" transform="matrix(0.919208895257907 0.393770230996816 -0.393770230996816 0.919208895257907 552.944456978679 146.808615720383)" fill="none" stroke="#000000" stroke-width="2.0199984" stroke-linecap="square" stroke-linejoin="bevel" d="M78.1704 40.6031L5.69202 0L0 27.7012C0 27.7012 26.0568 32.0018 78.1704 40.6031Z"/><path id="shape2" transform="translate(541.409636094215, 172.970368159026)" fill="none" stroke="#000000" stroke-width="2.0199984" stroke-linecap="square" stroke-linejoin="bevel" d="M0 0L66.5121 90.6983L84.3335 68.4215L66.8303 40.7347L0 0"/><path id="shape3" transform="translate(519.132869831379, 172.652128640986)" fill="none" stroke="#000000" stroke-width="2.0199984" stroke-linecap="square" stroke-linejoin="bevel" d="M22.2768 0L0 43.2806L65.2391 94.5171L78.6052 75.4228L22.2768 0"/><path id="shape4" transform="translate(396.630714551668, 75.9525787496176)" fill="none" stroke="#000000" stroke-width="2.0199984" stroke-linecap="square" stroke-linejoin="bevel" d="M145.65 95.3021L38.2108 80.4674L0 0L145.65 95.3021"/><path id="shape5" transform="translate(397.080252944858, 75.0535019632384)" fill="none" stroke="#000000" stroke-width="2.0199984" stroke-linecap="square" stroke-linejoin="bevel" d="M0 0L104.742 9.88984L145.201 96.2012L0 0"/><path id="shape6" transform="translate(343.585184155297, 32.3473546102279)" fill="none" stroke="#000000" stroke-width="2.0199984" stroke-linecap="square" stroke-linejoin="bevel" d="M54.3941 43.1557L0 26.0732L56.6418 0L158.687 52.596L54.3941 43.1557"/><path id="shape7" transform="translate(343.585184155297, 59.7691965947925)" fill="none" stroke="#000000" stroke-width="2.0199984" stroke-linecap="square" stroke-linejoin="bevel" d="M0 0L90.3572 96.2012L53.0455 14.3852L0 0"/><path id="shape8" transform="translate(667.294504109689, 296.657834129677)" fill="url(#gradient1)" fill-rule="evenodd" d="M68.6665 0.125221C124.058 -1.21047 152.669 8.13936 154.5 28.1747C157.246 58.2277 148.32 225.857 138.706 229.196C129.093 232.535 119.48 233.871 116.733 227.86C113.986 221.85 113.3 214.503 103.686 209.161C94.0732 203.818 30.2133 157.069 22.66 145.048C17.6244 137.033 10.0711 100.374 0 35.07C0 39.3777 22.8888 27.7295 68.6665 0.125221Z"/><path id="shape9" transform="translate(449.646937688078, 232.927231510378)" fill="url(#gradient2)" fill-rule="evenodd" d="M87.3531 42.118C146.276 2.33989 195.35 -9.26206 234.576 7.31215C273.802 23.8864 291.204 47.0902 286.785 76.9238C250.874 95.1555 232.918 111.73 232.918 126.646C232.918 149.022 255.294 197.916 238.719 206.203C222.145 214.49 126.015 221.948 97.8387 216.147C69.6625 210.346 6.68052 207.031 1.70826 194.601C-3.264 182.17 -3.264 182.17 87.3531 42.118Z"/><path id="shape10" transform="translate(181.641183413433, 228.45175335922)" fill="url(#gradient3)" fill-rule="evenodd" d="M297.89 167.585C229.936 218.413 177.451 244.931 140.435 247.141C84.9116 250.456 42.6474 265.373 32.7028 263.716C22.7583 262.058 -6.24655 180.016 1.21185 165.928C8.67024 151.84 73.3096 38.3064 194.301 8.47279C315.293 -21.3608 355.359 34.9915 355.359 63.1677C355.359 91.3438 352.585 91.3438 297.89 167.585Z"/><path id="shape11" transform="translate(310.687735915315, 245.61325256347)" fill="#000000" fill-rule="evenodd" d="M38.2281 2.92414C21.9433 45.3051 15.3693 79.3565 18.5061 105.078C23.2114 143.661 43.9143 215.651 44.8554 218.945C45.7964 222.238 39.6796 226.943 31.2102 226.473C22.7408 226.002 -2.1968 102.867 0.155808 89.3867C2.50842 75.906 6.94575 19.6892 15.4151 11.2198C23.8845 2.75039 39.6397 -4.13368 38.2281 2.92414Z"/><path id="shape12" transform="translate(255.543446422741, 277.157331825801)" fill="#000000" fill-rule="evenodd" d="M32.3995 0C15.6982 35.4498 16.7087 76.1029 35.4312 121.959C63.515 190.744 74.0972 200.513 65.55 200.513C57.0028 200.513 52.1187 203.769 51.3046 199.699C50.4906 195.628 -1.19974 88.3937 0.0212955 73.1182C1.24233 57.8427 4.90542 16.1367 10.6036 11.6596C16.3017 7.18247 16.1191 2.84907 32.3995 0Z"/><path id="shape13" transform="translate(216.269034284442, 328.590267235181)" fill="#000000" fill-rule="evenodd" d="M14.8488 0C9.89773 28.85 12.5417 49.1908 22.7807 61.0226C38.1392 78.7702 74.6583 153.174 66.4671 153.515C58.2759 153.856 49.0608 157.611 48.0369 154.539C47.013 151.467 2.64398 57.2683 2.30268 49.4184C1.96138 41.5685 -3.24977 15.899 3.23493 10.7843C9.71963 5.66964 5.29241 2.3891 14.8488 0Z"/><path id="shape14" transform="translate(97.0947774178789, 557.374182149234)" fill="none" stroke="#122021" stroke-width="10" stroke-linecap="square" stroke-linejoin="bevel" d="M0 21.2916C0 -3.43035 39.3797 17.3051 58.7666 10.8428C61.1247 10.0567 71.6551 2.97997 76.3605 0"/><path id="shape15" transform="translate(160.787804696275, 468.241275762024)" fill="#122021" fill-rule="evenodd" stroke="#000000" stroke-opacity="0" stroke-width="0" stroke-linecap="square" stroke-linejoin="bevel" d="M67.8935 0C74.052 15.0882 86.5228 22.7862 105.306 23.0941C133.481 23.556 52.6514 103.924 37.8712 99.3048C23.0909 94.686 26.3241 76.2107 9.23443 72.5156C-7.85523 68.8205 -7.85523 68.8205 67.8935 0Z"/><path id="shape16" transform="translate(233.676593370318, 365.752469875117)" fill="#122021" fill-rule="evenodd" d="M0 90.0682C8.46749 111.109 22.8366 120.859 43.1072 119.319C73.5132 117.01 124.318 14.6306 138.174 13.091C152.03 11.5515 150.49 0.389798 144.332 0.00491223C138.174 -0.379973 80.4411 21.9434 55.0387 35.0295C29.6362 48.1156 29.6362 48.1156 0 90.0682Z"/><path id="shape17" transform="translate(384.092264466261, 363.344738360593)" fill="#122021" fill-rule="evenodd" d="M2.30167 2.88135C4.4499 -1.10821 10.2808 -0.954768 19.7944 3.34169C34.0648 9.78637 91.1462 38.7874 84.7016 47.0735C78.2569 55.3595 75.9552 71.4712 63.0658 67.7885C50.1765 64.1059 28.0804 40.1685 19.3341 29.5808C10.5877 18.9931 0 24.0567 0 15.3104C0 6.56403 0 6.56403 2.30167 2.88135Z"/><path id="shape18" transform="translate(482.635684768389, 397.775126385948)" fill="#122021" fill-rule="evenodd" d="M8.16854 6.76221C14.6887 -1.27934 20.8829 -2.14869 26.751 4.15414C35.5533 13.6084 38.1613 88.9164 33.5972 96.0886C29.0331 103.261 30.6631 108.477 21.5349 107.173C12.4067 105.869 4.90845 104.239 2.30038 98.6967C-0.307691 93.1545 -0.6337 45.8833 0.996344 40.3411C2.62639 34.799 2.62639 34.799 8.16854 6.76221Z"/><path id="shape19" transform="translate(478.461656633367, 504.892503746767)" fill="#122021" fill-rule="evenodd" d="M13.971 0.512472C24.2557 1.18321 30.6837 4.87228 33.2548 11.5797C37.1116 21.6408 34.4286 91.3978 30.7395 91.3978C27.0505 91.3978 11.1204 86.1996 6.92826 88.3795C2.73614 90.5594 -0.952935 35.0556 0.220861 27.1744C1.39466 19.2932 9.44354 -0.493639 12.1265 0.00941659C14.8095 0.512472 14.8095 0.512472 13.971 0.512472Z"/><path id="shape20" transform="translate(654.606395947296, 426.577890098491)" fill="#122021" fill-rule="evenodd" stroke="#122021" stroke-width="1" stroke-linecap="square" stroke-linejoin="bevel" d="M11.5483 0.45273C22.2947 3.38357 28.9705 21.6199 31.5757 55.1618C35.4835 105.475 35.5695 147.173 29.4903 145.273C23.411 143.372 25.0741 117.332 21.1663 113.425C17.2585 109.517 12.3895 102.059 9.9471 94.2433C7.50473 86.4277 -5.05986 14.13 2.26725 6.80289C9.59436 -0.524218 9.59436 -0.524218 11.5483 0.45273Z"/><path id="shape21" transform="translate(448.067549826338, 602.381919354794)" fill="none" stroke="#122021" stroke-width="7" stroke-linecap="square" stroke-linejoin="bevel" d="M48.6251 0C48.3882 12.0155 45.0251 11.6398 44.9427 12.8886C42.6581 17.6412 5.22057 3.37142 0 24.9456"/><path id="shape22" transform="translate(695.196715947171, 578.147216042354)" fill="none" stroke="#122021" stroke-width="8" stroke-linecap="square" stroke-linejoin="bevel" d="M0 0.0617728C15.4094 0.0617728 23.6305 -1.78813 23.6305 14.7588"/><path id="shape23" transform="translate(688.308127437972, 345.101561431538)" fill="url(#gradient4)" fill-rule="evenodd" d="M36.839 2.4353C59.3008 16.2754 70.1913 45.3169 69.5107 89.5598C68.4897 155.924 0.423676 73.9046 0.0833461 65.7367C-0.256984 57.5688 0.0833461 14.3469 8.25126 6.51926C16.4192 -1.30833 16.4192 -1.30833 36.839 2.4353Z"/><circle id="shape24" transform="translate(710, 357)" r="15" cx="15" cy="15" fill="#ffffff" fill-rule="evenodd"/><ellipse id="shape25" transform="translate(732, 392)" rx="6" ry="6.5" cx="6" cy="6.5" fill="#ffffff" fill-rule="evenodd"/><ellipse id="shape26" transform="translate(719, 393)" rx="5" ry="4.5" cx="5" cy="4.5" fill="#ffffff" fill-rule="evenodd"/><path id="shape27" transform="translate(794.110421840038, 285.219405256866)" fill="#000000" fill-rule="evenodd" d="M0.965474 97.2283C10.8628 101.249 17.9766 101.868 22.3067 99.0841C28.8018 94.9086 39.9363 68.928 50.6069 61.969C57.7206 57.3296 61.7414 55.7831 62.6693 57.3296L191.644 1.19299C198.449 -0.66277 202.47 -0.353477 203.707 2.12086C205.562 5.83237 206.49 9.54388 201.851 9.54388C197.212 9.54388 85.8663 61.0411 79.8351 60.1132C73.8039 59.1853 70.0923 57.7935 65.9169 63.3608C61.7414 68.928 34.833 111.61 27.8739 118.569C20.9148 125.529 8.38849 138.055 2.35729 135.271C-3.67391 132.488 5.60486 114.858 2.82123 107.899C0.0375961 100.94 -0.890281 97.6922 0.965474 97.2283Z"/><path id="shape28" transform="translate(149.74037087756, 141.410985563973)" fill="url(#gradient5)" fill-rule="evenodd" stroke="#000000" stroke-width="1" stroke-linecap="square" stroke-linejoin="bevel" d="M426.477 193.589C267.777 154.846 170.721 133.878 135.308 130.685C82.1879 125.896 6.30878 53.2354 0.213082 37.1253C-5.88262 21.0153 120.638 -7.07023 145.021 1.63791C169.404 10.3461 458.262 159.475 465.228 166.006C472.195 172.537 486.563 187.21 483.951 193.589C481.338 199.968 466.099 193.589 456.955 193.589C447.812 193.589 447.812 194.743 426.477 193.589Z"/><path id="shape29" transform="translate(552.569701645152, 275.99283821255)" fill="#000000" fill-rule="evenodd" d="M59.8235 59.0072C52.7264 43.9764 45.6294 34.6868 38.5323 31.1383C27.8868 25.8155 4.99879 8.7826 0.740562 2.39525C-2.09826 -1.86298 3.22453 -0.443566 16.7089 6.65348L60.888 31.6706C73.9116 44.9068 80.3009 52.4638 80.056 54.3414C79.6886 57.1579 82.0153 57.0603 79.1988 59.0072C76.3823 60.9541 79.9335 61.9337 73.6883 61.5663C67.443 61.199 67.443 61.199 59.8235 59.0072Z"/><path id="shape30" transform="translate(467.846719702414, 264.654557562732)" fill="none" stroke="#000000" stroke-width="2.0199984" stroke-linecap="square" stroke-linejoin="bevel" d="M142.446 64.9508C48.9094 21.3745 1.58604 -0.274921 0.475811 0.00263503C-0.634414 0.280191 0.198255 15.1295 2.97382 44.5504L105.808 70.3454L144.111 70.3454C144.111 69.8021 143.556 68.0039 142.446 64.9508Z"/><path id="shape31" transform="translate(468.322530546922, 234.264774898165)" fill="none" stroke="#000000" stroke-width="2.0199984" stroke-linecap="square" stroke-linejoin="bevel" d="M85.7649 44.5478L6.24502 0L0 30.3924C0 30.3924 28.5883 35.1109 85.7649 44.5478Z"/><path id="shape32" transform="translate(350.916204664459, 170.565598089594)" fill="none" stroke="#000000" stroke-width="2.0199984" stroke-linecap="square" stroke-linejoin="bevel" d="M118.239 93.2589L0 0L123.651 62.8665C123.651 62.8665 121.847 72.9973 118.239 93.2589Z"/><path id="shape33" transform="translate(320.107452482536, 265.073527080088)" fill="none" stroke="#000000" stroke-width="2.0199984" stroke-linecap="square" stroke-linejoin="bevel" d="M148.215 0L0 12.0737L149.88 44.5478C149.88 44.5478 149.325 29.6985 148.215 0Z"/><path id="shape34" transform="translate(208.529809445301, 170.149263600649)" fill="none" stroke="#000000" stroke-width="2.0199984" stroke-linecap="square" stroke-linejoin="bevel" d="M260.625 94.0916L0 11.241L141.137 0C141.137 0 180.967 31.3639 260.625 94.0916Z"/><path id="shape35" transform="translate(208.946143934246, 181.390294802162)" fill="none" stroke="#000000" stroke-width="2.0199984" stroke-linecap="square" stroke-linejoin="bevel" d="M260.209 84.0996L111.161 96.1733L0 0C0 0 86.7364 28.0332 260.209 84.0996Z"/><path id="shape36" transform="translate(148.844224766572, 176.519469786004)" fill="none" stroke="#000000" stroke-width="2.0199984" stroke-linecap="square" stroke-linejoin="bevel" d="M59.868 5.17041L0 0L168.991 100.959C168.991 100.959 132.617 69.0296 59.868 5.17041Z"/><path id="shape37" transform="translate(149.116351834131, 153.116541975967)" fill="none" stroke="#000000" stroke-width="2.0199984" stroke-linecap="square" stroke-linejoin="bevel" d="M200.013 16.3276L52.5205 0L0 23.4029L60.6843 28.3012C60.6843 28.3012 107.127 24.31 200.013 16.3276Z"/><path id="shape38" transform="translate(217.115986774308, 489)" fill="none" stroke="#ff005d" stroke-width="6" stroke-linecap="square" stroke-linejoin="bevel" d="M212.373 0L246.798 15.3238C38.1646 44.5324 -21.8584 130.427 6.65476 221.53C20.9114 267.081 161.956 325.406 117.387 340.336C72.8172 355.266 110.121 404.382 160.065 398.009"/><path id="shape39" transform="translate(435.748228034679, 505.366940405067)" fill="none" stroke="#ff005d" stroke-width="5" stroke-linecap="square" stroke-linejoin="bevel" d="M26.0791 0L0 27.1223"/><text id="shape40" krita:useRichText="true" transform="translate(404.840088303479, 895.582787141702)" fill="#ff005d" stroke="#000000" stroke-opacity="0" stroke-width="0" stroke-linecap="square" stroke-linejoin="bevel" font-family="Burst My Bubble" font-size="72" font-size-adjust="0.423873" font-stretch="normal" letter-spacing="0" word-spacing="0"><tspan x="0">conceptual learning</tspan></text><path id="shape41" transform="translate(353.129488163895, 397.945615866652)" fill="none" stroke="#ff005d" stroke-width="5.440008" stroke-linecap="square" stroke-linejoin="bevel" d="M28.6175 0L0 25.9178"/><path id="shape42" transform="translate(291.223958377142, 395.785802483387)" fill="none" stroke="#ff005d" stroke-width="5.440008" stroke-linecap="square" stroke-linejoin="bevel" d="M112.121 32.3972L90.5231 0C92.0329 17.3627 79.544 65.1004 53.0565 143.213C25.5716 121.107 7.88614 108.107 0 104.214L1.42417 126.077"/><path id="shape43" transform="translate(291.09148509476, 495.789508035727)" fill="none" stroke="#ff005d" stroke-width="5.440008" stroke-linecap="square" stroke-linejoin="bevel" d="M0 4.21049L25.6845 0"/><path id="shape44" transform="translate(650.794019620732, 1052.24167157068)" fill="none" stroke="#ff005d" stroke-width="5.440008" stroke-linecap="square" stroke-linejoin="bevel" d="M0 109.712L47.3758 0L47.3758 107.219C47.3758 107.219 31.5839 108.05 0 109.712Z"/>
</svg>
