<?xml version="1.0" standalone="no"?>
<!DOCTYPE svg PUBLIC "-//W3C//DTD SVG 20010904//EN" "http://www.w3.org/TR/2001/REC-SVG-20010904/DTD/svg10.dtd">
<!-- Created using Krita: https://krita.org -->
<svg xmlns="http://www.w3.org/2000/svg" 
    xmlns:xlink="http://www.w3.org/1999/xlink"
    xmlns:krita="http://krita.org/namespaces/svg/krita"
    xmlns:sodipodi="http://sodipodi.sourceforge.net/DTD/sodipodi-0.dtd"
    width="84pt"
    height="84pt"
    viewBox="0 0 84 84">
<defs/>
<path id="shape01" transform="matrix(0.317459497885806 0 0 0.317459497885806 210.434313107214 770.032431627977)" fill="#3d6c82" fill-rule="evenodd" stroke="#000000" stroke-opacity="0" stroke-width="0" stroke-linecap="square" stroke-linejoin="bevel" d="M89.3786 26.348C61.2547 23.2283 43.0927 28.5619 34.8926 42.3486C26.6924 56.1353 30.8544 74.978 20.4786 97.0667C6.86275 102.83 -3.82155 155.785 1.31007 171.032C4.73116 181.196 9.08315 191.184 14.3661 200.996C26.4411 213.828 34.5886 217.302 47.8703 221.73C57.8316 225.051 43.7318 280.971 57.8435 279.433C64.8994 278.664 89.8271 265.493 116.258 273.021C115.313 254.631 115.26 216.502 116.241 214.106C120.167 204.521 140.242 185.362 144.092 162.881C142.582 149.069 141.534 138.277 137.45 120.917C137.789 98.7516 114.867 87.429 97.681 74.7693C91.643 70.7687 91.5691 38.8001 97.4548 30.2718C103.341 21.7435 130.055 -6.10862 117.83 1.21355C105.604 8.53572 99.5669 13.1385 94.7371 19.7049C89.9074 26.2712 90.2845 26.2712 89.3786 26.348Z"/><path id="shape33" transform="matrix(0.317459490450132 0 0 0.31845242115583 235.86487346856 766.513034200319)" fill="#122021" fill-rule="evenodd" stroke="#000000" stroke-opacity="0" stroke-width="0" stroke-linecap="square" stroke-linejoin="bevel" d="M2.12427 49.1591L9.45692 46.9785L14.9224 43.5199L40.1204 13.4146L51.4288 0C36.4879 9.58258 26.5439 16.4153 21.5969 20.498C16.65 24.5808 9.45098 33.591 0 47.5286C0 47.5286 0.708089 48.0721 2.12427 49.1591Z"/><ellipse id="shape81" transform="matrix(0.401932529772349 0 0 0.401932529772349 222.763303340828 781.747282062693)" rx="10.5" ry="9.5" cx="10.5" cy="9.5" fill="#122021" fill-rule="evenodd" stroke="#000000" stroke-opacity="0" stroke-width="0" stroke-linecap="square" stroke-linejoin="bevel"/><circle id="shape82" transform="matrix(0.317459490450132 0 0 0.317459490450133 224.65886735039 783.032878684891)" r="5" cx="5" cy="5" fill="#f7fbfd" fill-rule="evenodd" stroke="#000000" stroke-opacity="0" stroke-width="0" stroke-linecap="square" stroke-linejoin="bevel"/><circle id="shape83" transform="matrix(0.317459490450132 0 0 0.317459490450133 228.791043588872 785.589627298694)" r="2" cx="2" cy="2" fill="#f7fbfd" fill-rule="evenodd" stroke="#000000" stroke-opacity="0" stroke-width="0" stroke-linecap="square" stroke-linejoin="bevel"/><circle id="shape03" transform="matrix(0.317459482838669 0 0 0.317459482838669 227.812625263806 787.444804859793)" r="1.35425449383951" cx="1.35425449383951" cy="1.35425449383951" fill="#f7fbfd" fill-rule="evenodd" stroke="#000000" stroke-opacity="0" stroke-width="0" stroke-linecap="square" stroke-linejoin="bevel"/><path id="shape0" transform="matrix(0.317459461457306 0 0 0.317459461457306 211.363162674227 821.281695628913)" fill="#122021" fill-rule="evenodd" stroke="#000000" stroke-opacity="0" stroke-width="0" stroke-linecap="square" stroke-linejoin="bevel" d="M14.7546 286.428C16.3794 252.003 18.0042 217.577 19.629 183.152C126.757 157.006 113.095 160.022 161.456 160.547C200.25 163.262 252.616 159.678 260.214 175.158C264.012 182.898 267.439 197.713 258.044 209.79C249.978 209.781 243.691 194.757 241.447 191.027C235.79 183.185 247.055 197.318 235.186 187.589C236.106 191.296 236.694 217.132 259.926 216.36C283.776 204.009 281.553 152.175 214.078 148.188C79.1293 140.213 21.4692 186.219 20.8558 171.497C20.4468 161.682 18.4068 84.8355 19.8022 46.6898C39.0611 40.1063 82.9894 38.2657 151.587 41.1678C158.653 22.1027 165.43 11.0464 171.917 7.99883C186.169 1.30279 199.561 7.92216 211.011 16.9188C228.187 30.4137 206.354 5.51621 192.246 1.22237C182.84 -1.64019 172.329 0.524932 160.712 7.7177L147.217 34.0941C86.6172 31.5869 43.2699 33.2226 17.1754 39.0014C15.6912 39.3301 11.8836 40.9042 11.6547 45.1354C9.75489 80.2525 5.86999 142.206 0 230.997C0.0226699 263.912 1.17909 279.99 3.02332 287.193C5.852 298.24 10.2988 288.409 14.7546 286.428Z"/><path id="shape011" transform="matrix(0.317459471443632 0 0 0.317459471443632 146.235343402336 799.467720107898)" fill="#122021" fill-rule="evenodd" stroke="#000000" stroke-opacity="0" stroke-width="0" stroke-linecap="square" stroke-linejoin="bevel" d="M164.86 359.042C72.3958 201.822 -0.895295 50.2402 0.00826529 22.2298C1.36361 -19.7857 25.3079 5.06216 46.0898 36.6868C66.8717 68.3114 44.2827 88.6415 43.3791 93.1593C42.4756 97.6771 71.8413 105.809 58.2879 105.357C49.2523 105.056 41.8732 101.291 36.1506 94.0629C40.6684 91.9546 43.2285 84.1237 43.8309 70.5703C44.7345 50.2402 43.3791 36.235 33.44 29.4583C23.5008 22.6816 8.59209 -4.87701 7.68853 23.1334C7.08616 41.807 23.1996 78.8529 56.029 134.271L147.74 307.755C177.815 380.46 171.788 364.162 164.86 359.042Z"/>
</svg>
