<?xml version="1.0" standalone="no"?>
<!DOCTYPE svg PUBLIC "-//W3C//DTD SVG 20010904//EN" "http://www.w3.org/TR/2001/REC-SVG-20010904/DTD/svg10.dtd">
<!-- Created using Krita: https://krita.org -->
<svg xmlns="http://www.w3.org/2000/svg" 
    xmlns:xlink="http://www.w3.org/1999/xlink"
    xmlns:krita="http://krita.org/namespaces/svg/krita"
    xmlns:sodipodi="http://sodipodi.sourceforge.net/DTD/sodipodi-0.dtd"
    width="48pt"
    height="48pt"
    viewBox="0 0 48 48">
<defs/>
<g id="group0" transform="matrix(0.383722146676184 0 0 0.338180996427399 13.0291154718188 27.5285091221055)" fill="none">
  <path id="shape0" transform="translate(7.26475452737418, 48.4393110393617)" fill="#b1b2c8" fill-rule="evenodd" stroke="#000000" stroke-opacity="0" stroke-width="0" stroke-linecap="square" stroke-linejoin="bevel" d="M0 0C1.11536 1.11536 2.11919 2.06342 3.01148 2.84417C4.34991 4.0153 9.45269 6.35756 11.9623 6.77582C14.4718 7.19408 29.3619 9.87095 34.7156 8.11425C40.0694 6.35756 41.4078 6.1066 42.7462 5.18643C43.6385 4.57298 37.2252 4.7124 23.5062 5.60469C23.5062 5.60469 15.6708 3.73646 0 0Z"/>
  <path id="shape1" transform="translate(1.58226839630515e-07, 8.2352399531635)" fill="#1b22f2" fill-rule="evenodd" stroke="#000000" stroke-opacity="0" stroke-width="0" stroke-linecap="square" stroke-linejoin="bevel" d="M57.7609 42.468C58.4868 40.1691 59.2128 38.3543 59.9387 37.0234C61.0276 35.027 61.3906 32.6677 61.7536 31.3973C62.1166 30.1268 63.9314 28.312 64.4759 25.9526C65.0203 23.5933 63.387 25.2267 63.7499 23.0489C64.1129 20.871 61.9351 21.597 61.9351 19.0561C61.9351 16.5153 63.024 16.6968 60.4832 13.6115C58.7893 11.5547 57.7609 10.2843 57.3979 9.8003L8.75937 0C6.9445 0.362974 5.49261 1.63338 4.40368 3.81123C2.7703 7.07799 2.22584 8.16692 0.955432 9.8003C-0.314977 11.4337 0.0479964 13.2486 0.0479964 15.9709C0.0479964 18.6932 1.31841 19.6006 0.773945 23.2303C0.229484 26.8601 -0.677952 27.949 1.13692 30.8528C2.95179 33.7566 2.95179 33.7566 4.2222 36.2974C5.49261 38.8382 10.5742 42.8309 14.0225 43.9199C17.4708 45.0088 31.0823 47.9126 35.9824 47.3681C40.8826 46.8237 48.505 45.9162 51.0458 44.8273C53.5867 43.7384 57.0349 42.2865 57.7609 42.468Z"/>
  <path id="shape2" transform="translate(8.00153707191095, 9.1474487362575e-07)" fill="#b1b2c8" fill-rule="evenodd" stroke="#000000" stroke-opacity="0" stroke-width="0" stroke-linecap="square" stroke-linejoin="bevel" d="M0 7.55188C2.49054 11.9706 4.78022 14.7825 6.86906 15.9876C10.0023 17.7952 19.4021 23.9412 23.9814 24.9053C28.5608 25.8694 40.7323 27.436 44.3476 25.0258C47.9629 22.6156 50.6141 19.3618 48.6859 15.144C46.7578 10.9262 38.0811 2.49047 29.6454 1.28538C21.2097 0.0802769 13.3766 -0.763292 9.52027 1.04436C5.66396 2.852 2.4102 3.93659 1.2051 5.50322C0 7.06984 0 7.06984 0 7.55188Z"/>
  <path id="shape3" transform="translate(10.8584919595309, 1.99175129950112)" fill="#cdcdda" fill-rule="evenodd" stroke="#000000" stroke-opacity="0" stroke-width="0" stroke-linecap="square" stroke-linejoin="bevel" d="M0.00563561 7.93624C-0.0732629 5.49039 0.676273 3.87297 2.25424 3.08398C4.6212 1.9005 11.1303 0.125288 12.9055 0.125288C14.6808 0.125288 24.3853 -0.703146 29.1192 1.9005C33.8531 4.50416 36.9301 4.97755 39.4154 8.40963C41.9007 11.8417 44.9778 17.2857 41.9007 19.416C38.8237 21.5462 38.3503 23.9132 32.5513 23.2031C26.7522 22.493 10.7753 17.2857 7.3432 14.4454C3.91111 11.605 0.00563561 8.52798 0.00563561 7.93624Z"/>
  <path id="shape4" transform="translate(23.2342975376471, 13.0428201566642)" fill="#0a0b15" fill-rule="evenodd" stroke="#000000" stroke-opacity="0" stroke-width="0" stroke-linecap="square" stroke-linejoin="bevel" d="M4.07006 0.626674C1.56173 -0.130557 0.212913 -0.201547 0.023605 0.413702C-0.260356 1.33658 2.08233 4.31817 3.57312 4.95709C5.06392 5.596 9.53631 7.58373 12.3049 7.58373C15.0736 7.58373 16.5644 7.44175 16.2804 6.44788C15.9964 5.45402 15.4995 4.60213 14.0797 4.03421C12.6599 3.46629 12.6599 3.46629 4.07006 0.626674Z"/>
  <path id="shape5" transform="translate(26.0670928266167, 2.32878196145987)" fill="#7779a4" fill-rule="evenodd" stroke="#000000" stroke-opacity="0" stroke-width="0" stroke-linecap="square" stroke-linejoin="bevel" d="M5.14173 13.7544C1.45023 11.6247 -0.253537 9.68427 0.0304245 7.93317C0.456367 5.30653 1.09528 0.905127 3.01202 0.408195C4.92876 -0.0887379 6.20659 -0.230719 8.83323 0.550175C11.4599 1.33107 14.1575 3.03484 14.5125 4.17068C14.8674 5.30653 14.0865 8.35912 13.6606 9.84991C13.2346 11.3407 13.3056 13.5414 11.9568 13.8254C10.608 14.1093 7.5554 14.2513 6.06461 13.9674C4.57381 13.6834 4.57381 13.6834 5.14173 13.7544Z"/>
  <path id="shape6" transform="translate(29.5683708083357, 3.6054468680974)" fill="#cccdda" fill-rule="evenodd" stroke="#000000" stroke-opacity="0" stroke-width="0" stroke-linecap="square" stroke-linejoin="bevel" d="M2.35036 4.10086C0.693915 3.67491 -0.0869792 3.10699 0.00767463 2.39709C0.149655 1.33223 0.078665 0.125395 1.07253 0.196385C2.0664 0.267376 4.48007 -0.371538 5.61591 0.338366C6.75176 1.04827 7.9586 1.04827 8.59751 2.25511C9.23642 3.46194 9.59137 3.95887 8.95246 4.59779C8.31355 5.2367 5.26096 5.02373 3.98314 4.73977C2.70531 4.45581 2.70531 4.45581 2.35036 4.10086Z"/>
  <path id="shape7" transform="translate(28.1208628746517, 8.69913479021153)" fill="#cccdda" fill-rule="evenodd" stroke="#000000" stroke-opacity="0" stroke-width="0" stroke-linecap="square" stroke-linejoin="bevel" d="M1.10529 4.33748C4.57786 5.76736 6.62054 6.27803 7.23335 5.8695C8.15256 5.25669 9.22497 2.72887 7.38655 1.73306C5.54813 0.737248 4.01612 -0.488364 2.5607 0.201043C1.10529 0.89045 -0.426725 0.89045 0.109481 2.49907C0.645686 4.10768 0.645686 4.10768 1.10529 4.33748Z"/>
  <path id="shape8" transform="translate(9.17710406995343, 17.113463923354)" fill="#03064c" fill-rule="evenodd" stroke="#000000" stroke-opacity="0" stroke-width="0" stroke-linecap="square" stroke-linejoin="bevel" d="M0 0C3.66403 3.03846 6.6578 5.18325 8.98133 6.43439C11.3049 7.68552 12.69 8.40045 13.1369 8.57918"/>
  <path id="shape9" transform="translate(27.8100120614267, 29.4460361191493)" fill="#03064c" fill-rule="evenodd" stroke="#000000" stroke-opacity="0" stroke-width="0" stroke-linecap="square" stroke-linejoin="bevel" d="M0 0C6.79185 2.05543 11.6623 2.90441 14.6114 2.54694C17.5605 2.18948 19.0351 2.01075 19.0351 2.01075"/>
  <path id="shape10" transform="translate(50.0622618929704, 25.2904954879574)" fill="#03064c" fill-rule="evenodd" stroke="#000000" stroke-opacity="0" stroke-width="0" stroke-linecap="square" stroke-linejoin="bevel" d="M0 5.89819C3.21719 3.12783 4.95984 1.16176 5.22794 0"/>
  <path id="shape11" transform="translate(7.43445799880845, 20.7328057634243)" fill="none" stroke="#03064c" stroke-width="0.7848" stroke-linecap="square" stroke-linejoin="bevel" d="M0 0C4.55769 5.00452 7.77488 7.77488 9.65158 8.31108C11.5283 8.84728 12.556 9.16006 12.7347 9.24943"/>
  <path id="shape12" transform="translate(6.89825920768692, 27.3012409546631)" fill="none" stroke="#03064c" stroke-width="0.7848" stroke-linecap="square" stroke-linejoin="bevel" d="M0 0C5.63009 4.64706 9.24943 7.41742 10.858 8.31108C12.4666 9.20475 13.2709 9.65158 13.2709 9.65158"/>
  <path id="shape13" transform="translate(29.284558737011, 35.6123222170469)" fill="none" stroke="#03064c" stroke-width="0.7848" stroke-linecap="square" stroke-linejoin="bevel" d="M0 2.27884C9.56221 2.72568 15.5051 2.45758 17.8286 1.47455C20.1521 0.491516 21.2692 0 21.1799 0"/>
  <path id="shape14" transform="translate(25.5311671991602, 37.0868688926311)" fill="none" stroke="#03064c" stroke-width="0.7848" stroke-linecap="square" stroke-linejoin="bevel" d="M32.8422 0C26.3184 1.42986 22.1629 2.72568 20.3756 3.88744C17.6946 5.63009 10.724 6.97058 5.36199 6.43439C1.78733 6.07692 0 5.89819 0 5.89819"/>
  <path id="shape15" transform="translate(24.4501047311225, 39.0908441731639)" fill="none" stroke="#03064c" stroke-width="0.7848" stroke-linecap="square" stroke-linejoin="bevel" d="M0 0C1.18515 0.455827 3.05404 0.820488 5.60667 1.09398C9.43561 1.50423 7.79464 1.77772 12.1706 1.50423C16.5465 1.23073 17.0935 1.23073 18.7345 1.09398C19.8285 1.00282 20.3755 0.957236 20.3755 0.957236"/>
  <path id="shape16" transform="translate(6.67285928804534, 32.3717169707652)" fill="none" stroke="#03064c" stroke-width="0.7848" stroke-linecap="square" stroke-linejoin="bevel" d="M0 0C2.82613 3.00846 5.5155 5.01409 8.06813 6.01691C11.8971 7.52114 11.3501 6.70065 13.9483 8.20488C15.6804 9.2077 16.5465 9.80028 16.5465 9.98261"/>
  <path id="shape17" transform="translate(2.70716607382042, 16.235448030126)" fill="none" stroke="#03064c" stroke-width="0.7848" stroke-linecap="square" stroke-linejoin="bevel" d="M0 0C0.364661 1.82331 0.866071 3.32754 1.50423 4.51269"/>
  <path id="shape18" transform="translate(3.69696154683834, 11.1757704809425)" fill="none" stroke="#03064c" stroke-width="0.7848" stroke-linecap="square" stroke-linejoin="bevel" d="M1.88191 7.79464C0.332102 4.51269 -0.260472 2.41588 0.104189 1.50423C0.46885 0.592575 0.605598 0.0911654 0.514433 0"/>
  <path id="shape19" transform="translate(53.8513301395203, 24.1656818065014)" fill="none" stroke="#03064c" stroke-width="0.7848" stroke-linecap="square" stroke-linejoin="bevel" d="M0 9.07585C2.67812 7.58801 4.11637 5.7034 4.31475 3.42204C4.51313 1.14068 4.61232 0 4.61232 0"/>
  <path id="shape20" transform="translate(55.3391743964063, 26.3974481918304)" fill="none" stroke="#03064c" stroke-width="0.7848" stroke-linecap="square" stroke-linejoin="bevel" d="M0 8.6295C3.57083 7.24084 5.50502 5.45543 5.80259 3.27326C6.10016 1.09109 6.24895 0 6.24895 0"/>
 </g>
</svg>
