<?xml version="1.0" standalone="no"?>
<!DOCTYPE svg PUBLIC "-//W3C//DTD SVG 20010904//EN" "http://www.w3.org/TR/2001/REC-SVG-20010904/DTD/svg10.dtd">
<!-- Created using Krita: https://krita.org -->
<svg xmlns="http://www.w3.org/2000/svg" 
    xmlns:xlink="http://www.w3.org/1999/xlink"
    xmlns:krita="http://krita.org/namespaces/svg/krita"
    xmlns:sodipodi="http://sodipodi.sourceforge.net/DTD/sodipodi-0.dtd"
    width="2000pt"
    height="1000pt"
    viewBox="0 0 2000 1000">
<defs>
  <linearGradient id="gradient0" gradientUnits="objectBoundingBox" x1="0.48076964179973" y1="0.958846014114939" x2="0.45397214878609" y2="0.0611203338272818" spreadMethod="pad">
   <stop stop-color="#ff0060" offset="0.0619834698736668" stop-opacity="1"/>
   <stop stop-color="#00e4ec" offset="0.731404958677686" stop-opacity="0.67843137254902"/>
   <stop stop-color="#00e4ec" offset="0.87603305785124" stop-opacity="0.298039215686275"/>
   <stop stop-color="#00e4ec" offset="0.995867768595041" stop-opacity="0.0509803921568627"/>
  </linearGradient>
  <linearGradient id="gradient1" gradientUnits="objectBoundingBox" x1="0" y1="0" x2="1" y2="1" spreadMethod="pad">
   <stop stop-color="#bfd9df" offset="0.0867768600583076" stop-opacity="0.0509803921568627"/>
   <stop stop-color="#009acc" offset="0.975206613540649" stop-opacity="0.341176470588235"/>
  </linearGradient>
  <linearGradient id="gradient2" gradientUnits="objectBoundingBox" x1="0" y1="0" x2="1" y2="1" spreadMethod="pad">
   <stop stop-color="#bfd9df" offset="0.0867768600583076" stop-opacity="0.0509803921568627"/>
   <stop stop-color="#009acc" offset="0.975206613540649" stop-opacity="0.341176470588235"/>
  </linearGradient>
  <linearGradient id="gradient3" gradientUnits="objectBoundingBox" x1="0" y1="0" x2="1" y2="1" spreadMethod="pad">
   <stop stop-color="#bfd9df" offset="0.0867768600583076" stop-opacity="0.0509803921568627"/>
   <stop stop-color="#009acc" offset="0.975206613540649" stop-opacity="0.341176470588235"/>
  </linearGradient>
  <linearGradient id="gradient4" gradientUnits="objectBoundingBox" x1="0" y1="0" x2="1" y2="1" spreadMethod="pad">
   <stop stop-color="#bfd9df" offset="0.0867768600583076" stop-opacity="0.0509803921568627"/>
   <stop stop-color="#009acc" offset="0.975206613540649" stop-opacity="0.341176470588235"/>
  </linearGradient>
  <linearGradient id="gradient5" gradientUnits="objectBoundingBox" x1="0" y1="0" x2="1" y2="1" spreadMethod="pad">
   <stop stop-color="#bfd9df" offset="0.0867768600583076" stop-opacity="0.0509803921568627"/>
   <stop stop-color="#009acc" offset="0.975206613540649" stop-opacity="0.341176470588235"/>
  </linearGradient>
  <linearGradient id="gradient6" gradientUnits="objectBoundingBox" x1="0.951451927417877" y1="0.0830685169563743" x2="0.0992171101369199" y2="0.930776235869688" spreadMethod="pad">
   <stop stop-color="#21782c" offset="0.00813008099794388" stop-opacity="1"/>
   <stop stop-color="#79fda2" offset="0.871900826446281" stop-opacity="1"/>
  </linearGradient>
  <linearGradient id="gradient7" gradientUnits="objectBoundingBox" x1="0" y1="0" x2="1" y2="1" spreadMethod="pad">
   <stop stop-color="#ff003f" offset="0" stop-opacity="1"/>
   <stop stop-color="#5a4fca" offset="1" stop-opacity="1"/>
  </linearGradient>
  <linearGradient id="gradient8" gradientUnits="objectBoundingBox" x1="0" y1="0" x2="1" y2="1" spreadMethod="pad">
   <stop stop-color="#ff003f" offset="0" stop-opacity="1"/>
   <stop stop-color="#5a4fca" offset="1" stop-opacity="1"/>
  </linearGradient>
  <linearGradient id="gradient9" gradientUnits="objectBoundingBox" x1="0" y1="0" x2="1" y2="1" spreadMethod="pad">
   <stop stop-color="#ff003f" offset="0" stop-opacity="1"/>
   <stop stop-color="#5a4fca" offset="1" stop-opacity="1"/>
  </linearGradient>
  <linearGradient id="gradient10" gradientUnits="objectBoundingBox" x1="0" y1="0" x2="1" y2="1" spreadMethod="pad">
   <stop stop-color="#ff003f" offset="0" stop-opacity="1"/>
   <stop stop-color="#5a4fca" offset="1" stop-opacity="1"/>
  </linearGradient>
 </defs>
<path id="shape0" transform="matrix(1.00599087858421 0 0 1.00599087858421 -208.585670659925 4.83809592467685)" fill="url(#gradient0)" fill-rule="evenodd" stroke="#000000" stroke-opacity="0" stroke-width="0" stroke-linecap="square" stroke-linejoin="bevel" d="M348.946 192.365C511.056 192.715 708.574 28.4511 805.764 0.445046C887.625 -14.1492 1548.18 335.057 1649.28 333.234C1750.38 331.41 1956.83 102.829 2066.61 56.3428C2176.4 9.8567 2585.62 530.477 2176.86 759.559C1972.48 874.101 1451.83 716.969 955.536 720.212C120.199 650.496 -12.6822 887.075 0.894834 811.123C28.0488 659.217 186.836 192.015 348.946 192.365Z"/><circle id="shape05" transform="matrix(-2.31387668533543 0 0 2.31387668533543 1837.65906299112 487.58196268263)" r="7.43881879643806" cx="7.43881879643806" cy="7.43881879643806" fill="#ffffff" fill-rule="evenodd" stroke="#000000" stroke-opacity="0" stroke-width="0" stroke-linecap="square" stroke-linejoin="bevel"/><circle id="shape06" transform="matrix(-2.31387662273949 0 0 2.31387662273949 1579.15265061841 330.843703987071)" r="7.43881879643806" cx="7.43881879643806" cy="7.43881879643806" fill="#ffffff" fill-rule="evenodd" stroke="#000000" stroke-opacity="0" stroke-width="0" stroke-linecap="square" stroke-linejoin="bevel"/><circle id="shape08" transform="matrix(-2.3138764946041 0 0 2.3138764946041 1157.24358899363 312.288572452927)" r="7.43881879643806" cx="7.43881879643806" cy="7.43881879643806" fill="#ffffff" fill-rule="evenodd" stroke="#000000" stroke-opacity="0" stroke-width="0" stroke-linecap="square" stroke-linejoin="bevel"/><circle id="shape010" transform="matrix(-2.31387645693565 0 0 2.31387645693565 994.373106426221 466.689851986411)" r="7.43881879643806" cx="7.43881879643806" cy="7.43881879643806" fill="#ffffff" fill-rule="evenodd" stroke="#000000" stroke-opacity="0" stroke-width="0" stroke-linecap="square" stroke-linejoin="bevel"/><circle id="shape012" transform="matrix(-2.31387638074869 0 0 2.31387638074869 713.616143010005 347.321084273191)" r="7.43881879643806" cx="7.43881879643806" cy="7.43881879643806" fill="#ffffff" fill-rule="evenodd" stroke="#000000" stroke-opacity="0" stroke-width="0" stroke-linecap="square" stroke-linejoin="bevel"/><circle id="shape014" transform="matrix(-2.31387639825804 0 0 2.31387639825804 449.767849086102 344.887313195836)" r="7.43881879643806" cx="7.43881879643806" cy="7.43881879643806" fill="#ffffff" fill-rule="evenodd" stroke="#000000" stroke-opacity="0" stroke-width="0" stroke-linecap="square" stroke-linejoin="bevel"/><circle id="shape017" transform="matrix(-2.31387604854075 0 0 2.31387604854075 1833.5839518177 367.837447052586)" r="3.54045602673051" cx="3.54045602673051" cy="3.54045602673051" fill="#ffffff" fill-rule="evenodd" stroke="#000000" stroke-opacity="0" stroke-width="0" stroke-linecap="square" stroke-linejoin="bevel"/><circle id="shape018" transform="matrix(-2.31387604325072 0 0 2.31387604325072 1704.15671243898 400.112930945571)" r="3.54045602673051" cx="3.54045602673051" cy="3.54045602673051" fill="#ffffff" fill-rule="evenodd" stroke="#000000" stroke-opacity="0" stroke-width="0" stroke-linecap="square" stroke-linejoin="bevel"/><circle id="shape019" transform="matrix(-2.31387605026699 0 0 2.31387605026699 1743.48101232876 307.880713767955)" r="3.54045602673051" cx="3.54045602673051" cy="3.54045602673051" fill="#ffffff" fill-rule="evenodd" stroke="#000000" stroke-opacity="0" stroke-width="0" stroke-linecap="square" stroke-linejoin="bevel"/><circle id="shape020" transform="matrix(-2.31387596921388 0 0 2.31387596921388 1641.22420693515 315.529243982196)" r="3.54045602673051" cx="3.54045602673051" cy="3.54045602673051" fill="#ffffff" fill-rule="evenodd" stroke="#000000" stroke-opacity="0" stroke-width="0" stroke-linecap="square" stroke-linejoin="bevel"/><circle id="shape021" transform="matrix(-2.31387598471261 0 0 2.31387598471261 1588.66097905255 386.771019760206)" r="3.54045602673051" cx="3.54045602673051" cy="3.54045602673051" fill="#ffffff" fill-rule="evenodd" stroke="#000000" stroke-opacity="0" stroke-width="0" stroke-linecap="square" stroke-linejoin="bevel"/><circle id="shape022" transform="matrix(-2.31387597641859 0 0 2.31387597641859 1493.64124501072 299.716480410972)" r="3.54045602673051" cx="3.54045602673051" cy="3.54045602673051" fill="#ffffff" fill-rule="evenodd" stroke="#000000" stroke-opacity="0" stroke-width="0" stroke-linecap="square" stroke-linejoin="bevel"/><circle id="shape023" transform="matrix(-2.31387592317042 0 0 2.31387592317042 1477.39846467042 368.863793295259)" r="3.54045602673051" cx="3.54045602673051" cy="3.54045602673051" fill="#ffffff" fill-rule="evenodd" stroke="#000000" stroke-opacity="0" stroke-width="0" stroke-linecap="square" stroke-linejoin="bevel"/><circle id="shape024" transform="matrix(-2.31387592900342 0 0 2.31387592900341 1433.23907226142 325.847689984705)" r="3.54045602673051" cx="3.54045602673051" cy="3.54045602673051" fill="#ffffff" fill-rule="evenodd" stroke="#000000" stroke-opacity="0" stroke-width="0" stroke-linecap="square" stroke-linejoin="bevel"/><circle id="shape025" transform="matrix(-2.31387585397755 0 0 2.31387585397755 1357.00579339457 297.567138773087)" r="3.54045602673051" cx="3.54045602673051" cy="3.54045602673051" fill="#ffffff" fill-rule="evenodd" stroke="#000000" stroke-opacity="0" stroke-width="0" stroke-linecap="square" stroke-linejoin="bevel"/><circle id="shape026" transform="matrix(-2.31387575225865 0 0 2.31387575225865 1351.95038253235 354.597504211807)" r="3.54045602673051" cx="3.54045602673051" cy="3.54045602673051" fill="#ffffff" fill-rule="evenodd" stroke="#000000" stroke-opacity="0" stroke-width="0" stroke-linecap="square" stroke-linejoin="bevel"/><circle id="shape027" transform="matrix(-2.31387565978162 0 0 2.31387565978162 1274.58823530932 316.728900210869)" r="3.54045602673051" cx="3.54045602673051" cy="3.54045602673051" fill="#ffffff" fill-rule="evenodd" stroke="#000000" stroke-opacity="0" stroke-width="0" stroke-linecap="square" stroke-linejoin="bevel"/><circle id="shape028" transform="matrix(-2.31387565978162 0 0 2.31387565978162 1198.87886705617 338.499342368543)" r="3.54045602673051" cx="3.54045602673051" cy="3.54045602673051" fill="#ffffff" fill-rule="evenodd" stroke="#000000" stroke-opacity="0" stroke-width="0" stroke-linecap="square" stroke-linejoin="bevel"/><circle id="shape029" transform="matrix(-2.31387558758167 0 0 2.31387558758167 1195.81067407801 290.59601306802)" r="3.54045602673051" cx="3.54045602673051" cy="3.54045602673051" fill="#ffffff" fill-rule="evenodd" stroke="#000000" stroke-opacity="0" stroke-width="0" stroke-linecap="square" stroke-linejoin="bevel"/><circle id="shape030" transform="matrix(-2.31387556828994 0 0 2.31387556828994 1072.62398627782 362.23421563938)" r="3.54045602673051" cx="3.54045602673051" cy="3.54045602673051" fill="#ffffff" fill-rule="evenodd" stroke="#000000" stroke-opacity="0" stroke-width="0" stroke-linecap="square" stroke-linejoin="bevel"/><circle id="shape031" transform="matrix(-2.31387546955318 0 0 2.31387546955318 1007.9638954942 325.946905305806)" r="3.54045602673051" cx="3.54045602673051" cy="3.54045602673051" fill="#ffffff" fill-rule="evenodd" stroke="#000000" stroke-opacity="0" stroke-width="0" stroke-linecap="square" stroke-linejoin="bevel"/><circle id="shape032" transform="matrix(-2.31387538668342 0 0 2.31387538668341 849.095959517205 329.730950346298)" r="3.54045602673051" cx="3.54045602673051" cy="3.54045602673051" fill="#ffffff" fill-rule="evenodd" stroke="#000000" stroke-opacity="0" stroke-width="0" stroke-linecap="square" stroke-linejoin="bevel"/><circle id="shape033" transform="matrix(-2.31387536150623 0 0 2.31387536150623 776.516714451696 388.496705360534)" r="3.54045602673051" cx="3.54045602673051" cy="3.54045602673051" fill="#ffffff" fill-rule="evenodd" stroke="#000000" stroke-opacity="0" stroke-width="0" stroke-linecap="square" stroke-linejoin="bevel"/><circle id="shape034" transform="matrix(-2.31387532571957 0 0 2.31387532571957 769.135671497434 288.867782857253)" r="3.54045602673051" cx="3.54045602673051" cy="3.54045602673051" fill="#ffffff" fill-rule="evenodd" stroke="#000000" stroke-opacity="0" stroke-width="0" stroke-linecap="square" stroke-linejoin="bevel"/><circle id="shape035" transform="matrix(-2.31387524996665 0 0 2.31387524996665 638.425250674869 296.814162470917)" r="3.54045602673051" cx="3.54045602673051" cy="3.54045602673051" fill="#ffffff" fill-rule="evenodd" stroke="#000000" stroke-opacity="0" stroke-width="0" stroke-linecap="square" stroke-linejoin="bevel"/><circle id="shape036" transform="matrix(-2.31387521351976 0 0 2.31387521351976 614.076956052015 377.703309946706)" r="3.54045602673051" cx="3.54045602673051" cy="3.54045602673051" fill="#ffffff" fill-rule="evenodd" stroke="#000000" stroke-opacity="0" stroke-width="0" stroke-linecap="square" stroke-linejoin="bevel"/><circle id="shape037" transform="matrix(-2.31387517326166 0 0 2.31387517326166 609.651851661454 331.185594320277)" r="3.54045602673051" cx="3.54045602673051" cy="3.54045602673051" fill="#ffffff" fill-rule="evenodd" stroke="#000000" stroke-opacity="0" stroke-width="0" stroke-linecap="square" stroke-linejoin="bevel"/><circle id="shape038" transform="matrix(-2.31387510254419 0 0 2.31387510254419 482.344447535764 336.696381645638)" r="3.54045602673051" cx="3.54045602673051" cy="3.54045602673051" fill="#ffffff" fill-rule="evenodd" stroke="#000000" stroke-opacity="0" stroke-width="0" stroke-linecap="square" stroke-linejoin="bevel"/><circle id="shape039" transform="matrix(-2.31387511371817 0 0 2.31387511371817 494.025893482044 387.723051318873)" r="3.54045602673051" cx="3.54045602673051" cy="3.54045602673051" fill="#ffffff" fill-rule="evenodd" stroke="#000000" stroke-opacity="0" stroke-width="0" stroke-linecap="square" stroke-linejoin="bevel"/><circle id="shape040" transform="matrix(-2.31387509687309 0 0 2.31387509687309 406.905302716799 301.95723337389)" r="3.54045602673051" cx="3.54045602673051" cy="3.54045602673051" fill="#ffffff" fill-rule="evenodd" stroke="#000000" stroke-opacity="0" stroke-width="0" stroke-linecap="square" stroke-linejoin="bevel"/><circle id="shape041" transform="matrix(-2.31387504695408 0 0 2.31387504695408 336.686271119938 356.926902135784)" r="3.54045602673051" cx="3.54045602673051" cy="3.54045602673051" fill="#ffffff" fill-rule="evenodd" stroke="#000000" stroke-opacity="0" stroke-width="0" stroke-linecap="square" stroke-linejoin="bevel"/><circle id="shape042" transform="matrix(-2.31387501329769 0 0 2.31387501329769 321.933571444762 306.403063051362)" r="3.54045602673051" cx="3.54045602673051" cy="3.54045602673051" fill="#ffffff" fill-rule="evenodd" stroke="#000000" stroke-opacity="0" stroke-width="0" stroke-linecap="square" stroke-linejoin="bevel"/><circle id="shape043" transform="matrix(-2.31387511349658 0 0 2.31387511349658 273.216783785367 319.319633533487)" r="3.54045602673051" cx="3.54045602673051" cy="3.54045602673051" fill="#ffffff" fill-rule="evenodd" stroke="#000000" stroke-opacity="0" stroke-width="0" stroke-linecap="square" stroke-linejoin="bevel"/><circle id="shape044" transform="matrix(-2.31387511349658 0 0 2.31387511349658 207.81369170364 297.170538322306)" r="3.54045602673051" cx="3.54045602673051" cy="3.54045602673051" fill="#ffffff" fill-rule="evenodd" stroke="#000000" stroke-opacity="0" stroke-width="0" stroke-linecap="square" stroke-linejoin="bevel"/><circle id="shape045" transform="matrix(-2.31387502465722 0 0 2.31387502465722 83.5548307619051 339.110224833851)" r="3.54045602673051" cx="3.54045602673051" cy="3.54045602673051" fill="#ffffff" fill-rule="evenodd" stroke="#000000" stroke-opacity="0" stroke-width="0" stroke-linecap="square" stroke-linejoin="bevel"/><circle id="shape046" transform="matrix(-2.31387495771522 0 0 2.31387495771522 195.776233168558 399.347096414076)" r="3.54045602673051" cx="3.54045602673051" cy="3.54045602673051" fill="#ffffff" fill-rule="evenodd" stroke="#000000" stroke-opacity="0" stroke-width="0" stroke-linecap="square" stroke-linejoin="bevel"/><circle id="shape047" transform="matrix(-2.31387489399556 0 0 2.31387489399556 254.322736164533 458.414776881569)" r="3.54045602673051" cx="3.54045602673051" cy="3.54045602673051" fill="#ffffff" fill-rule="evenodd" stroke="#000000" stroke-opacity="0" stroke-width="0" stroke-linecap="square" stroke-linejoin="bevel"/><circle id="shape048" transform="matrix(-2.31387480236116 0 0 2.31387480236116 45.7656627332913 329.862593608563)" r="3.54045602673051" cx="3.54045602673051" cy="3.54045602673051" fill="#ffffff" fill-rule="evenodd" stroke="#000000" stroke-opacity="0" stroke-width="0" stroke-linecap="square" stroke-linejoin="bevel"/><circle id="shape049" transform="matrix(-2.31387470819366 0 0 2.31387470819366 117.60817242563 308.585619438939)" r="3.54045602673051" cx="3.54045602673051" cy="3.54045602673051" fill="#ffffff" fill-rule="evenodd" stroke="#000000" stroke-opacity="0" stroke-width="0" stroke-linecap="square" stroke-linejoin="bevel"/><circle id="shape050" transform="matrix(-2.31387470819366 0 0 2.31387470819366 -55.6846235507869 434.417663237146)" r="3.54045602673051" cx="3.54045602673051" cy="3.54045602673051" fill="#ffffff" fill-rule="evenodd" stroke="#000000" stroke-opacity="0" stroke-width="0" stroke-linecap="square" stroke-linejoin="bevel"/><circle id="shape051" transform="matrix(-2.31387466277005 0 0 2.31387466277005 -91.1480849848467 387.432630694377)" r="3.54045602673051" cx="3.54045602673051" cy="3.54045602673051" fill="#ffffff" fill-rule="evenodd" stroke="#000000" stroke-opacity="0" stroke-width="0" stroke-linecap="square" stroke-linejoin="bevel"/><circle id="shape052" transform="matrix(-2.31387464929856 0 0 2.31387464929856 -30.9774927356943 298.478241577322)" r="3.54045602673051" cx="3.54045602673051" cy="3.54045602673051" fill="#ffffff" fill-rule="evenodd" stroke="#000000" stroke-opacity="0" stroke-width="0" stroke-linecap="square" stroke-linejoin="bevel"/><circle id="shape053" transform="matrix(-2.31387461515259 0 0 2.31387461515259 -92.8452272758586 319.857707068032)" r="3.54045602673051" cx="3.54045602673051" cy="3.54045602673051" fill="#ffffff" fill-rule="evenodd" stroke="#000000" stroke-opacity="0" stroke-width="0" stroke-linecap="square" stroke-linejoin="bevel"/><circle id="shape1" transform="matrix(1.5781853234388 0 0 1.5781853234388 158.34248998732 404.799257406077)" r="12.5" cx="12.5" cy="12.5" fill="#ffffff" fill-rule="evenodd" stroke="#000000" stroke-opacity="0" stroke-width="0" stroke-linecap="square" stroke-linejoin="bevel"/><circle id="shape054" transform="matrix(1.5781853234388 0 0 1.5781853234388 328.733009421172 518.890902210541)" r="12.5" cx="12.5" cy="12.5" fill="#ffffff" fill-rule="evenodd" stroke="#000000" stroke-opacity="0" stroke-width="0" stroke-linecap="square" stroke-linejoin="bevel"/><circle id="shape057" transform="matrix(1.57818530993025 0 0 1.57818530993025 1064.8746922012 422.060401037931)" r="12.5" cx="12.5" cy="12.5" fill="#ffffff" fill-rule="evenodd" stroke="#000000" stroke-opacity="0" stroke-width="0" stroke-linecap="square" stroke-linejoin="bevel"/><circle id="shape058" transform="matrix(1.57818530758898 0 0 1.57818530758898 1444.7804587992 437.492502431092)" r="12.5" cx="12.5" cy="12.5" fill="#ffffff" fill-rule="evenodd" stroke="#000000" stroke-opacity="0" stroke-width="0" stroke-linecap="square" stroke-linejoin="bevel"/><circle id="shape060" transform="matrix(1.57818531772331 0 0 1.5781853177233 1746.94340779395 244.787348475416)" r="12.5" cx="12.5" cy="12.5" fill="#ffffff" fill-rule="evenodd" stroke="#000000" stroke-opacity="0" stroke-width="0" stroke-linecap="square" stroke-linejoin="bevel"/><circle id="shape061" transform="matrix(1.57818515048331 0 0 1.57818515048331 -82.013551308848 199.289154591582)" r="7.43881879643806" cx="7.43881879643806" cy="7.43881879643806" fill="#ffffff" fill-rule="evenodd" stroke="#000000" stroke-opacity="0" stroke-width="0" stroke-linecap="square" stroke-linejoin="bevel"/><circle id="shape062" transform="matrix(1.57818518094837 0 0 1.57818518094837 18.0408794273439 291.991645256248)" r="7.43881879643806" cx="7.43881879643806" cy="7.43881879643806" fill="#ffffff" fill-rule="evenodd" stroke="#000000" stroke-opacity="0" stroke-width="0" stroke-linecap="square" stroke-linejoin="bevel"/><circle id="shape063" transform="matrix(1.57818517759372 0 0 1.57818517759372 107.756592196224 214.135121215191)" r="7.43881879643806" cx="7.43881879643806" cy="7.43881879643806" fill="#ffffff" fill-rule="evenodd" stroke="#000000" stroke-opacity="0" stroke-width="0" stroke-linecap="square" stroke-linejoin="bevel"/><circle id="shape064" transform="matrix(1.57818515577398 0 0 1.57818515577398 206.175785241893 326.789625025025)" r="7.43881879643806" cx="7.43881879643806" cy="7.43881879643806" fill="#ffffff" fill-rule="evenodd" stroke="#000000" stroke-opacity="0" stroke-width="0" stroke-linecap="square" stroke-linejoin="bevel"/><circle id="shape065" transform="matrix(1.57818511308027 0 0 1.57818511308027 382.490705248039 219.885918884204)" r="7.43881879643806" cx="7.43881879643806" cy="7.43881879643806" fill="#ffffff" fill-rule="evenodd" stroke="#000000" stroke-opacity="0" stroke-width="0" stroke-linecap="square" stroke-linejoin="bevel"/><circle id="shape066" transform="matrix(1.57818506784474 0 0 1.57818506784474 474.454638697585 336.038763804619)" r="7.43881879643806" cx="7.43881879643806" cy="7.43881879643806" fill="#ffffff" fill-rule="evenodd" stroke="#000000" stroke-opacity="0" stroke-width="0" stroke-linecap="square" stroke-linejoin="bevel"/><circle id="shape067" transform="matrix(1.57818502568522 0 0 1.57818502568522 670.254794995212 207.230346814955)" r="7.43881879643806" cx="7.43881879643806" cy="7.43881879643806" fill="#ffffff" fill-rule="evenodd" stroke="#000000" stroke-opacity="0" stroke-width="0" stroke-linecap="square" stroke-linejoin="bevel"/><circle id="shape068" transform="matrix(1.5781849780465 0 0 1.5781849780465 771.817975424086 428.321609310707)" r="7.43881879643806" cx="7.43881879643806" cy="7.43881879643806" fill="#ffffff" fill-rule="evenodd" stroke="#000000" stroke-opacity="0" stroke-width="0" stroke-linecap="square" stroke-linejoin="bevel"/><circle id="shape069" transform="matrix(1.57818499999336 0 0 1.57818499999336 781.340999169643 312.540110700201)" r="7.43881879643806" cx="7.43881879643806" cy="7.43881879643806" fill="#ffffff" fill-rule="evenodd" stroke="#000000" stroke-opacity="0" stroke-width="0" stroke-linecap="square" stroke-linejoin="bevel"/><circle id="shape070" transform="matrix(1.57818496637921 0 0 1.57818496637921 980.629007689674 395.583617886333)" r="7.43881879643806" cx="7.43881879643806" cy="7.43881879643806" fill="#ffffff" fill-rule="evenodd" stroke="#000000" stroke-opacity="0" stroke-width="0" stroke-linecap="square" stroke-linejoin="bevel"/><circle id="shape071" transform="matrix(1.57818494802986 0 0 1.57818494802986 972.831961005162 231.124355719842)" r="7.43881879643806" cx="7.43881879643806" cy="7.43881879643806" fill="#ffffff" fill-rule="evenodd" stroke="#000000" stroke-opacity="0" stroke-width="0" stroke-linecap="square" stroke-linejoin="bevel"/><circle id="shape072" transform="matrix(1.57818499834259 0 0 1.57818499834259 1155.57675952514 327.545175013346)" r="7.43881879643806" cx="7.43881879643806" cy="7.43881879643806" fill="#ffffff" fill-rule="evenodd" stroke="#000000" stroke-opacity="0" stroke-width="0" stroke-linecap="square" stroke-linejoin="bevel"/><circle id="shape073" transform="matrix(1.57818495997215 0 0 1.57818495997215 1152.79032416513 229.464396305766)" r="7.43881879643806" cx="7.43881879643806" cy="7.43881879643806" fill="#ffffff" fill-rule="evenodd" stroke="#000000" stroke-opacity="0" stroke-width="0" stroke-linecap="square" stroke-linejoin="bevel"/><circle id="shape074" transform="matrix(1.57818495997215 0 0 1.57818495997215 1280.96981159146 428.725597474503)" r="7.43881879643806" cx="7.43881879643806" cy="7.43881879643806" fill="#ffffff" fill-rule="evenodd" stroke="#000000" stroke-opacity="0" stroke-width="0" stroke-linecap="square" stroke-linejoin="bevel"/><circle id="shape075" transform="matrix(1.57818500146835 0 0 1.57818500146834 1413.19918006512 309.236299245412)" r="7.43881879643806" cx="7.43881879643806" cy="7.43881879643806" fill="#ffffff" fill-rule="evenodd" stroke="#000000" stroke-opacity="0" stroke-width="0" stroke-linecap="square" stroke-linejoin="bevel"/><circle id="shape076" transform="matrix(1.57818495062966 0 0 1.57818495062966 1547.2841289187 216.867376885091)" r="7.43881879643806" cx="7.43881879643806" cy="7.43881879643806" fill="#ffffff" fill-rule="evenodd" stroke="#000000" stroke-opacity="0" stroke-width="0" stroke-linecap="square" stroke-linejoin="bevel"/><circle id="shape077" transform="matrix(1.57818493418227 0 0 1.57818493418227 1677.9537861995 382.635032147235)" r="7.43881879643806" cx="7.43881879643806" cy="7.43881879643806" fill="#ffffff" fill-rule="evenodd" stroke="#000000" stroke-opacity="0" stroke-width="0" stroke-linecap="square" stroke-linejoin="bevel"/><circle id="shape078" transform="matrix(1.57818492289773 0 0 1.57818492289773 1836.09770410612 308.347540768394)" r="7.43881879643806" cx="7.43881879643806" cy="7.43881879643806" fill="#ffffff" fill-rule="evenodd" stroke="#000000" stroke-opacity="0" stroke-width="0" stroke-linecap="square" stroke-linejoin="bevel"/><circle id="shape079" transform="matrix(1.57818473421784 0 0 1.57818473421784 1755.69711189088 510.138622286853)" r="7.43881879643806" cx="7.43881879643806" cy="7.43881879643806" fill="#ffffff" fill-rule="evenodd" stroke="#000000" stroke-opacity="0" stroke-width="0" stroke-linecap="square" stroke-linejoin="bevel"/><circle id="shape080" transform="matrix(1.57818495774534 0 0 1.57818495774534 -114.646891229403 199.28957733162)" r="3.54045602673051" cx="3.54045602673051" cy="3.54045602673051" fill="#ffffff" fill-rule="evenodd" stroke="#000000" stroke-opacity="0" stroke-width="0" stroke-linecap="square" stroke-linejoin="bevel"/><circle id="shape081" transform="matrix(1.57818492022136 0 0 1.57818492022136 -81.638554516649 251.358097927791)" r="3.54045602673051" cx="3.54045602673051" cy="3.54045602673051" fill="#ffffff" fill-rule="evenodd" stroke="#000000" stroke-opacity="0" stroke-width="0" stroke-linecap="square" stroke-linejoin="bevel"/><circle id="shape082" transform="matrix(1.57818489247577 0 0 1.57818489247577 -36.0288258212145 216.568774299699)" r="3.54045602673051" cx="3.54045602673051" cy="3.54045602673051" fill="#ffffff" fill-rule="evenodd" stroke="#000000" stroke-opacity="0" stroke-width="0" stroke-linecap="square" stroke-linejoin="bevel"/><circle id="shape083" transform="matrix(1.57818481454312 0 0 1.57818481454312 -11.325355148459 257.793562814979)" r="3.54045602673051" cx="3.54045602673051" cy="3.54045602673051" fill="#ffffff" fill-rule="evenodd" stroke="#000000" stroke-opacity="0" stroke-width="0" stroke-linecap="square" stroke-linejoin="bevel"/><circle id="shape084" transform="matrix(1.57818479695466 0 0 1.57818479695466 18.504699816544 211.380729646267)" r="3.54045602673051" cx="3.54045602673051" cy="3.54045602673051" fill="#ffffff" fill-rule="evenodd" stroke="#000000" stroke-opacity="0" stroke-width="0" stroke-linecap="square" stroke-linejoin="bevel"/><circle id="shape085" transform="matrix(1.57818480198347 0 0 1.57818480198347 74.7489735748504 210.61002439194)" r="3.54045602673051" cx="3.54045602673051" cy="3.54045602673051" fill="#ffffff" fill-rule="evenodd" stroke="#000000" stroke-opacity="0" stroke-width="0" stroke-linecap="square" stroke-linejoin="bevel"/><circle id="shape086" transform="matrix(1.57818477157517 0 0 1.57818477157517 98.0226243449365 254.392123188167)" r="3.54045602673051" cx="3.54045602673051" cy="3.54045602673051" fill="#ffffff" fill-rule="evenodd" stroke="#000000" stroke-opacity="0" stroke-width="0" stroke-linecap="square" stroke-linejoin="bevel"/><circle id="shape087" transform="matrix(1.57818478421385 0 0 1.57818478421385 172.933026397823 212.894213343333)" r="3.54045602673051" cx="3.54045602673051" cy="3.54045602673051" fill="#ffffff" fill-rule="evenodd" stroke="#000000" stroke-opacity="0" stroke-width="0" stroke-linecap="square" stroke-linejoin="bevel"/><circle id="shape088" transform="matrix(1.57818472144664 0 0 1.57818472144664 208.955224614257 245.1175902747)" r="3.54045602673051" cx="3.54045602673051" cy="3.54045602673051" fill="#ffffff" fill-rule="evenodd" stroke="#000000" stroke-opacity="0" stroke-width="0" stroke-linecap="square" stroke-linejoin="bevel"/><circle id="shape089" transform="matrix(1.57818471783856 0 0 1.57818471783856 297.231384374559 267.131161653915)" r="3.54045602673051" cx="3.54045602673051" cy="3.54045602673051" fill="#ffffff" fill-rule="evenodd" stroke="#000000" stroke-opacity="0" stroke-width="0" stroke-linecap="square" stroke-linejoin="bevel"/><circle id="shape090" transform="matrix(1.57818472262403 0 0 1.57818472262403 270.410151099428 204.223956202412)" r="3.54045602673051" cx="3.54045602673051" cy="3.54045602673051" fill="#ffffff" fill-rule="evenodd" stroke="#000000" stroke-opacity="0" stroke-width="0" stroke-linecap="square" stroke-linejoin="bevel"/><circle id="shape091" transform="matrix(1.57818466734155 0 0 1.57818466734155 340.154651042688 209.44065462204)" r="3.54045602673051" cx="3.54045602673051" cy="3.54045602673051" fill="#ffffff" fill-rule="evenodd" stroke="#000000" stroke-opacity="0" stroke-width="0" stroke-linecap="square" stroke-linejoin="bevel"/><circle id="shape092" transform="matrix(1.57818467791251 0 0 1.57818467791251 376.005526981589 258.03127905609)" r="3.54045602673051" cx="3.54045602673051" cy="3.54045602673051" fill="#ffffff" fill-rule="evenodd" stroke="#000000" stroke-opacity="0" stroke-width="0" stroke-linecap="square" stroke-linejoin="bevel"/><circle id="shape093" transform="matrix(1.57818467225555 0 0 1.57818467225555 440.813965011489 198.655521214531)" r="3.54045602673051" cx="3.54045602673051" cy="3.54045602673051" fill="#ffffff" fill-rule="evenodd" stroke="#000000" stroke-opacity="0" stroke-width="0" stroke-linecap="square" stroke-linejoin="bevel"/><circle id="shape094" transform="matrix(1.57818463593751 0 0 1.57818463593751 451.892392390113 245.817612196844)" r="3.54045602673051" cx="3.54045602673051" cy="3.54045602673051" fill="#ffffff" fill-rule="evenodd" stroke="#000000" stroke-opacity="0" stroke-width="0" stroke-linecap="square" stroke-linejoin="bevel"/><circle id="shape095" transform="matrix(1.57818463991591 0 0 1.57818463991591 482.011412141487 216.478375523514)" r="3.54045602673051" cx="3.54045602673051" cy="3.54045602673051" fill="#ffffff" fill-rule="evenodd" stroke="#000000" stroke-opacity="0" stroke-width="0" stroke-linecap="square" stroke-linejoin="bevel"/><circle id="shape096" transform="matrix(1.57818458874433 0 0 1.57818458874433 534.006503256812 197.189557583411)" r="3.54045602673051" cx="3.54045602673051" cy="3.54045602673051" fill="#ffffff" fill-rule="evenodd" stroke="#000000" stroke-opacity="0" stroke-width="0" stroke-linecap="square" stroke-linejoin="bevel"/><circle id="shape097" transform="matrix(1.57818451936672 0 0 1.57818451936672 537.45455838856 236.087255431431)" r="3.54045602673051" cx="3.54045602673051" cy="3.54045602673051" fill="#ffffff" fill-rule="evenodd" stroke="#000000" stroke-opacity="0" stroke-width="0" stroke-linecap="square" stroke-linejoin="bevel"/><circle id="shape098" transform="matrix(1.57818445629255 0 0 1.57818445629255 590.219596880006 210.25888303677)" r="3.54045602673051" cx="3.54045602673051" cy="3.54045602673051" fill="#ffffff" fill-rule="evenodd" stroke="#000000" stroke-opacity="0" stroke-width="0" stroke-linecap="square" stroke-linejoin="bevel"/><circle id="shape099" transform="matrix(1.57818445629255 0 0 1.57818445629254 641.857353501785 225.107465446381)" r="3.54045602673051" cx="3.54045602673051" cy="3.54045602673051" fill="#ffffff" fill-rule="evenodd" stroke="#000000" stroke-opacity="0" stroke-width="0" stroke-linecap="square" stroke-linejoin="bevel"/><circle id="shape0100" transform="matrix(1.5781844070484 0 0 1.5781844070484 643.950021898451 192.43488453774)" r="3.54045602673051" cx="3.54045602673051" cy="3.54045602673051" fill="#ffffff" fill-rule="evenodd" stroke="#000000" stroke-opacity="0" stroke-width="0" stroke-linecap="square" stroke-linejoin="bevel"/><circle id="shape0101" transform="matrix(1.57818439389042 0 0 1.57818439389042 727.969798452371 241.2958928192)" r="3.54045602673051" cx="3.54045602673051" cy="3.54045602673051" fill="#ffffff" fill-rule="evenodd" stroke="#000000" stroke-opacity="0" stroke-width="0" stroke-linecap="square" stroke-linejoin="bevel"/><circle id="shape0102" transform="matrix(1.57818432654678 0 0 1.57818432654678 772.071368813686 216.546045571784)" r="3.54045602673051" cx="3.54045602673051" cy="3.54045602673051" fill="#ffffff" fill-rule="evenodd" stroke="#000000" stroke-opacity="0" stroke-width="0" stroke-linecap="square" stroke-linejoin="bevel"/><circle id="shape0103" transform="matrix(1.57818427002526 0 0 1.57818427002525 880.427626464033 219.126962588463)" r="3.54045602673051" cx="3.54045602673051" cy="3.54045602673051" fill="#ffffff" fill-rule="evenodd" stroke="#000000" stroke-opacity="0" stroke-width="0" stroke-linecap="square" stroke-linejoin="bevel"/><circle id="shape0104" transform="matrix(1.57818425285309 0 0 1.57818425285309 929.930475040879 259.208287068327)" r="3.54045602673051" cx="3.54045602673051" cy="3.54045602673051" fill="#ffffff" fill-rule="evenodd" stroke="#000000" stroke-opacity="0" stroke-width="0" stroke-linecap="square" stroke-linejoin="bevel"/><circle id="shape0105" transform="matrix(1.57818422844471 0 0 1.57818422844471 934.964733131811 191.256140967835)" r="3.54045602673051" cx="3.54045602673051" cy="3.54045602673051" fill="#ffffff" fill-rule="evenodd" stroke="#000000" stroke-opacity="0" stroke-width="0" stroke-linecap="square" stroke-linejoin="bevel"/><circle id="shape0106" transform="matrix(1.57818417677726 0 0 1.57818417677726 1024.11608988064 196.675988286367)" r="3.54045602673051" cx="3.54045602673051" cy="3.54045602673051" fill="#ffffff" fill-rule="evenodd" stroke="#000000" stroke-opacity="0" stroke-width="0" stroke-linecap="square" stroke-linejoin="bevel"/><circle id="shape0107" transform="matrix(1.57818415191856 0 0 1.57818415191856 1040.72290276126 251.846625779088)" r="3.54045602673051" cx="3.54045602673051" cy="3.54045602673051" fill="#ffffff" fill-rule="evenodd" stroke="#000000" stroke-opacity="0" stroke-width="0" stroke-linecap="square" stroke-linejoin="bevel"/><circle id="shape0108" transform="matrix(1.57818412446044 0 0 1.57818412446044 1043.74105584876 220.119106007871)" r="3.54045602673051" cx="3.54045602673051" cy="3.54045602673051" fill="#ffffff" fill-rule="evenodd" stroke="#000000" stroke-opacity="0" stroke-width="0" stroke-linecap="square" stroke-linejoin="bevel"/><circle id="shape0109" transform="matrix(1.57818407622742 0 0 1.57818407622742 1130.57137687866 223.87775175102)" r="3.54045602673051" cx="3.54045602673051" cy="3.54045602673051" fill="#ffffff" fill-rule="evenodd" stroke="#000000" stroke-opacity="0" stroke-width="0" stroke-linecap="square" stroke-linejoin="bevel"/><circle id="shape0110" transform="matrix(1.57818408384864 0 0 1.57818408384864 1122.6040185889 258.680614469353)" r="3.54045602673051" cx="3.54045602673051" cy="3.54045602673051" fill="#ffffff" fill-rule="evenodd" stroke="#000000" stroke-opacity="0" stroke-width="0" stroke-linecap="square" stroke-linejoin="bevel"/><circle id="shape0111" transform="matrix(1.57818407235942 0 0 1.57818407235942 1182.02482695753 200.183832159643)" r="3.54045602673051" cx="3.54045602673051" cy="3.54045602673051" fill="#ffffff" fill-rule="evenodd" stroke="#000000" stroke-opacity="0" stroke-width="0" stroke-linecap="square" stroke-linejoin="bevel"/><circle id="shape0112" transform="matrix(1.57818403831204 0 0 1.57818403831204 1229.91788626415 237.676026885333)" r="3.54045602673051" cx="3.54045602673051" cy="3.54045602673051" fill="#ffffff" fill-rule="evenodd" stroke="#000000" stroke-opacity="0" stroke-width="0" stroke-linecap="square" stroke-linejoin="bevel"/><circle id="shape0113" transform="matrix(1.57818401535662 0 0 1.57818401535662 1239.98000054299 203.216120978899)" r="3.54045602673051" cx="3.54045602673051" cy="3.54045602673051" fill="#ffffff" fill-rule="evenodd" stroke="#000000" stroke-opacity="0" stroke-width="0" stroke-linecap="square" stroke-linejoin="bevel"/><circle id="shape0114" transform="matrix(1.57818408369752 0 0 1.5781840836975 1273.20740268085 212.025898927565)" r="3.54045602673051" cx="3.54045602673051" cy="3.54045602673051" fill="#ffffff" fill-rule="evenodd" stroke="#000000" stroke-opacity="0" stroke-width="0" stroke-linecap="square" stroke-linejoin="bevel"/><circle id="shape0115" transform="matrix(1.57818408369752 0 0 1.5781840836975 1317.81573886368 196.919055292532)" r="3.54045602673051" cx="3.54045602673051" cy="3.54045602673051" fill="#ffffff" fill-rule="evenodd" stroke="#000000" stroke-opacity="0" stroke-width="0" stroke-linecap="square" stroke-linejoin="bevel"/><circle id="shape0116" transform="matrix(1.57818402310442 0 0 1.57818402310442 1402.5667936863 225.5241193004)" r="3.54045602673051" cx="3.54045602673051" cy="3.54045602673051" fill="#ffffff" fill-rule="evenodd" stroke="#000000" stroke-opacity="0" stroke-width="0" stroke-linecap="square" stroke-linejoin="bevel"/><circle id="shape0117" transform="matrix(1.57818397744646 0 0 1.57818397744646 1326.0259163955 266.608822370647)" r="3.54045602673051" cx="3.54045602673051" cy="3.54045602673051" fill="#ffffff" fill-rule="evenodd" stroke="#000000" stroke-opacity="0" stroke-width="0" stroke-linecap="square" stroke-linejoin="bevel"/><circle id="shape0118" transform="matrix(1.57818393398632 0 0 1.57818393398632 1286.09413328177 306.896075831731)" r="3.54045602673051" cx="3.54045602673051" cy="3.54045602673051" fill="#ffffff" fill-rule="evenodd" stroke="#000000" stroke-opacity="0" stroke-width="0" stroke-linecap="square" stroke-linejoin="bevel"/><circle id="shape0119" transform="matrix(1.57818387148685 0 0 1.57818387148685 1428.34098658508 219.216750191961)" r="3.54045602673051" cx="3.54045602673051" cy="3.54045602673051" fill="#ffffff" fill-rule="evenodd" stroke="#000000" stroke-opacity="0" stroke-width="0" stroke-linecap="square" stroke-linejoin="bevel"/><circle id="shape0120" transform="matrix(1.57818380725968 0 0 1.57818380725968 1379.34063014061 204.704738809895)" r="3.54045602673051" cx="3.54045602673051" cy="3.54045602673051" fill="#ffffff" fill-rule="evenodd" stroke="#000000" stroke-opacity="0" stroke-width="0" stroke-linecap="square" stroke-linejoin="bevel"/><circle id="shape0121" transform="matrix(1.57818380725968 0 0 1.57818380725968 1497.53539823081 290.528786781683)" r="3.54045602673051" cx="3.54045602673051" cy="3.54045602673051" fill="#ffffff" fill-rule="evenodd" stroke="#000000" stroke-opacity="0" stroke-width="0" stroke-linecap="square" stroke-linejoin="bevel"/><circle id="shape0122" transform="matrix(1.5781837762784 0 0 1.5781837762784 1521.72333735578 258.482532384247)" r="3.54045602673051" cx="3.54045602673051" cy="3.54045602673051" fill="#ffffff" fill-rule="evenodd" stroke="#000000" stroke-opacity="0" stroke-width="0" stroke-linecap="square" stroke-linejoin="bevel"/><circle id="shape0123" transform="matrix(1.57818376709014 0 0 1.57818376709014 1480.68384026262 197.810977441324)" r="3.54045602673051" cx="3.54045602673051" cy="3.54045602673051" fill="#ffffff" fill-rule="evenodd" stroke="#000000" stroke-opacity="0" stroke-width="0" stroke-linecap="square" stroke-linejoin="bevel"/><circle id="shape0124" transform="matrix(1.5781837438008 0 0 1.5781837438008 1522.88087733528 212.392893275326)" r="3.54045602673051" cx="3.54045602673051" cy="3.54045602673051" fill="#ffffff" fill-rule="evenodd" stroke="#000000" stroke-opacity="0" stroke-width="0" stroke-linecap="square" stroke-linejoin="bevel"/><circle id="shape0125" transform="matrix(1.57818377552558 0 0 1.57818377552558 1595.70499134054 214.898384586586)" r="3.54045602673051" cx="3.54045602673051" cy="3.54045602673051" fill="#ffffff" fill-rule="evenodd" stroke="#000000" stroke-opacity="0" stroke-width="0" stroke-linecap="square" stroke-linejoin="bevel"/><circle id="shape0126" transform="matrix(1.57818375808743 0 0 1.57818375808743 1631.51107216687 238.465197321394)" r="3.54045602673051" cx="3.54045602673051" cy="3.54045602673051" fill="#ffffff" fill-rule="evenodd" stroke="#000000" stroke-opacity="0" stroke-width="0" stroke-linecap="square" stroke-linejoin="bevel"/><circle id="shape0127" transform="matrix(1.57818371168476 0 0 1.57818371168476 1656.27690026512 207.605659698589)" r="3.54045602673051" cx="3.54045602673051" cy="3.54045602673051" fill="#ffffff" fill-rule="evenodd" stroke="#000000" stroke-opacity="0" stroke-width="0" stroke-linecap="square" stroke-linejoin="bevel"/><circle id="shape0128" transform="matrix(1.57818371395048 0 0 1.57818371395048 1699.7821822036 210.001022037422)" r="3.54045602673051" cx="3.54045602673051" cy="3.54045602673051" fill="#ffffff" fill-rule="evenodd" stroke="#000000" stroke-opacity="0" stroke-width="0" stroke-linecap="square" stroke-linejoin="bevel"/><circle id="shape0129" transform="matrix(1.5781836577763 0 0 1.5781836577763 1729.73696987288 228.587130369641)" r="3.54045602673051" cx="3.54045602673051" cy="3.54045602673051" fill="#ffffff" fill-rule="evenodd" stroke="#000000" stroke-opacity="0" stroke-width="0" stroke-linecap="square" stroke-linejoin="bevel"/><circle id="shape0130" transform="matrix(1.57818362453176 0 0 1.57818362453176 1806.37447770692 205.157819127971)" r="3.54045602673051" cx="3.54045602673051" cy="3.54045602673051" fill="#ffffff" fill-rule="evenodd" stroke="#000000" stroke-opacity="0" stroke-width="0" stroke-linecap="square" stroke-linejoin="bevel"/><circle id="shape0131" transform="matrix(1.57818366200853 0 0 1.57818366200853 1832.9712071941 243.780150385878)" r="3.54045602673051" cx="3.54045602673051" cy="3.54045602673051" fill="#ffffff" fill-rule="evenodd" stroke="#000000" stroke-opacity="0" stroke-width="0" stroke-linecap="square" stroke-linejoin="bevel"/><circle id="shape2" transform="matrix(0.833026289822312 0 0 0.833026289822312 326.552218056572 221.075893398031)" r="12.5" cx="12.5" cy="12.5" fill="#ffffff" fill-rule="evenodd" stroke="#000000" stroke-opacity="0" stroke-width="0" stroke-linecap="square" stroke-linejoin="bevel"/><circle id="shape0132" transform="matrix(0.833026289822312 0 0 0.833026289822312 416.490820397388 281.297806604077)" r="12.5" cx="12.5" cy="12.5" fill="#ffffff" fill-rule="evenodd" stroke="#000000" stroke-opacity="0" stroke-width="0" stroke-linecap="square" stroke-linejoin="bevel"/><circle id="shape0133" transform="matrix(0.833026284356966 0 0 0.833026284356966 587.750061063835 232.825408613392)" r="12.5" cx="12.5" cy="12.5" fill="#ffffff" fill-rule="evenodd" stroke="#000000" stroke-opacity="0" stroke-width="0" stroke-linecap="square" stroke-linejoin="bevel"/><circle id="shape0134" transform="matrix(0.833026304566911 0 0 0.833026304566911 648.565813274165 342.056797305456)" r="12.5" cx="12.5" cy="12.5" fill="#ffffff" fill-rule="evenodd" stroke="#000000" stroke-opacity="0" stroke-width="0" stroke-linecap="square" stroke-linejoin="bevel"/><circle id="shape0135" transform="matrix(0.83302628269198 0 0 0.83302628269198 805.054422961885 230.186982079557)" r="12.5" cx="12.5" cy="12.5" fill="#ffffff" fill-rule="evenodd" stroke="#000000" stroke-opacity="0" stroke-width="0" stroke-linecap="square" stroke-linejoin="bevel"/><circle id="shape0136" transform="matrix(0.833026281456173 0 0 0.833026281456173 1003.86231728462 247.127991083358)" r="12.5" cx="12.5" cy="12.5" fill="#ffffff" fill-rule="evenodd" stroke="#000000" stroke-opacity="0" stroke-width="0" stroke-linecap="square" stroke-linejoin="bevel"/><circle id="shape0137" transform="matrix(0.833026272511917 0 0 0.833026272511917 1167.78703908577 323.935083286467)" r="12.5" cx="12.5" cy="12.5" fill="#ffffff" fill-rule="evenodd" stroke="#000000" stroke-opacity="0" stroke-width="0" stroke-linecap="square" stroke-linejoin="bevel"/><circle id="shape0138" transform="matrix(0.83302628680545 0 0 0.83302628680545 1165.07625507224 136.61551675896)" r="12.5" cx="12.5" cy="12.5" fill="#ffffff" fill-rule="evenodd" stroke="#000000" stroke-opacity="0" stroke-width="0" stroke-linecap="square" stroke-linejoin="bevel"/><circle id="shape0139" transform="matrix(0.833026300898414 0 0 0.833026300898414 1365.9003927768 212.679535075732)" r="12.5" cx="12.5" cy="12.5" fill="#ffffff" fill-rule="evenodd" stroke="#000000" stroke-opacity="0" stroke-width="0" stroke-linecap="square" stroke-linejoin="bevel"/><circle id="shape0140" transform="matrix(0.833026272116518 0 0 0.833026272116518 1531.08775606071 132.89861827872)" r="12.5" cx="12.5" cy="12.5" fill="#ffffff" fill-rule="evenodd" stroke="#000000" stroke-opacity="0" stroke-width="0" stroke-linecap="square" stroke-linejoin="bevel"/><circle id="shape0141" transform="matrix(0.833026269581037 0 0 0.833026269581037 1614.01306724745 323.673619139399)" r="12.5" cx="12.5" cy="12.5" fill="#ffffff" fill-rule="evenodd" stroke="#000000" stroke-opacity="0" stroke-width="0" stroke-linecap="square" stroke-linejoin="bevel"/><circle id="shape0142" transform="matrix(0.833026289822312 0 0 0.833026289822312 115.475614651954 159.942997021792)" r="12.5" cx="12.5" cy="12.5" fill="#ffffff" fill-rule="evenodd" stroke="#000000" stroke-opacity="0" stroke-width="0" stroke-linecap="square" stroke-linejoin="bevel"/><circle id="shape0143" transform="matrix(0.833026261153641 0 0 0.833026261153641 36.3557403105346 259.427751869597)" r="12.5" cx="12.5" cy="12.5" fill="#ffffff" fill-rule="evenodd" stroke="#000000" stroke-opacity="0" stroke-width="0" stroke-linecap="square" stroke-linejoin="bevel"/><circle id="shape0144" transform="matrix(0.833026230160816 0 0 0.833026230160816 92.3407924150456 227.21555030282)" r="7.43881879643806" cx="7.43881879643806" cy="7.43881879643806" fill="#ffffff" fill-rule="evenodd" stroke="#000000" stroke-opacity="0" stroke-width="0" stroke-linecap="square" stroke-linejoin="bevel"/><circle id="shape0145" transform="matrix(0.833026221806579 0 0 0.833026221806579 152.141129095437 183.991513694434)" r="7.43881879643806" cx="7.43881879643806" cy="7.43881879643806" fill="#ffffff" fill-rule="evenodd" stroke="#000000" stroke-opacity="0" stroke-width="0" stroke-linecap="square" stroke-linejoin="bevel"/><circle id="shape0146" transform="matrix(0.833026205516105 0 0 0.833026205516105 62.7436312540076 152.757716506445)" r="7.43881879643806" cx="7.43881879643806" cy="7.43881879643806" fill="#ffffff" fill-rule="evenodd" stroke="#000000" stroke-opacity="0" stroke-width="0" stroke-linecap="square" stroke-linejoin="bevel"/><circle id="shape0147" transform="matrix(0.833026198529816 0 0 0.833026198529816 199.683149928976 112.599838066625)" r="7.43881879643806" cx="7.43881879643806" cy="7.43881879643806" fill="#ffffff" fill-rule="evenodd" stroke="#000000" stroke-opacity="0" stroke-width="0" stroke-linecap="square" stroke-linejoin="bevel"/><circle id="shape0148" transform="matrix(0.83302621461044 0 0 0.83302621461044 252.495687201116 161.531741505828)" r="7.43881879643806" cx="7.43881879643806" cy="7.43881879643806" fill="#ffffff" fill-rule="evenodd" stroke="#000000" stroke-opacity="0" stroke-width="0" stroke-linecap="square" stroke-linejoin="bevel"/><circle id="shape0149" transform="matrix(0.833026212839721 0 0 0.833026212839721 299.851055570515 120.43610438568)" r="7.43881879643806" cx="7.43881879643806" cy="7.43881879643806" fill="#ffffff" fill-rule="evenodd" stroke="#000000" stroke-opacity="0" stroke-width="0" stroke-linecap="square" stroke-linejoin="bevel"/><circle id="shape0150" transform="matrix(0.833026201322434 0 0 0.833026201322434 351.800452141696 179.899439867724)" r="7.43881879643806" cx="7.43881879643806" cy="7.43881879643806" fill="#ffffff" fill-rule="evenodd" stroke="#000000" stroke-opacity="0" stroke-width="0" stroke-linecap="square" stroke-linejoin="bevel"/><circle id="shape0151" transform="matrix(0.833026178787074 0 0 0.833026178787074 444.866178626214 123.471594308561)" r="7.43881879643806" cx="7.43881879643806" cy="7.43881879643806" fill="#ffffff" fill-rule="evenodd" stroke="#000000" stroke-opacity="0" stroke-width="0" stroke-linecap="square" stroke-linejoin="bevel"/><circle id="shape0152" transform="matrix(0.833026154910037 0 0 0.833026154910037 493.408243452933 184.781487398636)" r="7.43881879643806" cx="7.43881879643806" cy="7.43881879643806" fill="#ffffff" fill-rule="evenodd" stroke="#000000" stroke-opacity="0" stroke-width="0" stroke-linecap="square" stroke-linejoin="bevel"/><circle id="shape0153" transform="matrix(0.833026132656636 0 0 0.833026132656636 596.75901938832 116.791501616117)" r="7.43881879643806" cx="7.43881879643806" cy="7.43881879643806" fill="#ffffff" fill-rule="evenodd" stroke="#000000" stroke-opacity="0" stroke-width="0" stroke-linecap="square" stroke-linejoin="bevel"/><circle id="shape0154" transform="matrix(0.833026107511105 0 0 0.833026107511105 650.367932181191 233.491886148687)" r="7.43881879643806" cx="7.43881879643806" cy="7.43881879643806" fill="#ffffff" fill-rule="evenodd" stroke="#000000" stroke-opacity="0" stroke-width="0" stroke-linecap="square" stroke-linejoin="bevel"/><circle id="shape0155" transform="matrix(0.833026119095494 0 0 0.833026119095494 655.394546623003 172.378003776865)" r="7.43881879643806" cx="7.43881879643806" cy="7.43881879643806" fill="#ffffff" fill-rule="evenodd" stroke="#000000" stroke-opacity="0" stroke-width="0" stroke-linecap="square" stroke-linejoin="bevel"/><circle id="shape0156" transform="matrix(0.833026101352664 0 0 0.833026101352664 760.586343731964 216.21152805167)" r="7.43881879643806" cx="7.43881879643806" cy="7.43881879643806" fill="#ffffff" fill-rule="evenodd" stroke="#000000" stroke-opacity="0" stroke-width="0" stroke-linecap="square" stroke-linejoin="bevel"/><circle id="shape0157" transform="matrix(0.833026091667183 0 0 0.833026091667183 756.470765685007 129.403669079219)" r="7.43881879643806" cx="7.43881879643806" cy="7.43881879643806" fill="#ffffff" fill-rule="evenodd" stroke="#000000" stroke-opacity="0" stroke-width="0" stroke-linecap="square" stroke-linejoin="bevel"/><circle id="shape0158" transform="matrix(0.833026118224156 0 0 0.833026118224156 852.930426812586 180.298247912761)" r="7.43881879643806" cx="7.43881879643806" cy="7.43881879643806" fill="#ffffff" fill-rule="evenodd" stroke="#000000" stroke-opacity="0" stroke-width="0" stroke-linecap="square" stroke-linejoin="bevel"/><circle id="shape0159" transform="matrix(0.83302609797078 0 0 0.83302609797078 851.45964015952 128.527479311499)" r="7.43881879643806" cx="7.43881879643806" cy="7.43881879643806" fill="#ffffff" fill-rule="evenodd" stroke="#000000" stroke-opacity="0" stroke-width="0" stroke-linecap="square" stroke-linejoin="bevel"/><circle id="shape0160" transform="matrix(0.83302609797078 0 0 0.83302609797078 919.117652977316 233.705126479985)" r="7.43881879643806" cx="7.43881879643806" cy="7.43881879643806" fill="#ffffff" fill-rule="evenodd" stroke="#000000" stroke-opacity="0" stroke-width="0" stroke-linecap="square" stroke-linejoin="bevel"/><circle id="shape0161" transform="matrix(0.833026119874049 0 0 0.833026119874049 988.913347177003 170.634126326237)" r="7.43881879643806" cx="7.43881879643806" cy="7.43881879643806" fill="#ffffff" fill-rule="evenodd" stroke="#000000" stroke-opacity="0" stroke-width="0" stroke-linecap="square" stroke-linejoin="bevel"/><circle id="shape0162" transform="matrix(0.833026093039453 0 0 0.833026093039453 1059.6884873368 121.878292935871)" r="7.43881879643806" cx="7.43881879643806" cy="7.43881879643806" fill="#ffffff" fill-rule="evenodd" stroke="#000000" stroke-opacity="0" stroke-width="0" stroke-linecap="square" stroke-linejoin="bevel"/><circle id="shape0163" transform="matrix(0.833026084357891 0 0 0.833026084357891 1128.66090659603 209.376771590252)" r="7.43881879643806" cx="7.43881879643806" cy="7.43881879643806" fill="#ffffff" fill-rule="evenodd" stroke="#000000" stroke-opacity="0" stroke-width="0" stroke-linecap="square" stroke-linejoin="bevel"/><circle id="shape0164" transform="matrix(0.833026078401486 0 0 0.833026078401486 1212.13528646458 170.165005770076)" r="7.43881879643806" cx="7.43881879643806" cy="7.43881879643806" fill="#ffffff" fill-rule="evenodd" stroke="#000000" stroke-opacity="0" stroke-width="0" stroke-linecap="square" stroke-linejoin="bevel"/><circle id="shape0165" transform="matrix(0.833026076384808 0 0 0.833026076384808 1286.17224054139 205.390609471254)" r="7.43881879643806" cx="7.43881879643806" cy="7.43881879643806" fill="#ffffff" fill-rule="evenodd" stroke="#000000" stroke-opacity="0" stroke-width="0" stroke-linecap="square" stroke-linejoin="bevel"/><circle id="shape0166" transform="matrix(0.833026050398823 0 0 0.833026050398823 1293.65820294458 125.103758718021)" r="7.43881879643806" cx="7.43881879643806" cy="7.43881879643806" fill="#ffffff" fill-rule="evenodd" stroke="#000000" stroke-opacity="0" stroke-width="0" stroke-linecap="square" stroke-linejoin="bevel"/><circle id="shape0167" transform="matrix(0.833026073807753 0 0 0.833026073807753 1414.31596874724 129.948875026713)" r="7.43881879643806" cx="7.43881879643806" cy="7.43881879643806" fill="#ffffff" fill-rule="evenodd" stroke="#000000" stroke-opacity="0" stroke-width="0" stroke-linecap="square" stroke-linejoin="bevel"/><circle id="shape0168" transform="matrix(0.833026045803766 0 0 0.833026045803766 1495.09082502004 204.771761807851)" r="7.43881879643806" cx="7.43881879643806" cy="7.43881879643806" fill="#ffffff" fill-rule="evenodd" stroke="#000000" stroke-opacity="0" stroke-width="0" stroke-linecap="square" stroke-linejoin="bevel"/><circle id="shape0169" transform="matrix(0.833026039045758 0 0 0.833026039045758 1600.47728808819 122.121723332858)" r="7.43881879643806" cx="7.43881879643806" cy="7.43881879643806" fill="#ffffff" fill-rule="evenodd" stroke="#000000" stroke-opacity="0" stroke-width="0" stroke-linecap="square" stroke-linejoin="bevel"/><circle id="shape0170" transform="matrix(0.833026000784816 0 0 0.833026000784816 1623.73928211112 224.952409645493)" r="7.43881879643806" cx="7.43881879643806" cy="7.43881879643806" fill="#ffffff" fill-rule="evenodd" stroke="#000000" stroke-opacity="0" stroke-width="0" stroke-linecap="square" stroke-linejoin="bevel"/><circle id="shape0171" transform="matrix(0.833025969602422 0 0 0.833025969602422 1401.12860287388 296.975924517051)" r="7.43881879643806" cx="7.43881879643806" cy="7.43881879643806" fill="#ffffff" fill-rule="evenodd" stroke="#000000" stroke-opacity="0" stroke-width="0" stroke-linecap="square" stroke-linejoin="bevel"/><circle id="shape0172" transform="matrix(0.833025978809061 0 0 0.833025978809061 1169.69679331812 276.678020091028)" r="7.43881879643806" cx="7.43881879643806" cy="7.43881879643806" fill="#ffffff" fill-rule="evenodd" stroke="#000000" stroke-opacity="0" stroke-width="0" stroke-linecap="square" stroke-linejoin="bevel"/><circle id="shape0173" transform="matrix(0.833026193755749 0 0 0.833026193755749 22.4516872924528 123.029790076332)" r="3.54045602673051" cx="3.54045602673051" cy="3.54045602673051" fill="#ffffff" fill-rule="evenodd" stroke="#000000" stroke-opacity="0" stroke-width="0" stroke-linecap="square" stroke-linejoin="bevel"/><circle id="shape0174" transform="matrix(0.833026174197673 0 0 0.833026174197673 66.2751660807244 140.051357436696)" r="3.54045602673051" cx="3.54045602673051" cy="3.54045602673051" fill="#ffffff" fill-rule="evenodd" stroke="#000000" stroke-opacity="0" stroke-width="0" stroke-linecap="square" stroke-linejoin="bevel"/><circle id="shape0175" transform="matrix(0.833026150196062 0 0 0.833026150196062 90.7729424542576 116.631967462774)" r="3.54045602673051" cx="3.54045602673051" cy="3.54045602673051" fill="#ffffff" fill-rule="evenodd" stroke="#000000" stroke-opacity="0" stroke-width="0" stroke-linecap="square" stroke-linejoin="bevel"/><circle id="shape0176" transform="matrix(0.833026147473282 0 0 0.833026147473282 105.511814254996 141.125262172046)" r="3.54045602673051" cx="3.54045602673051" cy="3.54045602673051" fill="#ffffff" fill-rule="evenodd" stroke="#000000" stroke-opacity="0" stroke-width="0" stroke-linecap="square" stroke-linejoin="bevel"/><circle id="shape0177" transform="matrix(0.833026127074342 0 0 0.833026127074342 151.308002279184 146.564921485951)" r="3.54045602673051" cx="3.54045602673051" cy="3.54045602673051" fill="#ffffff" fill-rule="evenodd" stroke="#000000" stroke-opacity="0" stroke-width="0" stroke-linecap="square" stroke-linejoin="bevel"/><circle id="shape0178" transform="matrix(0.833026096795382 0 0 0.833026096795382 182.4580308794 112.600061204909)" r="3.54045602673051" cx="3.54045602673051" cy="3.54045602673051" fill="#ffffff" fill-rule="evenodd" stroke="#000000" stroke-opacity="0" stroke-width="0" stroke-linecap="square" stroke-linejoin="bevel"/><circle id="shape0179" transform="matrix(0.833026076988792 0 0 0.833026076988792 199.881087510742 140.083808445856)" r="3.54045602673051" cx="3.54045602673051" cy="3.54045602673051" fill="#ffffff" fill-rule="evenodd" stroke="#000000" stroke-opacity="0" stroke-width="0" stroke-linecap="square" stroke-linejoin="bevel"/><circle id="shape0180" transform="matrix(0.833026062343616 0 0 0.833026062343616 223.955638522393 121.720679124523)" r="3.54045602673051" cx="3.54045602673051" cy="3.54045602673051" fill="#ffffff" fill-rule="evenodd" stroke="#000000" stroke-opacity="0" stroke-width="0" stroke-linecap="square" stroke-linejoin="bevel"/><circle id="shape0181" transform="matrix(0.833026021207796 0 0 0.833026021207796 236.995070720011 143.480691789426)" r="3.54045602673051" cx="3.54045602673051" cy="3.54045602673051" fill="#ffffff" fill-rule="evenodd" stroke="#000000" stroke-opacity="0" stroke-width="0" stroke-linecap="square" stroke-linejoin="bevel"/><circle id="shape0182" transform="matrix(0.833026011923942 0 0 0.833026011923942 252.74050925859 118.982231665347)" r="3.54045602673051" cx="3.54045602673051" cy="3.54045602673051" fill="#ffffff" fill-rule="evenodd" stroke="#000000" stroke-opacity="0" stroke-width="0" stroke-linecap="square" stroke-linejoin="bevel"/><circle id="shape0183" transform="matrix(0.833026014578334 0 0 0.833026014578334 282.428377975137 118.575424094002)" r="3.54045602673051" cx="3.54045602673051" cy="3.54045602673051" fill="#ffffff" fill-rule="evenodd" stroke="#000000" stroke-opacity="0" stroke-width="0" stroke-linecap="square" stroke-linejoin="bevel"/><circle id="shape0184" transform="matrix(0.833025998527677 0 0 0.833025998527677 294.713096799781 141.685282473236)" r="3.54045602673051" cx="3.54045602673051" cy="3.54045602673051" fill="#ffffff" fill-rule="evenodd" stroke="#000000" stroke-opacity="0" stroke-width="0" stroke-linecap="square" stroke-linejoin="bevel"/><circle id="shape0185" transform="matrix(0.833026005198856 0 0 0.833026005198856 334.253658585795 119.7811059738)" r="3.54045602673051" cx="3.54045602673051" cy="3.54045602673051" fill="#ffffff" fill-rule="evenodd" stroke="#000000" stroke-opacity="0" stroke-width="0" stroke-linecap="square" stroke-linejoin="bevel"/><circle id="shape0186" transform="matrix(0.833025972067931 0 0 0.833025972067931 353.267546046169 136.789830951797)" r="3.54045602673051" cx="3.54045602673051" cy="3.54045602673051" fill="#ffffff" fill-rule="evenodd" stroke="#000000" stroke-opacity="0" stroke-width="0" stroke-linecap="square" stroke-linejoin="bevel"/><circle id="shape0187" transform="matrix(0.833025970163448 0 0 0.833025970163448 399.863063538789 148.409431907031)" r="3.54045602673051" cx="3.54045602673051" cy="3.54045602673051" fill="#ffffff" fill-rule="evenodd" stroke="#000000" stroke-opacity="0" stroke-width="0" stroke-linecap="square" stroke-linejoin="bevel"/><circle id="shape0188" transform="matrix(0.833025972689403 0 0 0.833025972689403 385.705795623664 115.204614207821)" r="3.54045602673051" cx="3.54045602673051" cy="3.54045602673051" fill="#ffffff" fill-rule="evenodd" stroke="#000000" stroke-opacity="0" stroke-width="0" stroke-linecap="square" stroke-linejoin="bevel"/><circle id="shape0189" transform="matrix(0.833025943509208 0 0 0.833025943509208 422.519597628013 117.958186215546)" r="3.54045602673051" cx="3.54045602673051" cy="3.54045602673051" fill="#ffffff" fill-rule="evenodd" stroke="#000000" stroke-opacity="0" stroke-width="0" stroke-linecap="square" stroke-linejoin="bevel"/><circle id="shape0190" transform="matrix(0.833025949088958 0 0 0.833025949088958 441.443054668652 143.606167470528)" r="3.54045602673051" cx="3.54045602673051" cy="3.54045602673051" fill="#ffffff" fill-rule="evenodd" stroke="#000000" stroke-opacity="0" stroke-width="0" stroke-linecap="square" stroke-linejoin="bevel"/><circle id="shape0191" transform="matrix(0.833025946103001 0 0 0.833025946103001 475.651415296155 112.265382249964)" r="3.54045602673051" cx="3.54045602673051" cy="3.54045602673051" fill="#ffffff" fill-rule="evenodd" stroke="#000000" stroke-opacity="0" stroke-width="0" stroke-linecap="square" stroke-linejoin="bevel"/><circle id="shape0192" transform="matrix(0.833025926932957 0 0 0.833025926932957 481.49903098439 137.159329169742)" r="3.54045602673051" cx="3.54045602673051" cy="3.54045602673051" fill="#ffffff" fill-rule="evenodd" stroke="#000000" stroke-opacity="0" stroke-width="0" stroke-linecap="square" stroke-linejoin="bevel"/><circle id="shape0193" transform="matrix(0.833025929032909 0 0 0.833025929032909 497.396996137114 121.67296320928)" r="3.54045602673051" cx="3.54045602673051" cy="3.54045602673051" fill="#ffffff" fill-rule="evenodd" stroke="#000000" stroke-opacity="0" stroke-width="0" stroke-linecap="square" stroke-linejoin="bevel"/><circle id="shape0194" transform="matrix(0.833025902022606 0 0 0.833025902022606 524.841984502861 111.491590841243)" r="3.54045602673051" cx="3.54045602673051" cy="3.54045602673051" fill="#ffffff" fill-rule="evenodd" stroke="#000000" stroke-opacity="0" stroke-width="0" stroke-linecap="square" stroke-linejoin="bevel"/><circle id="shape0195" transform="matrix(0.833025865402457 0 0 0.833025865402457 526.661999257051 132.023276467594)" r="3.54045602673051" cx="3.54045602673051" cy="3.54045602673051" fill="#ffffff" fill-rule="evenodd" stroke="#000000" stroke-opacity="0" stroke-width="0" stroke-linecap="square" stroke-linejoin="bevel"/><circle id="shape0196" transform="matrix(0.833025832109504 0 0 0.833025832109504 554.513395157177 118.390078319995)" r="3.54045602673051" cx="3.54045602673051" cy="3.54045602673051" fill="#ffffff" fill-rule="evenodd" stroke="#000000" stroke-opacity="0" stroke-width="0" stroke-linecap="square" stroke-linejoin="bevel"/><circle id="shape0197" transform="matrix(0.833025832109504 0 0 0.833025832109504 581.769768774728 126.227725350476)" r="3.54045602673051" cx="3.54045602673051" cy="3.54045602673051" fill="#ffffff" fill-rule="evenodd" stroke="#000000" stroke-opacity="0" stroke-width="0" stroke-linecap="square" stroke-linejoin="bevel"/><circle id="shape0198" transform="matrix(0.83302580611657 0 0 0.83302580611657 582.87435881521 108.981893413616)" r="3.54045602673051" cx="3.54045602673051" cy="3.54045602673051" fill="#ffffff" fill-rule="evenodd" stroke="#000000" stroke-opacity="0" stroke-width="0" stroke-linecap="square" stroke-linejoin="bevel"/><circle id="shape0199" transform="matrix(0.83302579917129 0 0 0.83302579917129 627.223195225565 134.772593555848)" r="3.54045602673051" cx="3.54045602673051" cy="3.54045602673051" fill="#ffffff" fill-rule="evenodd" stroke="#000000" stroke-opacity="0" stroke-width="0" stroke-linecap="square" stroke-linejoin="bevel"/><circle id="shape0200" transform="matrix(0.833025763624753 0 0 0.833025763624753 650.501682858039 121.708682036724)" r="3.54045602673051" cx="3.54045602673051" cy="3.54045602673051" fill="#ffffff" fill-rule="evenodd" stroke="#000000" stroke-opacity="0" stroke-width="0" stroke-linecap="square" stroke-linejoin="bevel"/><circle id="shape0201" transform="matrix(0.833025733790539 0 0 0.833025733790539 707.696240397594 123.070988284802)" r="3.54045602673051" cx="3.54045602673051" cy="3.54045602673051" fill="#ffffff" fill-rule="evenodd" stroke="#000000" stroke-opacity="0" stroke-width="0" stroke-linecap="square" stroke-linejoin="bevel"/><circle id="shape0202" transform="matrix(0.833025724726422 0 0 0.833025724726422 733.825728280395 144.227437104052)" r="3.54045602673051" cx="3.54045602673051" cy="3.54045602673051" fill="#ffffff" fill-rule="evenodd" stroke="#000000" stroke-opacity="0" stroke-width="0" stroke-linecap="square" stroke-linejoin="bevel"/><circle id="shape0203" transform="matrix(0.833025711842751 0 0 0.833025711842751 736.483001337751 108.359707686689)" r="3.54045602673051" cx="3.54045602673051" cy="3.54045602673051" fill="#ffffff" fill-rule="evenodd" stroke="#000000" stroke-opacity="0" stroke-width="0" stroke-linecap="square" stroke-linejoin="bevel"/><circle id="shape0204" transform="matrix(0.833025684570701 0 0 0.833025684570701 783.540481116668 111.220509416439)" r="3.54045602673051" cx="3.54045602673051" cy="3.54045602673051" fill="#ffffff" fill-rule="evenodd" stroke="#000000" stroke-opacity="0" stroke-width="0" stroke-linecap="square" stroke-linejoin="bevel"/><circle id="shape0205" transform="matrix(0.833025671449331 0 0 0.833025671449331 792.306189119563 140.341672042354)" r="3.54045602673051" cx="3.54045602673051" cy="3.54045602673051" fill="#ffffff" fill-rule="evenodd" stroke="#000000" stroke-opacity="0" stroke-width="0" stroke-linecap="square" stroke-linejoin="bevel"/><circle id="shape0206" transform="matrix(0.833025656955885 0 0 0.833025656955885 793.899285209898 123.594679349067)" r="3.54045602673051" cx="3.54045602673051" cy="3.54045602673051" fill="#ffffff" fill-rule="evenodd" stroke="#000000" stroke-opacity="0" stroke-width="0" stroke-linecap="square" stroke-linejoin="bevel"/><circle id="shape0207" transform="matrix(0.833025631496667 0 0 0.833025631496667 839.731633982482 125.578635651075)" r="3.54045602673051" cx="3.54045602673051" cy="3.54045602673051" fill="#ffffff" fill-rule="evenodd" stroke="#000000" stroke-opacity="0" stroke-width="0" stroke-linecap="square" stroke-linejoin="bevel"/><circle id="shape0208" transform="matrix(0.833025635519441 0 0 0.833025635519441 835.526158987096 143.948911419624)" r="3.54045602673051" cx="3.54045602673051" cy="3.54045602673051" fill="#ffffff" fill-rule="evenodd" stroke="#000000" stroke-opacity="0" stroke-width="0" stroke-linecap="square" stroke-linejoin="bevel"/><circle id="shape0209" transform="matrix(0.833025629454987 0 0 0.833025629454987 866.89072359077 113.072082944358)" r="3.54045602673051" cx="3.54045602673051" cy="3.54045602673051" fill="#ffffff" fill-rule="evenodd" stroke="#000000" stroke-opacity="0" stroke-width="0" stroke-linecap="square" stroke-linejoin="bevel"/><circle id="shape0210" transform="matrix(0.833025611483485 0 0 0.833025611483485 892.170503417587 132.861890520052)" r="3.54045602673051" cx="3.54045602673051" cy="3.54045602673051" fill="#ffffff" fill-rule="evenodd" stroke="#000000" stroke-opacity="0" stroke-width="0" stroke-linecap="square" stroke-linejoin="bevel"/><circle id="shape0211" transform="matrix(0.833025599366745 0 0 0.833025599366745 897.481670364184 114.672640412015)" r="3.54045602673051" cx="3.54045602673051" cy="3.54045602673051" fill="#ffffff" fill-rule="evenodd" stroke="#000000" stroke-opacity="0" stroke-width="0" stroke-linecap="square" stroke-linejoin="bevel"/><circle id="shape0212" transform="matrix(0.833025635439666 0 0 0.833025635439666 915.020358065962 119.322776571401)" r="3.54045602673051" cx="3.54045602673051" cy="3.54045602673051" fill="#ffffff" fill-rule="evenodd" stroke="#000000" stroke-opacity="0" stroke-width="0" stroke-linecap="square" stroke-linejoin="bevel"/><circle id="shape0213" transform="matrix(0.833025635439666 0 0 0.833025635439666 938.566335989888 111.348809435022)" r="3.54045602673051" cx="3.54045602673051" cy="3.54045602673051" fill="#ffffff" fill-rule="evenodd" stroke="#000000" stroke-opacity="0" stroke-width="0" stroke-linecap="square" stroke-linejoin="bevel"/><circle id="shape0214" transform="matrix(0.833025603456324 0 0 0.833025603456324 983.301168907723 126.447651115212)" r="3.54045602673051" cx="3.54045602673051" cy="3.54045602673051" fill="#ffffff" fill-rule="evenodd" stroke="#000000" stroke-opacity="0" stroke-width="0" stroke-linecap="square" stroke-linejoin="bevel"/><circle id="shape0215" transform="matrix(0.833025579356315 0 0 0.833025579356315 942.899980224512 148.133721349655)" r="3.54045602673051" cx="3.54045602673051" cy="3.54045602673051" fill="#ffffff" fill-rule="evenodd" stroke="#000000" stroke-opacity="0" stroke-width="0" stroke-linecap="square" stroke-linejoin="bevel"/><circle id="shape0216" transform="matrix(0.8330255564164 0 0 0.8330255564164 921.822465030844 169.398867324204)" r="3.54045602673051" cx="3.54045602673051" cy="3.54045602673051" fill="#ffffff" fill-rule="evenodd" stroke="#000000" stroke-opacity="0" stroke-width="0" stroke-linecap="square" stroke-linejoin="bevel"/><circle id="shape0217" transform="matrix(0.833025523426803 0 0 0.833025523426803 996.905769054962 123.118381599834)" r="3.54045602673051" cx="3.54045602673051" cy="3.54045602673051" fill="#ffffff" fill-rule="evenodd" stroke="#000000" stroke-opacity="0" stroke-width="0" stroke-linecap="square" stroke-linejoin="bevel"/><circle id="shape0218" transform="matrix(0.833025489525258 0 0 0.833025489525258 971.041515647779 115.458389569797)" r="3.54045602673051" cx="3.54045602673051" cy="3.54045602673051" fill="#ffffff" fill-rule="evenodd" stroke="#000000" stroke-opacity="0" stroke-width="0" stroke-linecap="square" stroke-linejoin="bevel"/><circle id="shape0219" transform="matrix(0.833025489525258 0 0 0.833025489525258 1033.4292135159 160.75958911694)" r="3.54045602673051" cx="3.54045602673051" cy="3.54045602673051" fill="#ffffff" fill-rule="evenodd" stroke="#000000" stroke-opacity="0" stroke-width="0" stroke-linecap="square" stroke-linejoin="bevel"/><circle id="shape0220" transform="matrix(0.833025473172156 0 0 0.833025473172156 1046.19652853807 143.844356154799)" r="3.54045602673051" cx="3.54045602673051" cy="3.54045602673051" fill="#ffffff" fill-rule="evenodd" stroke="#000000" stroke-opacity="0" stroke-width="0" stroke-linecap="square" stroke-linejoin="bevel"/><circle id="shape0221" transform="matrix(0.833025468322238 0 0 0.833025468322238 1024.53431973918 111.819599897576)" r="3.54045602673051" cx="3.54045602673051" cy="3.54045602673051" fill="#ffffff" fill-rule="evenodd" stroke="#000000" stroke-opacity="0" stroke-width="0" stroke-linecap="square" stroke-linejoin="bevel"/><circle id="shape0222" transform="matrix(0.833025456029243 0 0 0.833025456029243 1046.80752220284 119.516490158367)" r="3.54045602673051" cx="3.54045602673051" cy="3.54045602673051" fill="#ffffff" fill-rule="evenodd" stroke="#000000" stroke-opacity="0" stroke-width="0" stroke-linecap="square" stroke-linejoin="bevel"/><circle id="shape0223" transform="matrix(0.83302547277479 0 0 0.83302547277479 1085.24686173948 120.838983847926)" r="3.54045602673051" cx="3.54045602673051" cy="3.54045602673051" fill="#ffffff" fill-rule="evenodd" stroke="#000000" stroke-opacity="0" stroke-width="0" stroke-linecap="square" stroke-linejoin="bevel"/><circle id="shape0224" transform="matrix(0.833025463570271 0 0 0.833025463570271 1104.1466742145 133.278444717221)" r="3.54045602673051" cx="3.54045602673051" cy="3.54045602673051" fill="#ffffff" fill-rule="evenodd" stroke="#000000" stroke-opacity="0" stroke-width="0" stroke-linecap="square" stroke-linejoin="bevel"/><circle id="shape0225" transform="matrix(0.833025439077176 0 0 0.833025439077176 1117.21902103503 116.989606042975)" r="3.54045602673051" cx="3.54045602673051" cy="3.54045602673051" fill="#ffffff" fill-rule="evenodd" stroke="#000000" stroke-opacity="0" stroke-width="0" stroke-linecap="square" stroke-linejoin="bevel"/><circle id="shape0226" transform="matrix(0.833025440273108 0 0 0.833025440273108 1140.18276493928 118.253969468653)" r="3.54045602673051" cx="3.54045602673051" cy="3.54045602673051" fill="#ffffff" fill-rule="evenodd" stroke="#000000" stroke-opacity="0" stroke-width="0" stroke-linecap="square" stroke-linejoin="bevel"/><circle id="shape0227" transform="matrix(0.833025410622234 0 0 0.833025410622234 1155.99404214732 128.064424955901)" r="3.54045602673051" cx="3.54045602673051" cy="3.54045602673051" fill="#ffffff" fill-rule="evenodd" stroke="#000000" stroke-opacity="0" stroke-width="0" stroke-linecap="square" stroke-linejoin="bevel"/><circle id="shape0228" transform="matrix(0.833025393074494 0 0 0.833025393074494 1196.44623610962 115.697542608895)" r="3.54045602673051" cx="3.54045602673051" cy="3.54045602673051" fill="#ffffff" fill-rule="evenodd" stroke="#000000" stroke-opacity="0" stroke-width="0" stroke-linecap="square" stroke-linejoin="bevel"/><circle id="shape0229" transform="matrix(0.833025412856166 0 0 0.833025412856166 1210.48500237938 136.08387926672)" r="3.54045602673051" cx="3.54045602673051" cy="3.54045602673051" fill="#ffffff" fill-rule="evenodd" stroke="#000000" stroke-opacity="0" stroke-width="0" stroke-linecap="square" stroke-linejoin="bevel"/><circle id="shape0230" transform="matrix(0.833025444412235 0 0 0.833025444412235 1250.50278750964 115.61082191935)" r="3.54045602673051" cx="3.54045602673051" cy="3.54045602673051" fill="#ffffff" fill-rule="evenodd" stroke="#000000" stroke-opacity="0" stroke-width="0" stroke-linecap="square" stroke-linejoin="bevel"/><circle id="shape0231" transform="matrix(0.833025439466393 0 0 0.833025439466393 1276.01674669124 131.235529803298)" r="3.54045602673051" cx="3.54045602673051" cy="3.54045602673051" fill="#ffffff" fill-rule="evenodd" stroke="#000000" stroke-opacity="0" stroke-width="0" stroke-linecap="square" stroke-linejoin="bevel"/><circle id="shape0232" transform="matrix(0.83302543146782 0 0 0.83302543146782 1321.43062942827 111.234425546032)" r="3.54045602673051" cx="3.54045602673051" cy="3.54045602673051" fill="#ffffff" fill-rule="evenodd" stroke="#000000" stroke-opacity="0" stroke-width="0" stroke-linecap="square" stroke-linejoin="bevel"/><circle id="shape0233" transform="matrix(0.833025428908641 0 0 0.833025428908641 1330.37065253208 132.502192299687)" r="3.54045602673051" cx="3.54045602673051" cy="3.54045602673051" fill="#ffffff" fill-rule="evenodd" stroke="#000000" stroke-opacity="0" stroke-width="0" stroke-linecap="square" stroke-linejoin="bevel"/><circle id="shape0234" transform="matrix(0.833025435238315 0 0 0.833025435238315 1372.0359589046 113.39665179481)" r="3.54045602673051" cx="3.54045602673051" cy="3.54045602673051" fill="#ffffff" fill-rule="evenodd" stroke="#000000" stroke-opacity="0" stroke-width="0" stroke-linecap="square" stroke-linejoin="bevel"/><circle id="shape0235" transform="matrix(0.83302542897642 0 0 0.83302542897642 1368.64005708346 152.192680868796)" r="3.54045602673051" cx="3.54045602673051" cy="3.54045602673051" fill="#ffffff" fill-rule="evenodd" stroke="#000000" stroke-opacity="0" stroke-width="0" stroke-linecap="square" stroke-linejoin="bevel"/><circle id="shape0236" transform="matrix(0.833025404265707 0 0 0.833025404265707 1375.75681341831 159.107713222241)" r="3.54045602673051" cx="3.54045602673051" cy="3.54045602673051" fill="#ffffff" fill-rule="evenodd" stroke="#000000" stroke-opacity="0" stroke-width="0" stroke-linecap="square" stroke-linejoin="bevel"/><circle id="shape0237" transform="matrix(0.833025358887472 0 0 0.833025358887472 1414.64247676325 147.555365435309)" r="3.54045602673051" cx="3.54045602673051" cy="3.54045602673051" fill="#ffffff" fill-rule="evenodd" stroke="#000000" stroke-opacity="0" stroke-width="0" stroke-linecap="square" stroke-linejoin="bevel"/><circle id="shape0238" transform="matrix(0.833025349324012 0 0 0.833025349324012 1419.62548192399 120.171944240475)" r="3.54045602673051" cx="3.54045602673051" cy="3.54045602673051" fill="#ffffff" fill-rule="evenodd" stroke="#000000" stroke-opacity="0" stroke-width="0" stroke-linecap="square" stroke-linejoin="bevel"/><circle id="shape0239" transform="matrix(0.833025349324012 0 0 0.833025349324012 1442.49456919437 110.633146422847)" r="3.54045602673051" cx="3.54045602673051" cy="3.54045602673051" fill="#ffffff" fill-rule="evenodd" stroke="#000000" stroke-opacity="0" stroke-width="0" stroke-linecap="square" stroke-linejoin="bevel"/><circle id="shape0240" transform="matrix(0.83302537277191 0 0 0.83302537277191 1392.00906460625 123.281090856684)" r="3.54045602673051" cx="3.54045602673051" cy="3.54045602673051" fill="#ffffff" fill-rule="evenodd" stroke="#000000" stroke-opacity="0" stroke-width="0" stroke-linecap="square" stroke-linejoin="bevel"/><circle id="shape0241" transform="matrix(0.833025346763029 0 0 0.833025346763029 1393.77862695406 125.050664112452)" r="3.54045602673051" cx="3.54045602673051" cy="3.54045602673051" fill="#ffffff" fill-rule="evenodd" stroke="#000000" stroke-opacity="0" stroke-width="0" stroke-linecap="square" stroke-linejoin="bevel"/><circle id="shape0242" transform="matrix(0.833025339708564 0 0 0.833025339708564 1450.54722713427 137.292709100588)" r="3.54045602673051" cx="3.54045602673051" cy="3.54045602673051" fill="#ffffff" fill-rule="evenodd" stroke="#000000" stroke-opacity="0" stroke-width="0" stroke-linecap="square" stroke-linejoin="bevel"/><circle id="shape0243" transform="matrix(0.833025308737586 0 0 0.833025308737586 1458.51818524529 132.06423995648)" r="3.54045602673051" cx="3.54045602673051" cy="3.54045602673051" fill="#ffffff" fill-rule="evenodd" stroke="#000000" stroke-opacity="0" stroke-width="0" stroke-linecap="square" stroke-linejoin="bevel"/><circle id="shape0244" transform="matrix(0.833025288251184 0 0 0.833025288251184 1485.03360887155 111.553706481238)" r="3.54045602673051" cx="3.54045602673051" cy="3.54045602673051" fill="#ffffff" fill-rule="evenodd" stroke="#000000" stroke-opacity="0" stroke-width="0" stroke-linecap="square" stroke-linejoin="bevel"/><circle id="shape0245" transform="matrix(0.833025279140255 0 0 0.833025279140255 1496.35679819128 113.527153841046)" r="3.54045602673051" cx="3.54045602673051" cy="3.54045602673051" fill="#ffffff" fill-rule="evenodd" stroke="#000000" stroke-opacity="0" stroke-width="0" stroke-linecap="square" stroke-linejoin="bevel"/><circle id="shape0246" transform="matrix(0.833025273028727 0 0 0.833025273028727 1522.81088975068 128.64236753011)" r="3.54045602673051" cx="3.54045602673051" cy="3.54045602673051" fill="#ffffff" fill-rule="evenodd" stroke="#000000" stroke-opacity="0" stroke-width="0" stroke-linecap="square" stroke-linejoin="bevel"/><circle id="shape0247" transform="matrix(0.833025258751843 0 0 0.833025258751843 1538.49653217423 120.690245928227)" r="3.54045602673051" cx="3.54045602673051" cy="3.54045602673051" fill="#ffffff" fill-rule="evenodd" stroke="#000000" stroke-opacity="0" stroke-width="0" stroke-linecap="square" stroke-linejoin="bevel"/><circle id="shape0248" transform="matrix(0.833025260477286 0 0 0.833025260477286 1499.73205240468 144.782390268214)" r="3.54045602673051" cx="3.54045602673051" cy="3.54045602673051" fill="#ffffff" fill-rule="evenodd" stroke="#000000" stroke-opacity="0" stroke-width="0" stroke-linecap="square" stroke-linejoin="bevel"/><circle id="shape0249" transform="matrix(0.833025260477286 0 0 0.833025260477286 1494.12007536874 155.006479778068)" r="3.54045602673051" cx="3.54045602673051" cy="3.54045602673051" fill="#ffffff" fill-rule="evenodd" stroke="#000000" stroke-opacity="0" stroke-width="0" stroke-linecap="square" stroke-linejoin="bevel"/><circle id="shape0250" transform="matrix(0.833025260477286 0 0 0.833025260477286 1485.81213493485 144.948278870377)" r="3.54045602673051" cx="3.54045602673051" cy="3.54045602673051" fill="#ffffff" fill-rule="evenodd" stroke="#000000" stroke-opacity="0" stroke-width="0" stroke-linecap="square" stroke-linejoin="bevel"/><circle id="shape0251" transform="matrix(0.833025260477286 0 0 0.833025260477286 1530.48643354278 163.69652136575)" r="3.54045602673051" cx="3.54045602673051" cy="3.54045602673051" fill="#ffffff" fill-rule="evenodd" stroke="#000000" stroke-opacity="0" stroke-width="0" stroke-linecap="square" stroke-linejoin="bevel"/><circle id="shape0252" transform="matrix(0.833025260477286 0 0 0.833025260477286 1523.89549748405 108.681873334639)" r="3.54045602673051" cx="3.54045602673051" cy="3.54045602673051" fill="#ffffff" fill-rule="evenodd" stroke="#000000" stroke-opacity="0" stroke-width="0" stroke-linecap="square" stroke-linejoin="bevel"/><circle id="shape0253" transform="matrix(0.833025260477286 0 0 0.833025260477286 1550.27591767875 108.854154216465)" r="3.54045602673051" cx="3.54045602673051" cy="3.54045602673051" fill="#ffffff" fill-rule="evenodd" stroke="#000000" stroke-opacity="0" stroke-width="0" stroke-linecap="square" stroke-linejoin="bevel"/><circle id="shape0254" transform="matrix(0.833025260477286 0 0 0.833025260477286 1559.99652533587 122.874089639775)" r="3.54045602673051" cx="3.54045602673051" cy="3.54045602673051" fill="#ffffff" fill-rule="evenodd" stroke="#000000" stroke-opacity="0" stroke-width="0" stroke-linecap="square" stroke-linejoin="bevel"/><circle id="shape0255" transform="matrix(0.833025260477286 0 0 0.833025260477286 1578.81511771695 140.936208802153)" r="3.54045602673051" cx="3.54045602673051" cy="3.54045602673051" fill="#ffffff" fill-rule="evenodd" stroke="#000000" stroke-opacity="0" stroke-width="0" stroke-linecap="square" stroke-linejoin="bevel"/><circle id="shape0256" transform="matrix(0.833025260477286 0 0 0.833025260477286 1599.58886600371 111.136097171199)" r="3.54045602673051" cx="3.54045602673051" cy="3.54045602673051" fill="#ffffff" fill-rule="evenodd" stroke="#000000" stroke-opacity="0" stroke-width="0" stroke-linecap="square" stroke-linejoin="bevel"/><circle id="shape0257" transform="matrix(0.833025260477286 0 0 0.833025260477286 1609.26112806918 139.696909612417)" r="3.54045602673051" cx="3.54045602673051" cy="3.54045602673051" fill="#ffffff" fill-rule="evenodd" stroke="#000000" stroke-opacity="0" stroke-width="0" stroke-linecap="square" stroke-linejoin="bevel"/><circle id="shape0258" transform="matrix(0.833025260477286 0 0 0.833025260477286 1619.53950984728 120.277502646713)" r="3.54045602673051" cx="3.54045602673051" cy="3.54045602673051" fill="#ffffff" fill-rule="evenodd" stroke="#000000" stroke-opacity="0" stroke-width="0" stroke-linecap="square" stroke-linejoin="bevel"/><circle id="shape0259" transform="matrix(0.833025260477286 0 0 0.833025260477286 1620.87825075706 131.301420811649)" r="3.54045602673051" cx="3.54045602673051" cy="3.54045602673051" fill="#ffffff" fill-rule="evenodd" stroke="#000000" stroke-opacity="0" stroke-width="0" stroke-linecap="square" stroke-linejoin="bevel"/><circle id="shape0260" transform="matrix(0.833025275087281 0 0 0.833025275087281 1638.99290221166 139.37024821576)" r="3.54045602673051" cx="3.54045602673051" cy="3.54045602673051" fill="#ffffff" fill-rule="evenodd" stroke="#000000" stroke-opacity="0" stroke-width="0" stroke-linecap="square" stroke-linejoin="bevel"/><circle id="shape0261" transform="matrix(0.833025275087281 0 0 0.833025275087281 1650.96450165856 116.956422061599)" r="3.54045602673051" cx="3.54045602673051" cy="3.54045602673051" fill="#ffffff" fill-rule="evenodd" stroke="#000000" stroke-opacity="0" stroke-width="0" stroke-linecap="square" stroke-linejoin="bevel"/><circle id="shape0262" transform="matrix(0.833025275087281 0 0 0.833025275087281 1661.64148781099 109.070427105326)" r="3.54045602673051" cx="3.54045602673051" cy="3.54045602673051" fill="#ffffff" fill-rule="evenodd" stroke="#000000" stroke-opacity="0" stroke-width="0" stroke-linecap="square" stroke-linejoin="bevel"/><circle id="shape0263" transform="matrix(0.833025275087281 0 0 0.833025275087281 1637.33926760598 108.816033614963)" r="3.54045602673051" cx="3.54045602673051" cy="3.54045602673051" fill="#ffffff" fill-rule="evenodd" stroke="#000000" stroke-opacity="0" stroke-width="0" stroke-linecap="square" stroke-linejoin="bevel"/><circle id="shape0264" transform="matrix(0.833025275087281 0 0 0.833025275087281 1662.24575979613 160.490928515022)" r="3.54045602673051" cx="3.54045602673051" cy="3.54045602673051" fill="#ffffff" fill-rule="evenodd" stroke="#000000" stroke-opacity="0" stroke-width="0" stroke-linecap="square" stroke-linejoin="bevel"/><circle id="shape0265" transform="matrix(0.833025275087281 0 0 0.833025275087281 1602.7438820817 197.142282330434)" r="3.54045602673051" cx="3.54045602673051" cy="3.54045602673051" fill="#ffffff" fill-rule="evenodd" stroke="#000000" stroke-opacity="0" stroke-width="0" stroke-linecap="square" stroke-linejoin="bevel"/><circle id="shape0266" transform="matrix(0.83302523347295 0 0 0.83302523347295 1495.89324030487 188.662840354174)" r="3.54045602673051" cx="3.54045602673051" cy="3.54045602673051" fill="#ffffff" fill-rule="evenodd" stroke="#000000" stroke-opacity="0" stroke-width="0" stroke-linecap="square" stroke-linejoin="bevel"/><circle id="shape0267" transform="matrix(0.833025206338306 0 0 0.833025206338306 1454.51312556767 170.410022941812)" r="3.54045602673051" cx="3.54045602673051" cy="3.54045602673051" fill="#ffffff" fill-rule="evenodd" stroke="#000000" stroke-opacity="0" stroke-width="0" stroke-linecap="square" stroke-linejoin="bevel"/><circle id="shape0268" transform="matrix(0.833025204012858 0 0 0.833025204012858 1431.31414595738 172.086940972212)" r="3.54045602673051" cx="3.54045602673051" cy="3.54045602673051" fill="#ffffff" fill-rule="evenodd" stroke="#000000" stroke-opacity="0" stroke-width="0" stroke-linecap="square" stroke-linejoin="bevel"/><circle id="shape0269" transform="matrix(0.833025189834437 0 0 0.833025189834437 1399.47381419795 193.412818982472)" r="3.54045602673051" cx="3.54045602673051" cy="3.54045602673051" fill="#ffffff" fill-rule="evenodd" stroke="#000000" stroke-opacity="0" stroke-width="0" stroke-linecap="square" stroke-linejoin="bevel"/><circle id="shape0270" transform="matrix(0.833025160833649 0 0 0.833025160833649 1334.82892405828 189.59449426863)" r="3.54045602673051" cx="3.54045602673051" cy="3.54045602673051" fill="#ffffff" fill-rule="evenodd" stroke="#000000" stroke-opacity="0" stroke-width="0" stroke-linecap="square" stroke-linejoin="bevel"/><circle id="shape0271" transform="matrix(0.833025149353141 0 0 0.833025149353141 1288.76073707199 167.918341616622)" r="3.54045602673051" cx="3.54045602673051" cy="3.54045602673051" fill="#ffffff" fill-rule="evenodd" stroke="#000000" stroke-opacity="0" stroke-width="0" stroke-linecap="square" stroke-linejoin="bevel"/><circle id="shape0272" transform="matrix(0.833025119075502 0 0 0.833025119075502 1240.75927352993 185.869497876358)" r="3.54045602673051" cx="3.54045602673051" cy="3.54045602673051" fill="#ffffff" fill-rule="evenodd" stroke="#000000" stroke-opacity="0" stroke-width="0" stroke-linecap="square" stroke-linejoin="bevel"/><path id="shape4" transform="matrix(0.833026289822312 0 0 0.833026289822312 1292.20198182802 307.226146544135)" fill="url(#gradient1)" fill-rule="evenodd" stroke="#ffffff" stroke-width="3" stroke-linecap="square" stroke-linejoin="bevel" d="M3.3783 158.146L68.316 0L0 6.72984L3.3783 158.146"/><path id="shape7" transform="matrix(0.833026289822312 0 0 0.833026289822312 329.421121004554 240.35264440078)" fill="url(#gradient2)" fill-rule="evenodd" stroke="#ffffff" stroke-width="3" stroke-linecap="square" stroke-linejoin="bevel" d="M444.085 147.844L0 151.594L259.826 0L444.085 147.844"/><path id="shape8" transform="matrix(0.833026289822312 0 0 0.833026289822312 1047.71084293272 223.675875021549)" fill="url(#gradient3)" fill-rule="evenodd" stroke="#ffffff" stroke-width="3" stroke-linecap="square" stroke-linejoin="bevel" d="M0.415407 0L0 39.6839L103.758 8.29783L0.415407 0"/><path id="shape9" transform="matrix(0.833026289822312 0 0 0.833026289822312 29.6987351078187 226.188096690651)" fill="url(#gradient4)" fill-rule="evenodd" stroke="#ffffff" stroke-width="3" stroke-linecap="square" stroke-linejoin="bevel" d="M0 88.6961L173.46 236.089L107.789 0L0 88.6961"/><path id="shape10" transform="matrix(0.833026289822312 0 0 0.833026289822312 1433.49973723497 319.538087993559)" fill="url(#gradient5)" fill-rule="evenodd" stroke="#ffffff" stroke-width="3" stroke-linecap="square" stroke-linejoin="bevel" d="M32.7862 147.842L231.099 14.561L0 0L32.7862 147.842"/><path id="shape01" transform="matrix(1.00599087858421 0 0 1.00599087858421 15.5793333467504 225.289573598831)" fill="#467177" fill-rule="evenodd" stroke="#000000" stroke-opacity="0" stroke-width="0" stroke-linecap="square" stroke-linejoin="bevel" d="M79.3994 296.484C296.397 177.288 375.862 162.006 498.114 198.682C620.367 235.358 666.207 397.343 812.917 397.343C959.617 397.343 1210.24 3.0776 1390.56 0.0212803C1570.88 -3.03504 1655.74 323.991 1871.57 421.793C2015.46 486.994 1982.41 561.234 1772.41 644.511L53.6495 620.499C-25.6279 457.465 -17.0446 349.46 79.3994 296.484Z"/><path id="shape11" transform="matrix(1.00532953717758 0.0364714884939488 -0.0364714884939488 1.00532953717758 -246.718233321328 395.838802303411)" fill="#244249" fill-rule="evenodd" stroke="#000000" stroke-opacity="0" stroke-width="0" stroke-linecap="square" stroke-linejoin="bevel" d="M238.94 120.556C327.573 44.4076 318.404 -52.5097 455.938 34.0237C593.472 120.556 682.106 203.629 804.358 203.629C926.611 203.629 966.343 170.416 1085.54 127.48C1204.74 84.5438 1314.76 54.7916 1519.54 141.325C1724.31 227.858 1742.65 227.858 1886.29 217.474C2029.94 207.09 1986.43 106.712 2128.91 113.635C2363.73 113.177 2632.18 356.391 2603.26 392.526C2601.11 427.799 441.175 521.424 143.82 519.493C-203.506 517.238 179.851 171.323 238.94 120.556Z"/><path id="shape02" transform="matrix(1.58627498608463 0.328961703729945 -0.337758898417357 1.62869563785694 1248.26514413536 717.456738250877)" fill="#62c4c6" fill-rule="evenodd" stroke="#000000" stroke-opacity="0" stroke-width="0" stroke-linecap="square" stroke-linejoin="bevel" d="M51.6222 55.3933C20.212 24.4017 4.02898 6.30002 3.07302 1.08822C1.63907 -6.72949 -10.4471 29.1482 25.8112 58.325C62.0695 87.5018 62.0695 87.5018 51.6222 55.3933Z"/><path id="shape01" transform="matrix(1.58627492867028 0.328961691823357 -0.337758886192359 1.62869557890721 1185.5491543902 699.985559333343)" fill="#70dee0" fill-rule="evenodd" stroke="#000000" stroke-opacity="0" stroke-width="0" stroke-linecap="square" stroke-linejoin="bevel" d="M70.287 54.0475C36.8429 32.6387 15.4342 15.8589 6.06057 3.70792C-7.9998 -14.5185 1.54737 38.9456 43.7285 66.372C85.9096 93.7984 85.9096 93.7984 70.287 54.0475Z"/><path id="shape12" transform="matrix(1.58627498608463 0.328961703729945 -0.337758898417357 1.62869563785694 1129.38698011642 740.184679430404)" fill="#7ef8fa" fill-rule="evenodd" stroke="#000000" stroke-opacity="0" stroke-width="0" stroke-linecap="square" stroke-linejoin="bevel" d="M163.347 6.84387L158.451 9.91132C141.927 17.1572 161.814 11.7651 159.504 12.7693C156.04 14.2755 156.247 12.9058 149.62 17.5C142.992 22.0942 152.383 37.8937 136.409 55.6642C135.969 56.1482 115.305 69.8566 106.271 67.4181C97.5391 69.1989 99.543 67.0047 87.8869 66.5139C76.2308 66.0231 64.9587 52.0656 21.5964 55.4284C-21.7659 58.7912 12.158 44.3778 20.6182 43.3402C29.0784 42.3026 63.6377 45.0163 66.7504 43.2604C69.8631 41.5045 91.0137 25.1427 97.8776 24.5042C104.742 23.8657 107.882 31.0136 113.575 21.6221C119.267 12.2306 118.806 10.6264 120.943 6.20825C123.08 1.79013 126.97 0.423117 132.796 0.0240471C138.623 -0.375013 142.813 4.31145 143.052 5.26925C143.292 6.22705 145.207 7.98285 154.226 8.38195C160.239 8.64805 141.234 15.9873 157.336 8.6816C162.013 5.3002 164.285 5.37541 163.347 6.84387Z"/><path id="shape011" transform="matrix(3.06380958999664 0 0 3.06380958999663 1357.45777934448 772.93377485169)" fill="#122021" fill-rule="evenodd" stroke="#000000" stroke-opacity="0" stroke-width="0" stroke-linecap="square" stroke-linejoin="bevel" d="M0.53351 14.7316C19.3959 10.7506 31.8619 6.06028 37.4848 1.62077C45.9192 -5.03851 25.5282 11.1335 0 8.69885C0.995205 10.2954 2.63567 12.6389 0.53351 14.7316Z"/><ellipse id="shape81" transform="matrix(1.48249913041753 0.307440666970395 -0.315662339497927 1.52214457645678 1322.99387978213 782.190571639093)" rx="10.5" ry="9.5" cx="10.5" cy="9.5" fill="#122021" fill-rule="evenodd" stroke="#000000" stroke-opacity="0" stroke-width="0" stroke-linecap="square" stroke-linejoin="bevel"/><circle id="shape82" transform="matrix(1.17092642091368 0.24282671904001 -0.249320465571838 1.20223969407774 1328.97587272949 788.509138068171)" r="5" cx="5" cy="5" fill="#f7fbfd" fill-rule="evenodd" stroke="#000000" stroke-opacity="0" stroke-width="0" stroke-linecap="square" stroke-linejoin="bevel"/><circle id="shape83" transform="matrix(1.17092642091368 0.24282671904001 -0.249320465571838 1.20223969407774 1342.20913462634 801.352438055823)" r="2" cx="2" cy="2" fill="#f7fbfd" fill-rule="evenodd" stroke="#000000" stroke-opacity="0" stroke-width="0" stroke-linecap="square" stroke-linejoin="bevel"/><circle id="shape03" transform="matrix(1.17092639283934 0.242826713217954 -0.249320459594087 1.20223966525263 1337.14332418705 807.629717682796)" r="1.35425449383951" cx="1.35425449383951" cy="1.35425449383951" fill="#f7fbfd" fill-rule="evenodd" stroke="#000000" stroke-opacity="0" stroke-width="0" stroke-linecap="square" stroke-linejoin="bevel"/><path id="shape3" transform="matrix(2.3315214021509 -0.0892400606683267 0.121078814165292 2.28892741377083 1528.83200144724 766.179338111407)" fill="#f7fbfd" fill-rule="evenodd" stroke="#000000" stroke-opacity="0" stroke-width="0" stroke-linecap="square" stroke-linejoin="bevel" d="M18.3572 0.761255C6.25836 1.55189 0.140404 1.48461 0.00330303 0.559422C-0.202348 -0.828366 9.23061 0.808882 18.3572 0.761255Z"/><path id="shape41" transform="matrix(2.3315214021509 -0.0892400606683267 0.121078814165292 2.28892741377083 1527.56934063628 763.435210429108)" fill="#f7fbfd" fill-rule="evenodd" stroke="#000000" stroke-opacity="0" stroke-width="0" stroke-linecap="square" stroke-linejoin="bevel" d="M19.6364 3.36345C12.9083 6.77151 6.99733 8.35656 1.9036 8.1186C-5.73701 7.76165 11.5417 11.0444 19.8425 4.85044C28.1434 -1.34355 28.1434 -1.34355 19.6364 3.36345Z"/><path id="shape5" transform="matrix(2.3315214021509 -0.0892400606683267 0.121078814165292 2.28892741377083 1529.74654892518 785.200356345312)" fill="#f7fbfd" fill-rule="evenodd" stroke="#000000" stroke-opacity="0" stroke-width="0" stroke-linecap="square" stroke-linejoin="bevel" d="M24.9829 0C4.70296 10.764 4.52739 6.80342 0.901106 9.74428C-2.72517 12.6851 5.69865 8.74601 6.69066 8.7409C7.68268 8.7358 19.6503 4.62381 21.8281 3.73245C24.0059 2.84109 24.0059 2.84109 24.9829 0Z"/><path id="shape02" transform="matrix(2.33152132771149 -0.0892400578191245 0.12107881029956 2.28892734069135 1546.38804776791 803.411759552655)" fill="#f7fbfd" fill-rule="evenodd" stroke="#000000" stroke-opacity="0" stroke-width="0" stroke-linecap="square" stroke-linejoin="bevel" d="M19.6364 3.36345C12.9083 6.77151 6.99733 8.35656 1.9036 8.1186C-5.73701 7.76165 11.5417 11.0444 19.8425 4.85044C28.1434 -1.34355 28.1434 -1.34355 19.6364 3.36345Z"/><path id="shape0311" transform="matrix(2.33152134679707 -0.089240058549634 0.1210788112907 2.28892735942828 1506.69576608165 741.590320552514)" fill="#f7fbfd" fill-rule="evenodd" stroke="#000000" stroke-opacity="0" stroke-width="0" stroke-linecap="square" stroke-linejoin="bevel" d="M28.2474 1.39288C9.63014 2.83952 0.216049 2.71642 0.0050826 1.02358C-0.311366 -1.51568 14.2037 1.48003 28.2474 1.39288Z"/><ellipse id="shape6" transform="matrix(2.3315214021509 -0.0892400606683267 0.121078814165292 2.28892741377083 1495.89713274076 738.593445119482)" rx="4" ry="2" cx="4" cy="2" fill="#f9ff41" fill-rule="evenodd" stroke="#000000" stroke-opacity="0" stroke-width="0" stroke-linecap="square" stroke-linejoin="bevel"/><ellipse id="shape04" transform="matrix(2.3315214021509 -0.0892400606683267 0.121078814165292 2.28892741377083 1518.2977865485 764.763279082636)" rx="4" ry="2" cx="4" cy="2" fill="#f9ff41" fill-rule="evenodd" stroke="#000000" stroke-opacity="0" stroke-width="0" stroke-linecap="square" stroke-linejoin="bevel"/><ellipse id="shape051" transform="matrix(2.33152141494676 -0.0892400611580945 0.121078814829799 2.28892742633295 1519.48115164175 779.468234805608)" rx="4" ry="2" cx="4" cy="2" fill="#f9ff41" fill-rule="evenodd" stroke="#000000" stroke-opacity="0" stroke-width="0" stroke-linecap="square" stroke-linejoin="bevel"/><ellipse id="shape061" transform="matrix(2.33152131543531 -0.0892400573492486 0.121078809662045 2.28892732863946 1522.62509962846 804.367606295202)" rx="4" ry="2" cx="4" cy="2" fill="#f9ff41" fill-rule="evenodd" stroke="#000000" stroke-opacity="0" stroke-width="0" stroke-linecap="square" stroke-linejoin="bevel"/><ellipse id="shape07" transform="matrix(2.331521230069 -0.089240054081813 0.121078805228866 2.28892724483268 1538.83157480082 819.487932128461)" rx="4" ry="2" cx="4" cy="2" fill="#f9ff41" fill-rule="evenodd" stroke="#000000" stroke-opacity="0" stroke-width="0" stroke-linecap="square" stroke-linejoin="bevel"/><path id="shape0" transform="matrix(1.38266535022521 0 0 1.38266535022521 1644.6549666832 249.414445469785)" fill="url(#gradient6)" fill-rule="evenodd" d="M12.5032 367.586L0 332.756C7.14467 341.092 23.5179 344.664 49.1196 343.473C87.5221 341.687 141.107 228.265 140.214 195.221C139.321 162.177 183.082 100.555 258.101 108.592C333.12 116.63 353.661 222.907 448.328 120.202C542.995 17.4978 506.378 4.10157 575.146 0.529234C620.99 -1.85232 635.875 3.80387 619.8 17.4978C579.909 9.75776 555.498 9.75776 546.567 17.4978C533.171 29.1079 492.089 92.6434 471.548 115.737C451.007 138.831 392.957 207.725 365.271 191.649C337.585 175.574 275.07 114.077 240.239 126.454C205.409 138.831 180.196 118.68 154.399 203.375C128.602 288.07 81.2706 356.869 62.5158 358.656C43.7611 360.442 37.5095 351.511 27.6856 366.693C21.1363 376.815 17.8617 381.876 17.8617 381.876C17.8617 381.876 16.0755 377.113 12.5032 367.586Z"/><path id="shape71" transform="matrix(4.08147655947651 -0.185785319099495 0.18578531909949 4.08147655947651 1625.7170017403 738.544175789115)" fill="url(#gradient7)" fill-rule="evenodd" stroke="#000000" stroke-opacity="0" stroke-width="0" stroke-linecap="square" stroke-linejoin="bevel" d="M11.5504 0.745739C15.8097 11.6974 15.8713 19.047 11.7351 22.7946C5.53079 28.416 1.78879 29.4703 0.179547 27.3242C-1.4297 25.1781 8.28109 3.95566 9.28588 1.78767C10.2907 -0.380325 10.2907 -0.380325 11.5504 0.745739Z"/><path id="shape81" transform="matrix(4.08147655947651 -0.185785319099495 0.18578531909949 4.08147655947651 1523.71986180272 627.25197440024)" fill="url(#gradient8)" fill-rule="evenodd" stroke="#000000" stroke-opacity="0" stroke-width="0" stroke-linecap="square" stroke-linejoin="bevel" d="M34.7688 28.2428C31.7211 17.2053 26.0157 10.0166 17.6525 6.67682C5.10779 1.66714 -1.63777 -3.05015 0.340996 2.5027C2.31976 8.05555 6.2792 19.3885 12.2273 23.8852C18.1754 28.3818 20.6805 28.9292 34.7688 28.2428Z"/><path id="shape91" transform="matrix(4.08147655947651 -0.185785319099495 0.18578531909949 4.08147655947651 1524.69495934256 704.971851575742)" fill="url(#gradient9)" fill-rule="evenodd" stroke="#000000" stroke-opacity="0" stroke-width="0" stroke-linecap="square" stroke-linejoin="bevel" d="M34.5978 9.00334C23.2365 0.536001 13.5165 -1.9589 5.43774 1.51863C-6.68036 6.73492 4.04022 11.0779 12.569 11.5748C21.0978 12.0716 30.6723 15.2876 34.5978 9.00334Z"/><path id="shape101" transform="matrix(4.08147655947651 -0.185785319099495 0.18578531909949 4.08147655947651 1552.68134781162 741.560332622867)" fill="url(#gradient10)" fill-rule="evenodd" stroke="#000000" stroke-opacity="0" stroke-width="0" stroke-linecap="square" stroke-linejoin="bevel" d="M28.6697 0C19.4937 0.219694 13.305 0.867354 10.1034 1.94298C5.30108 3.55642 -4.97776 6.98569 2.8454 14.352C10.6686 21.7182 21.853 15.0487 24.3674 12.3803C26.8818 9.7119 26.8818 9.7119 28.6697 0Z"/>
</svg>
