<?xml version="1.0" standalone="no"?>
<!DOCTYPE svg PUBLIC "-//W3C//DTD SVG 20010904//EN" "http://www.w3.org/TR/2001/REC-SVG-20010904/DTD/svg10.dtd">
<!-- Created using Krita: https://krita.org -->
<svg xmlns="http://www.w3.org/2000/svg" 
    xmlns:xlink="http://www.w3.org/1999/xlink"
    xmlns:krita="http://krita.org/namespaces/svg/krita"
    xmlns:sodipodi="http://sodipodi.sourceforge.net/DTD/sodipodi-0.dtd"
    width="2000pt"
    height="1000pt"
    viewBox="0 0 2000 1000">
<defs>
  <linearGradient id="gradient0" gradientUnits="objectBoundingBox" x1="0.48076964179973" y1="0.958846014114939" x2="0.370944391489853" y2="-0.0557285582202906" spreadMethod="pad">
   <stop stop-color="#ff0060" offset="0.0619834710743802" stop-opacity="1"/>
   <stop stop-color="#00e4ec" offset="0.983471074380165" stop-opacity="0.92156862745098"/>
  </linearGradient>
  <linearGradient id="gradient1" gradientUnits="objectBoundingBox" x1="0.509809676392608" y1="0.0519476595606815" x2="0.502951030962113" y2="0.967208382693674" spreadMethod="pad">
   <stop stop-color="#212e30" offset="0.958677685950413" stop-opacity="1"/>
   <stop stop-color="#000000" offset="1" stop-opacity="0"/>
  </linearGradient>
  <linearGradient id="gradient2" gradientUnits="objectBoundingBox" x1="0" y1="0" x2="1" y2="1" spreadMethod="pad">
   <stop stop-color="#0c3b12" offset="0.00813008099794388" stop-opacity="1"/>
   <stop stop-color="#79fda2" offset="0.703252017498016" stop-opacity="1"/>
  </linearGradient>
  <linearGradient id="gradient3" gradientUnits="objectBoundingBox" x1="0" y1="0" x2="1" y2="1" spreadMethod="pad">
   <stop stop-color="#ff003f" offset="0" stop-opacity="1"/>
   <stop stop-color="#5a4fca" offset="1" stop-opacity="1"/>
  </linearGradient>
  <linearGradient id="gradient4" gradientUnits="objectBoundingBox" x1="0" y1="0" x2="1" y2="1" spreadMethod="pad">
   <stop stop-color="#ff003f" offset="0" stop-opacity="1"/>
   <stop stop-color="#5a4fca" offset="1" stop-opacity="1"/>
  </linearGradient>
  <linearGradient id="gradient5" gradientUnits="objectBoundingBox" x1="0" y1="0" x2="1" y2="1" spreadMethod="pad">
   <stop stop-color="#ff003f" offset="0" stop-opacity="1"/>
   <stop stop-color="#5a4fca" offset="1" stop-opacity="1"/>
  </linearGradient>
  <linearGradient id="gradient6" gradientUnits="objectBoundingBox" x1="0" y1="0" x2="1" y2="1" spreadMethod="pad">
   <stop stop-color="#ff003f" offset="0" stop-opacity="1"/>
   <stop stop-color="#5a4fca" offset="1" stop-opacity="1"/>
  </linearGradient>
 </defs>
<path id="shape0" transform="translate(0, -0.0205466482982306)" fill="url(#gradient0)" fill-rule="evenodd" d="M8 0.0205466C170.11 -2.19458 324.255 175.436 486.365 175.786C648.475 176.136 819.349 55.4954 1035.33 31.3213C1251.31 7.1471 1473.57 278.735 1574.67 276.912C1675.77 275.088 1814.88 182.791 1992 0.0205466C1996.42 0.0205466 2000 3.01461 2000 6.70797L2000 829.261C2000 832.955 1996.42 835.949 1992 835.949L8 835.949C3.58172 835.949 1.23527e-15 832.955 1.77636e-15 829.261L0 6.70797C5.41083e-16 3.01461 3.58172 0.0205466 8 0.0205466Z"/><path id="shape1" transform="translate(-239.003933427219, 162.086762871411)" fill="#699ca3" fill-rule="evenodd" d="M208.029 334.98C241.985 388.78 331.296 375.948 475.962 296.484C692.96 177.288 772.425 162.006 894.677 198.682C1016.93 235.358 1062.77 397.343 1209.48 397.343C1356.18 397.343 1606.8 3.0776 1787.12 0.0212803C1967.44 -3.03504 2052.3 323.991 2268.13 421.793C2412.02 486.994 2378.97 561.234 2168.97 644.511L359.26 582.916L11.4016 880.241C-28.6673 879.417 36.8752 697.663 208.029 334.98Z"/><path id="shape2" transform="translate(-110.8850739753, 428.405106864233)" fill="#4c767c" fill-rule="evenodd" d="M133.512 173.689C147.775 173.689 184.451 151.276 243.54 106.45C332.173 39.2114 323.004 -46.3655 460.538 30.0425C598.072 106.45 686.706 179.802 808.958 179.802C931.211 179.802 970.943 150.475 1090.14 112.563C1209.34 74.6512 1319.36 48.3804 1524.14 124.788C1728.91 201.196 1747.25 201.196 1890.89 192.027C2034.54 182.858 1991.03 94.2251 2133.51 100.338C2228.5 104.413 2302.48 129.882 2355.45 176.746L1965.12 398.724L143.674 331.263C-44.4419 686.699 -47.8293 634.174 133.512 173.689Z"/><path id="shape3" transform="translate(-146.551411631463, 470.484573047925)" fill="url(#gradient1)" fill-rule="evenodd" d="M94.2987 137.599C106.524 166.125 147.275 149.825 216.551 88.6982C320.466 -2.99129 314.354 -26.8575 406.043 32.4485C497.733 91.7545 638.323 171.219 717.787 165.106C797.252 158.994 824.759 94.8109 943.955 94.8109C1063.15 94.8109 1050.93 155.937 1228.19 162.05C1405.46 168.162 1448.25 128.43 1561.33 122.318C1674.41 116.205 1692.75 100.923 1863.91 103.98C2035.06 107.036 2064.9 128.43 2149.31 116.205C2205.58 108.055 2290.77 135.562 2404.87 198.726L2261.83 532.449C2136.36 526.679 1986.77 544.337 1813.07 585.425C1639.37 626.512 1083.06 635.312 144.144 611.823C-29.6769 658.357 -46.2919 500.282 94.2987 137.599Z"/><path id="shape0" transform="matrix(1.57682839860048 0.327002670434658 -0.335747476053365 1.6189964268355 1373.56193999602 655.288010429054)" fill="#62c4c6" fill-rule="evenodd" stroke="#000000" stroke-opacity="0" stroke-width="0" stroke-linecap="square" stroke-linejoin="bevel" d="M51.6222 55.3933C20.212 24.4017 4.02898 6.30002 3.07302 1.08822C1.63907 -6.72949 -10.4471 29.1482 25.8112 58.325C62.0695 87.5018 62.0695 87.5018 51.6222 55.3933Z"/><path id="shape01" transform="matrix(1.57682834152804 0.327002658598976 -0.33574746390117 1.61899636823682 1311.21944272169 637.920878931175)" fill="#70dee0" fill-rule="evenodd" stroke="#000000" stroke-opacity="0" stroke-width="0" stroke-linecap="square" stroke-linejoin="bevel" d="M70.287 54.0475C36.8429 32.6387 15.4342 15.8589 6.06057 3.70792C-7.9998 -14.5185 1.54737 38.9456 43.7285 66.372C85.9096 93.7984 85.9096 93.7984 70.287 54.0475Z"/><path id="shape1" transform="matrix(1.57682839860048 0.327002670434658 -0.335747476053365 1.6189964268355 1254.68023232962 677.880595322201)" fill="#7ef8fa" fill-rule="evenodd" stroke="#000000" stroke-opacity="0" stroke-width="0" stroke-linecap="square" stroke-linejoin="bevel" d="M163.347 6.84387L158.451 9.91132C141.927 17.1572 161.814 11.7651 159.504 12.7693C156.04 14.2755 156.247 12.9058 149.62 17.5C142.992 22.0942 152.383 37.8937 136.409 55.6642C135.969 56.1482 115.305 69.8566 106.271 67.4181C97.5391 69.1989 99.543 67.0047 87.8869 66.5139C76.2308 66.0231 64.9587 52.0656 21.5964 55.4284C-21.7659 58.7912 12.158 44.3778 20.6182 43.3402C29.0784 42.3026 63.6377 45.0163 66.7504 43.2604C69.8631 41.5045 91.0137 25.1427 97.8776 24.5042C104.742 23.8657 107.882 31.0136 113.575 21.6221C119.267 12.2306 118.806 10.6264 120.943 6.20825C123.08 1.79013 126.97 0.423117 132.796 0.0240471C138.623 -0.375013 142.813 4.31145 143.052 5.26925C143.292 6.22705 145.207 7.98285 154.226 8.38195C160.239 8.64805 141.234 15.9873 157.336 8.6816C162.013 5.3002 164.285 5.37541 163.347 6.84387Z"/><path id="shape011" transform="matrix(3.04556398593645 0 0 3.04556398593644 1482.1043128343 709.555118855486)" fill="#d2f7e8" fill-rule="evenodd" stroke="#000000" stroke-opacity="0" stroke-width="0" stroke-linecap="square" stroke-linejoin="bevel" d="M0.53351 14.7316C19.3959 10.7506 31.8619 6.06028 37.4848 1.62077C45.9192 -5.03851 25.5282 11.1335 0 8.69885C0.995205 10.2954 2.63567 12.6389 0.53351 14.7316Z"/><ellipse id="shape81" transform="matrix(1.47367054908484 0.305609795789674 -0.313782506599043 1.51307989849667 1447.845652745 719.636341512399)" rx="10.5" ry="9.5" cx="10.5" cy="9.5" fill="#122021" fill-rule="evenodd" stroke="#000000" stroke-opacity="0" stroke-width="0" stroke-linecap="square" stroke-linejoin="bevel"/><circle id="shape82" transform="matrix(1.1639533179084 0.241380636951454 -0.247835711912936 1.19508011421507 1453.79202171783 725.917279603978)" r="5" cx="5" cy="5" fill="#f7fbfd" fill-rule="evenodd" stroke="#000000" stroke-opacity="0" stroke-width="0" stroke-linecap="square" stroke-linejoin="bevel"/><circle id="shape83" transform="matrix(1.1639533179084 0.241380636951454 -0.247835711912936 1.19508011421507 1466.94647687102 738.684095149787)" r="2" cx="2" cy="2" fill="#f7fbfd" fill-rule="evenodd" stroke="#000000" stroke-opacity="0" stroke-width="0" stroke-linecap="square" stroke-linejoin="bevel"/><circle id="shape03" transform="matrix(1.16395329000125 0.24138063116407 -0.247835705970784 1.19508008556162 1461.91083435463 744.923992310491)" r="1.35425449383951" cx="1.35425449383951" cy="1.35425449383951" fill="#f7fbfd" fill-rule="evenodd" stroke="#000000" stroke-opacity="0" stroke-width="0" stroke-linecap="square" stroke-linejoin="bevel"/><path id="shape2" transform="matrix(2.04537647450108 -0.0931037862048924 0.0931037862048915 2.04537647450109 1754.77392813741 324.253335303458)" fill="url(#gradient2)" fill-rule="evenodd" stroke="#000000" stroke-opacity="0" stroke-width="0" stroke-linecap="square" stroke-linejoin="bevel" d="M142.177 33.0588C104.588 3.70723 78.5544 -6.09928 64.0771 3.63924C57.3026 19.6031 55.5185 33.5436 58.7246 45.4609C86.9278 107.069 93.7805 140.531 79.2825 145.848C53.4613 155.317 14.0159 166.922 5.54467 161.172C-2.9266 155.421 -0.102848 157.113 3.58976 164.893C7.28237 172.673 5.54467 179.438 5.76188 183.498C5.97909 187.557 6.84794 192.631 9.88891 175.379C11.1595 168.171 35.6892 162.533 83.4781 158.466C98.3867 146.879 92.9029 109.132 67.0267 45.2257C64.5692 34.5264 67.5717 24.3894 76.0343 14.8146C83.8766 5.5879 103.843 14.1463 135.935 40.4899C142.848 40.2716 144.929 37.7945 142.177 33.0588Z"/><path id="shape3" transform="matrix(2.3176367219474 -0.0887086181078693 0.120357765406077 2.27529638935909 1652.45796691048 703.720458716896)" fill="#f7fbfd" fill-rule="evenodd" stroke="#000000" stroke-opacity="0" stroke-width="0" stroke-linecap="square" stroke-linejoin="bevel" d="M18.3572 0.761255C6.25836 1.55189 0.140404 1.48461 0.00330303 0.559422C-0.202348 -0.828366 9.23061 0.808882 18.3572 0.761255Z"/><path id="shape4" transform="matrix(2.3176367219474 -0.0887086181078693 0.120357765406077 2.27529638935909 1651.20282300281 700.992676317149)" fill="#f7fbfd" fill-rule="evenodd" stroke="#000000" stroke-opacity="0" stroke-width="0" stroke-linecap="square" stroke-linejoin="bevel" d="M19.6364 3.36345C12.9083 6.77151 6.99733 8.35656 1.9036 8.1186C-5.73701 7.76165 11.5417 11.0444 19.8425 4.85044C28.1434 -1.34355 28.1434 -1.34355 19.6364 3.36345Z"/><path id="shape5" transform="matrix(2.3176367219474 -0.0887086181078693 0.120357765406077 2.27529638935909 1653.3670672984 722.62820237212)" fill="#f7fbfd" fill-rule="evenodd" stroke="#000000" stroke-opacity="0" stroke-width="0" stroke-linecap="square" stroke-linejoin="bevel" d="M24.9829 0C4.70296 10.764 4.52739 6.80342 0.901106 9.74428C-2.72517 12.6851 5.69865 8.74601 6.69066 8.7409C7.68268 8.7358 19.6503 4.62381 21.8281 3.73245C24.0059 2.84109 24.0059 2.84109 24.9829 0Z"/><path id="shape02" transform="matrix(2.31763664795129 -0.0887086152756346 0.120357761563366 2.27529631671481 1669.90946093785 740.731157027638)" fill="#f7fbfd" fill-rule="evenodd" stroke="#000000" stroke-opacity="0" stroke-width="0" stroke-linecap="square" stroke-linejoin="bevel" d="M19.6364 3.36345C12.9083 6.77151 6.99733 8.35656 1.9036 8.1186C-5.73701 7.76165 11.5417 11.0444 19.8425 4.85044C28.1434 -1.34355 28.1434 -1.34355 19.6364 3.36345Z"/><path id="shape031" transform="matrix(2.31763666692322 -0.0887086160017939 0.120357762548604 2.27529633534016 1630.45355762222 679.277879971143)" fill="#f7fbfd" fill-rule="evenodd" stroke="#000000" stroke-opacity="0" stroke-width="0" stroke-linecap="square" stroke-linejoin="bevel" d="M28.2474 1.39288C9.63014 2.83952 0.216049 2.71642 0.0050826 1.02358C-0.311366 -1.51568 14.2037 1.48003 28.2474 1.39288Z"/><ellipse id="shape6" transform="matrix(2.3176367219474 -0.0887086181078693 0.120357765406077 2.27529638935909 1619.71923195873 676.298844674489)" rx="4" ry="2" cx="4" cy="2" fill="#f9ff41" fill-rule="evenodd" stroke="#000000" stroke-opacity="0" stroke-width="0" stroke-linecap="square" stroke-linejoin="bevel"/><ellipse id="shape04" transform="matrix(2.3176367219474 -0.0887086181078693 0.120357765406077 2.27529638935909 1641.98648535497 702.312831998097)" rx="4" ry="2" cx="4" cy="2" fill="#f9ff41" fill-rule="evenodd" stroke="#000000" stroke-opacity="0" stroke-width="0" stroke-linecap="square" stroke-linejoin="bevel"/><ellipse id="shape05" transform="matrix(2.31763673466707 -0.0887086185947207 0.120357766066627 2.2752964018464 1643.16280327041 716.930216743837)" rx="4" ry="2" cx="4" cy="2" fill="#f9ff41" fill-rule="evenodd" stroke="#000000" stroke-opacity="0" stroke-width="0" stroke-linecap="square" stroke-linejoin="bevel"/><ellipse id="shape06" transform="matrix(2.31763663574823 -0.0887086148085571 0.120357760929648 2.27529630473469 1646.28802841274 741.681307454159)" rx="4" ry="2" cx="4" cy="2" fill="#f9ff41" fill-rule="evenodd" stroke="#000000" stroke-opacity="0" stroke-width="0" stroke-linecap="square" stroke-linejoin="bevel"/><ellipse id="shape07" transform="matrix(2.31763655089029 -0.0887086115605796 0.120357756522869 2.27529622142699 1662.3979907567 756.711588697403)" rx="4" ry="2" cx="4" cy="2" fill="#f9ff41" fill-rule="evenodd" stroke="#000000" stroke-opacity="0" stroke-width="0" stroke-linecap="square" stroke-linejoin="bevel"/><path id="shape7" transform="matrix(4.05717054335577 -0.184678930052486 0.184678930052481 4.05717054335577 1748.76599775875 676.249869944462)" fill="url(#gradient3)" fill-rule="evenodd" stroke="#000000" stroke-opacity="0" stroke-width="0" stroke-linecap="square" stroke-linejoin="bevel" d="M11.5504 0.745739C15.8097 11.6974 15.8713 19.047 11.7351 22.7946C5.53079 28.416 1.78879 29.4703 0.179547 27.3242C-1.4297 25.1781 8.28109 3.95566 9.28588 1.78767C10.2907 -0.380325 10.2907 -0.380325 11.5504 0.745739Z"/><path id="shape8" transform="matrix(4.05717054335577 -0.184678930052486 0.184678930052481 4.05717054335577 1647.3762711049 565.620435696798)" fill="url(#gradient4)" fill-rule="evenodd" stroke="#000000" stroke-opacity="0" stroke-width="0" stroke-linecap="square" stroke-linejoin="bevel" d="M34.7688 28.2428C31.7211 17.2053 26.0157 10.0166 17.6525 6.67682C5.10779 1.66714 -1.63777 -3.05015 0.340996 2.5027C2.31976 8.05555 6.2792 19.3885 12.2273 23.8852C18.1754 28.3818 20.6805 28.9292 34.7688 28.2428Z"/><path id="shape9" transform="matrix(4.05717054335577 -0.184678930052486 0.184678930052481 4.05717054335577 1648.34557261437 642.877471402808)" fill="url(#gradient5)" fill-rule="evenodd" stroke="#000000" stroke-opacity="0" stroke-width="0" stroke-linecap="square" stroke-linejoin="bevel" d="M34.5978 9.00334C23.2365 0.536002 13.5165 -1.9589 5.43774 1.51863C-6.68036 6.73492 4.04022 11.0779 12.569 11.5748C21.0978 12.0716 30.6723 15.2876 34.5978 9.00334Z"/><path id="shape10" transform="matrix(4.05717054335577 -0.184678930052486 0.184678930052481 4.05717054335577 1676.16527049962 679.248064450645)" fill="url(#gradient6)" fill-rule="evenodd" stroke="#000000" stroke-opacity="0" stroke-width="0" stroke-linecap="square" stroke-linejoin="bevel" d="M28.6697 0C19.4937 0.219694 13.305 0.867354 10.1034 1.94298C5.30108 3.55642 -4.97776 6.98569 2.8454 14.352C10.6686 21.7182 21.853 15.0487 24.3674 12.3803C26.8818 9.7119 26.8818 9.7119 28.6697 0Z"/>
</svg>
