<?xml version="1.0" standalone="no"?>
<!DOCTYPE svg PUBLIC "-//W3C//DTD SVG 20010904//EN" "http://www.w3.org/TR/2001/REC-SVG-20010904/DTD/svg10.dtd">
<!-- Created using Krita: https://krita.org -->
<svg xmlns="http://www.w3.org/2000/svg" 
    xmlns:xlink="http://www.w3.org/1999/xlink"
    xmlns:krita="http://krita.org/namespaces/svg/krita"
    xmlns:sodipodi="http://sodipodi.sourceforge.net/DTD/sodipodi-0.dtd"
    width="2000.16pt"
    height="1000.08pt"
    viewBox="0 0 2000.16 1000.08">
<defs>
  <linearGradient id="gradient0" gradientUnits="objectBoundingBox" x1="0.48076964179973" y1="0.958846014114939" x2="0.45397214878609" y2="0.0611203338272818" spreadMethod="pad">
   <stop stop-color="#ff0060" offset="0.0619834698736668" stop-opacity="1"/>
   <stop stop-color="#00e4ec" offset="0.731404960155487" stop-opacity="0.67843137254902"/>
   <stop stop-color="#00e4ec" offset="0.876033067703247" stop-opacity="0.298039215686275"/>
   <stop stop-color="#00e4ec" offset="0.995867788791656" stop-opacity="0.0509803921568627"/>
  </linearGradient>
  <linearGradient id="gradient1" gradientUnits="objectBoundingBox" x1="0.20245151137721" y1="0.734479198815305" x2="0.974954452200757" y2="0.023298937745605" spreadMethod="pad">
   <stop stop-color="#00e4ec" offset="0.975206613540649" stop-opacity="1"/>
   <stop stop-color="#08f1e6" offset="1" stop-opacity="1"/>
  </linearGradient>
 </defs>
<path id="shape0" transform="matrix(1.00599075224244 0 0 1.00599075224244 -208.585648234714 4.83817078140768)" fill="url(#gradient0)" fill-rule="evenodd" stroke="#000000" stroke-opacity="0" stroke-width="0" stroke-linecap="square" stroke-linejoin="bevel" d="M348.946 192.365C511.056 192.715 708.574 28.4511 805.764 0.445044C887.625 -14.1492 1548.18 335.057 1649.28 333.234C1750.38 331.41 1956.83 102.829 2066.61 56.3428C2176.4 9.8567 2585.62 530.477 2176.86 759.559C1972.48 874.101 1451.83 716.969 955.536 720.212C120.199 650.496 -12.6822 887.075 0.894838 811.123C28.0488 659.217 186.836 192.015 348.946 192.365Z"/><path id="shape01" transform="matrix(1.00599082262512 0 0 1.00599082262512 51.7834558100976 260.382139890452)" fill="#4d50c3" fill-rule="evenodd" stroke="#000000" stroke-opacity="0" stroke-width="0" stroke-linecap="square" stroke-linejoin="bevel" d="M79.3994 296.484C296.397 177.288 375.862 162.006 498.114 198.682C620.367 235.358 666.207 397.343 812.917 397.343C959.617 397.343 1210.24 3.0776 1390.56 0.0212803C1570.88 -3.03504 1655.74 323.991 1871.57 421.793C2015.46 486.994 1982.41 561.234 1772.41 644.511L53.6495 620.499C-25.6279 457.465 -17.0446 349.46 79.3994 296.484Z"/><path id="shape1" transform="matrix(1.00532957866277 0.0364714899989548 -0.0364714899989548 1.00532957866277 -257.013695840299 395.465365253781)" fill="#0a0c6b" fill-rule="evenodd" stroke="#000000" stroke-opacity="0" stroke-width="0" stroke-linecap="square" stroke-linejoin="bevel" d="M249.18 120.556C337.813 44.4076 328.644 -52.5097 466.178 34.0237C603.712 120.556 692.346 203.629 814.598 203.629C936.851 203.629 976.583 170.416 1095.78 127.48C1214.98 84.5438 1325 54.7916 1529.78 141.325C1734.55 227.858 1752.89 227.858 1896.53 217.474C2040.18 207.09 1996.67 106.712 2139.15 113.635C2373.97 113.177 2612.69 471.461 2583.77 507.595C2557.93 516.097 438.325 598.147 140.97 596.216C-206.356 593.96 190.091 171.323 249.18 120.556Z"/><path id="shape02" transform="matrix(0.999999964602852 0 0 0.999999964602852 697.812455057465 683.371259115264)" fill="url(#gradient1)" fill-rule="evenodd" stroke="#000000" stroke-opacity="0" stroke-width="0" stroke-linecap="square" stroke-linejoin="bevel" d="M969.836 108.998C954.707 157.266 538.288 66.7545 493.054 121.068C447.821 175.382 505.152 202.539 619.815 190.469C734.479 178.399 767.673 172.365 773.706 196.505C779.739 220.644 393.287 201.774 284.659 189.705C176.031 177.635 -121.012 281.343 53.9988 374.883C170.674 437.244 461.531 385.184 656.64 352.998C647.72 277.521 113.843 335.627 216.436 261.178C370.325 149.505 782.759 311.167 855.178 262.888C927.59 214.609 857.77 150.988 760.633 148.922C663.496 146.855 517.792 172.689 543.626 146.855C569.46 121.022 605.628 115.855 640.762 117.921C675.897 119.988 966.619 163.371 986.728 128.399C1000.44 118.595 996.237 51.7861 955.937 61.0864C915.636 70.3867 899.84 23.5391 903.972 5.97203C906.73 -5.73938 898.946 5.15082 892.881 0C885.727 19.5494 887.387 54.8862 899.1 65.2199C916.666 80.7202 992.217 61.1576 969.836 108.998Z"/>
</svg>
