<?xml version="1.0" standalone="no"?>
<!DOCTYPE svg PUBLIC "-//W3C//DTD SVG 20010904//EN" "http://www.w3.org/TR/2001/REC-SVG-20010904/DTD/svg10.dtd">
<!-- Created using Krita: https://krita.org -->
<svg xmlns="http://www.w3.org/2000/svg" 
    xmlns:xlink="http://www.w3.org/1999/xlink"
    xmlns:krita="http://krita.org/namespaces/svg/krita"
    xmlns:sodipodi="http://sodipodi.sourceforge.net/DTD/sodipodi-0.dtd"
    width="350pt"
    height="200pt"
    viewBox="0 0 350 200">
<defs/>
<path id="shape0" transform="translate(55.5511471381586, 23.1070713450228)" fill="#b3b3f8" fill-rule="evenodd" stroke="#161cc1" stroke-width="1" stroke-linecap="square" stroke-linejoin="bevel" d="M47.1826 6.74038C35.376 18.8995 28.1069 25.0672 25.3755 25.2434C21.2784 25.5077 11.8948 20.7498 8.59068 20.7498C6.38794 20.7498 3.52438 20.7938 0 20.882L3.17194 9.11934C10.7494 7.53336 15.1108 7.53336 16.2562 9.11934C17.4016 10.7053 18.7233 12.9962 20.2211 15.9919C17.8422 11.4102 17.666 8.32635 19.6925 6.74038C21.719 5.15441 24.1861 2.90761 27.0937 0C27.0937 0 33.79 2.24679 47.1826 6.74038Z"/><path id="shape1" transform="translate(-30.1657263277397, 73.780209084954)" fill="none" stroke="#161cc1" stroke-width="2.3" stroke-linecap="square" stroke-linejoin="bevel" d="M0 0.257827C0 0.171884 0 0.0859422 0 0"/><path id="shape2" transform="translate(-4.91719302233703, 1.02655406918953)" fill="#b3b3f8" fill-rule="evenodd" stroke="#161cc1" stroke-width="1" stroke-linecap="square" stroke-linejoin="bevel" d="M10.0578 52.0207C13.4692 56.9614 17.3512 59.7846 21.7037 60.4904C26.0562 61.1962 31.7027 61.8432 38.6432 62.4314C59.347 70.4306 70.8753 74.3714 73.228 74.2537C75.5807 74.1361 79.8744 74.6655 86.109 75.8418C91.8732 79.3709 95.8728 80.8413 98.1078 80.2531C101.46 79.3709 103.401 79.5473 103.578 76.3712C103.754 73.195 103.225 67.3721 100.402 64.3724C97.5785 61.3727 88.5794 55.7262 82.0506 53.6088C75.5219 51.4913 63.6995 48.3152 62.6408 45.6684C61.935 43.9038 62.582 38.4926 64.5818 29.4347L82.7477 19.1369C88.5894 23.2269 94.0686 25.1832 99.1856 25.0058C104.44 27.1612 108.646 29.5474 110.998 31.7824C113.351 34.0175 115.877 35.3524 118.576 35.787C118.106 37.1986 118.459 38.4926 119.635 39.669C121.4 41.4335 128.987 49.3739 131.281 49.9032C133.575 50.4326 137.986 51.4913 138.868 49.021C139.751 46.5506 140.104 45.6684 139.045 43.5509C137.986 41.4335 132.693 40.9041 131.281 29.4347C130.81 25.6115 120.896 18.0863 101.538 6.85891C91.6388 4.7706 100.377 4.59575 84.242 0C73.066 1.96677 46.6323 6.77883 4.94068 14.4362L0 52.9029C0 52.9029 3.35261 52.6089 10.0578 52.0207Z"/><path id="shape3" transform="translate(63.3013569967898, 61.9942711316483)" fill="none" stroke="#161cc1" stroke-width="2.3" stroke-linecap="square" stroke-linejoin="bevel" d="M0 11.1216C2.00625 4.75394 3.92527 1.04674 5.75707 0"/><path id="shape4" transform="translate(66.1316452388801, 69.8493896055811)" fill="none" stroke="#161cc1" stroke-width="2.3" stroke-linecap="square" stroke-linejoin="bevel" d="M0 4.52471C0.618763 2.04965 1.17952 0.541418 1.68226 0"/><path id="shape5" transform="translate(68.9740882267673, 68.5731907130603)" fill="none" stroke="#161cc1" stroke-width="2.3" stroke-linecap="square" stroke-linejoin="bevel" d="M0 5.62688C0.966817 2.45572 1.83695 0.58009 2.61041 0"/><path id="shape6" transform="translate(82.2919340450101, 65.627799209184)" fill="#6264f9" fill-rule="evenodd" stroke="#000000" stroke-opacity="0" stroke-width="0" stroke-linecap="square" stroke-linejoin="bevel" d="M9.01389 14.7314L1.07125 10.505C-0.862747 6.61232 -0.178069 3.52438 3.12529 1.24117C6.42865 -1.04203 9.89605 -0.175179 13.5275 3.84172L16.128 7.42869C15.777 10.5187 14.9699 12.2823 13.7068 12.7195C11.8123 13.3753 11.4914 15.1686 9.01389 14.7314Z"/><path id="shape7" transform="translate(49.4998954295013, 30.4612510591434)" fill="none" stroke="#161cc1" stroke-width="2.3" stroke-linecap="square" stroke-linejoin="bevel" d="M6.03709 13.7282C2.5637 9.37265 0.551332 4.79659 0 0"/><path id="shape8" transform="translate(53.5538425177793, 28.9726535971074)" fill="none" stroke="#161cc1" stroke-width="2.3" stroke-linecap="square" stroke-linejoin="bevel" d="M3.05824 11.1645C0.687511 5.43062 -0.304887 1.70913 0.0810459 0"/><path id="shape9" transform="translate(112.82776640922, 33.2738371866808)" fill="none" stroke="#161cc1" stroke-width="2.3" stroke-linecap="square" stroke-linejoin="bevel" d="M0 3.69596C2.19334 2.41146 3.56219 1.17947 4.10656 0"/><ellipse id="shape10" transform="matrix(0.999992656601472 -0.00383232868243211 0.00383232868243211 0.999992656601472 98.2211351769683 80.8467206798488)" rx="19.0173773471314" ry="19.5767119749882" cx="19.0173773471314" cy="19.5767119749882" fill="#ff0055" fill-rule="evenodd"/><path id="shape11" transform="matrix(0.999992656601472 -0.00383232868243211 0.00383232868243211 0.999992656601472 102.878369424003 85.9964790369651)" fill="#f7fbfd" fill-rule="evenodd" stroke="#000000" stroke-opacity="0" stroke-width="0" stroke-linecap="square" stroke-linejoin="bevel" d="M4.71166 0C2.60893 1.16818 1.24606 2.25848 0.623029 3.2709C0 4.28332 -0.155757 4.59484 0.155757 4.20545L3.89393 6.19135L6.34711 4.43908C6.34711 4.43908 5.80196 2.95939 4.71166 0Z"/><path id="shape0" transform="matrix(0.479768008827774 0.877395344597195 -0.877395344597195 0.479768008827774 125.907607787551 81.4988792256118)" fill="#f7fbfd" fill-rule="evenodd" stroke="#000000" stroke-opacity="0" stroke-width="0" stroke-linecap="square" stroke-linejoin="bevel" d="M4.71166 0C2.60893 1.16818 1.24606 2.25848 0.623029 3.2709C-3.7037e-08 4.28332 -0.155757 4.59484 0.155757 4.20545L3.89393 6.19135L6.34711 4.43908C6.34711 4.43908 5.80196 2.95939 4.71166 0Z"/><path id="shape01" transform="matrix(-0.769230916341535 0.638970796651398 -0.638970796651398 -0.769230916341535 137.228303186936 103.482013665513)" fill="#f7fbfd" fill-rule="evenodd" stroke="#000000" stroke-opacity="0" stroke-width="0" stroke-linecap="square" stroke-linejoin="bevel" d="M4.71166 0C2.60893 1.16818 1.24606 2.25848 0.623029 3.2709C-6.58436e-08 4.28332 -0.155757 4.59484 0.155757 4.20545L3.89393 6.19135L6.34711 4.43908C6.34711 4.43908 5.80196 2.95939 4.71166 0Z"/><path id="shape02" transform="matrix(-0.740023158669545 -0.672581270971756 0.672581270971756 -0.740023158669545 120.114606359928 120.885727710459)" fill="#f7fbfd" fill-rule="evenodd" stroke="#000000" stroke-opacity="0" stroke-width="0" stroke-linecap="square" stroke-linejoin="bevel" d="M4.71166 0C2.60893 1.16818 1.24606 2.25848 0.623029 3.2709C-8.82487e-08 4.28332 -0.155757 4.59484 0.155757 4.20545L3.89393 6.19135L6.34711 4.43908C6.34711 4.43908 5.80196 2.95939 4.71166 0Z"/><path id="shape03" transform="matrix(0.163324711173115 -0.98657225043117 0.98657225043117 0.163324711173115 100.260646940753 111.895989751292)" fill="#f7fbfd" fill-rule="evenodd" stroke="#000000" stroke-opacity="0" stroke-width="0" stroke-linecap="square" stroke-linejoin="bevel" d="M4.71166 0C2.60893 1.16818 1.24606 2.25848 0.623029 3.2709C-1.05675e-07 4.28332 -0.155757 4.59484 0.155757 4.20545L3.89393 6.19135L6.34711 4.43908C6.34711 4.43908 5.80196 2.95939 4.71166 0Z"/><ellipse id="shape12" transform="matrix(1.04312081114549 -0.0032792907860806 0.00399761115984661 0.855685139944822 94.0113930831241 43.7301339000245)" rx="19.0173773471314" ry="19.5767119749882" cx="19.0173773471314" cy="19.5767119749882" fill="#ff0055" fill-rule="evenodd"/><path id="shape13" transform="matrix(1.04312081114549 -0.0032792907860806 0.00399761115984661 0.855685139944822 98.8694867235037 48.1367379599655)" fill="#f7fbfd" fill-rule="evenodd" stroke="#000000" stroke-opacity="0" stroke-width="0" stroke-linecap="square" stroke-linejoin="bevel" d="M4.71166 0C2.60893 1.16818 1.24606 2.25848 0.623029 3.2709C0 4.28332 -0.155757 4.59484 0.155757 4.20545L3.89393 6.19135L6.34711 4.43908C6.34711 4.43908 5.80196 2.95939 4.71166 0Z"/><path id="shape04" transform="matrix(0.500459669604885 0.750779671502921 -0.915236064494671 0.410533370484991 122.891940931805 44.2881803744797)" fill="#f7fbfd" fill-rule="evenodd" stroke="#000000" stroke-opacity="0" stroke-width="0" stroke-linecap="square" stroke-linejoin="bevel" d="M4.71166 0C2.60893 1.16818 1.24606 2.25848 0.623029 3.2709C-3.7037e-08 4.28332 -0.155757 4.59484 0.155757 4.20545L3.89393 6.19135L6.34711 4.43908C6.34711 4.43908 5.80196 2.95939 4.71166 0Z"/><path id="shape05" transform="matrix(-0.802406669804328 0.546761830643328 -0.666528630286648 -0.658224297902931 134.700880617293 63.0989599791639)" fill="#f7fbfd" fill-rule="evenodd" stroke="#000000" stroke-opacity="0" stroke-width="0" stroke-linecap="square" stroke-linejoin="bevel" d="M4.71166 0C2.60893 1.16818 1.24606 2.25848 0.623029 3.2709C-6.58436e-08 4.28332 -0.155757 4.59484 0.155757 4.20545L3.89393 6.19135L6.34711 4.43908C6.34711 4.43908 5.80196 2.95939 4.71166 0Z"/><path id="shape06" transform="matrix(-0.7719392261952 -0.575522025263327 0.701588672982551 -0.633231470159605 116.849096208639 77.9911688266974)" fill="#f7fbfd" fill-rule="evenodd" stroke="#000000" stroke-opacity="0" stroke-width="0" stroke-linecap="square" stroke-linejoin="bevel" d="M4.71166 0C2.60893 1.16818 1.24606 2.25848 0.623029 3.2709C-8.82487e-08 4.28332 -0.155757 4.59484 0.155757 4.20545L3.89393 6.19135L6.34711 4.43908C6.34711 4.43908 5.80196 2.95939 4.71166 0Z"/><path id="shape07" transform="matrix(0.170368656283942 -0.844201413483291 1.02912160337346 0.139755554617348 96.1388658713846 70.2987271543756)" fill="#f7fbfd" fill-rule="evenodd" stroke="#000000" stroke-opacity="0" stroke-width="0" stroke-linecap="square" stroke-linejoin="bevel" d="M4.71166 0C2.60893 1.16818 1.24606 2.25848 0.623029 3.2709C-1.05675e-07 4.28332 -0.155757 4.59484 0.155757 4.20545L3.89393 6.19135L6.34711 4.43908C6.34711 4.43908 5.80196 2.95939 4.71166 0Z"/><rect id="shape14" transform="matrix(1.40098324726034 -0.507724444642901 0.507724444642901 1.40098324726034 182.724876657853 128.020485103177)" fill="#d7d7fc" fill-rule="evenodd" width="90" height="51" rx="8" ry="8"/><text id="shape15" krita:useRichText="true" transform="matrix(0.508823638531415 1.40058440504803 -1.40058440504803 0.508823638531415 286.820164725757 92.1393194953345)" fill="#ff0055" stroke="#000000" stroke-opacity="0" stroke-width="0" stroke-linecap="square" stroke-linejoin="bevel" font-family="AppleMyungjo" font-size="18" font-size-adjust="0.390779" font-stretch="normal" letter-spacing="0" word-spacing="0"><tspan x="0">A</tspan></text><text id="shape08" krita:useRichText="true" transform="matrix(0.508823650033482 1.40058443670854 -1.40058443670854 0.508823650033482 207.699707691448 173.993547541125)" fill="#ff0055" stroke="#000000" stroke-opacity="0" stroke-width="0" stroke-linecap="square" stroke-linejoin="bevel" font-family="AppleMyungjo" font-size="18" font-size-adjust="0.390779" font-stretch="normal" letter-spacing="0" word-spacing="0"><tspan x="0">A</tspan></text><path id="shape16" transform="matrix(1.40098324726034 -0.507724444642901 0.507724444642901 1.40098324726034 241.235030539781 127.017901219568)" fill="#ff0055" fill-rule="evenodd" d="M20.8281 12.2518L0.816788 26.5456L0 0"/><path id="shape09" transform="matrix(1.40098318741148 -0.507724422953329 0.507724422953328 1.40098318741148 232.113958461771 169.507816954657)" fill="#ff0055" fill-rule="evenodd" stroke="#000000" stroke-opacity="0" stroke-width="0" stroke-linecap="square" stroke-linejoin="bevel" d="M5.26012 3.09418L0.206279 6.70406L0 0"/><path id="shape010" transform="matrix(1.40098313687359 -0.507724404638105 0.507724404638105 1.40098313687359 276.549092281088 101.248012392835)" fill="#ff0055" fill-rule="evenodd" stroke="#000000" stroke-opacity="0" stroke-width="0" stroke-linecap="square" stroke-linejoin="bevel" d="M5.26012 3.09418L0.206279 6.70406L0 0"/><rect id="shape17" transform="matrix(1.40033600573306 -0.509506861425475 0.509506861425475 1.40033600573306 143.524176281991 107.0850170697)" fill="#d7d7fc" fill-rule="evenodd" stroke="#ffffff" stroke-width="1" stroke-linecap="square" stroke-linejoin="bevel" width="90" height="51" rx="8" ry="8"/><text id="shape18" krita:useRichText="true" transform="matrix(0.510605546875422 1.39993576505929 -1.39993576505929 0.510605546875422 247.056438945998 73.7219816032311)" fill="#ff0055" stroke="#000000" stroke-opacity="0" stroke-width="0" stroke-linecap="square" stroke-linejoin="bevel" font-family="AppleMyungjo" font-size="18" font-size-adjust="0.390779" font-stretch="normal" letter-spacing="0" word-spacing="0"><tspan x="0">K</tspan></text><text id="shape011" krita:useRichText="true" transform="matrix(0.510605558417769 1.39993579670513 -1.39993579670514 0.510605558417769 168.557490332494 153.026260443481)" fill="#ff0055" stroke="#000000" stroke-opacity="0" stroke-width="0" stroke-linecap="square" stroke-linejoin="bevel" font-family="AppleMyungjo" font-size="18" font-size-adjust="0.390779" font-stretch="normal" letter-spacing="0" word-spacing="0"><tspan x="0">K</tspan></text><path id="shape012" transform="matrix(1.40033594591185 -0.509506839659759 0.509506839659759 1.40033594591185 193.082891721477 150.191279338701)" fill="#ff0055" fill-rule="evenodd" stroke="#000000" stroke-opacity="0" stroke-width="0" stroke-linecap="square" stroke-linejoin="bevel" d="M5.26012 3.09418L0.206279 6.70406L0 0"/><path id="shape013" transform="matrix(1.40033589539731 -0.509506821280237 0.509506821280237 1.40033589539731 238.122250149089 83.1023778126698)" fill="#ff0055" fill-rule="evenodd" stroke="#000000" stroke-opacity="0" stroke-width="0" stroke-linecap="square" stroke-linejoin="bevel" d="M5.26012 3.09418L0.206279 6.70406L0 0"/><path id="shape19" transform="matrix(0.323347548091936 -0.117183024566971 0.117183024566971 0.323347548091936 195.083233650708 105.155763107281)" fill="none" stroke="#ff0055" stroke-width="2" stroke-linecap="square" stroke-linejoin="bevel" d="M39.0563 11.5885C36.1388 12.0053 33.6381 11.0676 31.5542 8.77523C29.4703 6.48291 28.2199 7.21229 27.8031 10.9634L22.4891 9.08782C24.9566 11.5885 24.123 13.0473 19.9884 13.4641C13.7864 14.0892 14.6744 10.0256 10.2981 13.1515C5.92188 16.2774 -1.58025 18.4655 0.295282 32.2194C2.17082 45.9733 13.7864 48.7866 13.7864 52.2251C13.7864 54.5174 33.9839 52.3293 74.3789 45.6607L73.1285 17.2151C60.625 15.3396 51.9767 10.755 47.1836 3.46122C39.9941 -7.47939 42.8074 10.6508 41.2444 14.7144C39.6815 18.7781 36.5556 20.0284 39.9941 21.2788C42.2864 22.1124 44.2661 22.2166 45.9333 21.5914"/><path id="shape20" transform="matrix(0.323347548091936 -0.117183024566971 0.117183024566971 0.323347548091936 204.658819747336 105.488452154104)" fill="none" stroke="#ff0055" stroke-width="2" stroke-linecap="square" stroke-linejoin="bevel" d="M0 9.91119C2.02629 5.85862 2.90728 2.55489 2.64298 0"/><path id="shape21" transform="matrix(0.323347548091936 -0.117183024566971 0.117183024566971 0.323347548091936 217.98778627365 104.398259974351)" fill="none" stroke="#ff0055" stroke-width="2.3" stroke-linecap="square" stroke-linejoin="bevel" d="M3.19174 0C6.10766 5.91063 5.04374 11.8607 0 17.8501"/><path id="shape22" transform="matrix(0.323347548091936 -0.117183024566971 0.117183024566971 0.323347548091936 216.001102652694 105.24797767254)" fill="none" stroke="#ff0055" stroke-width="2.3" stroke-linecap="square" stroke-linejoin="bevel" d="M5.09051 0C6.58787 3.46757 6.31204 6.42289 4.26302 8.86595C1.18949 12.5305 -0.11085 11.8213 0.00736284 16.5498"/><path id="shape23" transform="matrix(0.323347548091936 -0.117183024566971 0.117183024566971 0.323347548091936 214.602538600776 106.273753567502)" fill="none" stroke="#ff0055" stroke-width="2.3" stroke-linecap="square" stroke-linejoin="bevel" d="M2.24604 0C0.74868 1.10332 0 2.48247 0 4.13744"/><ellipse id="shape24" transform="matrix(0.323347548091936 -0.117183024566971 0.117183024566971 0.323347548091936 215.862102935908 106.180402850606)" rx="2.5" ry="1.5" cx="2.5" cy="1.5" fill="none" stroke="#ff0055" stroke-width="2.3" stroke-linecap="square" stroke-linejoin="bevel"/><path id="shape25" transform="matrix(0.323347548091936 -0.117183024566971 0.117183024566971 0.323347548091936 197.354124435176 120.823666687424)" fill="none" stroke="#ff0055" stroke-width="2.3" stroke-linecap="square" stroke-linejoin="bevel" d="M82.6184 64.4882C38.5553 72.9337 14.4429 76.1772 10.2814 74.2189C6.11988 72.2605 4.10032 68.2826 4.22272 62.2851L0 9.22572C2.08076 3.22824 4.40631 0.229496 6.97666 0.229496C10.8322 0.229496 15.7893 -0.688487 17.2581 1.14748C18.7268 2.98344 17.9925 10.3273 25.5199 9.40932C30.5382 8.79733 50.0606 5.73739 84.0872 0.229496C84.0872 0.229496 83.5976 21.6491 82.6184 64.4882Z"/><path id="shape26" transform="matrix(0.323347548091936 -0.117183024566971 0.117183024566971 0.323347548091936 207.116769922886 137.383974155426)" fill="none" stroke="#ff0055" stroke-width="2.3" stroke-linecap="square" stroke-linejoin="bevel" d="M71.7862 0L12.8192 9.54701C6.8434 11.1382 2.57035 10.2202 0 6.79307"/><path id="shape014" transform="matrix(0.323347552612376 -0.117183026205204 0.117183026205204 0.323347552612376 205.899437535345 134.571865201755)" fill="none" stroke="#ff0055" stroke-width="2.3" stroke-linecap="square" stroke-linejoin="bevel" d="M71.7862 0L12.8192 9.54701C6.8434 11.1382 2.57035 10.2202 0 6.79307"/><path id="shape015" transform="matrix(0.323347546403427 -0.117183023955045 0.117183023955045 0.323347546403427 204.617559799994 131.581659398393)" fill="none" stroke="#ff0055" stroke-width="2.3" stroke-linecap="square" stroke-linejoin="bevel" d="M71.7862 0L12.8192 9.54701C6.8434 11.1382 2.57035 10.2202 0 6.79307"/><path id="shape016" transform="matrix(0.323347547871956 -0.117183024487249 0.117183024487249 0.323347547871956 203.540472252909 128.785886583788)" fill="none" stroke="#ff0055" stroke-width="2.3" stroke-linecap="square" stroke-linejoin="bevel" d="M71.7862 0L12.8192 9.54701C6.8434 11.1382 2.57035 10.2202 0 6.79307"/><path id="shape017" transform="matrix(0.323347551948776 -0.117183025964711 0.117183025964711 0.323347551948775 202.39366415753 125.61240685686)" fill="none" stroke="#ff0055" stroke-width="2.3" stroke-linecap="square" stroke-linejoin="bevel" d="M71.7862 0L12.8192 9.54701C6.8434 11.1382 2.57035 10.2202 0 6.79307"/><path id="shape27" transform="matrix(0.323347548091936 -0.117183024566971 0.117183024566971 0.323347548091936 200.638084600788 122.300585488486)" fill="none" stroke="#ff0055" stroke-width="2.3" stroke-linecap="square" stroke-linejoin="bevel" d="M75.7228 1.24084L9.44446 12.073C3.41748 12.8229 0.281587 11.1372 0.036792 7.01568C-0.330401 0.833456 2.12391 0.192695 4.14347 0.00909893C6.16303 -0.174498 8.79555 2.46449 9.16274 3.93326C9.52993 5.40203 8.26308 7.01568 6.05992 7.01568"/><path id="shape28" transform="matrix(0.323347548091936 -0.117183024566971 0.117183024566971 0.323347548091936 218.488941100073 94.5404825210092)" fill="#ff0055" fill-rule="evenodd" stroke="#ff0055" stroke-width="2.3" stroke-linecap="square" stroke-linejoin="bevel" d="M0.310565 22.8265C11.4909 23.5512 18.3751 23.3441 20.9631 22.2054C23.5512 21.0666 31.0047 13.6648 43.3238 0C32.3505 13.5613 26.8638 23.7064 26.8638 30.4353C26.8638 37.1642 27.5367 42.1333 28.8825 45.3424L41.7709 65.2168C34.5244 72.2574 30.2801 78.4693 29.0378 83.8525C27.1744 91.9271 25.311 102.331 30.5906 111.959C34.1104 118.377 37.0607 123.398 39.4417 127.021L43.0132 131.369C32.661 122.984 25.9839 117.808 22.9818 115.841C19.9797 113.874 12.3191 113.977 0 116.151C0 116.151 0.103522 85.043 0.310565 22.8265Z"/>
</svg>
