<?xml version="1.0" standalone="no"?>
<!DOCTYPE svg PUBLIC "-//W3C//DTD SVG 20010904//EN" "http://www.w3.org/TR/2001/REC-SVG-20010904/DTD/svg10.dtd">
<!-- Created using Krita: https://krita.org -->
<svg xmlns="http://www.w3.org/2000/svg" 
    xmlns:xlink="http://www.w3.org/1999/xlink"
    xmlns:krita="http://krita.org/namespaces/svg/krita"
    xmlns:sodipodi="http://sodipodi.sourceforge.net/DTD/sodipodi-0.dtd"
    width="1000pt"
    height="1000pt"
    viewBox="0 0 1000 1000">
<defs>
  <linearGradient id="gradient0" gradientUnits="objectBoundingBox" x1="0.50195881538329" y1="0.0118089538846959" x2="0.500559423355621" y2="0.653531847002087" spreadMethod="pad">
   <stop stop-color="#00a8b2" offset="0" stop-opacity="1"/>
   <stop stop-color="#00a8b2" offset="0.119834710743802" stop-opacity="1"/>
   <stop stop-color="#ff005d" offset="0.566115702479339" stop-opacity="0.52156862745098"/>
   <stop stop-color="#ff005d" offset="0.847107438016529" stop-opacity="0"/>
  </linearGradient>
 </defs>
<path id="shape0" transform="matrix(1.32392900388164 -0.00392053748526738 0.00392053748526738 1.32392900388164 42.2692351816088 45.7406027872448)" fill="#8f8277" fill-rule="evenodd" stroke="#8f8277" stroke-width="5.440008" stroke-linecap="square" stroke-linejoin="bevel" d="M96.0356 423.461C87.9191 416.152 81.4255 412.264 76.5549 411.8C69.2489 411.102 59.5105 395.792 60.2072 391.27C60.9039 386.747 52.9025 384.31 53.2514 379.091C53.6004 373.873 56.3859 362.392 51.515 363.087C46.6442 363.782 39.6846 370.739 34.8148 366.215C29.9449 361.691 26.1214 343.947 31.3406 341.513C36.5597 339.079 37.6058 327.25 34.8233 323.074C32.0409 318.899 21.6089 291.76 24.0466 280.279C26.4842 268.799 28.2243 266.016 21.6154 259.404C15.0064 252.793 -4.4647 192.948 2.14607 190.514C8.75684 188.08 34.5023 187.389 30.6768 180.083C26.8512 172.776 28.9406 163.035 19.5473 161.641C10.154 160.248 -0.976627 147.721 0.0684143 141.111C1.11346 134.501 10.8585 116.759 26.5143 117.458C42.1701 118.157 43.5621 116.07 36.9546 102.152C30.3471 88.2343 18.1719 79.5341 19.2175 70.1408C20.2631 60.7474 49.8371 52.7513 70.7116 52.7555C91.5862 52.7596 172.995 65.9964 191.432 76.0894C209.869 86.1824 208.303 93.4875 215.173 94.1851C222.044 94.8826 227.96 85.1423 218.917 76.4428C209.873 67.7432 206.397 49.3033 191.089 49.3003C175.781 49.2972 163.256 48.9468 164.302 41.293C165.347 33.6392 178.567 33.9897 176.481 26.3353C174.396 18.6809 157.694 28.767 158.391 19.7214C159.089 10.6759 163.615 -5.67494 195.273 1.98535C226.932 9.64565 283.287 43.0562 294.764 62.5414C306.241 82.0266 298.586 85.1563 307.284 85.5059C315.982 85.8556 331.291 77.1609 341.723 104.996C352.155 132.831 360.848 158.23 359.802 166.579C358.757 174.929 353.884 186.061 348.315 195.454C342.747 204.846 335.789 205.888 345.18 216.328C354.572 226.767 355.265 239.987 357.003 246.598C358.741 253.209 381 291.831 380.998 301.573C380.996 311.314 379.946 341.582 375.77 346.8C371.594 352.018 376.812 358.977 371.244 363.151C365.677 367.325 355.586 373.933 356.629 379.847C357.671 385.762 362.891 382.284 368.804 386.46C374.718 390.636 379.937 388.202 376.804 396.551C373.671 404.9 360.1 416.727 355.579 411.507C351.057 406.288 346.878 424.03 336.442 417.766C326.006 411.501 338.182 415.545 326.005 419.503C317.886 422.142 313.595 423.461 313.132 423.461C313.132 422.676 240.766 422.676 96.0356 423.461Z"/><path id="shape1" transform="matrix(1.32392900388164 -0.00392053748526738 0.00392053748526738 1.32392900388164 124.515347060821 225.552919704648)" fill="#d1baaa" fill-rule="evenodd" stroke="#000000" stroke-opacity="0" stroke-width="0" stroke-linecap="square" stroke-linejoin="bevel" d="M49.9933 319.894C50.2784 314.498 48.8594 308.959 45.7362 303.278C41.0514 294.756 24.0172 257.261 23.592 252.574C23.1669 247.888 25.7212 257.687 18.9047 256.834C12.0882 255.98 1.86565 243.623 3.57083 238.511C5.27602 233.399 -1.10862 203.149 0.170776 196.758C1.45017 190.368 2.73328 165.231 4.8646 159.693C6.99591 154.155 11.6782 175.032 16.7916 170.773C21.9049 166.513 24.0351 166.94 25.3148 158.845C26.5945 150.751 18.6282 133.877 21.1861 125.782C22.8913 120.386 28.8236 108.231 38.9829 89.3173C31.8686 87.6689 29.3061 83.5786 31.2956 77.0464C34.2799 67.248 48.7724 31.4633 62.8332 24.2234C76.8941 16.9834 98.198 8.04076 110.127 7.19104C122.057 6.34132 122.91 1.65502 128.874 0.804118C134.839 -0.0467834 153.453 -0.470544 153.453 0.808597C153.453 2.08774 207.263 17.8614 213.654 17.0106C220.045 16.1597 246.026 50.2483 250.712 53.6576C255.398 57.0668 257.098 76.6651 263.913 84.3352C270.729 92.0054 280.766 140.776 277.354 159.095C275.079 171.308 274.001 180.046 274.118 185.309C282.358 172.53 287.897 166.566 290.738 167.419C294.998 168.698 305.647 176.369 301.384 189.149C297.121 201.93 281.778 232.176 282.202 239.844C282.627 247.513 285.182 255.609 279.642 259.868C274.103 264.127 265.581 267.108 264.73 262.847C263.879 258.587 248.533 298.206 242.994 305.021C237.454 311.837 234.044 316.522 236.6 321.635C238.303 325.044 240.429 348.051 242.977 390.656L136.455 443.464L38.0597 342.046C38.0597 342.046 42.0376 334.662 49.9933 319.894Z"/><path id="shape2" transform="matrix(1.32392900388164 -0.00392053748526738 0.00392053748526738 1.32392900388164 155.386232644137 639.79415793463)" fill="#d5d5d5" fill-rule="evenodd" stroke="#ffffff" stroke-width="1" stroke-linecap="square" stroke-linejoin="bevel" d="M95.8752 183.255L0 66.7486L20.5311 17.5814L20.6314 0L24.879 7.28166C37.0947 15.0999 44.916 18.8866 48.3429 18.6418C53.4831 18.2747 52.3817 18.0911 53.4831 19.3762C54.2175 20.2329 67.4965 30.5134 93.3203 50.2178L125.814 93.7266C124.59 95.44 124.468 96.3579 125.447 96.4803C126.426 96.6027 129.18 96.6027 133.708 96.4803L193.189 29.4731C203.608 25.0412 209.48 21.9418 210.805 20.1749C212.13 18.4081 213.693 14.8169 215.493 9.40123L229.126 104.837L98.5482 186.573C98.5482 186.573 97.6572 185.467 95.8752 183.255Z"/><path id="shape3" transform="matrix(1.32392900388164 -0.00392053748526738 0.00392053748526738 1.32392900388164 156.775324219012 676.303608728027)" fill="#1faab3" fill-rule="evenodd" d="M10.4744 0C50.7633 40.6964 71.5904 61.9832 72.9556 63.8604C75.0035 66.6763 70.6517 73.844 71.6757 83.0596C72.3583 89.2033 56.9185 86.9934 25.3562 76.43C7.95471 62.3604 -0.490029 49.6085 0.021949 38.1743C0.789915 21.023 6.73856 18.7274 10.4744 0Z"/><path id="shape4" transform="matrix(1.32392900388164 -0.00392053748526738 0.00392053748526738 1.32392900388164 248.874027887951 762.272836461417)" fill="#21b2bd" fill-rule="evenodd" d="M4.35181 0L0 22.783C5.29044 25.6842 8.78895 28.5001 10.4955 31.2306C13.0554 35.3265 10.2396 39.9343 13.0554 43.0061C15.8713 46.078 18.9432 44.0301 20.7351 48.3819C21.9297 51.2831 23.039 57.6828 24.063 67.5811C35.8384 60.4134 45.6513 57.6828 53.5017 59.3894C65.2772 61.9493 75.2607 76.5407 76.7967 70.6529C78.3326 64.7652 82.6844 17.6632 83.1964 15.8713C83.7083 14.0794 72.1889 14.0794 69.373 12.2875C66.5571 10.4955 62.2053 7.42368 57.0855 8.19164C51.9657 8.95961 52.2217 8.44763 48.3819 7.16769C44.5421 5.88774 41.2142 6.9117 37.6304 6.14373C34.0465 5.37577 31.2306 2.55989 27.1348 2.55989C23.039 2.55989 18.1752 6.39972 14.8474 3.32785C11.5195 0.255989 11.5195 0.255989 4.35181 0Z"/><path id="shape5" transform="matrix(1.32392900388164 -0.00392053748526738 0.00392053748526738 1.32392900388164 243.512331289864 841.356961087142)" fill="url(#gradient0)" fill-rule="evenodd" d="M81.5012 6.68497C74.5982 2.42298 67.8597 0.201307 61.2855 0.0199457C51.4241 -0.252096 34.4134 2.3323 33.9203 3.28445C33.4272 4.23659 29.2362 9.94947 28.4966 13.0779C28.0035 15.1636 18.5046 67.4943 0 170.07L58.1612 207.677L127.545 168.619C127.545 168.619 112.197 114.641 81.5012 6.68497Z"/><path id="shape6" transform="matrix(1.32392900388164 -0.00392053748526738 0.00392053748526738 1.32392900388164 347.623014843718 676.941798326784)" fill="#1ea8b2" fill-rule="evenodd" d="M0.352092 77.6721C-0.352092 72.602 2.52021e-14 69.0107 1.40837 66.8981C2.81674 64.7856 27.1691 42.4862 74.4654 0C80.4856 30.183 82.6064 52.6028 80.8277 67.2595C78.1598 89.2444 33.1167 95.9803 26.5075 97.7196C16.5937 100.328 15.5501 102.937 9.28881 103.981C3.02747 105.024 3.02747 105.024 0.352092 77.6721Z"/><path id="shape0" transform="matrix(1.32392901758588 -0.0039205375258496 0.0039205375258496 1.32392901758588 222.830210535991 663.47562596927)" fill="#ffffff" fill-rule="evenodd" stroke="#000000" stroke-opacity="0" stroke-width="0" stroke-linecap="square" stroke-linejoin="bevel" d="M75.4749 76.6304L15.7685 71.4007L23.3952 21.718L0.0792387 1.45271C-0.211303 -7.40741e-08 0.297145 -0.363177 1.60458 0.363177C2.91202 1.08953 17.0033 11.6943 43.8784 32.1775C43.8784 32.1775 54.4106 46.9951 75.4749 76.6304Z"/><path id="shape01" transform="matrix(1.323929012146 -0.00392053750974055 0.00392053750974055 1.323929012146 333.78239111592 678.899952873758)" fill="#ffffff" fill-rule="evenodd" stroke="#000000" stroke-opacity="0" stroke-width="0" stroke-linecap="square" stroke-linejoin="bevel" d="M58.6027 0L57.6816 70.341L0 65.2326C0.614084 64.3136 20.1483 42.5694 58.6027 0Z"/><circle id="shape7" transform="matrix(1.32392900388164 -0.00392053748526738 0.00392053748526738 1.32392900388164 220.87153841696 371.511234030829)" r="20" cx="20" cy="20" fill="#122021" fill-rule="evenodd"/><circle id="shape8" transform="matrix(1.32392900388164 -0.00392053748526738 0.00392053748526738 1.32392900388164 240.753996700097 379.39599999184)" r="5" cx="5" cy="5" fill="#ffffff" fill-rule="evenodd"/><circle id="shape9" transform="matrix(1.32392900388164 -0.00392053748526738 0.00392053748526738 1.32392900388164 253.152177612386 391.405083814361)" r="3" cx="3" cy="3" fill="#ffffff" fill-rule="evenodd"/><circle id="shape10" transform="matrix(1.32392900388164 -0.00392053748526738 0.00392053748526738 1.32392900388164 241.134360852909 394.368960838676)" r="4" cx="4" cy="4" fill="#ffffff" fill-rule="evenodd"/><circle id="shape02" transform="matrix(1.32392900388164 -0.00392053748526738 0.00392053748526738 1.32392900388164 365.473777172788 372.017069987334)" r="20" cx="20" cy="20" fill="#122021" fill-rule="evenodd" stroke="#000000" stroke-opacity="0" stroke-width="0" stroke-linecap="square" stroke-linejoin="bevel"/><circle id="shape1" transform="matrix(1.32392900388164 -0.00392053748526738 0.00392053748526738 1.32392900388164 385.356235455924 379.901835948345)" r="5" cx="5" cy="5" fill="#ffffff" fill-rule="evenodd" stroke="#000000" stroke-opacity="0" stroke-width="0" stroke-linecap="square" stroke-linejoin="bevel"/><circle id="shape2" transform="matrix(1.32392900388164 -0.00392053748526738 0.00392053748526738 1.32392900388164 397.754416368214 391.910919770867)" r="3" cx="3" cy="3" fill="#ffffff" fill-rule="evenodd" stroke="#000000" stroke-opacity="0" stroke-width="0" stroke-linecap="square" stroke-linejoin="bevel"/><circle id="shape3" transform="matrix(1.32392900388164 -0.00392053748526738 0.00392053748526738 1.32392900388164 385.736599608736 394.874796795182)" r="4" cx="4" cy="4" fill="#ffffff" fill-rule="evenodd" stroke="#000000" stroke-opacity="0" stroke-width="0" stroke-linecap="square" stroke-linejoin="bevel"/><path id="shape11" transform="matrix(1.32392900388164 -0.00392053748526738 0.00392053748526738 1.32392900388164 357.410008758938 453.736964323693)" fill="#ba987d" fill-rule="evenodd" stroke="#ba987d" stroke-width="1.33000056" stroke-linecap="square" stroke-linejoin="bevel" d="M0 0C22.6027 34.6343 33.9036 53.9548 33.9028 57.9616C33.902 61.9683 33.7586 63.8286 33.4724 63.5423"/><path id="shape12" transform="matrix(1.32392900388164 -0.00392053748526738 0.00392053748526738 1.32392900388164 237.485710439774 459.194268214658)" fill="#ba987d" fill-rule="evenodd" stroke="#ba987d" stroke-width="1.33000056" stroke-linecap="square" stroke-linejoin="bevel" d="M40.7945 0C13.5997 31.1901 0.00147603 50.5056 0 57.9468"/><path id="shape13" transform="matrix(1.32392900388164 -0.00392053748526738 0.00392053748526738 1.32392900388164 376.663468498993 428.107526097258)" fill="none" stroke="#ba987d" stroke-width="1.33000056" stroke-linecap="square" stroke-linejoin="bevel" d="M0 0C19.461 1.72104 30.9083 5.01457 34.3417 9.8806C39.4917 17.1796 46.7867 32.6357 51.9381 33.4953C55.3723 34.0684 57.0894 34.3549 57.0894 34.3549"/><path id="shape14" transform="matrix(1.32392900388164 -0.00392053748526738 0.00392053748526738 1.32392900388164 204.953793790972 425.849790684618)" fill="none" stroke="#ba987d" stroke-width="1.33000056" stroke-linecap="square" stroke-linejoin="bevel" d="M46.5418 0C31.8973 1.98273 22.4651 4.27675 18.2451 6.88206C11.9151 10.79 2.04739 18.9788 0 17.4892"/><path id="shape15" transform="matrix(1.32392900388164 -0.00392053748526738 0.00392053748526738 1.32392900388164 176.932323406247 364.464880788199)" fill="none" stroke="#ba987d" stroke-width="1.33000056" stroke-linecap="square" stroke-linejoin="bevel" d="M65.531 1.19232C50.2669 -1.41685 38.7251 0.256239 30.9055 6.21159C19.176 15.1446 22.8976 22.5915 11.9137 27.2432C4.59102 30.3443 0.619797 30.0953 0 26.4962"/><path id="shape16" transform="matrix(1.32392900388164 -0.00392053748526738 0.00392053748526738 1.32392900388164 381.031610425918 357.385199594548)" fill="none" stroke="#ba987d" stroke-width="1.33000056" stroke-linecap="square" stroke-linejoin="bevel" d="M0 5.67853C3.05622 -1.68004 10.4154 -1.88686 22.0777 5.05808C39.571 15.4755 36.8588 38.5939 49.1475 37.5549"/><path id="shape17" transform="matrix(1.32392900388164 -0.00392053748526738 0.00392053748526738 1.32392900388164 220.599362398859 286.870401533557)" fill="none" stroke="#ba987d" stroke-width="1.33000056" stroke-linecap="square" stroke-linejoin="bevel" d="M0 15.1918C23.4532 3.76413 37.5247 -1.21639 42.2146 0.250221"/><path id="shape18" transform="matrix(1.32392900388164 -0.00392053748526738 0.00392053748526738 1.32392900388164 293.961605658132 289.898608590501)" fill="none" stroke="#ba987d" stroke-width="1.33000056" stroke-linecap="square" stroke-linejoin="bevel" d="M0 0C20.8122 2.34922 36.2016 3.81795 46.1681 4.4062C61.1178 5.28857 60.6791 0.451741 69.9126 1.77268C76.0683 2.65331 82.2237 4.99962 88.3788 8.81162"/><path id="shape19" transform="matrix(1.32392900388164 -0.00392053748526738 0.00392053748526738 1.32392900388164 249.060937496154 263.356258778119)" fill="none" stroke="#ba987d" stroke-width="1.33000056" stroke-linecap="square" stroke-linejoin="bevel" d="M0 9.1491C41.6276 -2.27495 78.4163 -3.0005 110.366 6.97247"/><path id="shape20" transform="matrix(1.32392900388164 -0.00392053748526738 0.00392053748526738 1.32392900388164 234.440650178138 571.241620132726)" fill="none" stroke="#ba987d" stroke-width="1.33000056" stroke-linecap="square" stroke-linejoin="bevel" d="M15.205 0C3.76971 12.8286 -1.21543 21.5317 0.24955 26.1091"/><path id="shape21" transform="matrix(1.32392900388164 -0.00392053748526738 0.00392053748526738 1.32392900388164 298.31931614343 603.126872511709)" fill="none" stroke="#ba987d" stroke-width="1.33000056" stroke-linecap="square" stroke-linejoin="bevel" d="M0 1.88264C16.3474 -0.627547 26.3437 -0.627547 29.9888 1.88264"/><path id="shape22" transform="matrix(1.32392900388164 -0.00392053748526738 0.00392053748526738 1.32392900388164 290.228398178806 482.066361103491)" fill="#f09b91" fill-rule="evenodd" stroke="#ba987d" stroke-width="1.33000056" stroke-linecap="square" stroke-linejoin="bevel" d="M13.7731 5.85529C12.5615 8.88248 10.4854 9.6173 7.5448 8.05975C3.13386 5.72343 -1.14774 5.46309 0.279735 4.1659C1.70721 2.86871 4.82176 -0.244599 7.0274 0.015333C9.23305 0.275265 9.23305 0.275265 13.7731 5.85529Z"/><path id="shape23" transform="matrix(1.32392900388164 -0.00392053748526738 0.00392053748526738 1.32392900388164 339.195582864753 483.97796148717)" fill="#f09b91" fill-rule="evenodd" stroke="#ba987d" stroke-width="1.33000056" stroke-linecap="square" stroke-linejoin="bevel" d="M0.0161698 4.20242C3.7362 1.08923 6.20167 -0.294254 7.41257 0.0519784C9.22893 0.571327 14.5483 1.86985 14.1587 3.55649C13.7691 5.24312 13.1197 9.00565 9.74627 8.87524C6.37287 8.74482 -0.37338 5.7593 0.0161698 4.20242Z"/><path id="shape24" transform="matrix(1.32392900388164 -0.00392053748526738 0.00392053748526738 1.32392900388164 280.346361123056 368.070784722801)" fill="none" stroke="#ba987d" stroke-width="1.33000056" stroke-linecap="square" stroke-linejoin="bevel" d="M4.59738 97.0809C-1.76127 84.1215 -1.52392 75.2865 5.30944 70.5759C15.5595 63.5099 21.9237 48.3149 21.9251 41.6002C21.9264 34.8856 18.7583 18.5013 11.8443 0"/><path id="shape25" transform="matrix(1.32392900388164 -0.00392053748526738 0.00392053748526738 1.32392900388164 340.590421947235 370.114489850183)" fill="none" stroke="#ba987d" stroke-width="1.33000056" stroke-linecap="square" stroke-linejoin="bevel" d="M13.8741 103.188C20.2363 98.2418 22.5935 92.2344 20.9457 85.1661C19.2979 78.0977 -9.17169 7.81449 3.03173 0"/><path id="shape26" transform="matrix(1.32392900388164 -0.00392053748526738 0.00392053748526738 1.32392900388164 309.342604241745 433.903923132417)" fill="none" stroke="#ba987d" stroke-width="1.33000056" stroke-linecap="square" stroke-linejoin="bevel" d="M41.3492 27.838C33.3604 16.2493 29.1665 8.85674 28.7676 5.66023C28.1692 0.865451 4.49642 -3.33457 0 3.85652"/><path id="shape27" transform="matrix(1.32392900388164 -0.00392053748526738 0.00392053748526738 1.32392900388164 301.917281891921 474.340091560567)" fill="none" stroke="#ba987d" stroke-width="1.33000056" stroke-linecap="square" stroke-linejoin="bevel" d="M0 0C9.50624 7.79298 16.1777 11.1905 20.0145 10.1925C25.7696 8.69543 32.6634 0.905477 36.8587 0.90631"/><path id="shape28" transform="matrix(1.32392900388164 -0.00392053748526738 0.00392053748526738 1.32392900388164 276.570037598702 667.843029305478)" fill="none" stroke="#ba987d" stroke-width="1.33000056" stroke-linecap="square" stroke-linejoin="bevel" d="M0 0C39.5926 12.6929 42.1175 15.5777 58.2721 8.65427C69.0419 4.03866 75.196 1.1539 76.7346 0"/><path id="shape29" transform="matrix(1.32392900388164 -0.00392053748526738 0.00392053748526738 1.32392900388164 256.941660541381 546.47356967231)" fill="#db4762" fill-rule="evenodd" stroke="#000000" stroke-opacity="0" stroke-width="0" stroke-linecap="square" stroke-linejoin="bevel" d="M0 12.6047C0.977105 15.9268 3.32216 18.0764 7.03516 19.0536C12.6047 20.5192 30.7788 24.9162 38.4002 25.2093C46.0217 25.5024 65.6615 28.4338 74.1623 27.5544C82.6631 26.675 88.5257 28.1406 92.3365 25.5024C94.8769 23.7437 87.5486 15.2428 70.3516 0L0.879395 0.293132C0.879395 0.293132 0.586263 4.39697 0 12.6047Z"/><path id="shape30" transform="matrix(1.32392900388164 -0.00392053748526738 0.00392053748526738 1.32392900388164 328.638159632517 549.619941736451)" fill="#7e3504" fill-rule="evenodd" stroke="#000000" stroke-opacity="0" stroke-width="0" stroke-linecap="square" stroke-linejoin="bevel" d="M12.9902 16.0105C23.4461 23.305 28.5651 32.0448 28.3473 42.2297C28.0205 57.5072 23.4461 118.609 28.674 134.292C33.9019 149.976 44.0311 178.73 55.1404 180.69C66.2497 182.651 121.796 170.561 125.391 171.215C128.985 171.868 128.658 132.005 118.856 124.817C109.053 117.628 102.845 108.479 97.944 113.054C93.0429 117.628 76.0521 136.253 67.8835 134.946C59.7148 133.639 48.2787 103.905 46.9718 67.963C45.6648 32.021 30.3077 13.7233 24.7531 10.7826C21.05 8.82213 16.1488 5.22793 10.0495 0L0 2.94071C0.600441 2.94071 4.93052 7.29731 12.9902 16.0105Z"/><ellipse id="shape31" transform="matrix(1.19980776514901 -0.559700549062943 0.559700549062943 1.19980776514901 450.984052738522 714.319446046532)" rx="11" ry="23.2252994440541" cx="11" cy="23.2252994440541" fill="#080100" fill-rule="evenodd"/><path id="shape32" transform="matrix(1.32392900388164 -0.00392053748526738 0.00392053748526738 1.32392900388164 241.016926528719 498.168796744999)" fill="#606869" fill-rule="evenodd" stroke="#626e70" stroke-width="1" stroke-linecap="square" stroke-linejoin="bevel" d="M9.17065 52.467C12.992 43.5964 17.2437 39.2232 21.9258 39.3473C28.9489 39.5335 48.3535 46.5605 58.1489 47.1169C67.9442 47.6733 87.72 46.938 90.4918 49.526C93.2636 52.114 106.937 68.5657 112.112 68.3819C117.287 68.1981 126.345 56.0018 124.869 47.4998C123.392 38.9978 99.9236 19.0327 92.3469 14.5955C84.7702 10.1583 77.5864 1.48731 66.0671 0.0862044C54.5477 -1.3149 10.1022 14.764 4.74158 19.1986C-0.619061 23.6332 -1.17759 44.148 1.77894 47.1057C4.73546 50.0634 4.73546 50.0634 9.17065 52.467Z"/><path id="shape33" transform="matrix(1.32392900388164 -0.00392053748526738 0.00392053748526738 1.32392900388164 204.080029346858 329.842457588893)" fill="#606869" fill-rule="evenodd" stroke="#000000" stroke-opacity="0" stroke-width="0" stroke-linecap="square" stroke-linejoin="bevel" d="M3.64084 30.045C16.0346 19.0596 29.2734 15.3274 43.3573 18.8483C64.483 24.1298 67.6519 29.4112 66.1731 19.4821C64.6943 9.55298 61.7367 0.891415 52.8639 0.0463848C43.991 -0.798646 6.87645 10.0002 2.16711 24.4333C-3.01375 35.5658 2.58455 32.1575 3.64084 30.045Z"/><path id="shape03" transform="matrix(-1.28854348048622 -0.304070975714839 -0.304070975714839 1.28854348048622 456.392020406967 340.750503327826)" fill="#606869" fill-rule="evenodd" stroke="#000000" stroke-opacity="0" stroke-width="0" stroke-linecap="square" stroke-linejoin="bevel" d="M3.64084 30.045C16.0346 19.0596 29.2734 15.3274 43.3573 18.8483C64.483 24.1298 67.6519 29.4112 66.1731 19.4821C64.6943 9.55298 61.7367 0.891415 52.8639 0.0463848C43.991 -0.798646 6.87645 10.0002 2.16711 24.4333C-3.01375 35.5658 2.58455 32.1575 3.64084 30.045Z"/><text id="shape34" krita:useRichText="true" transform="translate(560.640304715657, 280.891001428987)" fill="#0d1e26" stroke="#000000" stroke-opacity="0" stroke-width="0" stroke-linecap="square" stroke-linejoin="bevel" font-family="Burst My Bubble" font-size="96" font-size-adjust="0.423873" font-stretch="normal" letter-spacing="0" word-spacing="0"><tspan x="0">I said what?</tspan></text>
</svg>
