<?xml version="1.0" standalone="no"?>
<!DOCTYPE svg PUBLIC "-//W3C//DTD SVG 20010904//EN" "http://www.w3.org/TR/2001/REC-SVG-20010904/DTD/svg10.dtd">
<!-- Created using Krita: https://krita.org -->
<svg xmlns="http://www.w3.org/2000/svg" 
    xmlns:xlink="http://www.w3.org/1999/xlink"
    xmlns:krita="http://krita.org/namespaces/svg/krita"
    xmlns:sodipodi="http://sodipodi.sourceforge.net/DTD/sodipodi-0.dtd"
    width="1920pt"
    height="1080pt"
    viewBox="0 0 1920 1080">
<defs>
  <radialGradient id="gradient0" gradientUnits="objectBoundingBox" cx="0.401389068649556" cy="0.583410057808201" fx="0.532574764256972" fy="0.404908471159368" r="0.922525435438341" spreadMethod="pad">
   <stop stop-color="#0c00bd" offset="0.139664804469274" stop-opacity="1"/>
   <stop stop-color="#7e79ff" offset="0.145251396648045" stop-opacity="1"/>
   <stop stop-color="#0c00bd" offset="1" stop-opacity="1"/>
  </radialGradient>
 </defs>
<path id="shape0" transform="translate(175.85975256663, 235.193749998011)" fill="none" stroke="#000000" stroke-width="5" stroke-linecap="square" stroke-linejoin="bevel" d="M14.7134 304.806C190.34 200.772 324.862 131.006 418.28 95.5067C558.407 42.2583 718.152 -19.3977 889.108 5.82518C1060.06 31.0481 1312.29 117.927 1438.41 196.398C1522.48 248.712 1613.1 313.171 1710.25 389.774C1423.37 571.005 1197.3 657.884 1032.04 650.411C784.14 639.201 777.006 647.608 648.089 611.175C519.172 574.742 252.93 473.85 185.669 471.048C118.408 468.245 34.3312 451.43 14.7134 400.984C-4.90447 350.538 -4.90447 350.538 14.7134 304.806Z"/><path id="shape1" transform="translate(1612.05507354173, 852.747854229309)" fill="none" stroke="#000000" stroke-width="16.15" stroke-linecap="square" stroke-linejoin="bevel" d="M0 6.24203C54.1826 -6.83651 99.9575 0.636942 137.325 28.6624C174.692 56.6879 201.783 90.3184 218.599 129.554"/><path id="shape2" transform="translate(540.081315974224, 825.359338502043)" fill="none" stroke="#000000" stroke-width="16.15" stroke-linecap="square" stroke-linejoin="bevel" d="M7.00636 0C-2.33545 48.5775 -2.33545 83.1422 7.00636 103.694"/><path id="shape3" transform="translate(611.546230812058, 892.620437172946)" fill="none" stroke="#000000" stroke-width="16.15" stroke-linecap="square" stroke-linejoin="bevel" d="M92.484 0C64.4586 46.7091 33.6305 77.5371 0 92.484"/><path id="shape4" transform="translate(901.737789880988, 906.633166062717)" fill="none" stroke="#000000" stroke-width="16.15" stroke-linecap="square" stroke-linejoin="bevel" d="M0 0C55.0314 57.2394 85.3496 97.4092 90.9547 120.509"/><path id="shape5" transform="translate(1057.15100950679, 929.053532286351)" fill="none" stroke="#000000" stroke-width="16.15" stroke-linecap="square" stroke-linejoin="bevel" d="M0 0C57.9193 31.0823 93.4182 60.9761 106.497 89.6815"/><path id="shape6" transform="translate(1432.69214375266, 915.04080339658)" fill="none" stroke="#000000" stroke-width="16.15" stroke-linecap="square" stroke-linejoin="bevel" d="M0 0C85.9447 9.34182 163.482 43.9066 232.611 103.694"/><path id="shape7" transform="translate(1272.94703440926, 953.587386111074)" fill="none" stroke="#000000" stroke-width="16.15" stroke-linecap="square" stroke-linejoin="bevel" d="M0 0.689058C59.7876 -3.72758 108.365 13.0877 145.732 51.1349"/><path id="shape8" transform="translate(729.197396284731, 911.908391539331)" fill="none" stroke="#000000" stroke-width="16.15" stroke-linecap="square" stroke-linejoin="bevel" d="M68.4747 0C41.8457 13.9486 19.0208 34.8714 0 62.7685"/><path id="shape9" transform="translate(837.615747891043, 919.516696915213)" fill="none" stroke="#000000" stroke-width="16.15" stroke-linecap="square" stroke-linejoin="bevel" d="M1.90208 0C13.3145 32.9693 12.6805 57.0623 0 72.2789"/><path id="shape10" transform="translate(1170.47910808586, 934.733307666976)" fill="none" stroke="#000000" stroke-width="16.15" stroke-linecap="square" stroke-linejoin="bevel" d="M0 0C30.4332 15.2166 50.722 36.7735 60.8664 64.6706"/><path id="shape11" transform="translate(1763.22477086055, 786.98409013025)" fill="none" stroke="#000000" stroke-width="16.15" stroke-linecap="square" stroke-linejoin="bevel" d="M0 2.3776C67.2067 -3.96266 105.882 2.3776 116.027 21.3984"/><path id="shape12" transform="translate(1801.26629773996, 840.464133666088)" fill="none" stroke="#000000" stroke-width="16.15" stroke-linecap="square" stroke-linejoin="bevel" d="M0 4.05776C9.60776 -6.08664 31.7987 2.78971 66.5727 30.6868"/><path id="shape13" transform="translate(388.02357416996, 351.884123634523)" fill="none" stroke="#000000" stroke-width="16.15" stroke-linecap="square" stroke-linejoin="bevel" d="M0 66.5727C3.80415 56.4283 6.97428 34.2374 9.51038 0"/><path id="shape14" transform="translate(433.67340642525, 346.177894602612)" fill="none" stroke="#000000" stroke-width="16.15" stroke-linecap="square" stroke-linejoin="bevel" d="M0 45.6498C7.60831 50.722 11.4125 35.5054 11.4125 0"/><path id="shape15" transform="translate(492.637773088332, 264.352033568075)" fill="none" stroke="#000000" stroke-width="16.15" stroke-linecap="square" stroke-linejoin="bevel" d="M0 95.1404C15.2166 30.4698 20.2888 -1.23147 15.2166 0.0365783"/><path id="shape16" transform="translate(524.973070935829, 287.213527939529)" fill="none" stroke="#000000" stroke-width="16.15" stroke-linecap="square" stroke-linejoin="bevel" d="M0 58.9644C10.1444 45.0158 15.8506 25.361 17.1187 0"/><path id="shape17" transform="translate(576.329132223029, 254.878230092033)" fill="none" stroke="#000000" stroke-width="16.15" stroke-linecap="square" stroke-linejoin="bevel" d="M0 55.1602C11.4125 56.4283 16.4847 38.0415 15.2166 0"/><path id="shape18" transform="translate(640.999727918023, 216.836703212625)" fill="none" stroke="#000000" stroke-width="16.15" stroke-linecap="square" stroke-linejoin="bevel" d="M0 76.0831C19.0208 32.9693 26.6291 7.60831 22.8249 0"/><path id="shape19" transform="translate(701.866170925075, 214.934626868654)" fill="none" stroke="#000000" stroke-width="16.15" stroke-linecap="square" stroke-linejoin="bevel" d="M0 55.1602C17.7527 32.3353 24.093 13.9486 19.0208 0"/><path id="shape20" transform="matrix(1 0 0 1.69470820999179 775.884383784418 156.339838706674)" fill="none" stroke="#000000" stroke-width="16.15" stroke-linecap="square" stroke-linejoin="bevel" d="M0 39.9436C16.4847 38.6756 24.093 25.361 22.8249 0"/><path id="shape21" transform="matrix(1 0 0 1.69470820999179 840.554979479411 143.445981122043)" fill="none" stroke="#000000" stroke-width="16.15" stroke-linecap="square" stroke-linejoin="bevel" d="M0 45.6498C3.80415 45.6498 4.43818 30.4332 1.90208 0"/><path id="shape22" transform="matrix(1 0 0 1.69470820999179 878.596506358819 133.77558793357)" fill="none" stroke="#000000" stroke-width="16.15" stroke-linecap="square" stroke-linejoin="bevel" d="M0 38.0415C17.7527 29.1652 25.361 16.4847 22.8249 0"/><path id="shape23" transform="matrix(1 0 0 1.69470820999179 963.641388132438 98.3174795758339)" fill="none" stroke="#000000" stroke-width="16.15" stroke-linecap="square" stroke-linejoin="bevel" d="M0 49.454C0 19.0208 0 2.5361 0 0"/><path id="shape24" transform="matrix(1 0 0 1.69470820999179 1015.54600312469 98.3174795758339)" fill="none" stroke="#000000" stroke-width="16.15" stroke-linecap="square" stroke-linejoin="bevel" d="M0 49.454L3.80415 0"/><path id="shape25" transform="matrix(1 0 0 1.69470820999179 1072.6082934438 101.540943971992)" fill="none" stroke="#000000" stroke-width="16.15" stroke-linecap="square" stroke-linejoin="bevel" d="M0 47.5519L7.60831 0"/><path id="shape26" transform="matrix(1 0 0 1.69470820999179 1112.55189666718 111.211337160465)" fill="none" stroke="#000000" stroke-width="16.15" stroke-linecap="square" stroke-linejoin="bevel" d="M0 45.6498L17.1187 0"/><path id="shape27" transform="matrix(1 0 0 1.69470820999179 1152.49549989056 146.669445518201)" fill="none" stroke="#000000" stroke-width="16.15" stroke-linecap="square" stroke-linejoin="bevel" d="M0 26.6291C2.5361 17.7527 10.7784 8.87636 24.727 0"/><path id="shape28" transform="matrix(1 0 0 1.69470820999179 1198.14533214585 146.669445518201)" fill="none" stroke="#000000" stroke-width="16.15" stroke-linecap="square" stroke-linejoin="bevel" d="M0 36.1395L53.2581 0"/><path id="shape29" transform="matrix(1 0 0 1.69470820999179 1241.89308805716 169.233696291305)" fill="none" stroke="#000000" stroke-width="16.15" stroke-linecap="square" stroke-linejoin="bevel" d="M0 41.8457C11.4125 22.8249 24.727 8.87636 39.9436 0"/><path id="shape30" transform="translate(1299.11814293178, 218.738779556595)" fill="none" stroke="#000000" stroke-width="16.15" stroke-linecap="square" stroke-linejoin="bevel" d="M0 47.5519C8.87636 22.1909 22.1909 6.34025 39.9436 0"/><path id="shape31" transform="translate(1342.8658988431, 239.66161934027)" fill="none" stroke="#000000" stroke-width="16.15" stroke-linecap="square" stroke-linejoin="bevel" d="M0 36.1395C1.51582e-13 19.6548 10.1444 7.60831 30.4332 0"/><path id="shape32" transform="translate(1384.71157841045, 252.881049445138)" fill="none" stroke="#000000" stroke-width="16.15" stroke-linecap="square" stroke-linejoin="bevel" d="M0 34.3325C13.9486 10.2395 27.8971 -1.17295 41.8457 0.0951043"/><path id="shape33" transform="translate(1449.45825506768, 287.213527939529)" fill="none" stroke="#000000" stroke-width="16.15" stroke-linecap="square" stroke-linejoin="bevel" d="M3.72807 20.9228C-5.14829 18.3867 1.82599 11.4125 24.6509 0"/><path id="shape34" transform="translate(1484.83687555807, 304.332215035263)" fill="none" stroke="#000000" stroke-width="16.15" stroke-linecap="square" stroke-linejoin="bevel" d="M0.684749 34.2374C-3.11941 17.7527 8.92708 6.34025 36.8242 0"/><path id="shape35" transform="translate(1534.97560958411, 317.266333079262)" fill="none" stroke="#000000" stroke-width="16.15" stroke-linecap="square" stroke-linejoin="bevel" d="M0 30.8136C22.8249 7.98872 39.9436 -2.15569 51.3561 0.380416"/><path id="shape36" transform="translate(1586.33167087131, 345.730348250356)" fill="none" stroke="#000000" stroke-width="16.15" stroke-linecap="square" stroke-linejoin="bevel" d="M0 25.1745C7.60831 6.15378 23.4589 -2.08855 47.5519 0.447546"/><path id="shape37" transform="translate(1649.41720132596, 382.317345138049)" fill="none" stroke="#000000" stroke-width="16.15" stroke-linecap="square" stroke-linejoin="bevel" d="M1.58506 24.727C-4.75519 13.3145 7.92532 5.0722 39.6266 0"/><path id="shape38" transform="translate(1694.75002247762, 393.118422394516)" fill="none" stroke="#000000" stroke-width="16.15" stroke-linecap="square" stroke-linejoin="bevel" d="M0 42.4571C24.093 10.7558 45.6498 -3.19277 64.6706 0.611381"/><path id="shape39" transform="translate(1751.81231279673, 445.085864489072)" fill="none" stroke="#000000" stroke-width="16.15" stroke-linecap="square" stroke-linejoin="bevel" d="M0 20.9228C11.4125 10.7784 26.6291 3.80415 45.6498 0"/><path id="shape40" transform="translate(1805.0704504279, 477.421162336569)" fill="none" stroke="#000000" stroke-width="16.15" stroke-linecap="square" stroke-linejoin="bevel" d="M0 34.2374C13.9486 13.9486 30.4332 2.5361 49.454 0"/><path id="shape41" transform="translate(667.46133024798, 239.366077593829)" fill="url(#gradient0)" fill-rule="evenodd" stroke="#000000" stroke-opacity="0" stroke-width="0" stroke-linecap="square" stroke-linejoin="bevel" d="M71.5213 54.8425C19.6021 96.3778 -4.04993 153.489 0.565107 226.176C7.48766 335.206 9.2183 421.738 61.1375 471.926C113.057 522.115 213.434 629.414 369.191 638.068C524.949 646.721 642.632 624.223 687.629 579.226C732.625 534.229 858.962 409.623 874.538 279.825C884.921 193.294 886.652 153.489 879.729 160.411C643.209 57.7269 477.644 4.65394 383.036 1.19266C241.124 -3.99925 109.595 8.11522 87.097 30.6135C64.5987 53.1118 64.5987 53.1118 71.5213 54.8425Z"/><circle id="shape01" transform="translate(968.462124471852, 406)" r="134" cx="134" cy="134" fill="#000000" fill-rule="evenodd" stroke="#000000" stroke-width="16.15" stroke-linecap="square" stroke-linejoin="bevel"/>
</svg>
