<?xml version="1.0" standalone="no"?>
<!DOCTYPE svg PUBLIC "-//W3C//DTD SVG 20010904//EN" "http://www.w3.org/TR/2001/REC-SVG-20010904/DTD/svg10.dtd">
<!-- Created using Krita: https://krita.org -->
<svg xmlns="http://www.w3.org/2000/svg" 
    xmlns:xlink="http://www.w3.org/1999/xlink"
    xmlns:krita="http://krita.org/namespaces/svg/krita"
    xmlns:sodipodi="http://sodipodi.sourceforge.net/DTD/sodipodi-0.dtd"
    width="1080pt"
    height="1080pt"
    viewBox="0 0 1080 1080">
<defs/>
<circle id="shape0" transform="translate(420, 85)" r="264" cx="264" cy="264" fill="#218da6" fill-rule="evenodd"/><ellipse id="shape1" transform="translate(136, 237)" rx="376.5" ry="376" cx="376.5" cy="376" fill="#a5eafd" fill-rule="evenodd"/><path id="shape2" transform="translate(-8.56332107199161, 80.3587030483055)" fill="#77e0fb" fill-rule="evenodd" d="M106.745 323.278C-27.073 526.914 -35.073 642.187 82.7451 669.096C259.472 709.459 136.2 436.732 375.109 562.187C614.018 687.641 338.018 894.914 616.2 806.55C894.382 718.187 622.745 287.278 992.563 402.914C1362.38 518.55 966.382 -15.9951 643.472 0.36857C320.563 16.7322 527.836 105.096 343.472 111.641C159.109 118.187 43.4724 42.914 119.836 190.187C196.2 337.459 190.745 334.187 149.291 329.823C107.836 325.459 122.018 314.55 106.745 323.278Z"/><path id="shape0" transform="translate(357.224648787714, 198.488336610676)" fill="#ffe2d0" fill-rule="evenodd" stroke="#000000" stroke-opacity="0" stroke-width="0" stroke-linecap="square" stroke-linejoin="bevel" d="M305.308 493.828C324.04 480.341 334.904 469.29 337.901 460.673C342.397 447.748 347.454 437.071 347.454 426.956C347.454 416.841 348.578 412.908 352.512 405.041C356.445 397.173 363.189 375.257 367.122 361.209C371.056 347.16 377.237 304.452 376.113 290.404C374.99 276.355 369.932 243.2 364.313 235.333C358.693 227.466 359.255 237.019 359.817 224.656C360.192 216.414 357.944 192.813 353.074 153.851L333.968 152.165C325.351 125.941 320.294 110.019 318.795 104.4C316.547 95.9708 304.746 64.5019 292.384 51.5772C280.021 38.6524 219.922 10.5552 201.349 6.62156C182.775 2.68795 168.194 -4.05539 141.782 3.24989C124.175 8.12008 115.371 10.5552 115.371 10.5552C83.9021 25.5404 63.4848 39.4017 54.119 52.1391C40.0704 71.2452 6.91567 84.17 2.42011 117.325C-2.07545 150.479 0.172321 210.046 5.22983 228.028C8.6015 240.016 10.662 245.635 11.4112 244.886C4.66789 246.01 1.29622 249.007 1.29622 253.877C1.29622 261.183 16.4687 312.32 41.1943 333.112C65.9199 353.904 55.8049 348.284 54.119 355.589C52.9951 360.46 58.8019 364.206 71.5393 366.828L281.707 496.076C294.444 495.326 302.311 494.577 305.308 493.828Z"/><g id="group0" transform="translate(201.07172737142, 571.843803791228)" fill="none">
  <g id="group1" fill="none">
   <path id="shape01" transform="translate(503.081947070736, 0)" fill="#ff4b63" fill-rule="evenodd" stroke="#000000" stroke-opacity="0" stroke-width="0" stroke-linecap="square" stroke-linejoin="bevel" d="M9.08798 60.8196C79.9276 158.224 115.814 213.218 116.746 225.801C118.144 244.676 132.824 278.232 140.514 304.797C148.204 331.362 208.325 439.719 221.607 455.797C234.889 471.876 426.808 548.703 427.507 508.156C428.206 467.61 243.977 197.838 227.2 171.973C210.422 146.107 133.523 32.1575 121.639 26.5649C109.755 20.9723 74.8011 3.49538 52.4307 4.19445C30.0602 4.89353 34.2547 12.5834 17.4769 6.29168C6.29168 2.09723 0.699076 0 0.699076 0L0 41.2455C6.52471 43.1097 9.55403 46.605 9.08798 51.7316C8.38891 59.4214 8.38891 59.4214 9.08798 60.8196Z"/>
   <path id="shape1" transform="translate(-1.18597057223724e-05, 39.1482310663921)" fill="#af0028" fill-rule="evenodd" stroke="#000000" stroke-opacity="0" stroke-width="0" stroke-linecap="square" stroke-linejoin="bevel" d="M648.305 269.144C537.642 185.721 458.413 136.087 410.619 120.241C362.825 104.395 305.967 64.315 240.045 0C211.15 26.5649 185.75 43.8087 163.846 51.7316C130.989 63.6159 88.3456 82.4909 78.5585 106.259C68.7714 130.028 17.7389 264.95 17.0398 311.788C16.3408 358.626 -20.0112 442.515 15.6417 477.469C51.2945 512.422 306.457 571.844 356.091 557.163C405.726 542.483 465.846 481.52 470.74 469.008C475.633 456.496 695.143 487.811 720.31 469.008C745.477 450.205 669.277 288.718 657.393 278.232C645.509 267.746 645.509 267.746 648.305 269.144Z"/>
  </g>
  <path id="shape2" transform="translate(338.92827262858, 42.1804660135822)" fill="#ffffff" fill-rule="evenodd" stroke="#000000" stroke-opacity="0" stroke-width="0" stroke-linecap="square" stroke-linejoin="bevel" d="M163.544 2.16678C171.413 29.4481 164.855 50.1714 143.87 64.3368C112.391 85.5847 65.9605 84.7978 42.3517 87.9456C26.6125 90.0442 12.4952 92.4051 0 95.0283C145.754 165.33 225.451 205.728 239.092 216.22C259.553 231.96 276.866 247.699 298.114 257.142C319.362 266.586 293.392 258.716 291.819 231.96C290.245 205.203 273.718 165.068 258.766 143.033C243.814 120.998 212.335 62.7628 199.744 54.8932C187.153 47.0236 176.922 37.5801 172.2 19.4799C167.479 1.37982 163.544 -3.34195 163.544 2.16678Z"/>
 </g><path id="shape34" transform="matrix(0.99999997275419 0 0 0.99999997275419 606.669692031437 376.674006965963)" fill="#ffffff" fill-rule="evenodd" stroke="#000000" stroke-opacity="0" stroke-width="0" stroke-linecap="square" stroke-linejoin="bevel" d="M0 26.5559C5.88657 23.7303 9.73246 22.3568 11.5377 22.4353C14.2455 22.553 28.3733 23.8481 38.7336 19.9629C49.094 16.0778 56.7465 10.0735 58.6302 8.30752C59.886 7.13021 60.7101 5.91365 61.1026 4.65785C52.4689 0.498009 44.8164 -0.875523 38.145 0.537253C28.1378 2.65642 20.2498 5.5997 16.9533 9.95576C13.6568 14.3118 9.06531 15.3714 6.12203 19.3743C3.17875 23.3771 1.05958 26.2027 0 26.5559Z"/><path id="shape3" transform="translate(476.594405499547, 417.200419613565)" fill="#ffffff" fill-rule="evenodd" stroke="#000000" stroke-opacity="0" stroke-width="0" stroke-linecap="square" stroke-linejoin="bevel" d="M0.224745 20.1768C12.4548 21.6037 22.5955 20.7883 30.647 17.7308C42.7242 13.1445 48.2277 6.87663 51.8967 5.95938C54.3427 5.34787 59.5915 4.17583 67.6429 2.44324C54.3937 1.32215 45.1702 0.761606 39.9724 0.761606C32.1758 0.761606 22.5446 -1.22578 17.3468 1.22023C12.149 3.66624 3.74089 11.4629 2.97651 14.3675C2.21213 17.2722 -0.845384 20.0239 0.224745 20.1768Z"/><path id="shape4" transform="translate(483.923922618048, 417.018727710145)" fill="#218da6" fill-rule="evenodd" stroke="#000000" stroke-opacity="0" stroke-width="0" stroke-linecap="square" stroke-linejoin="bevel" d="M0.0105758 8.26676C3.53593 15.6379 6.79421 19.4304 9.78541 19.644C14.2722 19.9645 24.5278 20.926 26.9314 13.715C29.3351 6.50408 27.4122 2.81849 26.6109 1.05581C25.8097 -0.706864 11.8686 -0.0658916 9.30468 1.53654C6.74079 3.13897 -0.309911 8.10651 0.0105758 8.26676Z"/><path id="shape5" transform="translate(616.455634227701, 379.422319629725)" fill="#218da6" fill-rule="evenodd" stroke="#000000" stroke-opacity="0" stroke-width="0" stroke-linecap="square" stroke-linejoin="bevel" d="M21.9533 0.0336049C27.1879 3.23847 29.2711 6.65699 28.2028 10.2892C26.6004 15.7374 32.2089 17.6604 22.9148 18.3013C13.6207 18.9423 5.60851 19.2628 3.36511 19.2628C1.1217 19.2628 0 17.5001 0 14.6157C0 11.7314 7.21094 7.88552 8.65313 6.12285C10.0953 4.36017 21.1521 -0.447125 21.9533 0.0336049Z"/><circle id="shape6" transform="translate(495, 424)" r="3" cx="3" cy="3" fill="#000000" fill-rule="evenodd" stroke="#000000" stroke-opacity="0" stroke-width="0" stroke-linecap="square" stroke-linejoin="bevel"/><circle id="shape01" transform="translate(627.139440727311, 386.403638671488)" r="3" cx="3" cy="3" fill="#000000" fill-rule="evenodd" stroke="#000000" stroke-opacity="0" stroke-width="0" stroke-linecap="square" stroke-linejoin="bevel"/><g id="group2" transform="translate(376.029017242807, 348.603805313152)" fill="none">
  <path id="shape02" transform="translate(0, 76.392115495801)" fill="#e0c9b8" fill-rule="evenodd" stroke="#000000" stroke-opacity="0" stroke-width="0" stroke-linecap="square" stroke-linejoin="bevel" d="M53.5178 5.0568C44.5279 7.11697 38.8624 8.42799 36.5213 8.98986C33.0096 9.83266 27.6719 12.0801 22.8961 13.9062C19.7121 15.1236 13.9062 16.4814 5.4782 17.9797L0 7.30426C8.80257 7.95977 14.6085 8.10024 17.4179 7.72566C21.6319 7.1638 25.284 7.72566 31.324 6.60193C37.3641 5.4782 39.4711 2.66886 43.8256 1.6856C46.7285 1.03009 50.1934 0.468222 54.2201 0C54.2201 0 53.986 1.6856 53.5178 5.0568Z"/>
  <g id="group01" transform="translate(50.795554425986, 5.39172049229819e-07)" fill="none">
   <path id="shape11" transform="translate(4.71048338113178e-07, 35.5593465634612)" fill="#000000" fill-rule="evenodd" stroke="#000000" stroke-opacity="0" stroke-width="0" stroke-linecap="square" stroke-linejoin="bevel" d="M129.341 14.9259C128.162 10.4244 122.773 7.22601 113.175 5.33066C98.7789 2.48764 63.9519 10.3059 55.4228 13.5043C46.8937 16.7027 24.5049 27.7195 23.4388 33.0501C22.3727 38.3808 19.5297 53.662 22.0173 63.968C24.5049 74.2739 35.877 103.059 41.5631 106.613C47.2491 110.167 65.3734 120.473 79.2331 114.432C93.0928 108.39 118.68 104.126 128.275 80.6707C137.87 57.2158 137.515 57.2158 136.449 43.3561C135.383 29.4963 134.317 20.9673 132.54 19.9011C131.706 19.2489 130.64 17.5905 129.341 14.9259ZM132.54 19.9011C131.355 19.1904 132.066 15.6958 134.672 9.41751C133.487 8.35137 132.184 6.75217 130.763 4.61991C128.631 1.42151 109.44 0 97.7127 0C85.9853 0 63.2411 2.84302 50.4475 10.6613C37.6539 18.4796 1.4054 32.6947 0.339267 37.3146C-0.726866 41.9346 0.694644 48.3313 4.95918 47.976C9.22371 47.6206 13.1329 48.3313 14.199 55.7943C15.2651 63.2572 19.5297 74.6293 23.0834 84.2245C26.6372 93.8197 38.72 114.076 52.5798 118.341C66.4395 122.605 89.8944 116.564 97.7127 113.721C105.531 110.878 124.366 96.6627 131.474 85.2906C138.581 73.9185 142.135 35.8931 141.78 24.5211C141.543 16.9397 139.292 12.0828 135.027 9.95057M134.317 8.88444C134.317 8.88444 132.658 10.8982 129.341 14.9259"/>
   <path id="shape21" transform="translate(158.159216353868, -8.84374628640217e-07)" fill="#000000" fill-rule="evenodd" stroke="#000000" stroke-opacity="0" stroke-width="0" stroke-linecap="square" stroke-linejoin="bevel" d="M11.1548 43.4931C5.86357 45.1855 7.9485 43.1938 0.840947 47.1029C23.2399 85.1325 38.4669 105.45 46.5222 108.056C58.605 111.966 90.9444 114.809 103.027 107.346C115.11 99.8827 127.548 91.3536 130.391 74.6509C133.234 57.9481 131.457 23.8319 130.747 19.212C130.273 16.132 131.102 13.5259 133.234 11.3937C134.893 6.18147 133.945 2.74615 130.391 1.08772C125.061 -1.39992 77.7954 0.732346 63.5803 3.93074C49.3652 7.12914 22.0011 17.0797 14.8936 24.1873C7.786 31.2948 8.14138 36.2701 3.16609 38.4024C-0.150768 39.8239 -0.861523 42.5484 1.03383 46.5761L9.95149 44.0088C10.877 38.6127 13.2351 34.0194 17.0258 30.2287C22.7119 24.5426 35.5054 15.6582 44.7453 12.8152C53.9851 9.97216 90.589 4.28612 99.8288 6.06301C109.069 7.8399 124.35 18.5012 125.416 30.2287C126.482 41.9561 129.325 45.1545 128.97 52.2621C128.614 59.3696 129.325 73.5847 126.482 78.9154C123.639 84.2461 113.333 102.015 105.87 103.081C98.4073 104.147 61.0926 112.676 50.0759 103.792C39.0592 94.9074 37.9931 97.395 31.5963 87.0891C25.1995 76.7831 11.8294 60.7463 11.6952 53.3282"/>
   <path id="shape31" transform="translate(128.549854976057, 36.1788576826993)" fill="#000000" fill-rule="evenodd" stroke="#000000" stroke-opacity="0" stroke-width="0" stroke-linecap="square" stroke-linejoin="bevel" d="M13.6934 18.2947C18.0068 15.9149 21.6756 14.5514 24.6999 14.2044C27.7243 13.8573 32.8061 14.0804 39.9455 14.8737L39.2018 0C31.5171 2.72685 25.865 4.78437 22.2458 6.17259C16.8169 8.2549 5.95908 10.4116 2.53813 9.66791C0.257491 9.17212 -0.486194 9.12254 0.30707 9.51917L5.58723 20.2282C5.58723 20.2282 8.28929 19.5837 13.6934 18.2947Z"/>
  </g>
  <g id="group3" transform="translate(73.7397338964525, 16.8105410392541)" fill="none">
   <path id="shape03" transform="matrix(0.999999972401866 0 0 0.999999972401866 21.9683606379937 55.7455812592921)" fill="#ffffff" fill-rule="evenodd" stroke="#000000" stroke-opacity="0" stroke-width="0" stroke-linecap="square" stroke-linejoin="bevel" d="M1.37559 0.737562C-0.0416843 3.31443 -0.363793 4.50623 0.409267 4.31296C1.56886 4.02307 3.59814 4.69949 4.46783 3.05674C5.33752 1.41399 4.95099 1.12409 5.53079 0.64093C6.11058 0.157767 4.75773 -0.228763 2.92171 0.157767C1.08569 0.544297 1.08569 0.544297 1.37559 0.737562Z"/>
   <path id="shape11" transform="matrix(0.999999972401866 0 0 0.999999972401866 21.758778613547 42.2781671804009)" fill="#ffffff" fill-rule="evenodd" stroke="#000000" stroke-opacity="0" stroke-width="0" stroke-linecap="square" stroke-linejoin="bevel" d="M0.908746 12.2723L15.0171 0.869692C6.83554 -0.0966321 2.22939 -0.257687 1.19864 0.38653C-0.347476 1.35285 -0.347476 1.35285 0.908746 12.2723Z"/>
   <path id="shape21" transform="matrix(0.999999972401866 0 0 0.999999972401866 7.9683549254039 43.0512275384361)" fill="#ffffff" fill-rule="evenodd" stroke="#000000" stroke-opacity="0" stroke-width="0" stroke-linecap="square" stroke-linejoin="bevel" d="M1.84705 16.1376C2.23358 13.2387 2.97443 11.7247 4.0696 11.5959C5.71235 11.4026 5.90561 12.0791 6.77531 13.4319C7.3551 14.3338 8.25701 14.3982 9.48102 13.6252L8.41806 0C3.26433 0.515373 0.494195 1.96486 0.107665 4.34846C-0.47213 7.92386 1.46052 16.5242 1.84705 16.1376Z"/>
   <path id="shape31" transform="matrix(0.999999972401866 0 0 0.999999972401866 5.79278294845494 62.12427431439)" fill="#ffffff" fill-rule="evenodd" stroke="#000000" stroke-opacity="0" stroke-width="0" stroke-linecap="square" stroke-linejoin="bevel" d="M6.14854 4.31202C3.0563 4.18317 1.25249 3.63559 0.737117 2.66927C-0.0359444 1.21978 -0.712371 -0.326342 1.51018 0.0601876C3.73272 0.446718 2.95966 1.12315 4.50578 1.50968C6.0519 1.89621 5.56874 1.21978 6.0519 2.476C6.53507 3.73222 6.53507 3.73222 6.14854 4.31202Z"/>
   <path id="shape41" transform="matrix(0.999999972401866 0 0 0.999999972401866 1.91089668533095e-07 61.5256759064479)" fill="#ffffff" fill-rule="evenodd" stroke="#000000" stroke-opacity="0" stroke-width="0" stroke-linecap="square" stroke-linejoin="bevel" d="M2.56797 3.26786C3.79198 3.01018 4.17851 3.23565 3.72756 3.94429C3.05113 5.00725 1.79491 5.49041 1.11848 4.13756C0.442052 2.7847 -0.524273 1.81838 0.345419 0.658785C1.21511 -0.500805 2.6646 -0.0176415 2.6646 1.23858C2.6646 2.4948 2.6646 2.4948 2.56797 3.26786Z"/>
   <path id="shape011" transform="matrix(1.00000000811248 0 0 1.00000000811248 146.029035779895 -9.52599066295079e-07)" fill="#ffffff" fill-rule="evenodd" stroke="#000000" stroke-opacity="0" stroke-width="0" stroke-linecap="square" stroke-linejoin="bevel" d="M24.3257 8.30976C22.9081 8.76338 22.6813 9.10359 23.6453 9.3304C24.6092 9.55721 25.4597 9.58556 26.1969 9.41546C26.8816 6.48965 26.7398 3.71124 25.7716 1.08023C24.3192 -2.86627 13.0986 5.16279 12.5883 6.6087C12.078 8.0546 -0.0846093 21.3229 0.000443992 24.1297C0.0571462 26.0008 0.93603 26.3127 2.6371 25.0653C3.60103 24.725 4.70673 23.5059 5.95417 21.408C7.82535 18.261 6.12428 17.9208 8.25061 15.8795C10.3769 13.8382 10.5471 12.4774 12.4182 12.1372C14.2894 11.7969 13.1837 11.9671 13.0136 13.6681C12.8435 15.3692 16.2456 10.266 18.372 9.58556C20.4983 8.90514 20.4983 7.62934 22.6246 7.45923C24.7509 7.28912 24.1556 7.62934 24.3257 8.30976Z"/>
   <path id="shape04" transform="translate(51.9176598417295, 81.831421340908)" fill="#ffffff" fill-rule="evenodd" stroke="#000000" stroke-opacity="0" stroke-width="0" stroke-linecap="square" stroke-linejoin="bevel" d="M0 10.9539C12.7795 6.13416 20.3011 3.61477 22.5649 3.39569C25.9606 3.06708 33.469 0.438154 38.3136 0.219077C41.5433 0.0730257 43.1582 0 43.1582 0C28.6991 0.365128 20.6298 1.05887 18.9502 2.08123C16.4308 3.61477 16.4308 3.61477 0 10.9539Z"/>
   <path id="shape12" transform="translate(178.653724799153, 49.5779162942708)" fill="#ffffff" fill-rule="evenodd" stroke="#000000" stroke-opacity="0" stroke-width="0" stroke-linecap="square" stroke-linejoin="bevel" d="M0 12.427C10.0775 8.3376 16.7594 5.96426 20.0455 5.30703C24.9748 4.32118 42.8296 0.596873 49.0733 1.69226C53.2357 2.42252 55.0614 2.82416 54.5502 2.89718C47.4667 0.268258 41.4056 -0.571538 36.3668 0.377796C28.8086 1.8018 11.1729 5.74518 7.01047 8.48365C2.848 11.2221 2.848 11.2221 0 12.427Z"/>
  </g>
 </g><g id="group4" transform="translate(452.660619935889, 280.847029626052)" fill="none">
  <path id="shape05" transform="translate(0, 120.378121692633)" fill="none" stroke="#a2643e" stroke-width="1" stroke-linecap="square" stroke-linejoin="bevel" d="M57.1347 0C41.9368 8.54883 33.0555 13.2032 30.4908 13.9631C26.6439 15.1029 20.3747 17.8101 17.5251 22.5119C14.6755 27.2138 11.6834 35.0502 10.1161 38.1848C8.54883 41.3194 4.98682 43.3141 2.56465 43.7415C0.94987 44.0265 0.094987 44.2165 0 44.3114"/>
  <path id="shape13" transform="translate(41.17687099826, 126.471038771322)" fill="none" stroke="#a2643e" stroke-width="0.46" stroke-linecap="square" stroke-linejoin="bevel" d="M31.6307 4.59312C24.4117 1.26858 19.0924 -0.251216 15.6729 0.0337454C12.2533 0.318706 7.02904 1.0786 0 2.31343"/>
  <path id="shape22" transform="translate(7.97890925917801, 115.818744973103)" fill="none" stroke="#a2643e" stroke-width="0.46" stroke-linecap="square" stroke-linejoin="bevel" d="M42.7442 0C35.8101 5.41426 30.4433 9.68868 26.6439 12.8232C20.9446 17.5251 7.12403 28.4961 4.84434 31.9156C3.32455 34.1953 1.70977 36.0951 0 37.6149"/>
  <path id="shape32" transform="translate(1.28232470236804, 163.264758960717)" fill="none" stroke="#a2643e" stroke-width="0.46" stroke-linecap="square" stroke-linejoin="bevel" d="M0 6.5541C7.88392 3.70449 12.5858 1.51979 14.1056 0"/>
  <path id="shape41" transform="translate(20.659675760373, 176.372967029368)" fill="none" stroke="#a2643e" stroke-width="0.46" stroke-linecap="square" stroke-linejoin="bevel" d="M0 6.69658C8.83379 5.46175 14.5805 4.03695 17.2401 2.42217C19.8998 0.80739 21.2296 0 21.2296 0"/>
  <path id="shape51" transform="translate(16.812701653269, 184.209395766061)" fill="none" stroke="#a2643e" stroke-width="0.46" stroke-linecap="square" stroke-linejoin="bevel" d="M0 0C13.2982 15.1979 20.3272 23.6993 21.0871 25.504C21.847 27.3088 21.9895 27.8312 21.5146 27.0713"/>
  <path id="shape61" transform="translate(28.923546064522, 153.148641864259)" fill="none" stroke="#a2643e" stroke-width="0.46" stroke-linecap="square" stroke-linejoin="bevel" d="M0 32.0581C11.3984 34.4328 19.9948 33.7679 25.789 30.0634C34.4803 24.5066 37.7573 22.3694 42.0318 17.5251C46.3062 12.6808 54.7137 7.40899 56.5648 5.27178C57.7988 3.84697 60.411 2.08971 64.4012 0"/>
  <path id="shape7" transform="translate(48.585858167497, 162.409875825805)" fill="none" stroke="#a2643e" stroke-width="0.46" stroke-linecap="square" stroke-linejoin="bevel" d="M0 26.0739C7.69395 23.9842 13.2982 21.942 16.8127 19.9473C22.0845 16.9552 28.6386 10.8285 30.9183 7.69395C32.4381 5.60423 34.4803 3.03958 37.0449 0"/>
  <path id="shape8" transform="translate(76.6545210971071, 142.177641632889)" fill="none" stroke="#a2643e" stroke-width="0.46" stroke-linecap="square" stroke-linejoin="bevel" d="M20.0898 0C18.8549 3.41953 16.6702 6.45912 13.5356 9.11875C8.83379 13.1082 0.284961 19.5198 0 20.3747"/>
  <path id="shape9" transform="translate(40.501306250369, 163.248443373966)" fill="none" stroke="#a2643e" stroke-width="0.46" stroke-linecap="square" stroke-linejoin="bevel" d="M0 7.19837C5.77828 3.47676 8.91227 1.07731 9.40196 0"/>
  <path id="shape10" transform="translate(47.846583673459, 161.044860147039)" fill="none" stroke="#a2643e" stroke-width="0.46" stroke-linecap="square" stroke-linejoin="bevel" d="M0 7.78599C3.13399 6.12106 5.19066 4.40717 6.17003 2.6443C7.1494 0.881433 7.63909 0 7.63909 0"/>
  <path id="shape111" transform="translate(63.746143520712, 114.595097135812)" fill="none" stroke="#a2643e" stroke-width="0.46" stroke-linecap="square" stroke-linejoin="bevel" d="M0 9.47764C1.49647 8.14745 2.28627 6.23529 2.36941 3.74117C2.45255 1.24706 2.49412 0 2.49412 0"/>
  <path id="shape121" transform="translate(21.928934420679, 145.185411140089)" fill="none" stroke="#a2643e" stroke-width="0.46" stroke-linecap="square" stroke-linejoin="bevel" d="M0 20.2432C4.14566 23.5068 8.82055 25.0063 14.0247 24.7416C21.8309 24.3447 45.3817 17.7293 49.6156 14.4216C53.8494 11.1139 62.5499 0.529233 65.4104 0"/>
  <path id="shape131" transform="translate(45.215179630257, 143.730020814491)" fill="none" stroke="#a2643e" stroke-width="0.46" stroke-linecap="square" stroke-linejoin="bevel" d="M42.1242 0C34.8579 2.38155 30.2545 4.05745 28.314 5.02771C25.4032 6.4831 22.8893 12.3047 16.6708 12.8339C10.4523 13.3631 7.01234 15.0831 3.57232 15.6124C1.27898 15.9652 0.0882055 16.1416 0 16.1416"/>
  <path id="shape14" transform="translate(156.167963163472, 129.626747259058)" fill="none" stroke="#a2643e" stroke-width="0.46" stroke-linecap="square" stroke-linejoin="bevel" d="M103.854 4.13028C89.9549 0.6556 80.689 -0.626723 76.0561 0.283313C69.1068 1.64837 46.2731 9.21821 38.7033 9.09411C31.1334 8.97002 18.848 10.8315 15.1251 8.84592C11.4022 6.86039 5.69381 5.61943 2.46732 5.24714C0.316323 4.99895 -0.428252 4.7094 0.233592 4.37847"/>
  <path id="shape15" transform="translate(238.056589873188, 120.30504635713)" fill="none" stroke="#a2643e" stroke-width="0.46" stroke-linecap="square" stroke-linejoin="bevel" d="M21.5927 4.76528C9.67947 0.794213 2.48192 -0.694936 0 0.29783"/>
  <path id="shape16" transform="translate(237.808398277856, 114.50445380295)" fill="none" stroke="#a2643e" stroke-width="0.46" stroke-linecap="square" stroke-linejoin="bevel" d="M23.0818 5.22975C16.2152 1.8378 11.1273 0.100459 7.81804 0.017728C4.50881 -0.0650026 1.9028 0.141824 0 0.638207"/>
  <path id="shape17" transform="translate(237.932494075522, 110.089056860966)" fill="none" stroke="#a2643e" stroke-width="0.46" stroke-linecap="square" stroke-linejoin="bevel" d="M23.8264 3.81265C17.208 0.668885 12.6991 -0.530708 10.3 0.213867C6.70117 1.33073 6.20479 2.69578 3.10239 2.69578C1.03413 2.69578 0 2.69578 0 2.69578"/>
  <path id="shape18" transform="translate(225.274722713588, 103.049739330524)" fill="none" stroke="#a2643e" stroke-width="0.46" stroke-linecap="square" stroke-linejoin="bevel" d="M34.3745 0.427917C29.5762 -0.399389 25.6051 -0.0271016 22.4613 1.54478C17.7457 3.9026 16.6288 4.15079 12.906 5.14356C9.18309 6.13632 4.09516 7.99776 0 5.63994"/>
  <path id="shape19" transform="translate(236.071057110532, 95.163237301994)" fill="none" stroke="#a2643e" stroke-width="0.46" stroke-linecap="square" stroke-linejoin="bevel" d="M19.2348 0C17.0011 3.39195 14.7674 5.08793 12.5337 5.08793C9.18309 5.08793 8.31442 4.71564 6.32889 6.70117C5.0052 8.02486 2.89557 9.30718 0 10.5481"/>
  <path id="shape20" transform="translate(153.547351662627, 86.4346075185919)" fill="none" stroke="#a2643e" stroke-width="0.46" stroke-linecap="square" stroke-linejoin="bevel" d="M0 26.9707C6.12206 22.0069 10.1759 18.1185 12.1614 15.3057C15.1397 11.0864 18.9867 7.73586 26.1842 5.37804C33.3818 3.02022 41.1998 0.16602 48.0251 0.0419239C54.8503 -0.0821719 55.2226 0.0419239 58.325 0.786499C61.4274 1.53107 61.5515 6.49491 63.9093 10.9624C66.2672 15.4298 66.6394 19.6491 69.6177 19.8973C71.6033 20.0627 72.596 20.1454 72.596 20.1454"/>
  <path id="shape211" transform="translate(180.724331351486, 81.9432740463689)" fill="none" stroke="#a2643e" stroke-width="0.46" stroke-linecap="square" stroke-linejoin="bevel" d="M66.7635 5.15374C62.627 12.1858 58.4491 15.9501 54.2299 16.4465C47.901 17.191 42.4408 15.2055 39.5866 9.00071C36.7324 2.79592 35.3673 0.810383 30.1553 0.438096C24.9433 0.0658087 12.4096 -0.430575 9.43128 0.686288C6.45298 1.80315 4.46745 0.934479 2.23372 1.30677C0.744575 1.55496 0 1.67905 0 1.67905"/>
  <path id="shape221" transform="translate(221.303657188275, 99.506590220305)" fill="none" stroke="#a2643e" stroke-width="0.46" stroke-linecap="square" stroke-linejoin="bevel" d="M0 0C1.48915 1.82007 3.51605 2.9783 6.08069 3.47468C9.92766 4.21926 8.56261 3.35059 10.6722 2.73011C12.7819 2.10963 12.6578 2.23372 14.271 2.23372"/>
  <path id="shape23" transform="translate(169.803901156876, 108.193296056926)" fill="none" stroke="#a2643e" stroke-width="0.46" stroke-linecap="square" stroke-linejoin="bevel" d="M0 19.2348C19.4417 19.1521 30.2794 18.2421 32.5131 16.5047C35.8637 13.8987 38.7179 16.6288 40.207 14.1469C41.6962 11.665 46.1636 3.97107 46.2877 1.98553C46.3705 0.661844 46.4118 0 46.4118 0"/>
  <path id="shape24" transform="translate(222.65542478115, 267.833322321334)" fill="none" stroke="#a2643e" stroke-width="0.46" stroke-linecap="square" stroke-linejoin="bevel" d="M7.80326 69.1146C14.9377 48.6031 17.9846 35.5977 16.9442 30.0983C15.9038 24.5988 10.2557 14.5661 0 0"/>
  <path id="shape25" transform="translate(210.170215634846, 245.538305988649)" fill="none" stroke="#a2643e" stroke-width="0.46" stroke-linecap="square" stroke-linejoin="bevel" d="M13.377 16.7213C8.02621 9.14096 4.459 4.459 2.6754 2.6754C0.891801 0.891801 0 0 0 0"/>
  <path id="shape26" transform="translate(250.777247734339, 210.69831025047)" fill="none" stroke="#a2643e" stroke-width="0.46" stroke-linecap="square" stroke-linejoin="bevel" d="M0 71.3863C2.79502 58.0155 4.72131 49.0261 5.77889 44.4181C7.36525 37.5061 7.25194 35.2399 11.4445 27.8746C15.637 20.5094 17.3367 12.4643 17.3367 7.93181C17.3367 4.91017 17.4122 2.26623 17.5633 0"/>
  <path id="shape27" transform="translate(76.050895938673, 208.432080006687)" fill="none" stroke="#a2643e" stroke-width="0.46" stroke-linecap="square" stroke-linejoin="bevel" d="M0 62.0947C7.32748 47.6664 11.8222 37.4683 13.4841 31.5006C15.9769 22.549 18.8097 16.4302 20.6227 11.7844C22.4357 7.13863 24.7019 1.9263 25.2685 0"/>
  <path id="shape28" transform="translate(104.045383555828, 100.890694484183)" fill="none" stroke="#a2643e" stroke-width="0.46" stroke-linecap="square" stroke-linejoin="bevel" d="M0 9.03302C10.3942 3.01101 17.6536 0 21.7782 0C27.9652 0 31.5537 0.74244 33.781 1.11366C35.2659 1.36114 36.4208 1.8561 37.2457 2.59854"/>
  <path id="shape29" transform="translate(93.28000851609, 92.7306419773896)" fill="none" stroke="#a2643e" stroke-width="0.46" stroke-linecap="square" stroke-linejoin="bevel" d="M0 14.347C11.879 4.86032 20.2934 0.116956 25.2429 0.116956C32.6673 0.116956 39.3493 -0.501743 47.0212 1.10688C52.1358 2.17929 54.858 2.96298 55.188 3.45793"/>
  <path id="shape30" transform="translate(47.4190399594791, 48.431783680411)" fill="none" stroke="#a2643e" stroke-width="0.46" stroke-linecap="square" stroke-linejoin="bevel" d="M0 1.71947C23.0408 0.191052 36.3476 -0.0955262 39.9203 0.859736C43.4931 1.815 46.3302 1.52842 48.4318 0"/>
  <path id="shape311" transform="translate(87.339380064111, 3.72552182157)" fill="none" stroke="#a2643e" stroke-width="0.46" stroke-linecap="square" stroke-linejoin="bevel" d="M85.8877 0C60.2866 14.1379 44.6203 23.1173 38.8888 26.9384C30.2914 32.67 27.9988 36.3955 22.8404 38.4015C17.682 40.4076 17.682 43.2734 11.0907 45.2794C6.69645 46.6168 2.99956 46.8078 0 45.8526"/>
  <path id="shape321" transform="translate(36.529053096428, 0)" fill="none" stroke="#a2643e" stroke-width="0.46" stroke-linecap="square" stroke-linejoin="bevel" d="M0 21.78C27.244 17.0037 44.1808 14.6155 50.8103 14.6155C60.7547 14.6155 73.3641 8.31078 78.236 4.29868C81.4838 1.62395 83.5854 0.191052 84.5407 0"/>
  <path id="shape33" transform="translate(99.666271499582, 240.927639638399)" fill="#000000" stroke="#a2643e" stroke-width="0.46" stroke-linecap="square" stroke-linejoin="bevel" d="M0 33.1778C8.11543 31.2683 14.1622 30.5522 18.1404 31.0296C24.1076 31.7457 49.17 34.3712 61.3431 29.3588C73.5163 24.3463 85.9281 19.8112 90.9406 15.2761C94.2822 12.2527 99.6925 8.51325 107.171 4.05772L109.558 0C103.034 2.70514 96.2713 5.72854 89.2698 9.07019C78.7674 14.0827 69.4586 21.0047 60.3884 21.7207C51.3182 22.4368 44.3962 23.3915 35.326 24.585C26.2558 25.7784 17.9017 27.688 10.9797 27.9266C4.05772 28.1653 1.19345 31.0296 0 33.1778Z"/>
  <path id="shape06" transform="matrix(0.9999999556229 0 0 0.9999999556229 125.20562197438 251.990287041141)" fill="#ffffff" fill-rule="evenodd" stroke="#000000" stroke-opacity="0" stroke-width="0" stroke-linecap="square" stroke-linejoin="bevel" d="M0.382507 15.3573C-0.528224 16.0078 0.18735 16.268 2.52923 16.1379C4.87111 16.0078 6.69257 15.7476 7.99361 15.3573L7.99361 14.5767L12.2871 13.7961C12.5473 15.7476 12.9376 16.6584 13.458 16.5283C13.9784 16.3982 17.166 16.203 23.0207 15.9428L23.6061 13.7961C25.2975 13.4058 26.0131 14.1864 25.7529 16.1379C25.3625 19.0653 36.4865 15.5525 39.0235 15.9428C41.5605 16.3331 44.2927 17.504 44.683 14.5767C45.0733 11.6493 44.4879 12.6232 46.8298 9.89293C49.1716 7.16266 51.7087 9.89677 50.7329 7.16266C50.0824 5.33992 51.2533 4.42855 54.2457 4.42855C53.8554 5.46939 54.4409 5.66454 56.0021 5.01402C58.344 4.03824 60.6859 3.45277 60.6859 1.5012C60.6859 0.200161 60.6859 -0.255205 60.6859 0.135108C45.854 7.68116 37.5923 11.4542 35.901 11.4542C33.364 11.4542 29.2657 11.0639 22.0449 11.8445C14.8241 12.6251 1.35829 14.1864 0.382507 15.3573Z"/>
 </g><g id="group5" transform="translate(202.375123756381, 326.787101487863)" fill="none">
  <path id="shape07" transform="translate(224.010373349746, 158.153662543803)" fill="#ffe2d0" stroke="#a2643e" stroke-width="0.46" stroke-linecap="square" stroke-linejoin="bevel" d="M229.79 254.641C232.703 232.133 227.407 212.141 213.902 194.664C193.645 168.449 149.159 119.593 140.42 116.415C131.682 113.238 121.945 105.294 117.78 99.7329C115.003 96.0257 108.251 84.3745 97.5225 64.7792L86.0037 38.9612C86.0037 30.7524 84.9445 25.0592 82.8261 21.8815C79.6485 17.1151 68.924 9.17112 62.1716 10.3627C55.4192 11.5543 43.5032 14.7319 45.8864 18.7039C48.2696 22.6759 51.8444 24.662 51.8444 31.0172C51.8444 37.3724 54.2276 45.9069 55.8164 51.2744C57.4052 56.642 62.1716 65.1764 60.98 71.5317C59.7884 77.8869 63.7604 87.8169 66.1436 94.1721C68.5268 100.527 74.8821 114.032 74.4849 117.607C74.0877 121.182 54.2276 66.3788 53.4332 56.642C52.6388 46.9052 51.05 44.522 48.2696 38.564C45.4892 32.606 47.4752 29.0312 45.8864 23.0731C44.2976 17.1151 35.9564 3.6103 30.7928 2.0215C25.6291 0.432697 21.6571 -1.95051 15.6991 2.8159C11.7271 5.99351 10.5355 8.11191 12.1243 9.17112C7.35791 7.84711 4.1803 8.50911 2.5915 11.1571C0.20829 15.1291 -0.983313 17.5123 1.00269 26.2508C2.9887 34.9892 4.1803 34.6027 3.3859 56.642C2.5915 78.6813 -1.38051 103.705 2.9887 112.046C7.35791 120.387 8.15231 116.018 8.15231 121.182C8.15231 126.345 8.54951 144.617 10.9327 148.986C13.3159 153.355 29.6012 184.337 33.9704 190.692C38.3396 197.047 45.092 220.879 48.6668 226.043C52.2416 231.206 56.2136 233.192 66.1436 240.342C76.0737 247.492 89.5785 262.188 97.9197 266.16C103.481 268.808 106.923 272.118 108.247 276.09C108.247 276.09 148.761 268.941 229.79 254.641Z"/>
  <path id="shape141" transform="translate(236.164222797266, 167.126715556499)" fill="none" stroke="#a2643e" stroke-width="0.46" stroke-linecap="square" stroke-linejoin="bevel" d="M0 0C0.607816 7.29379 1.41824 13.5746 2.43126 18.8423C3.9508 26.7439 5.47035 24.0534 5.77425 35.8612C6.07816 47.6689 7.90161 82.0552 10.9407 86.9177C13.9798 91.7802 19.4501 99.3779 22.4892 104.848C25.5283 110.319 31.9103 118.828 32.5182 125.514"/>
  <path id="shape231" transform="translate(367.349903827085, 160.155544203914)" fill="none" stroke="#a2643e" stroke-width="0.46" stroke-linecap="square" stroke-linejoin="bevel" d="M4.61478 19.0789C-0.209758 17.4341 -1.25143 16.0635 1.48979 14.967C5.60162 13.3223 17.2792 12.3355 21.391 14.4736C25.5029 16.6118 31.9173 21.546 35.2068 21.546C38.4962 21.546 45.5686 20.5591 47.5422 17.2697C49.5159 13.9802 53.1343 7.40129 56.2593 5.42761C59.3843 3.45393 63.3317 1.15131 66.6211 0"/>
  <path id="shape331" transform="translate(340.423436616752, 46.318059315755)" fill="none" stroke="#a2643e" stroke-width="0.46" stroke-linecap="square" stroke-linejoin="bevel" d="M0 12.1361C5.08935 8.74324 8.5475 5.87232 10.3744 3.52339C12.2014 1.17446 13.1149 0 13.1149 0"/>
  <path id="shape42" transform="translate(358.627643654149, 19.892597487276)" fill="none" stroke="#a2643e" stroke-width="0.46" stroke-linecap="square" stroke-linejoin="bevel" d="M0 0C1.56595 11.4837 3.19715 18.0737 4.8936 19.7702C6.59005 21.4666 7.43828 22.3148 7.43828 22.3148"/>
  <path id="shape51" transform="translate(390.017661907544, -3.96937423374766e-07)" fill="#8c8c8c" fill-rule="evenodd" stroke="#000000" stroke-opacity="0" stroke-width="0" stroke-linecap="square" stroke-linejoin="bevel" d="M7.18935 40.5687C16.9185 37.6707 23.7495 35.6006 27.6826 34.3586C33.5821 32.4956 38.2397 23.8015 47.8653 21.9385C57.4909 20.0755 58.4224 13.8654 72.7056 14.4864C82.2277 14.9004 86.8852 14.5899 86.6782 13.5549C74.0511 3.41177 63.1835 -1.03878 54.0754 0.20324C40.4132 2.06626 10.6049 12.6234 7.81035 18.5229C5.01582 24.4225 -0.57324 38.3952 0.0477672 41.1897C0.668774 43.9842 0.668774 43.9842 7.18935 40.5687Z"/>
  <path id="shape61" transform="translate(236.27745059329, 36.4426522244129)" fill="#8c8c8c" fill-rule="evenodd" stroke="#000000" stroke-opacity="0" stroke-width="0" stroke-linecap="square" stroke-linejoin="bevel" d="M101.347 21.6676C110.519 18.3115 114.325 15.0753 112.767 11.9589C110.429 7.28435 104.137 3.86831 97.6643 1.71082C91.1918 -0.446672 81.4831 -0.626463 68.7179 1.53103C55.9528 3.68852 22.5116 12.3185 18.0168 15.7345C13.5221 19.1506 2.01543 37.669 1.29627 41.4447C0.577108 45.2203 -1.22081 48.8161 1.29627 45.2203C3.81335 41.6244 15.1402 38.0286 20.3541 35.5116C25.5681 32.9945 40.1311 29.0391 50.1995 27.421C60.2678 25.8028 85.9779 24.0049 92.4504 23.4655C98.9228 22.9262 98.9228 22.9262 101.347 21.6676Z"/>
  <path id="shape71" transform="translate(433.237880712729, 136.273034479354)" fill="none" stroke="#a2643e" stroke-width="0.46" stroke-linecap="square" stroke-linejoin="bevel" d="M0 0C20.43 13.7001 31.6064 23.3142 33.5292 28.8423C36.4135 37.1345 38.9372 40.7398 39.6582 46.1477C40.1389 49.753 40.1389 50.5943 39.6582 48.6714"/>
  <path id="shape81" transform="translate(238.669974544519, 159.969101723684)" fill="none" stroke="#a2643e" stroke-width="0.46" stroke-linecap="square" stroke-linejoin="bevel" d="M9.30274 0C12.8012 5.56574 13.5168 9.38225 11.4495 11.4495C9.38225 13.5168 5.56574 16.2202 0 19.5596"/>
  <path id="shape91" transform="translate(225.550731490679, 177.363566562628)" fill="none" stroke="#a2643e" stroke-width="0.46" stroke-linecap="square" stroke-linejoin="bevel" d="M0 6.4587C3.0214 5.82262 5.72476 4.55045 8.11008 2.6422C10.4954 0.733944 11.6881 -0.140673 11.6881 0.0183487"/>
  <path id="shape101" transform="translate(277.073576938486, 169.510369399204)" fill="none" stroke="#a2643e" stroke-width="0.46" stroke-linecap="square" stroke-linejoin="bevel" d="M0 14.3119C9.70029 11.9266 13.6758 9.38225 11.9266 6.67889C10.1774 3.97553 7.87155 1.74923 5.00917 0"/>
  <path id="shape111" transform="translate(249.830636857822, 238.069482592075)" fill="none" stroke="#a2643e" stroke-width="0.46" stroke-linecap="square" stroke-linejoin="bevel" d="M11.4043 0C9.09039 2.97504 6.6112 5.45424 3.96672 7.43759C1.32224 9.42095 0 10.4126 0 10.4126"/>
  <path id="shape121" transform="translate(251.070235982313, 247.490435938204)" fill="none" stroke="#a2643e" stroke-width="0.46" stroke-linecap="square" stroke-linejoin="bevel" d="M0 9.17303C2.14864 9.00775 3.63616 7.43759 4.46256 4.46256C5.28896 1.48752 5.70216 0 5.70216 0"/>
  <path id="shape131" transform="translate(280.324775320293, 192.253898854899)" fill="none" stroke="#a2643e" stroke-width="0.46" stroke-linecap="square" stroke-linejoin="bevel" d="M0 13.8339C6.94176 9.37137 10.9085 5.81785 11.9002 3.17337C12.8918 0.528896 13.9662 -0.462784 15.1231 0.198336"/>
  <path id="shape141" transform="translate(300.158361312144, 192.900851841554)" fill="none" stroke="#a2643e" stroke-width="0.46" stroke-linecap="square" stroke-linejoin="bevel" d="M9.42095 3.02226C6.77648 0.377783 4.5452 -0.531257 2.72712 0.295143C0.909039 1.12154 0 1.53474 0 1.53474"/>
  <path id="shape151" transform="translate(286.02693129295, 225.896619185576)" fill="none" stroke="#a2643e" stroke-width="0.46" stroke-linecap="square" stroke-linejoin="bevel" d="M0 5.23111C2.64448 4.56999 4.79312 3.49567 6.44592 2.00815C8.09871 0.520632 9.66887 -0.140488 11.1564 0.024792"/>
  <path id="shape161" transform="translate(290.241568316219, 239.061161891667)" fill="none" stroke="#a2643e" stroke-width="0.46" stroke-linecap="square" stroke-linejoin="bevel" d="M0 7.93343C5.12368 6.28064 8.34663 4.5452 9.66887 2.72712C10.9911 0.909039 11.6522 0 11.6522 0"/>
  <path id="shape171" transform="translate(298.918762187653, 269.803220179037)" fill="none" stroke="#a2643e" stroke-width="0.46" stroke-linecap="square" stroke-linejoin="bevel" d="M0 4.46256C3.47088 1.48752 6.69384 0 9.66887 0"/>
  <path id="shape181" transform="translate(299.166682012552, 277.736654575777)" fill="none" stroke="#a2643e" stroke-width="0.46" stroke-linecap="square" stroke-linejoin="bevel" d="M0 0C9.75151 1.32224 16.3627 1.90072 19.8336 1.73544C23.3045 1.57016 25.0399 1.48752 25.0399 1.48752"/>
  <path id="shape191" transform="translate(255.284873005581, 255.671790159843)" fill="none" stroke="#a2643e" stroke-width="0.46" stroke-linecap="square" stroke-linejoin="bevel" d="M0 8.67719C0.49584 6.52856 1.6528 4.5452 3.47088 2.72712C5.28896 0.909039 6.198 0 6.198 0"/>
  <path id="shape201" transform="translate(232.228329290054, 263.853144381481)" fill="none" stroke="#a2643e" stroke-width="0.46" stroke-linecap="square" stroke-linejoin="bevel" d="M0 13.6356L8.92511 1.2396L8.42927 0"/>
  <path id="shape211" transform="translate(352.218134735997, 360.267655260967)" fill="none" stroke="#a2643e" stroke-width="0.46" stroke-linecap="square" stroke-linejoin="bevel" d="M33.1209 24.6583C26.1174 23.6856 21.6429 22.7615 19.6975 21.8861C16.7793 20.5729 14.2989 14.4448 10.6512 9.33806C8.21944 5.93356 4.66903 2.82087 0 0"/>
  <path id="shape221" transform="translate(268.599021057197, 300.659943760862)" fill="none" stroke="#a2643e" stroke-width="0.46" stroke-linecap="square" stroke-linejoin="bevel" d="M22.6632 60.9355C11.8569 48.7284 5.60326 41.7743 3.90227 40.0733C1.35079 37.5218 0.150087 30.918 0.150087 22.9634C0.150087 15.0087 0 6.60384 0 3.30192C0 1.10064 0 0 0 0"/>
  <path id="shape231" transform="translate(238.426324912508, 284.182570023128)" fill="none" stroke="#a2643e" stroke-width="0.46" stroke-linecap="square" stroke-linejoin="bevel" d="M25.9702 61.0533C22.5683 49.9469 20.317 43.0428 19.2163 40.3413C17.5654 36.2889 11.5619 25.9329 9.76081 22.631C8.56012 20.4297 5.30651 15.1173 0 6.69384L6.44592 1.73544L7.68551 0"/>
  <path id="shape241" transform="translate(272.051030404142, 300.509856397951)" fill="none" stroke="#a2643e" stroke-width="0.46" stroke-linecap="square" stroke-linejoin="bevel" d="M23.1135 45.0262C13.808 37.2217 9.15533 31.4683 9.15533 27.7662C9.15533 22.2129 7.05411 20.8621 6.75393 16.0593C6.45376 11.2566 2.70157 4.50262 1.35079 2.25131C0.450262 0.750437 0 0 0 0"/>
  <path id="shape251" transform="translate(197.147854501773, 153.935507175206)" fill="none" stroke="#a2643e" stroke-width="0.46" stroke-linecap="square" stroke-linejoin="bevel" d="M12.6689 44.9134C12.0663 42.9548 12.9703 41.9756 15.3807 41.9756C18.9965 41.9756 20.1264 45.3653 21.0303 41.7496C21.9342 38.1339 13.7989 34.0662 12.8949 28.1907C12.2923 24.2736 12.5183 18.6994 13.5729 11.468C7.99865 5.29111 4.15694 1.60006 2.04778 0.39482C-1.11598 -1.41304 -0.212049 3.33259 2.04778 7.62626C4.3076 11.9199 7.47135 12.1459 7.24537 17.7955C7.01939 23.445 4.98555 26.6088 7.01939 31.8064C9.05323 37.004 11.991 36.326 11.0871 39.7158C10.1831 43.1055 10.1831 43.1055 12.6689 44.9134Z"/>
  <path id="shape261" transform="translate(163.191334402514, 134.010314713209)" fill="none" stroke="#a2643e" stroke-width="0.46" stroke-linecap="square" stroke-linejoin="bevel" d="M62.4442 80.7853C58.0752 83.1105 55.2128 84.1977 53.8569 84.0471C51.8231 83.8211 55.4388 79.0754 54.5349 75.9117C53.6309 72.7479 46.1735 75.9117 42.3318 72.7479C38.4901 69.5842 31.4846 61.2228 25.8351 53.9914C20.1855 46.76 10.6943 33.201 9.56435 28.2294C8.43444 23.2578 5.49667 14.6705 3.68881 10.6028C1.88095 6.53508 -1.50879 4.27526 0.751038 2.91937C3.01086 1.56347 5.0447 -0.696353 9.56435 0.207577C12.5774 0.810197 13.3307 1.26216 11.8242 1.56347"/>
  <path id="shape271" transform="translate(178.933493769043, 136.017175081629)" fill="none" stroke="#a2643e" stroke-width="0.46" stroke-linecap="square" stroke-linejoin="bevel" d="M0 0L11.0225 9.64466C17.2226 9.8743 21.0116 11.3669 22.3894 14.1225C23.7672 16.8782 26.6376 21.4709 31.0007 27.9006L32.0341 30.6562"/>
  <path id="shape281" transform="translate(374.72083169491, 145.95488989893)" fill="none" stroke="#a2643e" stroke-width="0.46" stroke-linecap="square" stroke-linejoin="bevel" d="M7.92516 8.31311C3.12203 8.31311 0.600391 6.87217 0.360235 3.99029C0.120078 1.10841 0 -0.212446 0 0.0277104"/>
  <path id="shape291" transform="translate(421.191105261212, 133.734621225594)" fill="none" stroke="#a2643e" stroke-width="0.46" stroke-linecap="square" stroke-linejoin="bevel" d="M2.52164 10.0866C2.52164 6.48422 1.6811 3.12203 0 0"/>
  <path id="shape301" transform="translate(386.9688107744, 97.711153344739)" fill="none" stroke="#a2643e" stroke-width="0.46" stroke-linecap="square" stroke-linejoin="bevel" d="M0 0C2.64172 6.24407 4.08266 10.807 4.32282 13.6889"/>
  <path id="shape311" transform="translate(393.092800314146, 157.143059917827)" fill="none" stroke="#a2643e" stroke-width="0.46" stroke-linecap="square" stroke-linejoin="bevel" d="M0 3.9694C6.00391 7.57174 9.72634 10.0934 11.1673 11.5343C13.3287 13.6957 11.5275 -0.353419 14.0492 0.00681544"/>
  <path id="shape321" transform="translate(398.163631014248, 129.598557252982)" fill="none" stroke="#a2643e" stroke-width="0.46" stroke-linecap="square" stroke-linejoin="bevel" d="M0 0C1.27503 2.80506 2.16755 5.73763 2.67756 8.7977"/>
  <path id="shape71" transform="translate(5.32468476421855e-07, 364.901084251813)" fill="#7c1935" fill-rule="evenodd" stroke="#000000" stroke-opacity="0" stroke-width="0" stroke-linecap="square" stroke-linejoin="bevel" d="M337.625 66.2496C346.606 47.5742 355.624 37.3876 364.679 35.6898C373.734 33.9921 378.261 33.1432 378.261 33.1432C419.007 31.4454 444.757 36.5387 455.509 48.4231C471.638 66.2496 487.767 81.5295 486.918 101.903C486.069 122.276 485.22 130.765 472.487 145.196C463.998 154.816 459.754 161.042 459.754 163.871C471.638 175.19 479.278 191.884 482.674 213.955C487.767 247.062 479.278 389.895 467.394 389.895C455.509 389.895 242.44 529.74 159.249 511.913C76.0586 494.087 5.6013 398.163 0.507995 376.092C-4.5853 354.021 30.2189 177.453 33.6144 162.173C37.01 146.894 60.7787 16.1655 94.734 1.73448C128.689 -12.6965 235.649 67.0985 253.475 86.6228C265.36 99.639 273.565 110.392 278.093 118.88C259.417 156.231 251.212 176.039 253.475 178.302C255.739 180.566 231.404 200.939 180.471 239.422C239.893 208.296 269.321 188.772 268.755 180.849C267.906 168.965 265.36 173.209 272.151 152.836C278.942 132.463 286.471 109.543 312.048 107.845C329.099 106.713 337.625 105.864 337.625 105.298C328.497 91.7161 324.498 80.9636 325.63 73.0407C327.328 61.1563 327.328 61.1563 337.625 66.2496Z"/>
 </g><g id="group6" transform="translate(356.242506550564, 162.095866475954)" fill="none">
  <path id="shape81" transform="translate(0.457210348415117, 34.9729296022735)" fill="#ffffff" fill-rule="evenodd" stroke="#000000" stroke-opacity="0" stroke-width="0" stroke-linecap="square" stroke-linejoin="bevel" d="M62.9044 277.096C40.6615 231.04 29.4093 202.648 29.1476 191.919C28.7551 175.825 25.6149 107.527 27.185 98.8914C28.7551 90.256 44.0634 63.1721 58.9792 51.3965C73.8949 39.6209 108.829 14.1071 121.782 9.78934C134.736 5.47162 159.464 1.93894 168.1 2.72398C176.735 3.50902 238.753 21.5649 249.744 27.8453C260.735 34.1256 285.463 45.1162 287.033 47.8638C288.603 50.6114 333.351 133.826 334.528 144.424C335.313 151.489 339.369 158.424 346.696 165.227L362.397 174.255C354.023 131.863 347.089 106.349 341.594 97.7139C333.351 84.7607 330.996 79.2654 329.426 69.8449C327.855 60.4244 313.725 29.8079 298.024 22.7425C282.323 15.6771 262.305 2.72398 244.641 2.33146C226.978 1.93894 202.357 3.90154 192.829 1.54642C183.3 -0.808705 148.081 -0.416185 137.876 2.33146C127.67 5.0791 100.194 15.2846 90.7733 23.135C81.3528 30.9854 54.6614 38.8358 39.7457 49.0414C24.8299 59.2469 2.06373 76.1253 0.493649 92.2186C-1.07643 108.312 1.67121 136.966 0.886169 159.732C0.101129 182.498 5.98893 225.283 8.73657 236.273C11.4842 247.264 23.2598 252.759 25.6149 259.825C27.9701 266.89 32.6803 275.526 38.9606 274.74C45.241 273.955 47.2036 267.675 53.0914 270.423C58.9792 273.17 58.9792 273.17 62.9044 277.096Z"/>
  <path id="shape91" transform="translate(12.1571899856966, 245.722597589686)" fill="none" stroke="#ffffff" stroke-width="1" stroke-linecap="square" stroke-linejoin="bevel" d="M24.6828 0C8.47319 17.4376 0.2456 27.63 0 30.5772"/>
  <path id="shape101" transform="translate(10.3151915030153, 241.670200927787)" fill="none" stroke="#ffffff" stroke-width="1" stroke-linecap="square" stroke-linejoin="bevel" d="M23.2092 0C17.5604 4.1752 12.28 9.08719 7.36799 14.736C2.456 20.3848 0 23.2092 0 23.2092"/>
  <path id="shape112" transform="translate(7.36799393072522, 211.093026115277)" fill="none" stroke="#ffffff" stroke-width="0.46" stroke-linecap="square" stroke-linejoin="bevel" d="M23.5776 0C9.33279 12.0344 2.0876 19.8936 1.842 23.5776C1.5964 27.2616 0.982399 30.5772 0 33.5244"/>
  <path id="shape122" transform="translate(2.21039817921758, 164.306264655172)" fill="none" stroke="#ffffff" stroke-width="0.46" stroke-linecap="square" stroke-linejoin="bevel" d="M23.946 0C8.96439 6.87679 0.982399 11.666 0 14.3676"/>
  <path id="shape132" transform="translate(0, 139.255085290706)" fill="none" stroke="#ffffff" stroke-width="0.46" stroke-linecap="square" stroke-linejoin="bevel" d="M25.788 0C0.736799 9.57839 0.736799 8.84159 0.3684 12.5256C0.1228 14.9816 0 16.2096 0 16.2096"/>
  <path id="shape142" transform="translate(3.31559726882637, 122.082903949878)" fill="none" stroke="#ffffff" stroke-width="0.46" stroke-linecap="square" stroke-linejoin="bevel" d="M29.1036 0.962595C14.3676 -1.24781 4.6664 0.348595 0 5.75179"/>
  <path id="shape151" transform="translate(19.8935836129581, 99.6258037423144)" fill="none" stroke="#ffffff" stroke-width="0.46" stroke-linecap="square" stroke-linejoin="bevel" d="M18.42 8.68371C27.7528 4.99971 27.3844 2.54371 17.3148 1.31571C7.24519 0.0877141 1.4736 -0.280685 0 0.210514"/>
  <path id="shape161" transform="translate(3.68399696536267, 80.0228199457983)" fill="none" stroke="#ffffff" stroke-width="0.46" stroke-linecap="square" stroke-linejoin="bevel" d="M44.208 12.8139C28.9808 2.98991 18.5428 -1.18529 12.894 0.288314C7.24519 1.76191 2.9472 2.62151 0 2.86711"/>
  <path id="shape171" transform="translate(60.4175502319467, 65.5661606546013)" fill="none" stroke="#ffffff" stroke-width="0.46" stroke-linecap="square" stroke-linejoin="bevel" d="M3.684 14.3766C4.6664 4.55258 3.4384 -0.236614 0 0.00898533"/>
  <path id="shape181" transform="translate(62.9963481077006, 8.00862281777435)" fill="none" stroke="#ffffff" stroke-width="0.46" stroke-linecap="square" stroke-linejoin="bevel" d="M43.1028 44.3041C44.5764 22.937 40.6468 9.92016 31.314 5.25377C17.3148 -1.74583 2.5788 -1.37743 0 4.14857"/>
  <path id="shape191" transform="translate(92.8367235271376, 5.40965833203612)" fill="none" stroke="#ffffff" stroke-width="0.46" stroke-linecap="square" stroke-linejoin="bevel" d="M32.4192 39.9035C34.1384 19.2731 32.0508 7.23873 26.1564 3.80033C20.262 0.361937 11.5432 -0.743263 0 0.484736"/>
  <path id="shape201" transform="translate(177.789830639824, 7.63903542463652)" fill="none" stroke="#ffffff" stroke-width="0.46" stroke-linecap="square" stroke-linejoin="bevel" d="M1.98922 27.7273C-0.663074 18.6401 -0.663074 10.9037 1.98922 4.51816C5.96766 -5.06024 11.936 2.67616 11.5676 8.57055C11.322 12.5001 11.1992 14.4649 11.1992 14.4649"/>
  <path id="shape212" transform="translate(208.616562094869, 0)" fill="none" stroke="#ffffff" stroke-width="0.46" stroke-linecap="square" stroke-linejoin="bevel" d="M1.00287 37.9452C-0.716334 23.946 -0.225134 16.4552 2.47646 15.4728C6.52886 13.9992 8.00246 11.4204 8.00246 6.99959C8.00246 4.0524 10.0901 1.7192 14.2653 0"/>
  <path id="shape222" transform="translate(260.458585451136, 50.7620512351881)" fill="none" stroke="#ffffff" stroke-width="0.46" stroke-linecap="square" stroke-linejoin="bevel" d="M0 13.7079C12.5256 3.8839 20.7532 -0.659692 24.6828 0.0771069C28.6124 0.813906 30.5772 1.18231 30.5772 1.18231"/>
  <path id="shape232" transform="translate(277.118917072518, 69.1762526524258)" fill="none" stroke="#ffffff" stroke-width="0.46" stroke-linecap="square" stroke-linejoin="bevel" d="M2.49645 6.71408C-3.39795 0.0828903 1.14565 -1.63631 16.1272 1.55649C31.1088 4.74929 38.4768 6.46848 38.2312 6.71408"/>
  <path id="shape241" transform="translate(307.982146304314, 102.174239457767)" fill="none" stroke="#ffffff" stroke-width="0.46" stroke-linecap="square" stroke-linejoin="bevel" d="M0 3.18807C5.1576 -0.495924 13.2624 -0.987123 24.3144 1.71448C40.8924 5.76687 41.9976 3.92487 50.8392 9.81927C56.7336 13.7489 59.6808 15.7137 59.6808 15.7137"/>
  <path id="shape251" transform="translate(320.13933629001, 129.308293484227)" fill="none" stroke="#ffffff" stroke-width="0.46" stroke-linecap="square" stroke-linejoin="bevel" d="M0 0C16.7008 1.7192 28.1212 4.4208 34.2612 8.10479C43.4712 13.6308 57.4704 28.3668 57.102 32.0508C56.8564 34.5068 56.7336 35.7348 56.7336 35.7348"/>
  <path id="shape261" transform="translate(324.928532344981, 153.914851835632)" fill="none" stroke="#ffffff" stroke-width="0.46" stroke-linecap="square" stroke-linejoin="bevel" d="M0 0.813021C27.016 -1.15178 40.8924 0.444621 41.6292 5.60222C42.366 10.7598 43.4712 16.0402 44.9448 21.4434"/>
 </g>
</svg>
