<?xml version="1.0" standalone="no"?>
<!DOCTYPE svg PUBLIC "-//W3C//DTD SVG 20010904//EN" "http://www.w3.org/TR/2001/REC-SVG-20010904/DTD/svg10.dtd">
<!-- Created using Krita: https://krita.org -->
<svg xmlns="http://www.w3.org/2000/svg" 
    xmlns:xlink="http://www.w3.org/1999/xlink"
    xmlns:krita="http://krita.org/namespaces/svg/krita"
    xmlns:sodipodi="http://sodipodi.sourceforge.net/DTD/sodipodi-0.dtd"
    width="350pt"
    height="84pt"
    viewBox="0 0 350 84">
<defs>
  <linearGradient id="gradient0" gradientUnits="objectBoundingBox" x1="0" y1="0" x2="1" y2="1" spreadMethod="pad">
   <stop stop-color="#0c3b12" offset="0.00813008130081301" stop-opacity="1"/>
   <stop stop-color="#79fda2" offset="0.703252032520325" stop-opacity="1"/>
  </linearGradient>
  <linearGradient id="gradient1" gradientUnits="objectBoundingBox" x1="0" y1="0" x2="1" y2="1" spreadMethod="pad">
   <stop stop-color="#ff003f" offset="0" stop-opacity="1"/>
   <stop stop-color="#5a4fca" offset="1" stop-opacity="1"/>
  </linearGradient>
  <linearGradient id="gradient2" gradientUnits="objectBoundingBox" x1="0" y1="0" x2="1" y2="1" spreadMethod="pad">
   <stop stop-color="#ff003f" offset="0" stop-opacity="1"/>
   <stop stop-color="#5a4fca" offset="1" stop-opacity="1"/>
  </linearGradient>
  <linearGradient id="gradient3" gradientUnits="objectBoundingBox" x1="0" y1="0" x2="1" y2="1" spreadMethod="pad">
   <stop stop-color="#ff003f" offset="0" stop-opacity="1"/>
   <stop stop-color="#5a4fca" offset="1" stop-opacity="1"/>
  </linearGradient>
  <linearGradient id="gradient4" gradientUnits="objectBoundingBox" x1="0" y1="0" x2="1" y2="1" spreadMethod="pad">
   <stop stop-color="#ff003f" offset="0" stop-opacity="1"/>
   <stop stop-color="#5a4fca" offset="1" stop-opacity="1"/>
  </linearGradient>
 </defs>
<path id="shape0" transform="matrix(0.183026218977278 0.0379559769587157 -0.0389710073256877 0.1879207622113 271.094024733309 46.8740602890167)" fill="#536c77" fill-rule="evenodd" d="M51.6222 55.3933C20.212 24.4017 4.02895 6.30002 3.07299 1.08822C1.63904 -6.72949 -10.4471 29.1482 25.8112 58.325C62.0695 87.5018 62.0695 87.5018 51.6222 55.3933Z"/><path id="shape0" transform="matrix(0.183026212352744 0.03795597558492 -0.0389710059151535 0.187920755409612 263.857779816243 44.8582158300558)" fill="#698895" fill-rule="evenodd" stroke="#000000" stroke-opacity="0" stroke-width="0" stroke-linecap="square" stroke-linejoin="bevel" d="M70.287 54.0475C36.8429 32.6387 15.4342 15.8589 6.06057 3.70792C-7.9998 -14.5185 1.54737 38.9456 43.7285 66.372C85.9096 93.7984 85.9096 93.7984 70.287 54.0475Z"/><path id="shape1" transform="matrix(0.183026218977278 0.0379559769587157 -0.0389710073256877 0.1879207622113 257.600380448398 48.4226999734785)" fill="#698895" fill-rule="evenodd" d="M193.006 0.666941L187.754 6.10789C171.23 13.3538 161.814 17.4789 159.504 18.4831C156.04 19.9893 156.247 18.6196 149.62 23.2138C142.992 27.808 152.383 43.6075 136.409 61.378C135.969 61.862 115.305 75.5704 106.271 73.1319C97.5391 74.9127 99.543 72.7185 87.8869 72.2277C76.2308 71.7369 64.9587 57.7794 21.5964 61.1422C-21.7659 64.505 12.158 50.0916 20.6182 49.054C29.0784 48.0164 63.6377 50.7301 66.7504 48.9742C69.8631 47.2183 91.0137 30.8565 97.8776 30.218C104.742 29.5795 107.882 36.7274 113.575 27.3359C119.267 17.9444 118.806 16.3402 120.943 11.922C123.08 7.50388 126.97 6.13687 132.796 5.7378C138.623 5.33874 142.813 10.0252 143.052 10.983C143.292 11.9408 145.207 13.6966 154.226 14.0957C160.239 14.3618 171.295 10.842 187.397 3.53635C192.074 0.154949 193.944 -0.801522 193.006 0.666941Z"/><path id="shape01" transform="matrix(0.353505848508345 0 0 0.353505848508344 283.823154252746 53.1769806905542)" fill="#122021" fill-rule="evenodd" stroke="#000000" stroke-opacity="0" stroke-width="0" stroke-linecap="square" stroke-linejoin="bevel" d="M0 14.6798C18.8624 10.6988 31.4931 6.33773 37.116 1.89822C45.5504 -4.76106 26.1924 8.08655 0.212727 10.0431C1.86456 11.6807 2.10216 12.5871 0 14.6798Z"/><ellipse id="shape81" transform="matrix(0.171052442267376 0.0354728551663879 -0.0364214811294674 0.175626779095406 279.716307655617 54.3431232055452)" rx="10.5" ry="9.5" cx="10.5" cy="9.5" fill="#122021" fill-rule="evenodd" stroke="#000000" stroke-opacity="0" stroke-width="0" stroke-linecap="square" stroke-linejoin="bevel"/><circle id="shape82" transform="matrix(0.135102827315839 0.0280176240831044 -0.0287668799719909 0.138715788524518 280.406516831648 55.07216661417)" r="5" cx="5" cy="5" fill="#f7fbfd" fill-rule="evenodd" stroke="#000000" stroke-opacity="0" stroke-width="0" stroke-linecap="square" stroke-linejoin="bevel"/><circle id="shape83" transform="matrix(0.135102827315839 0.0280176240831044 -0.0287668799719909 0.138715788524518 281.933385697994 56.5540412302054)" r="2" cx="2" cy="2" fill="#f7fbfd" fill-rule="evenodd" stroke="#000000" stroke-opacity="0" stroke-width="0" stroke-linecap="square" stroke-linejoin="bevel"/><circle id="shape03" transform="matrix(0.13510282407659 0.028017623411349 -0.0287668792822712 0.138715785198644 281.348886705768 57.2783209204649)" r="1.35425449383951" cx="1.35425449383951" cy="1.35425449383951" fill="#f7fbfd" fill-rule="evenodd" stroke="#000000" stroke-opacity="0" stroke-width="0" stroke-linecap="square" stroke-linejoin="bevel"/><path id="shape2" transform="matrix(0.237411707478931 -0.0108067776916465 0.0108067776916464 0.237411707478932 315.342201309126 8.45007857920106)" fill="url(#gradient0)" fill-rule="evenodd" d="M142.177 33.0588C104.588 3.70723 78.5544 -6.09928 64.0771 3.63924C57.3026 19.6031 55.5185 33.5436 58.7246 45.4609C86.9278 107.069 93.7805 140.531 79.2825 145.848C53.4613 155.317 14.0159 166.922 5.54467 161.172C-2.9266 155.421 -0.102846 157.113 3.58976 164.893C7.28237 172.673 5.54467 179.438 5.76188 183.498C5.97909 187.557 6.84794 192.631 9.88891 175.379C11.1595 168.171 35.6892 162.533 83.4781 158.466C98.3867 146.879 92.9029 109.132 67.0267 45.2257C64.5692 34.5264 67.5717 24.3894 76.0343 14.8146C83.8766 5.5879 103.843 14.1463 135.935 40.4899C142.848 40.2716 144.929 37.7945 142.177 33.0588Z"/><path id="shape3" transform="matrix(0.269013601326191 -0.0102966200871274 0.0139702118165681 0.264099058316466 303.46614515382 52.495729012188)" fill="#f7fbfd" fill-rule="evenodd" d="M18.3572 0.761255C6.25836 1.55189 0.140404 1.48461 0.00330303 0.559422C-0.202348 -0.828366 9.23061 0.808882 18.3572 0.761255Z"/><path id="shape4" transform="matrix(0.269013601326191 -0.0102966200871274 0.0139702118165681 0.264099058316466 303.320457038517 52.1791096280839)" fill="#f7fbfd" fill-rule="evenodd" d="M19.6364 3.36345C12.9083 6.77151 6.99733 8.35656 1.9036 8.1186C-5.73701 7.76165 11.5417 11.0444 19.8425 4.85044C28.1434 -1.34355 28.1434 -1.34355 19.6364 3.36345Z"/><path id="shape5" transform="matrix(0.269013601326191 -0.0102966200871274 0.0139702118165681 0.264099058316466 303.571665963346 54.6903956285256)" fill="#f7fbfd" fill-rule="evenodd" d="M24.9829 0C4.70296 10.764 4.52739 6.80342 0.901108 9.74428C-2.72517 12.6851 5.69865 8.74601 6.69066 8.7409C7.68268 8.7358 19.6503 4.62381 21.8281 3.73245C24.0059 2.84109 24.0059 2.84109 24.9829 0Z"/><path id="shape02" transform="matrix(0.269013592737287 -0.0102966197583832 0.0139702113705356 0.264099049884471 305.49178095307 56.7916495080084)" fill="#f7fbfd" fill-rule="evenodd" stroke="#000000" stroke-opacity="0" stroke-width="0" stroke-linecap="square" stroke-linejoin="bevel" d="M19.6364 3.36345C12.9083 6.77151 6.99733 8.35656 1.9036 8.1186C-5.73701 7.76165 11.5417 11.0444 19.8425 4.85044C28.1434 -1.34355 28.1434 -1.34355 19.6364 3.36345Z"/><path id="shape03" transform="matrix(0.269013594939405 -0.0102966198426702 0.0139702114848944 0.264099052046359 300.912041164404 49.6586222700474)" fill="#f7fbfd" fill-rule="evenodd" stroke="#000000" stroke-opacity="0" stroke-width="0" stroke-linecap="square" stroke-linejoin="bevel" d="M28.2474 1.39288C9.63014 2.83952 0.216049 2.71642 0.00508258 1.02358C-0.311366 -1.51568 14.2037 1.48003 28.2474 1.39288Z"/><ellipse id="shape6" transform="matrix(0.269013601326191 -0.0102966200871274 0.0139702118165681 0.264099058316466 299.66608238919 49.3128369719751)" rx="4" ry="2" cx="4" cy="2" fill="#f9ff41" fill-rule="evenodd"/><ellipse id="shape04" transform="matrix(0.269013601326191 -0.0102966200871274 0.0139702118165681 0.264099058316466 302.250695400815 52.3323422932825)" rx="4" ry="2" cx="4" cy="2" fill="#f9ff41" fill-rule="evenodd" stroke="#000000" stroke-opacity="0" stroke-width="0" stroke-linecap="square" stroke-linejoin="bevel"/><ellipse id="shape05" transform="matrix(0.269013602802594 -0.0102966201436374 0.0139702118932396 0.264099059765897 302.387233416346 54.0290168735497)" rx="4" ry="2" cx="4" cy="2" fill="#f9ff41" fill-rule="evenodd" stroke="#000000" stroke-opacity="0" stroke-width="0" stroke-linecap="square" stroke-linejoin="bevel"/><ellipse id="shape06" transform="matrix(0.269013591320849 -0.0102966197041684 0.0139702112969783 0.26409904849391 302.749985724562 56.9019347841445)" rx="4" ry="2" cx="4" cy="2" fill="#f9ff41" fill-rule="evenodd" stroke="#000000" stroke-opacity="0" stroke-width="0" stroke-linecap="square" stroke-linejoin="bevel"/><ellipse id="shape07" transform="matrix(0.269013581471186 -0.0102966193271679 0.013970210785473 0.264099038824188 304.619907333216 58.6465352419735)" rx="4" ry="2" cx="4" cy="2" fill="#f9ff41" fill-rule="evenodd" stroke="#000000" stroke-opacity="0" stroke-width="0" stroke-linecap="square" stroke-linejoin="bevel"/><path id="shape7" transform="matrix(0.470925425338271 -0.0214361222326259 0.0214361222326254 0.470925425338271 314.644847549705 49.3071521820776)" fill="url(#gradient1)" fill-rule="evenodd" d="M11.5504 0.74574C15.8097 11.6974 15.8713 19.047 11.7351 22.7946C5.53079 28.416 1.78879 29.4703 0.179546 27.3242C-1.4297 25.1781 8.28109 3.95566 9.28588 1.78767C10.2907 -0.380324 10.2907 -0.380324 11.5504 0.74574Z"/><path id="shape8" transform="matrix(0.470925425338271 -0.0214361222326259 0.0214361222326254 0.470925425338271 302.876300650663 36.4661312473462)" fill="url(#gradient2)" fill-rule="evenodd" d="M34.7688 28.2428C31.7211 17.2053 26.0157 10.0166 17.6525 6.67682C5.10779 1.66714 -1.63777 -3.05015 0.340996 2.5027C2.31976 8.05555 6.2792 19.3885 12.2273 23.8852C18.1754 28.3818 20.6805 28.9292 34.7688 28.2428Z"/><path id="shape9" transform="matrix(0.470925425338271 -0.0214361222326259 0.0214361222326254 0.470925425338271 302.988812292377 45.4335377887421)" fill="url(#gradient3)" fill-rule="evenodd" d="M34.5978 9.00334C23.2365 0.536004 13.5165 -1.9589 5.43774 1.51863C-6.68036 6.73492 4.04022 11.0779 12.569 11.5748C21.0978 12.0716 30.6723 15.2876 34.5978 9.00334Z"/><path id="shape10" transform="matrix(0.470925425338271 -0.0214361222326259 0.0214361222326254 0.470925425338271 306.217904705987 49.6551600784382)" fill="url(#gradient4)" fill-rule="evenodd" d="M28.6697 0C19.4937 0.219694 13.305 0.867354 10.1034 1.94298C5.30108 3.55642 -4.97776 6.98569 2.8454 14.352C10.6686 21.7182 21.853 15.0487 24.3674 12.3803C26.8818 9.7119 26.8818 9.7119 28.6697 0Z"/><path id="shape01" transform="matrix(0.132566007674093 0 0 0.136759882493917 56.1079727435723 23.54788442193)" fill="#3d6c82" fill-rule="evenodd" stroke="#000000" stroke-opacity="0" stroke-width="0" stroke-linecap="square" stroke-linejoin="bevel" d="M89.3786 26.348C61.2547 23.2283 43.0927 28.5619 34.8926 42.3486C26.6924 56.1353 30.8544 74.978 20.4786 97.0667C6.86275 102.83 -3.82155 155.785 1.31007 171.032C4.73116 181.196 9.08315 191.184 14.3661 200.996C26.4411 213.828 34.5886 217.302 47.8703 221.73C57.8316 225.051 43.7318 280.971 57.8435 279.433C64.8994 278.664 89.8271 265.493 116.258 273.021C115.313 254.631 115.26 216.502 116.241 214.106C120.167 204.521 140.242 185.362 144.092 162.881C142.582 149.069 141.534 138.277 137.45 120.917C137.789 98.7516 114.867 87.429 97.681 74.7693C91.643 70.7687 91.5691 38.8001 97.4548 30.2718C103.341 21.7435 130.055 -6.10862 117.83 1.21355C105.604 8.53572 99.5669 13.1385 94.7371 19.7049C89.9074 26.2712 90.2845 26.2712 89.3786 26.348Z"/><path id="shape33" transform="matrix(0.132566004569075 0 0 0.137187628617874 66.727367918296 22.0317465150117)" fill="#122021" fill-rule="evenodd" stroke="#000000" stroke-opacity="0" stroke-width="0" stroke-linecap="square" stroke-linejoin="bevel" d="M2.12427 49.1591L9.45692 46.9785L14.9224 43.5199L40.1204 13.4146L51.4288 0C36.4879 9.58258 26.5439 16.4153 21.5969 20.498C16.65 24.5808 9.45098 33.591 0 47.5286C0 47.5286 0.708089 48.0721 2.12427 49.1591Z"/><ellipse id="shape811" transform="matrix(0.167840594410048 0 0 0.173150420473235 61.2563618288186 28.5945803927712)" rx="10.5" ry="9.5" cx="10.5" cy="9.5" fill="#122021" fill-rule="evenodd" stroke="#000000" stroke-opacity="0" stroke-width="0" stroke-linecap="square" stroke-linejoin="bevel"/><circle id="shape821" transform="matrix(0.132566004569075 0 0 0.136759879290668 62.0479190344208 29.1484086579743)" r="5" cx="5" cy="5" fill="#f7fbfd" fill-rule="evenodd" stroke="#000000" stroke-opacity="0" stroke-width="0" stroke-linecap="square" stroke-linejoin="bevel"/><circle id="shape831" transform="matrix(0.132566004569075 0 0 0.136759879290668 63.773449726019 30.249842517471)" r="2" cx="2" cy="2" fill="#f7fbfd" fill-rule="evenodd" stroke="#000000" stroke-opacity="0" stroke-width="0" stroke-linecap="square" stroke-linejoin="bevel"/><circle id="shape031" transform="matrix(0.13256600139065 0 0 0.13675987601169 63.3648778859797 31.0490432563084)" r="1.35425449383951" cx="1.35425449383951" cy="1.35425449383951" fill="#f7fbfd" fill-rule="evenodd" stroke="#000000" stroke-opacity="0" stroke-width="0" stroke-linecap="square" stroke-linejoin="bevel"/><path id="shape08" transform="matrix(0.132565992462135 0 0 0.136759866800711 52.1891030854585 44.8852993828314)" fill="#122021" fill-rule="evenodd" stroke="#000000" stroke-opacity="0" stroke-width="0" stroke-linecap="square" stroke-linejoin="bevel" d="M14.7546 286.428L19.629 183.152C126.757 157.006 113.095 160.022 161.456 160.547C200.25 163.262 252.616 159.678 260.214 175.158C264.012 182.898 267.439 197.713 258.044 209.79C249.978 209.781 243.691 194.757 241.447 191.027C235.79 183.185 247.055 197.318 235.186 187.589C236.106 191.296 236.694 217.132 259.926 216.36C283.776 204.009 281.553 152.175 214.078 148.188C79.1293 140.213 21.4692 186.219 20.8558 171.497C20.4468 161.682 18.4068 84.8355 19.8022 46.6898C39.0611 40.1063 82.9894 38.2657 151.587 41.1678C158.653 22.1027 165.43 11.0464 171.917 7.99883C186.169 1.30279 199.561 7.92216 211.011 16.9188C228.187 30.4137 206.354 5.51621 192.246 1.22237C182.84 -1.64019 172.329 0.524932 160.712 7.7177L147.217 34.0941C86.6172 31.5869 43.2699 33.2226 17.1754 39.0014C15.6912 39.3301 11.8836 40.9042 11.6547 45.1354C9.75489 80.2525 5.86999 142.206 0 230.997C0.057441 314.398 7.3937 289.7 14.7546 286.428Z"/><path id="shape011" transform="matrix(0.132565996632264 0 0 0.136759871102768 24.6851432016266 36.9689504321211)" fill="#122021" fill-rule="evenodd" stroke="#000000" stroke-opacity="0" stroke-width="0" stroke-linecap="square" stroke-linejoin="bevel" d="M164.86 359.042C72.3958 201.822 -0.895295 50.2402 0.00826529 22.2298C1.36361 -19.7857 25.3079 5.06216 46.0898 36.6868C66.8717 68.3114 44.2827 88.6415 43.3791 93.1593C42.4756 97.6771 71.8413 105.809 58.2879 105.357C49.2523 105.056 41.8732 101.291 36.1506 94.0629C40.6684 91.9546 43.2285 84.1237 43.8309 70.5703C44.7345 50.2402 43.3791 36.235 33.44 29.4583C23.5008 22.6816 8.59209 -4.87701 7.68853 23.1334C7.08616 41.807 23.1996 78.8529 56.029 134.271L147.74 307.755C177.815 380.46 171.788 364.162 164.86 359.042Z"/>
</svg>
