<?xml version="1.0" standalone="no"?>
<!DOCTYPE svg PUBLIC "-//W3C//DTD SVG 20010904//EN" "http://www.w3.org/TR/2001/REC-SVG-20010904/DTD/svg10.dtd">
<!-- Created using Krita: https://krita.org -->
<svg xmlns="http://www.w3.org/2000/svg" 
    xmlns:xlink="http://www.w3.org/1999/xlink"
    xmlns:krita="http://krita.org/namespaces/svg/krita"
    xmlns:sodipodi="http://sodipodi.sourceforge.net/DTD/sodipodi-0.dtd"
    width="2000pt"
    height="1000pt"
    viewBox="0 0 2000 1000">
<defs>
  <linearGradient id="gradient0" gradientUnits="objectBoundingBox" x1="0.141280564343505" y1="0.280433703283918" x2="0.956529057125076" y2="0.385203035108333" spreadMethod="pad">
   <stop stop-color="#ff0055" offset="0.0537190082644628" stop-opacity="1"/>
   <stop stop-color="#04f1ff" offset="0.995867768595041" stop-opacity="1"/>
  </linearGradient>
  <linearGradient id="gradient1" gradientUnits="objectBoundingBox" x1="0.02894402791128" y1="0.874072913370188" x2="0.988422388835488" y2="0.137428046016261" spreadMethod="pad">
   <stop stop-color="#ff0055" offset="0.0537190082644628" stop-opacity="1"/>
   <stop stop-color="#04f1ff" offset="1" stop-opacity="1"/>
  </linearGradient>
 </defs>
<path id="shape0" transform="translate(253.246920709531, 178.320870666378)" fill="#04f1ff" fill-rule="evenodd" d="M18.927 2.34633L274.677 0C296.576 96.9815 308.307 164.243 309.872 201.784C311.436 239.325 208.98 254.185 2.50275 246.364C-3.75412 182.231 1.72064 100.892 18.927 2.34633Z"/><path id="shape1" transform="translate(254.007720845975, 356.820369759822)" fill="#122021" fill-rule="evenodd" d="M1.51195 25.7032L0 0L308.438 1.51195L309.95 43.8466C309.95 43.8466 207.137 37.7988 1.51195 25.7032Z"/><path id="shape2" transform="matrix(1.69809535668371 0 0 1.69809535668371 1496.51886508853 105.756810790571)" fill="url(#gradient0)" fill-rule="evenodd" d="M146.643 34.6771C130.966 33.0804 123.127 28.6051 123.127 21.2513C123.127 10.2206 117.612 4.70528 103.824 0.844537C94.6313 -1.72929 84.5199 1.57992 73.4892 10.7722C90.7706 11.8752 100.331 15.736 102.169 22.3544C104.927 32.282 120.37 25.6636 105.478 25.6636C90.5868 25.6636 110.994 22.3544 87.2775 28.4212C63.5616 34.4881 66.8708 27.3182 47.5671 25.112C28.2634 22.9059 24.7127 39.4519 5.40902 44.9673C-13.8947 50.4826 22.7481 38.9004 48.1186 50.4826C73.4892 62.0648 57.4947 66.4771 44.8094 73.0955C32.1241 79.7139 23.1598 77.1615 13.2322 77.713C3.3046 78.2645 18.3358 79.1624 18.3358 92.9507C18.3358 106.739 25.1361 86.4744 17.9662 115.154C13.1862 134.274 -4.45928 165.818 18.3965 134.52C44.823 102.753 71.0429 67.3411 90.6968 57.4861"/><path id="shape3" transform="matrix(1.69809535668371 0 0 1.69809535668371 1108.23492897279 769.284272208425)" fill="#122021" fill-rule="evenodd" d="M0 0.884967L16.0769 0L19.9117 35.5462C19.9117 35.5462 13.2745 23.9924 0 0.884967Z"/><path id="shape4" transform="matrix(1.69809535668371 0 0 1.69809535668371 1120.50745078777 870.970881532544)" fill="#122021" fill-rule="evenodd" d="M0 2.06492L18.7318 15.4869L26.6965 0C26.6965 0 17.7977 0.688307 0 2.06492Z"/><path id="shape5" transform="matrix(1.69809535668371 0 0 1.69809535668371 1121.00837004552 826.389067592413)" fill="#122021" fill-rule="evenodd" d="M23.5991 24.0416L0 25.369L0.442483 0C0.442483 0 8.16136 8.01386 23.5991 24.0416Z"/><path id="shape6" transform="matrix(1.69809535668371 0 0 1.69809535668371 1109.2367674883 781.556794023405)" fill="#122021" fill-rule="evenodd" d="M0 0L6.48976 23.5991L22.5666 39.086L0 0"/><path id="shape7" transform="matrix(1.69809535668371 0 0 1.69809535668371 1140.52930819643 899.951919604948)" fill="#122021" fill-rule="evenodd" d="M0 0L0 20.5988L38.1078 20.9421C38.1078 20.9421 25.4052 13.9614 0 0Z"/><path id="shape8" transform="matrix(1.69809535668371 0 0 1.69809535668371 1102.81984731966 713.440835904575)" fill="#122021" fill-rule="evenodd" d="M20.4925 29.275L0 29.0311L3.41542 0C3.41542 0 9.10779 9.75835 20.4925 29.275Z"/><path id="shape9" transform="matrix(1.69809535668371 0 0 1.69809535668371 1116.0763339815 715.097896737304)" fill="#122021" fill-rule="evenodd" d="M15.1254 24.8838L0 0.487917L51.9632 0C51.9632 0 39.684 8.2946 15.1254 24.8838Z"/><path id="shape10" transform="matrix(1.69809535668371 0 0 1.69809535668371 1134.30400314152 674.085641127255)" fill="#122021" fill-rule="evenodd" d="M0 20.7365L58.7941 15.8573L25.8596 0C25.8596 0 17.2398 6.91216 0 20.7365Z"/><path id="shape11" transform="matrix(1.69809535668371 0 0 1.69809535668371 1188.5727454134 468.610097868824)" fill="#122021" fill-rule="evenodd" d="M0 121.247L16.1013 126.859L66.8447 0C66.8447 0.162639 44.5631 40.5785 0 121.247Z"/><path id="shape12" transform="matrix(1.69809535668371 0 0 1.69809535668371 1224.19955331708 469.852893493371)" fill="#122021" fill-rule="evenodd" d="M0 128.81L48.3038 0L40.4972 112.221C40.4972 112.221 26.9981 117.751 0 128.81Z"/><path id="shape13" transform="matrix(1.69809535668371 0 0 1.69809535668371 1187.74421499704 462.39611974609)" fill="#122021" fill-rule="evenodd" d="M0 115.88L12.6859 0L64.4051 1.70771C64.4051 1.70771 42.9367 39.7653 0 115.88Z"/><path id="shape14" transform="matrix(1.69809535668371 0 0 1.69809535668371 1297.11022995717 465.91737401564)" fill="#122021" fill-rule="evenodd" d="M8.53856 0.121979L0 109.415L37.8136 0.121979C37.8136 -0.0406598 28.0553 -0.0406598 8.53856 0.121979Z"/><path id="shape15" transform="matrix(1.69809535668371 0 0 1.69809535668371 860.749254205535 807.479636960272)" fill="#122021" fill-rule="evenodd" d="M28.8036 3.66591L12.5688 0L0 50.0134L28.5417 22.781C28.5417 22.781 28.629 16.4093 28.8036 3.66591Z"/><path id="shape16" transform="matrix(1.69809535668371 0 0 1.69809535668371 914.996204976743 812.815402609899)" fill="#122021" fill-rule="evenodd" d="M0 0L0.261851 18.8532L9.95032 18.0677C9.95032 18.0677 6.63355 12.0451 0 0Z"/><path id="shape17" transform="matrix(1.69809535668371 0 0 1.69809535668371 919.887323488901 780.800808712137)" fill="#122021" fill-rule="evenodd" d="M0 15.9729L9.68847 32.7313L30.3747 0C30.3747 0 20.2498 5.32429 0 15.9729Z"/><path id="shape18" transform="matrix(1.69809535668371 0 0 1.69809535668371 948.344740286911 672.751554307192)" fill="#122021" fill-rule="evenodd" d="M0 64.9389L29.5891 0L21.7336 55.2505C21.7336 55.2505 14.4891 58.4799 0 64.9389Z"/><path id="shape19" transform="matrix(1.69809535668371 0 0 1.69809535668371 993.254101171271 667.860435795034)" fill="#122021" fill-rule="evenodd" d="M0 52.1083L4.71331 2.0948L25.6614 0C25.6614 0 17.1076 17.3694 0 52.1083Z"/><path id="shape20" transform="matrix(1.69809535668371 0 0 1.69809535668371 1007.03816243281 682.978438468977)" fill="#122021" fill-rule="evenodd" d="M0 34.5643L15.9729 0L16.4966 20.948C16.4966 20.948 10.9977 25.4868 0 34.5643Z"/><path id="shape21" transform="matrix(1.69809535668371 0 0 1.69809535668371 1040.83134488044 652.297785983622)" fill="#122021" fill-rule="evenodd" d="M0 6.54626L1.30925 33.255L54.4649 0C54.4649 0 36.3099 2.18209 0 6.54626Z"/><path id="shape22" transform="matrix(1.69809535668371 0 0 1.69809535668371 1046.61175766754 618.059956398516)" fill="#122021" fill-rule="evenodd" d="M0 22.2573L19.3769 0L49.7516 17.2821C49.9262 17.2821 33.3423 18.9405 0 22.2573Z"/><path id="shape23" transform="matrix(1.69809535668371 0 0 1.69809535668371 1078.18170442783 551.362885778179)" fill="#122021" fill-rule="evenodd" d="M31.1602 51.0608L4.71331 0L0 32.7313C0 32.7313 10.3867 38.8412 31.1602 51.0608Z"/><path id="shape24" transform="matrix(1.69809535668371 0 0 1.69809535668371 1091.07647141443 546.027120128552)" fill="#122021" fill-rule="evenodd" d="M30.6365 59.1782L56.8216 36.3972L0 0C0 0 10.2122 19.7261 30.6365 59.1782Z"/><path id="shape25" transform="matrix(1.69809535668371 0 0 1.69809535668371 1094.63364851418 450.872632710205)" fill="#122021" fill-rule="evenodd" d="M0 51.8464L54.4649 87.7199L25.3995 0C25.3995 0 16.933 17.2821 0 51.8464Z"/><path id="shape26" transform="matrix(1.69809535668371 0 0 1.69809535668371 1141.68763662568 429.069486126677)" fill="#122021" fill-rule="evenodd" d="M26.9837 95.869L0 10.5302L6.36202 0C6.36202 0 13.2359 31.9563 26.9837 95.869Z"/><path id="shape27" transform="matrix(1.69809535668371 0 0 1.69809535668371 1156.21622750296 417.521119019096)" fill="#122021" fill-rule="evenodd" d="M0 7.02016L21.2798 0L19.7442 96.0884C19.7442 96.0884 13.1628 66.399 0 7.02016Z"/><path id="shape28" transform="matrix(1.69809535668371 0 0 1.69809535668371 1191.60638476812 419.383758875158)" fill="#122021" fill-rule="evenodd" d="M3.72946 0L1.0969 26.3256L0 92.5783C0 92.5783 1.24315 61.7189 3.72946 0Z"/><path id="shape29" transform="matrix(1.69809535668371 0 0 1.69809535668371 1202.03716796207 419.011230903945)" fill="#122021" fill-rule="evenodd" d="M0 0L4.82636 22.8155L89.7264 24.5705C89.7264 24.5705 59.8176 16.3804 0 0Z"/><path id="shape30" transform="matrix(1.69809535668371 0 0 1.69809535668371 1200.174528106 392.934272919086)" fill="#122021" fill-rule="evenodd" d="M0 12.724L18.4279 0L87.3132 36.6364C87.3132 36.6364 58.2088 28.6656 0 12.724Z"/><path id="shape31" transform="matrix(1.69809535668371 0 0 1.69809535668371 1238.91743711208 387.718881322115)" fill="#122021" fill-rule="evenodd" d="M0 1.75504L31.1519 0L70.8597 39.7078C70.8597 39.7078 47.2398 27.0569 0 1.75504Z"/><path id="shape32" transform="matrix(1.69809535668371 0 0 1.69809535668371 1301.50213627574 391.816689005449)" fill="#122021" fill-rule="evenodd" d="M0 0L62.7426 59.6713L33.5651 13.3822C33.5651 13.3822 22.3767 8.92145 0 0Z"/><path id="shape33" transform="matrix(1.69809535668371 0 0 1.69809535668371 1367.43958718031 413.050783364549)" fill="#122021" fill-rule="evenodd" d="M0 3.2907L52.6512 0L25.6674 42.7791C25.6674 42.7791 17.1116 29.6163 0 3.2907Z"/><path id="shape34" transform="matrix(1.69809535668371 0 0 1.69809535668371 1326.08898237575 467.067339190328)" fill="#122021" fill-rule="evenodd" d="M25.0093 0L82.2675 54.2201L0 82.4868C0 82.4868 8.33644 54.9912 25.0093 0Z"/><path id="shape35" transform="matrix(1.69809535668371 0 0 1.69809535668371 1339.12746136818 566.159779532791)" fill="#122021" fill-rule="evenodd" d="M0 26.3256L73.0535 0L45.631 48.0442C45.631 48.0442 30.4207 40.8047 0 26.3256Z"/><path id="shape36" transform="matrix(1.69809535668371 0 0 1.69809535668371 1410.62091291189 415.121129973071)" fill="#122021" fill-rule="evenodd" d="M29.6564 0L0 50.9194L89.2489 66.3071C89.2489 66.3071 69.3847 44.2048 29.6564 0Z"/><path id="shape37" transform="matrix(1.69809535668371 0 0 1.69809535668371 1420.12267340092 507.288206716668)" fill="#122021" fill-rule="evenodd" d="M0 0L80.0162 13.1495L31.335 30.5342C31.335 30.322 20.89 20.1439 0 0Z"/><path id="shape38" transform="matrix(1.69809535668371 0 0 1.69809535668371 1423.44828957208 566.199121748658)" fill="#122021" fill-rule="evenodd" d="M27.9777 0L0 49.2408L65.7476 47.5621C65.7476 47.5621 53.1576 31.7081 27.9777 0Z"/><path id="shape39" transform="matrix(1.69809535668371 0 0 1.69809535668371 1477.60832435955 531.042607939244)" fill="#122021" fill-rule="evenodd" d="M35.2519 65.7476L0 20.1439L50.3599 0C50.3599 0 45.3239 21.9159 35.2519 65.7476Z"/><path id="shape40" transform="matrix(1.69809535668371 0 0 1.69809535668371 1545.07082383167 531.992783988147)" fill="#122021" fill-rule="evenodd" d="M0 65.188L13.9888 0L35.8115 50.9194C35.8115 50.9194 23.8743 55.6756 0 65.188Z"/><path id="shape41" transform="matrix(1.69809535668371 0 0 1.69809535668371 1590.89196595062 489.612049250532)" fill="#122021" fill-rule="evenodd" d="M0 40.9436L68.0825 0L68.5831 93.1129C68.5831 93.1129 45.7221 75.7231 0 40.9436Z"/><path id="shape42" transform="matrix(1.69809535668371 0 0 1.69809535668371 1594.29227804469 559.138180028854)" fill="#122021" fill-rule="evenodd" d="M0 0L10.0121 35.6492L32.5394 30.1426C32.5394 30.1426 21.693 20.095 0 0Z"/><path id="shape43" transform="matrix(1.69809535668371 0 0 1.69809535668371 1622.34485282069 614.573518707282)" fill="#122021" fill-rule="evenodd" d="M0 7.5091L19.5237 0L50.5613 23.0279C50.5613 23.0279 33.7075 17.855 0 7.5091Z"/><path id="shape44" transform="matrix(1.69809535668371 0 0 1.69809535668371 1624.89508689124 637.525625342195)" fill="#122021" fill-rule="evenodd" d="M0 0L15.5188 19.0231L48.0582 13.0158C48.0582 13.0158 32.0388 8.67718 0 0Z"/><path id="shape45" transform="matrix(1.69809535668371 0 0 1.69809535668371 1654.64781771427 665.5782001182)" fill="#122021" fill-rule="evenodd" d="M0 6.50789L30.537 0L43.0522 31.0376C43.0522 31.0376 28.7015 22.861 0 6.50789Z"/><path id="shape46" transform="matrix(1.69809535668371 0 0 1.69809535668371 1662.29851992591 689.380384776628)" fill="#122021" fill-rule="evenodd" d="M0 0L47.057 26.0316L30.0364 45.5552C30.0364 45.5552 20.0243 30.3701 0 0Z"/><path id="shape47" transform="matrix(1.69809535668371 0 0 1.69809535668371 1725.20429366604 739.534988164032)" fill="#122021" fill-rule="evenodd" d="M0 14.5176L15.5188 13.5164L11.514 0C11.514 0 7.67597 4.8392 0 14.5176Z"/><path id="shape48" transform="matrix(1.69809535668371 0 0 1.69809535668371 1719.03528828031 770.893341785558)" fill="#122021" fill-rule="evenodd" d="M0 1.39235L19.4929 0L21.3494 27.3829C21.3494 27.3829 14.2329 18.7194 0 1.39235Z"/><path id="shape49" transform="matrix(1.69809535668371 0 0 1.69809535668371 1757.25886758549 783.503182381083)" fill="#122021" fill-rule="evenodd" d="M0 0L0.464117 22.7417L8.81822 15.5479C8.81822 15.5479 5.87882 10.3653 0 0Z"/><path id="shape50" transform="matrix(1.69809535668371 0 0 1.69809535668371 1757.6529251041 814.239668832676)" fill="#122021" fill-rule="evenodd" d="M9.05028 0L0 6.96176L7.65793 30.1676C7.65793 30.1676 8.12205 20.1117 9.05028 0Z"/><path id="shape51" transform="matrix(1.69809535668371 0 0 1.69809535668371 1771.44493825546 816.998071462947)" fill="#122021" fill-rule="evenodd" d="M0 28.7753L10.6747 28.5432L2.55264 0"/><path id="shape52" transform="matrix(1.69809535668371 0 0 1.69809535668371 1780.11420366488 820.150531611828)" fill="#122021" fill-rule="evenodd" d="M0 0L6.96176 24.8303L11.835 6.03352C11.835 6.03352 7.88999 4.02235 0 0Z"/><path id="shape53" transform="matrix(1.69809535668371 0 0 1.69809535668371 1788.38941155569 869.013663919489)" fill="#122021" fill-rule="evenodd" d="M0 0L6.49764 7.65793L30.6317 5.80146C30.6317 5.80146 20.4212 3.86764 0 0Z"/><path id="shape54" transform="matrix(1.69809535668371 0 0 1.69809535668371 1793.51215929763 854.039478212302)" fill="#122021" fill-rule="evenodd" d="M3.71294 0L0 7.65793L21.8135 10.4426C21.8135 10.4426 15.78 6.96176 3.71294 0Z"/><path id="shape55" transform="matrix(1.69809535668371 0 0 1.69809535668371 1801.39330966983 882.411619552234)" fill="#122021" fill-rule="evenodd" d="M0 3.24882L5.5694 15.3159L27.847 15.3159L28.0791 0C28.0791 0 18.7194 1.08294 0 3.24882Z"/><path id="shape56" transform="matrix(1.69809535668371 0 0 1.69809535668371 1515.04309363287 379.739730872438)" fill="#122021" fill-rule="evenodd" d="M0 48.2559L39.554 0L45.4871 98.0939C45.4871 98.0939 30.3247 81.4812 0 48.2559Z"/><path id="shape57" transform="matrix(1.69809535668371 0 0 1.69809535668371 1589.59782225833 388.471365756501)" fill="#122021" fill-rule="evenodd" d="M0 0L4.74648 88.6009L63.2864 54.1889C63.2864 54.1889 42.1909 36.126 0 0Z"/><path id="shape58" transform="matrix(1.69809535668371 0 0 1.69809535668371 1712.51237485707 496.609305474511)" fill="#122021" fill-rule="evenodd" d="M1.18662 0L0 76.3392L25.3145 16.2171C25.3145 16.2171 17.2719 10.8114 1.18662 0Z"/><path id="shape59" transform="matrix(1.69809535668371 0 0 1.69809535668371 1718.55735285373 559.138180028854)" fill="#122021" fill-rule="evenodd" d="M18.9859 0L0 39.1207L30.061 39.5162C30.061 39.5162 26.3693 26.3442 18.9859 0Z"/><path id="shape60" transform="matrix(1.69809535668371 0 0 1.69809535668371 1759.52887038664 574.522355209226)" fill="#122021" fill-rule="evenodd" d="M0 0L8.70187 27.6878L29.6655 2.76878C29.6655 2.76878 19.777 1.84585 0 0Z"/><path id="shape61" transform="matrix(1.69809535668371 0 0 1.69809535668371 1811.24701546916 576.537347874779)" fill="#122021" fill-rule="evenodd" d="M0 2.76878L29.6655 0L21.3591 20.9636C21.3591 20.9636 14.2394 14.8987 0 2.76878Z"/><path id="shape62" transform="matrix(1.69809535668371 0 0 1.69809535668371 1789.08209614808 589.298968089948)" fill="#122021" fill-rule="evenodd" d="M11.4707 0L0 15.4261L28.4789 13.0528C28.4789 13.0528 22.8095 8.70187 11.4707 0Z"/><path id="shape63" transform="matrix(1.69809535668371 0 0 1.69809535668371 1851.610269481 582.371500612605)" fill="#122021" fill-rule="evenodd" d="M7.45764 0L0 18.7932L14.0204 35.2C14.0204 35.2 11.8328 23.4667 7.45764 0Z"/><path id="shape64" transform="matrix(1.69809535668371 0 0 1.69809535668371 1868.83300697431 584.397705023582)" fill="#122021" fill-rule="evenodd" d="M0 0L11.0373 7.45764L8.35255 30.4272C8.35255 30.4272 5.56837 20.2848 0 0Z"/><path id="shape65" transform="matrix(1.69809535668371 0 0 1.69809535668371 1876.43127351547 631.506957578798)" fill="#122021" fill-rule="evenodd" d="M9.24747 0L0 8.05425L12.8271 27.4441C12.8271 27.4441 11.6339 18.2961 9.24747 0Z"/><path id="shape66" transform="matrix(1.69809535668371 0 0 1.69809535668371 1898.21297093347 638.092121914473)" fill="#122021" fill-rule="evenodd" d="M0 0L17.6 24.461L2.68475 24.7594C2.68475 24.7594 1.78983 16.5062 0 0Z"/><path id="shape67" transform="matrix(1.69809535668371 0 0 1.69809535668371 1898.21297093347 684.188272264201)" fill="#122021" fill-rule="evenodd" d="M0 0L17.6 0L6.26441 29.2339C6.26441 29.2339 4.17628 19.4893 0 0Z"/><path id="shape68" transform="matrix(1.69809535668371 0 0 1.69809535668371 1898.21297093347 728.764769305695)" fill="#122021" fill-rule="evenodd" d="M0 8.35255L11.9322 0L17.8983 19.0915C17.8983 19.0915 11.9322 15.5119 0 8.35255Z"/><path id="shape69" transform="matrix(1.69809535668371 0 0 1.69809535668371 1890.51339417176 748.013711209977)" fill="#122021" fill-rule="evenodd" d="M0.954577 0L24.2224 12.8271L20.6427 31.3221L0.0596611 17.3017C-0.139209 17.3017 0.159096 11.5345 0.954577 0Z"/><path id="shape70" transform="matrix(1.69809535668371 0 0 1.69809535668371 1463.9609560241 375.278024126999)" fill="#122021" fill-rule="evenodd" d="M0 21.3105L24.5822 45.3332L69.356 0C69.356 0 46.2373 7.1035 0 21.3105Z"/><path id="shape71" transform="matrix(1.69809535668371 0 0 1.69809535668371 1472.51430695557 372.200609394042)" fill="#122021" fill-rule="evenodd" d="M0 18.0857L58.1818 0L22.1864 1.0777C22.1864 1.0777 14.791 6.74705 0 18.0857Z"/><path id="shape72" transform="matrix(1.69809535668371 0 0 1.69809535668371 1518.60718751034 328.279540889429)" fill="#122021" fill-rule="evenodd" d="M0 22.4162L20.9075 0L30.8223 22.4162C30.8223 22.4162 20.5482 22.4162 0 22.4162Z"/><path id="shape73" transform="matrix(1.69809535668371 0 0 1.69809535668371 1553.01202450562 310.345104583379)" fill="#122021" fill-rule="evenodd" d="M11.6392 31.0379L0 7.97501L5.8196 0C5.8196 0 7.75947 10.346 11.6392 31.0379Z"/><path id="shape74" transform="matrix(1.69809535668371 0 0 1.69809535668371 1568.75040738644 313.27317581702)" fill="#122021" fill-rule="evenodd" d="M4.7419 26.0804L28.0203 1.29325L0 0C0 0 1.58063 8.69348 4.7419 26.0804Z"/><path id="shape75" transform="matrix(1.69809535668371 0 0 1.69809535668371 1560.33220258972 219.940905244716)" fill="#122021" fill-rule="evenodd" d="M0 51.5143L46.7724 0L37.2886 53.8852C37.2886 53.7415 24.859 52.9512 0 51.5143Z"/><path id="shape76" transform="matrix(1.69809535668371 0 0 1.69809535668371 1632.06994781392 217.744851819486)" fill="#122021" fill-rule="evenodd" d="M0 50.0055L7.11285 0L42.8926 2.37095C42.8926 2.37095 28.5951 18.2491 0 50.0055Z"/><path id="shape77" transform="matrix(1.69809535668371 0 0 1.69809535668371 1647.44232179054 180.77795249477)" fill="#122021" fill-rule="evenodd" d="M0 18.9676L45.048 0L62.5068 11.8547C62.5068 11.8547 41.6712 14.2257 0 18.9676Z"/><path id="shape78" transform="matrix(1.69809535668371 0 0 1.69809535668371 1645.61227726951 202.738486747076)" fill="#122021" fill-rule="evenodd" d="M65.3089 0L65.9555 12.9325L0 7.75947C0.143694 7.75947 21.9133 5.17298 65.3089 0Z"/><path id="shape79" transform="matrix(1.69809535668371 0 0 1.69809535668371 1578.26663889577 225.065029903588)" fill="#122021" fill-rule="evenodd" d="M75.8704 0L110.572 1.0777L0 81.0434C0 81.0434 25.2901 54.0289 75.8704 0Z"/><path id="shape80" transform="matrix(1.69809535668371 0 0 1.69809535668371 1582.65874574623 230.18915456246)" fill="#122021" fill-rule="evenodd" d="M0 78.0258L109.064 0L101.735 53.4541C101.735 53.4541 67.8235 61.6447 0 78.0258Z"/><path id="shape81" transform="matrix(1.69809535668371 0 0 1.69809535668371 1586.68484369249 328.279540889429)" fill="#122021" fill-rule="evenodd" d="M0 25.2183L95.2691 0L88.3717 53.8852C88.3717 53.8852 58.9145 44.3296 0 25.2183Z"/><path id="shape82" transform="matrix(1.69809535668371 0 0 1.69809535668371 1585.58681697987 379.88679638235)" fill="#122021" fill-rule="evenodd" d="M0 0L100.658 82.3366L104.537 54.1008C104.537 54.1008 69.6915 36.0672 0 0Z"/><path id="shape83" transform="matrix(1.69809535668371 0 0 1.69809535668371 1588.14887930931 376.958725148709)" fill="#122021" fill-rule="evenodd" d="M89.8805 27.5892L101.089 51.5143L0 0C0 0 29.9602 9.19641 89.8805 27.5892Z"/><path id="shape84" transform="matrix(1.69809535668371 0 0 1.69809535668371 1836.55611366498 318.900318800326)" fill="#122021" fill-rule="evenodd" d="M30.3967 0L0 22.6027L31.1761 36.2422C31.1761 36.2422 30.9163 24.1615 30.3967 0Z"/><path id="shape85" transform="matrix(1.69809535668371 0 0 1.69809535668371 1838.85041476206 362.710644751155)" fill="#122021" fill-rule="evenodd" d="M0 0L28.2239 12.6107L7.60643 15.413C7.60643 15.413 5.07095 10.2754 0 0Z"/><path id="shape86" transform="matrix(1.69809535668371 0 0 1.69809535668371 1893.23542668408 326.000761703796)" fill="#122021" fill-rule="evenodd" d="M0.800677 0L0 32.6276L10.2086 25.6217L11.81 9.40795C11.81 9.40795 8.14021 6.27197 0.800677 0Z"/><path id="shape87" transform="matrix(1.69809535668371 0 0 1.69809535668371 1833.41191356986 281.473033192648)" fill="#122021" fill-rule="evenodd" d="M0 43.6369L32.0271 19.2162L19.6166 0C19.6166 0 13.0777 14.5456 0 43.6369Z"/><path id="shape88" transform="matrix(1.69809535668371 0 0 1.69809535668371 1803.16025068824 282.492752166186)" fill="#122021" fill-rule="evenodd" d="M0 28.2239L16.4139 40.234L35.6301 0C35.6301 0 23.7534 9.40795 0 28.2239Z"/><path id="shape89" transform="matrix(1.69809535668371 0 0 1.69809535668371 1758.6325221771 277.054250973984)" fill="#122021" fill-rule="evenodd" d="M63.4536 0L25.2213 28.8244L0 28.0237C0 28.0237 21.1512 18.6825 63.4536 0Z"/><path id="shape90" transform="matrix(1.69809535668371 0 0 1.69809535668371 1759.99214747515 232.186616138324)" fill="#122021" fill-rule="evenodd" d="M6.20524 0L0 52.044L61.6521 25.6217C61.6521 25.6217 43.1698 17.0811 6.20524 0Z"/><path id="shape91" transform="matrix(1.69809535668371 0 0 1.69809535668371 1776.64755737626 230.487084515761)" fill="#122021" fill-rule="evenodd" d="M0 0L47.0398 5.00423L51.6436 24.0203C51.6436 24.0203 34.4291 16.0135 0 0Z"/><path id="shape92" transform="matrix(1.69809535668371 0 0 1.69809535668371 1760.67196012417 201.934953256704)" fill="#122021" fill-rule="evenodd" d="M0 0L0.400338 12.4105L54.2458 19.2162C54.2458 19.2162 36.1639 12.8108 0 0Z"/><path id="shape93" transform="matrix(1.69809535668371 0 0 1.69809535668371 1763.05130439576 191.737763521326)" fill="#122021" fill-rule="evenodd" d="M0 5.00423L15.2129 0L19.2162 11.2095C19.2162 11.2095 12.8108 9.14106 0 5.00423Z"/><path id="shape94" transform="matrix(1.69809535668371 0 0 1.69809535668371 1790.24381035677 176.102072593748)" fill="#122021" fill-rule="evenodd" d="M0 6.80575L6.80575 0L36.2306 31.6267C36.2306 31.6267 24.1537 23.3531 0 6.80575Z"/><path id="shape95" transform="matrix(1.69809535668371 0 0 1.69809535668371 1793.64287360189 194.117107792914)" fill="#122021" fill-rule="evenodd" d="M0 0L2.20186 10.2086L30.4257 20.6174C30.4257 20.6174 20.2838 13.7449 0 0Z"/><path id="shape96" transform="matrix(1.69809535668371 0 0 1.69809535668371 1724.89082572518 173.611868350914)" fill="#122021" fill-rule="evenodd" d="M18.6415 15.3867L37.7269 7.84128L0 0C0 0 6.21385 5.12889 18.6415 15.3867Z"/><path id="shape97" transform="matrix(1.69809535668371 0 0 1.69809535668371 1775.38827542677 162.055238070947)" fill="#122021" fill-rule="evenodd" d="M8.72898 12.5756L12.5756 7.98923L0 0C0 0 2.90966 4.19188 8.72898 12.5756Z"/><path id="shape98" transform="matrix(1.69809535668371 0 0 1.69809535668371 1758.05333000682 166.074935559631)" fill="#122021" fill-rule="evenodd" d="M0 7.10154L10.2085 0L16.8662 10.2085C16.8662 10.2085 11.2441 9.17282 0 7.10154Z"/><path id="shape99" transform="matrix(1.69809535668371 0 0 1.69809535668371 1734.18637616776 163.813855722246)" fill="#122021" fill-rule="evenodd" d="M0 5.62205L14.0551 7.54539L22.1923 0C22.1923 0 14.7949 1.87402 0 5.62205Z"/><path id="shape100" transform="matrix(1.69809535668371 0 0 1.69809535668371 1806.28969987103 147.232603581423)" fill="#122021" fill-rule="evenodd" d="M12.2797 31.9569L18.3456 24.4115L17.9018 0L0 17.31C0 17.31 4.09325 22.1923 12.2797 31.9569Z"/><path id="shape101" transform="matrix(1.69809535668371 0 0 1.69809535668371 1777.9005863572 124.119343021488)" fill="#122021" fill-rule="evenodd" d="M15.3867 27.5185L22.9321 11.688L21.8964 0L0 20.5649C0 20.5649 5.12889 22.8827 15.3867 27.5185Z"/><path id="shape102" transform="matrix(1.69809535668371 0 0 1.69809535668371 741.946745315648 374.197329900402)" fill="url(#gradient1)" fill-rule="evenodd" d="M275.26 6.6953C233.993 -0.0261753 209.393 -1.68684 201.459 1.71332C193.525 5.11347 184.175 10.7804 173.408 18.7141L200.609 11.9138L155.557 35.7148C174.258 30.0479 183.892 30.6146 184.458 37.4149C185.025 44.2152 144.223 52.9989 62.0528 63.7661L130.906 68.0163C77.6368 85.0171 38.2517 92.9507 12.7506 91.8174C-12.7506 90.684 16.4341 93.5766 100.304 100.495L0 134.319C47.0354 137.153 77.3535 134.886 90.9541 127.519C104.555 120.152 104.555 123.835 90.9541 138.569C135.723 125.772 161.224 113.081 167.458 100.495C176.808 81.6169 192.109 55.2657 208.259 45.9153C216.335 41.2401 233 31.632 240.219 25.599C257.582 15.4165 258.464 20.2641 259.584 21.9105C268.28 18.7484 275.954 7.14667 275.26 6.6953Z"/><rect id="shape103" transform="matrix(-1.0674459680083 0.00515748046129618 0.00515748046129618 1.0674459680083 601.987433778081 381.434050855278)" fill="#ff0055" fill-rule="evenodd" width="482.807677272706" height="412" rx="7.85053133776758" ry="8"/><path id="shape0" transform="matrix(-1.06744594653995 0.00515748035756953 0.00515748035756953 1.06744594653995 1601.84201449804 497.420631184034)" fill="none" stroke="#122021" stroke-width="22.01" stroke-linecap="square" stroke-linejoin="miter" stroke-miterlimit="2" d="M1000.24 0L0 5.68434e-14"/><ellipse id="shape104" transform="matrix(-1.0674459680083 0.00515748046129618 0.00515748046129618 1.0674459680083 555.023700394934 470.288196969761)" rx="24" ry="24.5" cx="24" cy="24.5" fill="#122021" fill-rule="evenodd"/><circle id="shape01" transform="matrix(-1.03669776383487 0 0 1.03669776383487 540.42432275937 558.820191971106)" r="191.5" cx="191.5" cy="191.5" fill="none" stroke="#122021" stroke-width="22.01" stroke-linecap="square" stroke-linejoin="bevel"/><circle id="shape02" transform="matrix(-1.03669777479207 0 0 1.03669777479207 390.003431183849 705.750934212103)" r="46.4038135014859" cx="46.4038135014859" cy="46.4038135014859" fill="#122021" stroke="#000000" stroke-opacity="0" stroke-width="0" stroke-linecap="square" stroke-linejoin="bevel"/><path id="shape105" transform="matrix(-1.03669777398301 0 0 1.03669777398301 341.896700984993 575.451665880455)" fill="none" stroke="#122021" stroke-width="22.01" stroke-linecap="square" stroke-linejoin="miter" stroke-miterlimit="2" d="M0 175.301L0 0"/><path id="shape106" transform="matrix(-1.03669777398301 0 0 1.03669777398301 341.896700984993 757.185582056403)" fill="none" stroke="#122021" stroke-width="22.01" stroke-linecap="square" stroke-linejoin="miter" stroke-miterlimit="2" d="M0 0L193.296 0"/><path id="shape107" transform="matrix(-1.03669777398301 0 0 1.03669777398301 341.896700984993 754.328101227148)" fill="none" stroke="#122021" stroke-width="22.01" stroke-linecap="square" stroke-linejoin="miter" stroke-miterlimit="2" d="M0 0L0 192.946"/><path id="shape108" transform="matrix(-1.03669777398301 0 0 1.03669777398301 534.513969998802 761.471803300285)" fill="none" stroke="#122021" stroke-width="22.01" stroke-linecap="square" stroke-linejoin="miter" stroke-miterlimit="2" d="M185.799 0L0 0"/><path id="shape109" transform="matrix(-1.03669777398301 0 0 1.03669777398301 476.771943144823 618.024118652691)" fill="none" stroke="#122021" stroke-width="22.01" stroke-linecap="square" stroke-linejoin="miter" stroke-miterlimit="2" d="M130.101 130.101L0 0"/><path id="shape110" transform="matrix(-1.03669777398301 0 0 1.03669777398301 341.896700984993 614.95767377517)" fill="none" stroke="#122021" stroke-width="22.01" stroke-linecap="square" stroke-linejoin="miter" stroke-miterlimit="2" d="M0 127.546L127.546 0"/><path id="shape111" transform="matrix(-1.03669777398301 0 0 1.03669777398301 341.896700984993 764.32928412954)" fill="none" stroke="#122021" stroke-width="22.01" stroke-linecap="square" stroke-linejoin="miter" stroke-miterlimit="2" d="M0 0L132.888 132.888"/><path id="shape112" transform="matrix(-1.03669777398301 0 0 1.03669777398301 479.853175853961 757.185582056403)" fill="none" stroke="#122021" stroke-width="22.01" stroke-linecap="square" stroke-linejoin="miter" stroke-miterlimit="2" d="M132.859 0L0 132.859"/><path id="shape113" transform="translate(266.103326600546, 178.410184879911)" fill="#122021" fill-rule="evenodd" d="M6.0478 3.0239C168.331 1.00797 251.488 0 255.52 0C259.552 0 263.583 10.5837 267.615 31.751L0 28.7271C0 28.7271 2.01593 20.1593 6.0478 3.0239Z"/><path id="shape114" transform="translate(260.05552372326, 234.352361494799)" fill="#122021" fill-rule="evenodd" d="M1.51195 0L0 39.3107L287.271 31.751L278.199 0C278.199 0 185.97 0 1.51195 0Z"/>
</svg>
