<?xml version="1.0" standalone="no"?>
<!DOCTYPE svg PUBLIC "-//W3C//DTD SVG 20010904//EN" "http://www.w3.org/TR/2001/REC-SVG-20010904/DTD/svg10.dtd">
<!-- Created using Krita: https://krita.org -->
<svg xmlns="http://www.w3.org/2000/svg" 
    xmlns:xlink="http://www.w3.org/1999/xlink"
    xmlns:krita="http://krita.org/namespaces/svg/krita"
    xmlns:sodipodi="http://sodipodi.sourceforge.net/DTD/sodipodi-0.dtd"
    width="1000pt"
    height="1000pt"
    viewBox="0 0 1000 1000">
<defs>
  <linearGradient id="gradient0" gradientUnits="objectBoundingBox" x1="0.582150434572469" y1="2.06939550261723" x2="0.64347114450992" y2="-1.04228320829158" spreadMethod="pad">
   <stop stop-color="#fff6f4" offset="0" stop-opacity="0"/>
   <stop stop-color="#06081f" offset="1" stop-opacity="1"/>
  </linearGradient>
 </defs>
<circle id="shape0" transform="matrix(1.34754407637775 0 0 1.34754407637775 434.946279671901 255.576236913253)" r="49.4974203889033" cx="49.4974203889033" cy="49.4974203889033" fill="#161cc1" fill-opacity="0.219607843137255" fill-rule="evenodd" stroke="#000000" stroke-opacity="0" stroke-width="0" stroke-linecap="square" stroke-linejoin="bevel"/><path id="shape0" transform="matrix(1.34754410133988 0 0 1.34754410133988 284.556798570201 199.94312600977)" fill="none" stroke="#122021" stroke-width="30" stroke-linecap="square" stroke-linejoin="bevel" d="M0 0C0.574822 43.5435 1.23053 98.6462 81.3526 93.5846"/><path id="shape1" transform="matrix(1.34754410133988 0 0 1.34754410133988 501.837843570021 430.040551643066)" fill="none" stroke="#122021" stroke-width="30" stroke-linecap="square" stroke-linejoin="bevel" d="M0 0L0.433677 59.1051"/><circle id="shape01" transform="matrix(1.34754408943305 0 0 1.34754408943305 221.898881100097 27.9425931665349)" r="49.4974203889033" cx="49.4974203889033" cy="49.4974203889033" fill="#161cc1" fill-opacity="0.219607843137255" fill-rule="evenodd" stroke="#000000" stroke-opacity="0" stroke-width="0" stroke-linecap="square" stroke-linejoin="bevel"/><circle id="shape02" transform="matrix(1.34754403887925 0 0 1.34754403887925 437.689124865457 550.417488607775)" r="49.4974203889033" cx="49.4974203889033" cy="49.4974203889033" fill="#161cc1" fill-opacity="0.2" fill-rule="evenodd" stroke="#000000" stroke-opacity="0" stroke-width="0" stroke-linecap="square" stroke-linejoin="bevel"/><rect id="shape03" transform="matrix(1.00000002890248 0 0 1.00000002890248 176.235070729852 795.738353219217)" fill="url(#gradient0)" fill-rule="evenodd" stroke="#000000" stroke-opacity="0" stroke-width="0" stroke-linecap="square" stroke-linejoin="bevel" width="684.236986159014" height="98" rx="9.77481408798592" ry="12"/>
</svg>
