<?xml version="1.0" standalone="no"?>
<!DOCTYPE svg PUBLIC "-//W3C//DTD SVG 20010904//EN" "http://www.w3.org/TR/2001/REC-SVG-20010904/DTD/svg10.dtd">
<!-- Created using Krita: https://krita.org -->
<svg xmlns="http://www.w3.org/2000/svg" 
    xmlns:xlink="http://www.w3.org/1999/xlink"
    xmlns:krita="http://krita.org/namespaces/svg/krita"
    xmlns:sodipodi="http://sodipodi.sourceforge.net/DTD/sodipodi-0.dtd"
    width="1000pt"
    height="1000pt"
    viewBox="0 0 1000 1000">
<defs>
  <linearGradient id="gradient0" gradientUnits="objectBoundingBox" x1="0" y1="0" x2="1" y2="1" spreadMethod="pad">
   <stop stop-color="#ffb2b7" offset="0" stop-opacity="1"/>
   <stop stop-color="#ff0055" offset="1" stop-opacity="1"/>
  </linearGradient>
  <linearGradient id="gradient1" gradientUnits="objectBoundingBox" x1="0.00526276937245651" y1="0.53596768748312" x2="1" y2="0.550478713723834" spreadMethod="pad">
   <stop stop-color="#ffb2b7" offset="0" stop-opacity="0"/>
   <stop stop-color="#ff0055" offset="0.369918704032898" stop-opacity="0"/>
   <stop stop-color="#ff0055" offset="1" stop-opacity="1"/>
  </linearGradient>
  <linearGradient id="gradient2" gradientUnits="objectBoundingBox" x1="0" y1="0" x2="1" y2="1" spreadMethod="pad">
   <stop stop-color="#0f00bd" offset="0.585365831851959" stop-opacity="0.56078431372549"/>
   <stop stop-color="#cdcdcd" offset="0.983739852905273" stop-opacity="0.419607843137255"/>
  </linearGradient>
  <linearGradient id="gradient3" gradientUnits="objectBoundingBox" x1="0" y1="0" x2="1" y2="1" spreadMethod="pad">
   <stop stop-color="#009ec6" offset="0.556910574436188" stop-opacity="0.56078431372549"/>
   <stop stop-color="#cdcdcd" offset="0.983739852905273" stop-opacity="0.419607843137255"/>
  </linearGradient>
 </defs>
<path id="shape01" transform="matrix(1.39131997071194 0 0 1.39131997071194 205.804802871108 322.782270428707)" fill="url(#gradient0)" fill-rule="evenodd" stroke="#000000" stroke-opacity="0" stroke-width="0" stroke-linecap="square" stroke-linejoin="bevel" d="M12.1776 0L414.49 0L414.49 276L12.1776 276C11.948 253 -3.91829 249.478 12.1776 174.414C28.2735 99.3493 -21.98 124.921 12.1776 68.9118C46.3353 12.9028 11.8478 23 12.1776 0Z"/><path id="shape1" transform="matrix(1.39131997071194 0 0 1.39131997071194 -459.198711716515 738.702713101162)" fill="none" stroke="#f7fbfd" stroke-opacity="0.2" stroke-width="14" stroke-linecap="square" stroke-linejoin="bevel" d="M0 1.38618C78.7005 25.5981 168.693 40.2916 269.977 45.4667C421.903 53.2293 471.976 109.257 478.648 117.216C485.32 125.176 511.553 59.9754 540.981 59.0513C570.408 58.1272 910.531 48.5163 887.947 0"/><text id="shape2" krita:useRichText="true" transform="translate(-705.141905045348, 1310.88801009316)" fill="#f7fbfd" stroke="#000000" stroke-opacity="0" stroke-width="0" stroke-linecap="square" stroke-linejoin="bevel" font-family="Burst My Bubble" font-size="288" font-size-adjust="0.423873" font-stretch="normal" letter-spacing="0" word-spacing="0"><tspan x="0">Precalc</tspan></text><rect id="shape011" transform="matrix(1.39131991935501 0 0 1.39131991935501 194.20451077561 323.369811138464)" fill="url(#gradient1)" fill-rule="evenodd" stroke="#000000" stroke-opacity="0" stroke-width="0" stroke-linecap="square" stroke-linejoin="bevel" width="430.650486003243" height="276" rx="7.64751140516303" ry="8"/><text id="shape02" krita:useRichText="true" transform="matrix(0.432047698338227 -0.901850765942419 0.901850765942419 0.432047698338227 76.2197418508856 604.427548150965)" fill="#f7fbfd" stroke="#000000" stroke-opacity="0" stroke-width="0" stroke-linecap="square" stroke-linejoin="bevel" font-family="Burst My Bubble" font-size="48" font-size-adjust="0.423873" font-stretch="normal" letter-spacing="0" word-spacing="0"><tspan><tspan x="0">360° </tspan><tspan font-size="96" font-size-adjust="0.446903">-</tspan><tspan> 2</tspan><tspan font-family="Ayuthaya" font-weight="700">π </tspan><tspan font-size="96" font-size-adjust="0.446903" font-weight="700">-</tspan><tspan font-weight="700"> 1</tspan><tspan font-family="Ayuthaya" font-size="55" font-size-adjust="0.351174">τ</tspan></tspan></text><text id="shape07" krita:useRichText="true" transform="matrix(1.38979838665172 -0.065050496692353 0.065050496692353 1.38979838665172 253.251845872298 380.600456724626)" fill="#f7fbfd" stroke="#000000" stroke-opacity="0" stroke-width="0" stroke-linecap="square" stroke-linejoin="bevel" font-family="Burst My Bubble" font-size="48" font-size-adjust="0.423873" font-stretch="normal" letter-spacing="0" word-spacing="0"><tspan x="0">complex numbers</tspan></text><text id="shape08" krita:useRichText="true" transform="matrix(1.38915699239167 -0.0775486814918685 0.0775486814918685 1.38915699239167 316.031701180307 446.411454563893)" fill="#f7fbfd" stroke="#000000" stroke-opacity="0" stroke-width="0" stroke-linecap="square" stroke-linejoin="bevel" font-family="Burst My Bubble" font-size="48" font-size-adjust="0.423873" font-stretch="normal" letter-spacing="0" word-spacing="0"><tspan x="0">vectors</tspan></text><text id="shape09" krita:useRichText="true" transform="matrix(1.35198068291185 0.328510356221761 -0.328510356221761 1.35198068291185 280.685080995324 535.704765358542)" fill="#f7fbfd" stroke="#000000" stroke-opacity="0" stroke-width="0" stroke-linecap="square" stroke-linejoin="bevel" font-family="Burst My Bubble" font-size="48" font-size-adjust="0.423873" font-stretch="normal" letter-spacing="0" word-spacing="0"><tspan x="0">probability</tspan></text><text id="shape010" krita:useRichText="true" transform="matrix(0.601116509319063 -1.25476281076178 1.25476281076178 0.601116509319063 594.323526708042 545.529777724136)" fill="#f7fbfd" stroke="#000000" stroke-opacity="0" stroke-width="0" stroke-linecap="square" stroke-linejoin="bevel" font-family="Burst My Bubble" font-size="48" font-size-adjust="0.423873" font-stretch="normal" letter-spacing="0" word-spacing="0"><tspan x="0">limits</tspan></text><text id="shape011" krita:useRichText="true" transform="matrix(1.35198067607962 0.328510354561634 -0.328510354561634 1.35198067607962 233.594818621424 620.303630460382)" fill="#f7fbfd" stroke="#000000" stroke-opacity="0" stroke-width="0" stroke-linecap="square" stroke-linejoin="bevel" font-family="Burst My Bubble" font-size="48" font-size-adjust="0.423873" font-stretch="normal" letter-spacing="0" word-spacing="0"><tspan x="0">combinatorics</tspan></text><text id="shape012" krita:useRichText="true" transform="matrix(0.60111650012869 -1.25476279157791 1.25476279157791 0.60111650012869 621.665914010256 677.869683076896)" fill="#f7fbfd" stroke="#000000" stroke-opacity="0" stroke-width="0" stroke-linecap="square" stroke-linejoin="bevel" font-family="Burst My Bubble" font-size="48" font-size-adjust="0.423873" font-stretch="normal" letter-spacing="0" word-spacing="0"><tspan x="0">continuity</tspan></text><text id="shape013" krita:useRichText="true" transform="matrix(0.60111650012869 -1.25476279157791 1.25476279157791 0.60111650012869 708.01391710603 676.841836202002)" fill="#f7fbfd" stroke="#000000" stroke-opacity="0" stroke-width="0" stroke-linecap="square" stroke-linejoin="bevel" font-family="Burst My Bubble" font-size="48" font-size-adjust="0.423873" font-stretch="normal" letter-spacing="0" word-spacing="0"><tspan x="0">series</tspan></text><text id="shape4" krita:useRichText="true" transform="matrix(0.522121748797159 1.2896356618576 -1.2896356618576 0.522121748797159 684.960883769496 257.599055348982)" fill="#f7fbfd" stroke="#000000" stroke-opacity="0" stroke-width="0" stroke-linecap="square" stroke-linejoin="bevel" font-family="Burst My Bubble" font-size="48" font-size-adjust="0.423873" font-stretch="normal" letter-spacing="0" word-spacing="0"><tspan x="0">conic sections</tspan></text><text id="shape014" krita:useRichText="true" transform="matrix(1.14549391766844 -0.789692885221476 0.789692885221476 1.14549391766844 702.790346574229 738.138595580543)" fill="#f7fbfd" stroke="#000000" stroke-opacity="0" stroke-width="0" stroke-linecap="square" stroke-linejoin="bevel" font-family="Burst My Bubble" font-size="48" font-size-adjust="0.423873" font-stretch="normal" letter-spacing="0" word-spacing="0"><tspan x="0">matrix</tspan></text><path id="shape015" transform="matrix(1.3913199692898 0 0 -1.3913199692898 -459.275855510997 289.289198223912)" fill="none" stroke="#f7fbfd" stroke-opacity="0.32156862745098" stroke-width="14" stroke-linecap="square" stroke-linejoin="bevel" d="M0 1.01416C41.7528 18.7281 89.4964 29.4782 143.23 33.2644C223.831 38.9437 250.396 79.9348 253.936 85.7577C257.476 91.5815 271.393 43.8793 287.006 43.2032C302.617 42.5271 483.062 35.4956 471.081 0"/><path id="shape5" transform="matrix(1.39131997071194 0 0 1.39131997071194 232.075063588333 140.367773077722)" fill="url(#gradient2)" fill-rule="evenodd" stroke="#161cc1" stroke-width="8" stroke-linecap="square" stroke-linejoin="bevel" d="M319.182 0C395.093 38.8778 433.455 94.2155 434.268 166.013C435.487 273.709 461.598 312.595 422.364 324.997C383.129 337.399 332.907 407.892 293.387 408.581C253.867 409.271 217.988 237.497 208.744 230.563C199.501 223.629 91.0968 266.308 39.1192 229.224C-12.8583 192.14 -7.96296 140.399 24.2391 101.4C56.4412 62.4014 56.4412 62.4014 319.182 0Z"/><text id="shape6" krita:useRichText="true" transform="matrix(1.39131997071194 0 0 1.39131997071194 347.849820943511 99.6008973197576)" fill="#181dc1" stroke="#000000" stroke-opacity="0" stroke-width="0" stroke-linecap="square" stroke-linejoin="bevel" font-family="Burst My Bubble" font-size="72" font-size-adjust="0.423873" font-stretch="normal" letter-spacing="0" word-spacing="0"><tspan x="0">for calculus</tspan></text><path id="shape7" transform="matrix(1.39131997071194 0 0 1.39131997071194 193.874242923034 483.116427110104)" fill="url(#gradient3)" fill-rule="evenodd" stroke="#00aacc" stroke-width="8.41" stroke-linecap="square" stroke-linejoin="bevel" d="M210.855 45.9524C147.825 11.3334 100.799 -3.72498 69.7747 0.777182C23.2387 7.53043 -10.4852 125.597 2.9967 155.339C16.4787 185.081 431.993 275.191 443.62 225.701C455.247 176.212 514.465 99.6776 470.853 89.9147C427.24 80.1519 342.625 191.409 310.207 179.214C277.789 167.019 246.967 45.9524 226.34 45.9524C205.712 45.9524 205.712 44.9245 210.855 45.9524Z"/><text id="shape8" krita:useRichText="true" transform="matrix(1.39131997071194 0 0 1.39131997071194 143.908685553273 928.182023345397)" fill="#00aacc" stroke="#000000" stroke-opacity="0" stroke-width="0" stroke-linecap="square" stroke-linejoin="bevel" font-family="Burst My Bubble" font-size="72" font-size-adjust="0.423873" font-stretch="normal" letter-spacing="0" word-spacing="0"><tspan x="0">for linear algebra</tspan></text>
</svg>
