<?xml version="1.0" standalone="no"?>
<!DOCTYPE svg PUBLIC "-//W3C//DTD SVG 20010904//EN" "http://www.w3.org/TR/2001/REC-SVG-20010904/DTD/svg10.dtd">
<!-- Created using Krita: https://krita.org -->
<svg xmlns="http://www.w3.org/2000/svg" 
    xmlns:xlink="http://www.w3.org/1999/xlink"
    xmlns:krita="http://krita.org/namespaces/svg/krita"
    xmlns:sodipodi="http://sodipodi.sourceforge.net/DTD/sodipodi-0.dtd"
    width="1000pt"
    height="1000pt"
    viewBox="0 0 1000 1000">
<defs>
  <linearGradient id="gradient0" gradientUnits="objectBoundingBox" x1="0" y1="0" x2="1" y2="1" spreadMethod="pad">
   <stop stop-color="#ff0055" offset="0" stop-opacity="1"/>
   <stop stop-color="#f69883" offset="1" stop-opacity="1"/>
  </linearGradient>
 </defs>
<circle id="shape0" transform="translate(48.8318808990823, 22.7194591722841)" r="440" cx="440" cy="440" fill="url(#gradient0)" fill-rule="evenodd"/><path id="shape1" transform="translate(213.212937363241, 76.0078835759367)" fill="#f7fbfd" fill-rule="evenodd" stroke="#f7fbfd" stroke-width="1" stroke-linecap="square" stroke-linejoin="bevel" d="M13.3428 695.051L0 637.685L0.0796369 637.76C35.6556 591.758 57.3289 559.448 65.0996 540.833C76.7555 512.909 93.472 459.422 107.962 451.89C117.623 446.868 129.533 424.906 143.694 386.004C141.037 388.844 142.698 388.438 148.679 384.786C157.649 379.308 151.893 372.839 138.937 367.211C125.982 361.582 109.805 354.046 110.8 339.743C111.796 325.44 111.792 325.749 103.13 312.129C94.4675 298.508 91.7091 303.831 92.7806 292.801C93.8521 281.77 69.3927 247.909 71.847 234.141C74.3012 220.373 77.3709 220.068 74.2252 199.907C71.0796 179.745 59.8073 173.808 79.4378 122.681C92.5248 88.596 127.95 56.4892 185.713 26.3602C201.979 17.5122 213.638 9.513 220.692 2.36271C231.273 -8.36272 243.135 21.31 286.239 14.3094C329.342 7.30876 355.333 13.9251 363.003 27.0894C370.674 40.2537 403.336 43.2206 407.936 68.0228C412.537 92.8249 423.578 88.1087 410.467 110.781C397.356 133.453 428.87 185.877 431.093 189.832C433.315 193.786 415.144 206.566 417.982 214.709C420.82 222.852 465.366 272.535 461.532 279.001C457.699 285.466 466.976 288.738 453.482 293.835C439.987 298.932 431.94 290.333 430.021 301.062C428.742 308.215 428.103 311.791 428.103 311.791C437.201 323.963 438.478 330.861 431.936 332.484C425.394 334.108 425.727 338.115 432.935 344.506L433.623 350.745L418.134 355.386C438.171 365.58 448.139 372.326 448.037 375.623C447.885 380.569 466.365 385.961 448.653 415.829C430.941 445.697 386.623 425.155 373.356 439.99C364.511 449.88 356.256 457.031 348.589 461.444L353.957 471.563C374.506 475.267 386.289 481.227 389.305 489.443C392.322 497.659 394.801 511.1 396.744 529.766C407.478 545.745 430.66 567.328 466.289 594.514C519.732 635.293 559.308 673.73 557.01 680.957C554.711 688.183 495.052 741.595 449.279 760.995C403.506 780.395 299.069 798.121 234.201 789.601C169.333 781.081 45.8817 735.054 25.4114 715.651C4.94111 696.247 4.94111 696.553 13.3428 695.051Z"/><circle id="shape0" transform="matrix(0.622342238286369 0.0637765914490941 -0.0637765914490942 0.62234223828637 598.50742617832 265.376175870819)" r="46.5" cx="46.5" cy="46.5" fill="#181dc1" fill-rule="evenodd" stroke="#000000" stroke-opacity="0" stroke-width="0" stroke-linecap="square" stroke-linejoin="bevel"/><circle id="shape1" transform="matrix(0.995439011700095 0.0954003830178727 -0.0954003830178727 0.995439011700095 621.283219003518 273.258150082649)" r="7" cx="7" cy="7" fill="#f7fbfd" fill-rule="evenodd" stroke="#000000" stroke-opacity="0" stroke-width="0" stroke-linecap="square" stroke-linejoin="bevel"/><circle id="shape01" transform="matrix(0.99543900936718 0.095400382794292 -0.095400382794292 0.99543900936718 630.025516005169 294.163748262952)" r="4.91515603626721" cx="4.91515603626721" cy="4.91515603626721" fill="#f7fbfd" fill-rule="evenodd" stroke="#000000" stroke-opacity="0" stroke-width="0" stroke-linecap="square" stroke-linejoin="bevel"/><path id="shape2" transform="matrix(0.995438982287651 0.0954003801990578 -0.0954003801990578 0.995438982287651 584.315143514278 402.154718263437)" fill="none" stroke="#161cc1" stroke-width="5" stroke-linecap="square" stroke-linejoin="bevel" d="M54.8857 5.69834C31.6008 11.2506 13.3056 9.35112 0 0"/>
</svg>
