<?xml version="1.0" standalone="no"?>
<!DOCTYPE svg PUBLIC "-//W3C//DTD SVG 20010904//EN" "http://www.w3.org/TR/2001/REC-SVG-20010904/DTD/svg10.dtd">
<!-- Created using Krita: https://krita.org -->
<svg xmlns="http://www.w3.org/2000/svg" 
    xmlns:xlink="http://www.w3.org/1999/xlink"
    xmlns:krita="http://krita.org/namespaces/svg/krita"
    xmlns:sodipodi="http://sodipodi.sourceforge.net/DTD/sodipodi-0.dtd"
    width="240pt"
    height="240pt"
    viewBox="0 0 240 240">
<defs>
  <linearGradient id="gradient0" gradientUnits="objectBoundingBox" x1="0.475263112372733" y1="0.0344195902614146" x2="0.383918187664964" y2="1.86048975653546" spreadMethod="pad">
   <stop stop-color="#553932" offset="0.0909090936183929" stop-opacity="1"/>
   <stop stop-color="#9d692a" offset="1" stop-opacity="1"/>
  </linearGradient>
  <linearGradient id="gradient1" gradientUnits="objectBoundingBox" x1="0.499887980180299" y1="0.011583401182218" x2="0.48424256013144" y2="1.74133767566192" spreadMethod="pad">
   <stop stop-color="#553932" offset="0.0909090936183929" stop-opacity="1"/>
   <stop stop-color="#9d692a" offset="1" stop-opacity="1"/>
  </linearGradient>
  <radialGradient id="gradient2" gradientUnits="objectBoundingBox" cx="0.461392003104499" cy="0.51687224937946" fx="0.506096130955328" fy="0.435100727360684" r="1.4142135623731" spreadMethod="pad">
   <stop stop-color="#fafeff" offset="0.0743801652892562" stop-opacity="0.541176470588235"/>
   <stop stop-color="#000000" offset="0.326446280991736" stop-opacity="1"/>
  </radialGradient>
  <radialGradient id="gradient3" gradientUnits="objectBoundingBox" cx="0.461392003104499" cy="0.51687224937946" fx="0.506096130955328" fy="0.435100727360684" r="1.4142135623731" spreadMethod="pad">
   <stop stop-color="#fafeff" offset="0.0743801668286324" stop-opacity="0.541176470588235"/>
   <stop stop-color="#000000" offset="0.326446294784546" stop-opacity="1"/>
  </radialGradient>
 </defs>
<path id="shape0" transform="translate(47.0657156734866, 52.7351398280309)" fill="#7b4a34" fill-opacity="0.631372549019608" fill-rule="evenodd" d="M2.21985 84.4652C3.62001 94.5947 5.06305 104.696 6.54899 114.769C8.7779 129.879 36.0753 177.605 51.7533 182.435C67.4313 187.265 86.91 195.263 110.665 173.408C134.419 151.554 140.12 138.252 141.546 120.198C142.971 102.145 146.296 91.7715 143.921 67.2649C142.337 50.9271 131.094 28.5055 110.19 0L17.5467 10.452L0 26.2395C0.529719 51.4374 1.26967 70.8459 2.21985 84.4652Z"/><path id="shape0" transform="matrix(2.10984231387599 -0.000144509682657036 0.000144509682657036 2.10984231387599 32.1206207016837 67.2000423894245)" fill="#181819" fill-rule="evenodd" stroke="#000000" stroke-opacity="0" stroke-width="0" stroke-linecap="square" stroke-linejoin="bevel" d="M18.9433 2.73288C14.5123 4.3519 12.1264 6.14135 11.7855 8.10122C11.2743 11.041 11.2743 16.2815 12.2968 18.071C12.9785 19.2639 13.362 19.9882 13.4472 20.2439C12.2542 22.1185 11.4873 24.5045 11.1465 27.4017C10.6352 31.7475 10.3796 40.6947 10.6352 43.6345C10.8056 45.5944 10.8908 47.1708 10.8908 48.3637C9.61265 46.7447 8.59011 45.2961 7.8232 44.0179C6.67285 42.1007 6.41721 35.582 5.39467 33.7925C4.37213 32.0031 -0.101481 24.5897 0.537606 21.1386C1.17669 17.6875 0.409789 12.8305 0.154154 10.0185C-0.101481 7.20649 -0.357116 4.13887 2.19923 1.71034C4.75558 -0.718194 4.75558 -0.718194 18.9433 2.73288Z"/><path id="shape2" transform="matrix(2.10984231387599 -0.000144509682657036 0.000144509682657036 2.10984231387599 159.660751600921 35.9377888809861)" fill="#181819" fill-rule="evenodd" stroke="#000000" stroke-opacity="0" stroke-width="0" stroke-linecap="square" stroke-linejoin="bevel" d="M15.0618 54.1968C14.3631 45.2295 12.1504 38.8826 8.42376 35.156C2.8338 29.566 8.07438 23.1026 3.88191 18.5608C-0.310553 14.0189 -0.659926 15.0671 0.737564 12.7961C2.13505 10.5252 9.99593 3.88715 10.1706 0.742795C10.3453 -2.40156 17.5074 4.76058 19.0796 16.1152C20.6518 27.4698 21.6999 43.7156 20.4771 42.8422C19.2543 41.9687 18.3809 36.3788 17.5074 40.7459C16.634 45.1131 17.6821 46.6853 16.2846 50.703C14.8871 54.7208 14.8871 54.7208 15.0618 54.1968Z"/><path id="shape3" transform="matrix(2.10984231387599 -0.000144509682657036 0.000144509682657036 2.10984231387599 26.0948212033098 5.04475848009592)" fill="#000000" fill-rule="evenodd" stroke="#000000" stroke-opacity="0" stroke-width="0" stroke-linecap="square" stroke-linejoin="bevel" d="M74.1745 15.0401C65.3237 4.67539 56.7059 -0.332283 48.3209 0.0170888C35.7435 0.541147 17.7508 4.55893 12.5103 12.4198C7.26967 20.2807 9.36591 18.8832 6.39624 23.425C3.42658 27.9669 -1.81401 31.2859 0.631601 32.5087C3.07721 33.7315 11.8115 35.129 16.8774 33.9062C21.9433 32.6834 19.6724 30.2378 23.5155 31.6353C27.3586 33.0328 29.8042 34.0809 35.7435 33.0328C41.6828 31.9847 58.8021 31.2859 64.0427 28.6656C69.2833 26.0453 69.2833 26.0453 74.1745 15.0401Z"/><path id="shape01" transform="matrix(2.10984231387599 -0.000144509682657036 0.000144509682657036 2.10984231387599 126.737304540587 115.124689745811)" fill="#000000" fill-rule="evenodd" stroke="#000000" stroke-opacity="0" stroke-width="0" stroke-linecap="square" stroke-linejoin="bevel" d="M0 5.48775C1.11664 4.48662 2.06002 3.83204 2.83012 3.524C3.98527 3.06194 14.6704 -0.0569654 16.1721 0.000792039C17.6738 0.0585495 22.5254 2.48436 23.0452 4.21709C23.3918 5.37224 23.5265 5.93056 23.4495 5.89205C22.4869 4.39036 21.274 3.42774 19.8108 3.00418C17.616 2.36885 16.9229 1.56024 15.8833 2.0223C14.8437 2.48436 13.5353 3.63951 10.7429 3.9283C7.95049 4.21709 7.45071 5.19896 5.0249 5.77654C3.40769 6.16159 1.80973 6.81617 0.23103 7.74029C0.69309 6.39262 0.61608 5.64177 0 5.48775Z"/><path id="shape1" transform="matrix(2.10984231387599 -0.000144509682657036 0.000144509682657036 2.10984231387599 62.3911561522152 125.164808359551)" fill="#000000" fill-rule="evenodd" stroke="#000000" stroke-opacity="0" stroke-width="0" stroke-linecap="square" stroke-linejoin="bevel" d="M17.0409 3.33022C14.9616 2.25208 13.3252 1.73227 12.1315 1.77077C10.3411 1.82853 7.62645 1.30871 6.35578 1.07768C5.08512 0.846651 4.91185 0.788893 4.39203 0.0958034C3.87221 -0.597286 -0.113053 2.63713 0.00246202 4.42761C0.079472 5.62127 0.079472 5.83305 0.00246202 5.06295C1.46565 3.29172 2.79407 2.44461 3.98773 2.52162C5.77821 2.63713 7.16439 2.86816 8.3773 3.56125C9.5902 4.25434 11.1497 5.06295 12.9401 4.3121C14.7306 3.56125 14.7306 3.56125 17.0409 3.33022Z"/><path id="shape1" transform="matrix(2.10984231387599 -0.000144509682657036 0.000144509682657036 2.10984231387599 125.680005006406 208.04242679881)" fill="#6b6b6b" fill-opacity="0.52156862745098" fill-rule="evenodd" d="M0.829803 0.231478C0.457576 1.29601 0.594166 1.82828 1.23957 1.82828C2.20768 1.82828 2.15928 1.48944 2.93377 1.58625C3.70826 1.68306 4.32542 1.93037 3.55093 3.18627C2.77644 4.44218 1.09436 4.10334 0.658707 5.02305C0.223057 5.94275 -0.309404 6.23318 0.223057 6.33C0.755518 6.42681 2.58679 6.94026 3.35602 6.04468C4.12525 5.14909 4.44391 4.84836 5.19434 3.14466C5.33197 2.62549 5.56803 1.74747 4.11208 0.387414C3.28918 0.0485747 1.26545 -0.204172 0.829803 0.231478Z"/><path id="shape2" transform="matrix(2.10984231387599 -0.000144509682657036 0.000144509682657036 2.10984231387599 93.5150977628256 206.633071156074)" fill="#e6e6e6" fill-opacity="0.286274509803922" fill-rule="evenodd" d="M0 1.39868C3.29965 4.5214 5.23266 6.26717 5.79902 6.636C6.64856 7.18924 8.75393 7.89 9.97284 7.66871C11.1917 7.44741 13.4449 7.33677 14.0728 6.74665C14.7007 6.15652 14.6268 7.11547 15.3656 7.07859C16.1043 7.04171 18.4313 6.56223 19.17 5.45576C19.9087 4.34928 20.8691 2.17321 19.9826 1.28803C19.0961 0.402853 17.0277 0.034028 16.3259 0.329088C15.6241 0.624148 14.8854 1.21427 14.0728 1.43556C13.2602 1.65686 10.2683 1.17739 9.19717 0.956091C8.12601 0.734796 5.90983 -0.187267 4.7648 0.034028C3.61977 0.255323 1.73601 -0.150385 1.18197 0.329088C0.627919 0.808561 0.627919 0.808561 0 1.39868Z"/><path id="shape3" transform="matrix(2.10984231387599 -0.000144509682657036 0.000144509682657036 2.10984231387599 119.003347188416 170.812564808713)" fill="#272727" fill-rule="evenodd" d="M9.29697 0C11.7211 2.09354 13.2086 3.55351 13.7595 4.37991C14.5859 5.6195 17.9191 12.6439 17.864 14.1589C17.8272 15.169 17.7813 15.3343 17.7262 14.6548C17.0284 12.0103 16.4958 10.2473 16.1285 9.36584C15.5776 8.0436 13.2566 4.37991 12.4373 3.6086C11.618 2.8373 11.618 2.31391 11.618 3.38823C11.618 4.46255 10.9773 6.63873 10.2336 7.16211C9.4898 7.6855 8.22266 8.53944 6.73514 8.70472C5.24762 8.87 4.42123 9.14547 3.59483 9.6964C2.76843 10.2473 1.99713 10.2198 1.63902 10.4126C1.28092 10.6054 1.4462 10.936 0.674891 11.4043C0.160688 11.7165 -0.0596843 11.8358 0.0137733 11.7624C0.105595 10.9544 0.381061 10.4585 0.840171 10.2749C1.52884 9.99941 3.0439 9.94432 3.29182 9.53112C3.53974 9.11792 4.09067 8.0987 4.72424 7.74059C5.35781 7.38248 5.52309 7.24475 7.03815 7.16211C8.55321 7.07947 8.77359 7.52022 9.87545 6.41835C10.9773 5.31649 11.2528 4.68292 11.1426 3.55351C11.0324 2.4241 10.6743 2.12109 9.95809 1.2396C9.24188 0.358106 9.24188 0.358106 9.29697 0Z"/><path id="shape4" transform="matrix(2.10984231387599 -0.000144509682657036 0.000144509682657036 2.10984231387599 103.372749532869 185.983486714742)" fill="#272727" fill-rule="evenodd" d="M7.43559 4.49293C5.87023 3.45979 4.86058 2.77103 4.40663 2.42666C3.7257 1.91009 2.8804 1.15872 1.94119 1.13524C1.00198 1.11176 -0.148559 1.11176 0.0158035 0.59519C0.180166 0.0786221 1.23678 -0.203142 1.82379 0.172543C2.4108 0.548229 3.04477 0.689111 3.46741 1.2996C3.89006 1.91009 6.4729 3.71807 6.9425 4.0468C7.41211 4.37552 7.41211 4.37552 7.43559 4.49293Z"/><path id="shape5" transform="matrix(2.10984231387599 -0.000144509682657036 0.000144509682657036 2.10984231387599 85.7197653387052 172.446963182447)" fill="#272727" fill-rule="evenodd" d="M6.43656 6.98541C5.60496 5.77128 5.32222 4.79831 5.58833 4.06651C5.9875 2.9688 7.7089 0.94802 7.80869 0.47401C7.87522 0.158003 7.9168 0 7.93343 0C5.82118 1.44698 4.42409 2.79416 3.74218 4.04156C2.71932 5.91265 2.24531 7.7089 1.62161 8.58208C0.997916 9.45525 0.274427 9.67978 0.249479 10.6278C0.232847 11.2598 0.149687 12.9563 0 15.7172C0.182951 12.4573 0.374218 10.6943 0.573802 10.4282C0.873176 10.0291 1.44698 10.0041 1.89604 8.93135C2.3451 7.85859 3.21828 6.46151 3.69229 5.63823C4.1663 4.81494 4.6902 3.84198 5.13927 3.36797C5.43864 3.05196 5.60496 2.86901 5.63823 2.81911C5.106 4.21619 5.04779 5.24737 5.46359 5.91265C6.08729 6.91057 6.08729 6.91057 6.43656 6.98541Z"/><path id="shape6" transform="matrix(2.10984231387599 -0.000144509682657036 0.000144509682657036 2.10984231387599 92.1917961948708 204.108245349029)" fill="#272727" fill-rule="evenodd" d="M0 3.11344C1.46325 1.84676 2.52976 1.20578 3.19954 1.19049C4.20422 1.16755 5.85272 1.19794 6.95942 1.53591C8.06611 1.87389 9.92047 1.98213 11.1049 2.16577C12.2893 2.34941 14.0913 2.74086 14.5295 2.63905C14.9677 2.53725 18.0362 1.43822 19.0408 1.44104C20.0454 1.44386 22.6989 1.32251 23.807 1.14531C24.9152 0.968104 25.6897 0.352058 26.4373 0.148083C26.9357 0.0120996 27.1505 -0.0302294 27.0816 0.0210957C26.4101 0.654604 25.8423 1.05657 25.3781 1.227C24.6819 1.48263 22.2341 1.73335 20.7401 1.72916C19.246 1.72496 17.6228 1.87496 16.6431 2.18132C15.6634 2.48768 15.1721 3.15604 14.451 3.07674C13.73 2.99744 10.3562 2.75613 9.24958 2.3924C8.14296 2.02866 5.18132 1.78851 4.25349 1.96622C3.32566 2.14393 1.88323 2.11412 1.23802 2.55022C0.592819 2.98631 0.592819 2.98631 0 3.11344Z"/><path id="shape7" transform="matrix(2.10984231387599 -0.000144509682657036 0.000144509682657036 2.10984231387599 123.087602801905 201.928187609593)" fill="#272727" fill-opacity="0.443137254901961" fill-rule="evenodd" d="M10.534 1.45781C9.06873 1.43455 7.76626 1.15545 6.62659 0.620504C4.9171 -0.181912 1.84698 -0.181912 1.25389 0.480953C0.660804 1.14382 -0.1765 2.15556 0.0328264 2.95798C0.172377 3.49292 0.253782 3.74876 0.27704 3.72551C2.18379 3.05782 3.47441 2.66583 4.14891 2.54954C4.8234 2.43325 6.24183 2.42186 8.4042 2.51536L10.6387 2.0509L11.3713 1.52758C11.3713 1.52758 11.0922 1.50432 10.534 1.45781Z"/><path id="shape8" transform="matrix(2.10984231387599 -0.000144509682657036 0.000144509682657036 2.10984231387599 127.923941388557 204.968798618388)" fill="#272727" fill-opacity="0.341176470588235" fill-rule="evenodd" d="M9.46925 0.547659C8.07521 2.09913 7.26202 3.16956 7.02968 3.75894C6.68117 4.643 3.94287 7.49298 2.94713 7.76681C2.2833 7.94936 1.95138 8.03234 1.95138 8.01574C3.47819 6.07404 4.225 4.73808 4.19181 4.00787C4.14202 2.91255 3.37032 1.86702 2.69819 1.76745C2.02606 1.66787 0.55734 1.81723 0.233723 1.71766C0.0179787 1.65128 -0.0484042 1.65128 0.0345745 1.71766C1.92649 1.40234 3.32053 1.24468 4.2167 1.24468C5.56096 1.24468 6.83053 1.24468 7.7267 0.89617C8.32415 0.66383 8.905 0.365106 9.46925 0C9.61861 0.165957 9.61861 0.348511 9.46925 0.547659Z"/><path id="shape9" transform="matrix(2.10984231387599 -0.000144509682657036 0.000144509682657036 2.10984231387599 94.6653067715687 201.189766880464)" fill="#e6e6e6" fill-opacity="0.0745098039215686" fill-rule="evenodd" d="M13.6761 3.89746L14.7011 0.763964C13.9592 1.13491 13.3247 1.25205 12.7976 1.11538C12.0069 0.910389 11.5676 -0.0560166 10.8062 0.00255345C10.0448 0.0611235 3.27992 1.49609 2.45994 1.90608C1.63996 2.31607 0.322135 3.01891 0.17571 3.34105C0.0780934 3.5558 0.0195233 3.66318 0 3.66318C1.22997 2.99939 2.22566 2.68701 2.98707 2.72606C4.12919 2.78463 7.64339 2.98963 8.37552 2.57964C9.10764 2.16965 9.13693 1.64251 9.81048 1.73037C10.484 1.81822 10.4548 2.75535 11.6262 3.25319C12.7976 3.75104 13.149 3.92675 13.6761 3.89746Z"/><path id="shape10" transform="matrix(2.10984231387599 -0.000144509682657036 0.000144509682657036 2.10984231387599 105.521311523708 217.568750682445)" fill="#000000" fill-opacity="0.0549019607843137" fill-rule="evenodd" d="M0.071866 0.00716015C1.90916 1.20325 3.05593 1.8013 3.51217 1.8013C4.19653 1.8013 5.89819 1.41288 6.823 1.44987C7.74781 1.48686 8.41368 1.15393 8.85759 1.59784C9.15353 1.89378 9.23368 2.03558 9.09804 2.02325C6.70586 1.72731 5.24465 1.65949 4.71443 1.81979C3.91909 2.06024 3.16074 2.41167 1.99548 1.56085C0.830212 0.710018 0.127355 0.469566 0.0533698 0.229115C-0.0206152 -0.0113361 -0.0206152 -0.0113361 0.071866 0.00716015Z"/><path id="shape11" transform="matrix(2.10984231387599 -0.000144509682657036 0.000144509682657036 2.10984231387599 101.545675481417 148.677759755891)" fill="#000000" fill-opacity="0.219607843137255" fill-rule="evenodd" d="M3.52914 0C2.89953 6.99201 2.61786 10.7531 2.68414 11.2833C2.75041 11.8135 2.76698 12.4928 2.73384 13.3213C2.23678 12.7248 1.70658 12.4431 1.14324 12.4763C0.579906 12.5094 0.198825 12.4928 0 12.4266C1.12667 10.9685 1.80599 9.65958 2.03796 8.49977C2.3859 6.76005 2.3859 6.76005 3.52914 0Z"/><path id="shape12" transform="matrix(2.10984231387599 -0.000144509682657036 0.000144509682657036 2.10984231387599 121.156254197477 140.706119889116)" fill="#000000" fill-opacity="0.254901960784314" fill-rule="evenodd" d="M0 0C0.92785 7.19084 1.78942 11.6147 2.58472 13.2716C3.77767 15.7569 5.31857 16.1545 5.11974 17.944C4.98719 19.1369 4.90435 20.1145 4.87121 20.8766C5.46769 20.5784 5.76592 20.2139 5.76592 19.7831C5.76592 19.1369 5.26886 17.7451 5.31857 15.906C5.36827 14.0669 4.92092 12.0289 5.46769 12.8242C5.8322 13.3544 6.76005 13.9675 8.25124 14.6633C7.29025 14.2326 6.29612 12.9899 5.26886 10.9354C3.72797 7.85359 0.0497062 0.944419 0 0Z"/><path id="shape13" transform="matrix(2.10984231387599 -0.000144509682657036 0.000144509682657036 2.10984231387599 137.639275518558 129.082307801162)" fill="#ffffff" fill-rule="evenodd" d="M0.216716 4.96723C3.14238 5.12977 5.22827 5.26521 6.47439 5.37357C8.34356 5.53611 9.88767 4.88596 11.5943 3.58566C12.7321 2.7188 13.3551 2.31246 13.4635 2.36664C11.4047 0.687088 9.15625 -0.0985073 6.7182 0.00985073C3.06111 0.172388 2.41097 0.497462 1.27321 1.87903C0.5147 2.80007 0.108358 3.53149 0.054179 4.07328C-0.054179 4.56089 0 4.85887 0.216716 4.96723Z"/><path id="shape14" transform="matrix(2.10984231387599 -0.000144509682657036 0.000144509682657036 2.10984231387599 71.9861096031963 135.623208515926)" fill="#ffffff" fill-rule="evenodd" d="M0.127399 3.49454C4.02829 4.68648 6.62888 5.06574 7.92917 4.6323C9.22947 4.19887 10.5027 3.71126 11.7488 3.16947C12.4531 2.68186 12.4531 2.19425 11.7488 1.70664C11.0445 1.21903 10.2047 0.650148 9.22947 0L3.54068 0C2.72799 0.162537 1.91531 0.677237 1.10262 1.5441C-0.116407 2.8444 -0.116407 2.8444 0.127399 3.49454Z"/><path id="shape02" transform="matrix(2.10984231387599 -0.000144509682657036 0.000144509682657036 2.10984231387599 144.530191968102 128.746436481842)" fill="url(#gradient0)" fill-rule="evenodd" stroke="#000000" stroke-opacity="0" stroke-width="0" stroke-linecap="square" stroke-linejoin="bevel" d="M0.0777492 1.29046C-0.151796 2.86448 0.126937 3.84825 0.913947 4.24175C2.09446 4.83201 3.71767 5.2747 4.89819 4.4385C6.0787 3.60231 6.47221 3.11043 6.37383 1.88072C6.30824 1.06092 6.27545 0.651019 6.27545 0.651019C5.78357 0.159138 4.8162 -0.0540105 3.37335 0.0115737C1.20908 0.10995 1.20908 0.10995 0.0777492 1.29046Z"/><path id="shape11" transform="matrix(2.10984231387599 -0.000144509682657036 0.000144509682657036 2.10984231387599 77.9644496042345 135.076886555106)" fill="url(#gradient1)" fill-rule="evenodd" stroke="#000000" stroke-opacity="0" stroke-width="0" stroke-linecap="square" stroke-linejoin="bevel" d="M6.83724 0.800783C6.96841 2.07967 6.67328 3.01425 5.95186 3.60451C4.86972 4.48989 5.06647 4.58827 3.59083 4.68664C2.11518 4.78502 0.88548 4.48989 0.491975 3.35857C0.0984703 2.22724 -0.147471 2.27643 0.0984703 1.19429C0.344411 0.112149 0.934668 0.0629608 1.57411 0.0137727C2.21356 -0.0354154 4.67297 0.0629608 5.65673 0.0629608C6.64049 0.0629608 6.64049 0.0629608 6.83724 0.800783Z"/><path id="shape21" transform="matrix(2.10984231387599 -0.000144509682657036 0.000144509682657036 2.10984231387599 146.776462212146 130.821654893154)" fill="url(#gradient2)" fill-rule="evenodd" stroke="#000000" stroke-opacity="0" stroke-width="0" stroke-linecap="square" stroke-linejoin="bevel" d="M0.688035 0.0814357C0.289905 0.22621 0.063695 0.515759 0.00940449 0.950083C-0.0720312 1.60157 0.389438 2.17162 0.850907 2.30734C1.31238 2.44307 2.39818 2.25305 2.47962 1.81873C2.56106 1.38441 2.69678 1.11295 2.39818 0.57005C2.09959 0.0271452 1.42096 0 1.06807 0C0.71518 0 0.71518 0 0.688035 0.0814357Z"/><path id="shape22" transform="matrix(2.1098423512233 -0.00014450968521507 0.00014450968521507 2.1098423512233 81.9347587158525 137.133255238465)" fill="url(#gradient3)" fill-rule="evenodd" stroke="#000000" stroke-opacity="0" stroke-width="0" stroke-linecap="square" stroke-linejoin="bevel" d="M0.688035 0.0814357C0.289905 0.22621 0.063695 0.515759 0.00940449 0.950083C-0.0720312 1.60157 0.389438 2.17162 0.850907 2.30734C1.31238 2.44307 2.39818 2.25305 2.47962 1.81873C2.56106 1.38441 2.69678 1.11295 2.39818 0.57005C2.09959 0.0271452 1.42096 0 1.06807 0C0.71518 0 0.71518 0 0.688035 0.0814357Z"/>
</svg>
