<?xml version="1.0" standalone="no"?>
<!DOCTYPE svg PUBLIC "-//W3C//DTD SVG 20010904//EN" "http://www.w3.org/TR/2001/REC-SVG-20010904/DTD/svg10.dtd">
<!-- Created using Krita: https://krita.org -->
<svg xmlns="http://www.w3.org/2000/svg" 
    xmlns:xlink="http://www.w3.org/1999/xlink"
    xmlns:krita="http://krita.org/namespaces/svg/krita"
    xmlns:sodipodi="http://sodipodi.sourceforge.net/DTD/sodipodi-0.dtd"
    width="480pt"
    height="480pt"
    viewBox="0 0 480 480">
<defs/>
<g id="group0" transform="matrix(0.99999978565198 -0.000654748801730648 0.000654748801730648 0.99999978565198 164.326347136952 262.111440975488)" fill="none">
  <path id="shape0" transform="matrix(0.941332434578425 0.337480736651236 -0.337480736651236 0.941332434578425 31.8625169545907 2.12677098154757e-15)" fill="#ffffff" fill-rule="evenodd" d="M30.1443 12.5935L21.3761 17.8104L0 37.768L9.39758 71.6007L20.3883 78.2961C39.5153 90.0345 54.5149 95.3608 65.3871 94.2749L66.4479 63.6321L64.8837 36.2719L58.0288 11.5525L38.1369 0M13.4844 69.0941C13.2754 66.3163 12.9978 64.2891 12.6515 63.0125C12.1321 61.0975 11.9243 60.7595 12.5476 59.5204C13.171 58.2813 11.4048 58.9572 11.1971 57.6055C11.0585 56.7043 11.3009 56.5541 11.9243 57.1549L10.7334 50.189C9.48671 51.3905 9.03651 51.3154 9.38282 49.9637C9.72912 48.6119 10.0212 47.7901 10.2589 47.4983C10.3046 48.1458 10.6392 47.8688 11.2625 46.6673C12.1975 44.8649 10.334 46.8069 10.1262 45.0046C9.91847 43.2022 9.92774 39.1815 10.9667 37.1539C11.6593 35.8022 11.2925 36.0847 9.8665 38.0017C9.78389 38.6047 9.50017 39.507 9.01535 40.7086C8.28812 42.5109 9.01535 45.4397 7.87255 46.4535C7.11069 47.1294 6.72976 46.9417 6.72976 45.8903C6.45271 46.7164 6.55661 47.8804 7.04143 49.3823C7.76866 51.6352 8.18423 53.2123 8.18423 54.902C8.18423 56.5916 9.74259 58.7319 9.74259 61.3228C9.74259 63.9136 11.4048 65.6033 11.9243 67.5183C12.2706 68.7949 12.6324 69.9736 13.0098 71.0544M40.6271 79.3865C40.7071 77.1711 39.7048 75.2318 37.6202 73.5688C34.4932 71.0742 28.3658 68.2199 27.5678 64.3807C27.0359 61.8214 26.858 60.3621 27.0338 60.0022L26.0593 67.8079C24.4448 62.9039 23.777 59.5966 24.0561 57.8864C24.4746 55.3206 25.7019 51.7845 25.277 48.8924C24.9938 46.9643 25.3495 47.2624 26.3442 49.7871C26.4474 48.4364 25.9824 46.6517 24.9495 44.4332C23.4002 41.1056 23.2336 40.0783 24.4956 37.8394C25.3368 36.3465 25.4342 34.7799 24.7876 33.1388C25.3311 36.1305 25.7386 38.3741 26.0104 39.87C26.418 42.1139 25.2753 33.1672 26.5599 29.172C27.8445 25.1768 30.5812 26.0762 29.8579 22.4266C29.1346 18.777 31.5793 24.3768 33.9949 26.275C36.4104 28.1732 32.5602 22.0289 32.4737 18.7864C32.4161 16.6247 32.9651 16.4693 32.1311 14.7558C34.4644 17.05 34.8467 17.3521 35.2678 19.2266C35.6886 21.1011 36.3734 22.436 37.322 23.2313C39.9726 23.509 40.8119 22.8179 39.8404 21.1579C38.3828 18.6681 40.156 22.5638 37.6886 18.7201C35.2212 14.8764 35.0667 16.9024 35.5653 12.1214C35.8977 8.93407 36.6966 6.72984 37.9625 5.50855C37.7411 9.38068 38.7972 12.4638 41.1305 14.758C44.6305 18.1994 44.0791 13.1723 42.6617 9.57472C41.7167 7.17634 42.3843 7.86268 44.6643 11.6338C45.1456 8.82527 44.8568 6.68086 43.797 5.20088C42.2076 2.98079 51.009 9.59841 50.8263 15.7852C50.6433 21.9721 50.3111 27.7804 53.8512 30.1139C56.2113 31.6697 55.9222 29.5254 52.9842 23.6809C55.3823 24.9307 57.1344 27.1602 58.24 30.3697C59.8987 35.1837 60.2088 38.9942 57.3238 45.5789C54.439 52.1632 52.5975 53.536 53.3954 57.3749C53.9272 59.9343 55.2108 61.9825 57.2456 63.5192L52.9942 60.5892C53.8014 63.0412 55.3353 64.9188 57.5959 66.2221C60.9866 68.1773 61.1865 67.3747 61.9548 68.5867C62.4672 69.3948 60.8411 67.3006 61.1386 68.5483C60.6371 67.4393 62.0236 69.7456 61.2357 69.2228C60.4478 68.6997 59.3718 68.3484 58.0077 68.1685C58.3333 68.3383 58.9864 68.7654 59.9675 69.4501C61.439 70.4774 60.6338 71.1437 61.93 71.9725C62.7944 72.5247 60.3565 72.7574 61.0539 72.7228C58.2731 73.2136 60.0534 73.0327 59.6642 71.8803C59.2747 70.7277 59.1268 70.8448 59.2202 72.2309L60.5377 73.8517L59.2415 73.0229C60.5809 75.1094 61.1889 76.3248 61.0659 76.669C60.9429 77.0133 60.3409 76.1336 60.6447 76.9046C60.0527 75.2382 60.1751 75.4749 59.627 74.74C59.0788 74.0051 58.5626 73.7617 58.0784 74.0096C57.1429 75.7377 56.2078 77.1392 55.2737 78.2146C54.3396 79.2899 54.2284 80.0743 54.9401 80.5676C53.7743 80.5081 53.4661 80.6283 54.0153 80.928C54.839 81.3776 54.0614 81.9475 53.5179 81.3886C52.9742 80.8297 52.4434 80.3846 51.9248 80.0532C52.244 80.6994 51.4208 80.0199 51.821 80.8716C52.2213 81.7237 51.6961 82.0985 50.9439 81.5023C49.8157 80.6081 48.5753 78.6907 46.7186 79.1473C44.8619 79.6042 43.8773 78.7883 43.5528 80.4262C43.3364 81.5182 43.5736 76.7116 42.5864 78.1945M23.4799 76.1497L23.8065 71.7262C23.0472 69.2793 22.5691 67.724 22.3721 67.0601C22.0767 66.0643 21.4469 64.9547 21.1412 65.6341C20.8354 66.3135 20.3049 63.5963 20.166 62.5791C20.0271 61.5619 18.9099 59.8016 19.0198 58.2722C19.1297 56.7428 18.0755 50.1916 17.94 48.616C17.8497 47.5656 17.9325 46.8104 18.1885 46.3503L17.6763 46.1015C17.543 43.5691 17.82 41.5121 18.5073 39.9304C19.5382 37.5579 21.3443 34.4418 21.2088 32.8662C21.0733 31.2906 21.3821 28.2994 22.2886 26.183C23.1951 24.0665 23.9348 23.6467 24.0482 21.5589C24.1616 19.4711 23.9871 18.7775 24.3177 17.6962C24.538 16.9754 24.6482 16.6149 24.6482 16.6149C22.8777 19.9918 21.8977 21.9589 21.7081 22.5161C21.4237 23.352 21.5768 23.889 20.4959 25.3119C19.4149 26.7349 18.7 26.7528 18.2061 28.9723C17.7122 31.1918 16.1057 36.3529 15.85 37.9819C15.5942 39.6109 15.0614 42.7125 14.5282 44.0606C13.995 45.4087 13.661 47.0484 13.4266 48.8339C13.1923 50.6194 12.9041 50.2603 12.8262 52.0244C12.7484 53.7886 13.3358 56.3386 14.3247 57.16C15.3137 57.9814 15.5629 59.2226 16.0007 60.6772C16.4385 62.1318 17.5629 64.5288 18.1324 66.3639C18.7018 68.199 20.1679 71.3464 21.1675 72.246C21.8339 72.8458 22.4491 73.9192 23.0129 75.4663"/>
  <path id="shape1" transform="translate(64.3126950386361, 39.6401819536966)" fill="#ffffff" fill-rule="evenodd" d="M14.5976 38.5065C16.8493 35.0237 15.781 36.1436 16.4457 33.8171C17.1104 31.4906 17.7751 31.4075 17.4428 29.7458C17.1104 28.084 18.1075 26.0899 17.8582 24.2619C17.609 22.434 17.7751 20.8553 18.1075 19.3597C18.4398 17.8641 18.5229 15.0391 17.7751 13.4604C17.0273 11.8817 17.4428 11.3001 17.0273 9.05667C16.6119 6.81328 15.781 6.31474 16.695 4.65297C17.3043 3.54512 17.5813 3.01889 17.5259 3.07428C17.4705 4.84684 17.6366 6.03778 18.0244 6.6471C18.606 7.56108 18.8553 7.47799 19.4369 9.05667C20.0185 10.6354 19.9354 12.9618 20.6832 14.7067C21.431 16.4516 20.1847 17.8641 20.6832 19.2766C21.1818 20.6891 21.0987 22.434 20.8494 23.5141C20.6001 24.5943 20.8494 24.9266 21.2649 24.2619C21.5418 23.8188 21.7634 23.5972 21.9296 23.5972L20.6832 25.3421C19.8523 24.8435 19.4646 24.9266 19.52 25.5913C19.6031 26.5884 20.2678 27.17 20.7663 28.2502C21.2649 29.3303 18.6891 31.4906 19.0215 32.6539C19.243 33.4294 19.5477 33.4017 19.9354 32.5708C19.2707 33.9002 18.606 34.9527 17.9413 35.7282C17.2766 36.5037 16.8092 37.0103 16.5392 37.2479C16.6331 37.2263 15.9859 37.6458 14.5976 38.5065ZM15.427 40.8628L21.0156 32.9031L23.1759 19.6089L19.0215 0L15.7495 1.42119L8.4851 33.5604L9.05641 40.065L2.41219 51.6058C0.0787473 57.2507 -0.561746 60.3778 0.490711 60.9871C1.54317 61.5964 4.63261 59.4489 9.75903 54.5445L13.1222 46.779M3.51935 57.3328C5.26825 53.3167 6.05961 50.8101 5.89344 49.813C5.64417 48.3174 6.30815 50.4349 6.55742 50.6841C6.72359 50.8503 6.77923 50.0194 6.72432 48.1915C7.49982 48.5238 7.99835 48.2746 8.21992 47.4437C8.55228 46.1973 11.5435 40.9628 11.7927 40.0488C12.042 39.1348 12.4574 39.6333 12.5405 38.5532C12.6236 37.473 11.4604 43.9539 11.3773 45.2003C11.3219 46.0312 10.9065 46.2804 10.131 45.9481C10.4079 47.2221 10.4633 48.053 10.2971 48.4407C10.0479 49.0224 8.46919 49.4378 8.3861 50.518C8.30301 51.5981 8.61834 52.1877 7.12274 53.2678C5.62714 54.348 4.79155 57.0341 3.51935 57.3328Z"/>
 </g>
</svg>
