<?xml version="1.0" standalone="no"?>
<!DOCTYPE svg PUBLIC "-//W3C//DTD SVG 20010904//EN" "http://www.w3.org/TR/2001/REC-SVG-20010904/DTD/svg10.dtd">
<!-- Created using Krita: https://krita.org -->
<svg xmlns="http://www.w3.org/2000/svg" 
    xmlns:xlink="http://www.w3.org/1999/xlink"
    xmlns:krita="http://krita.org/namespaces/svg/krita"
    xmlns:sodipodi="http://sodipodi.sourceforge.net/DTD/sodipodi-0.dtd"
    width="1000pt"
    height="1000pt"
    viewBox="0 0 1000 1000">
<defs>
  <linearGradient id="gradient0" gradientUnits="objectBoundingBox" x1="0.582150434572469" y1="2.06939550261723" x2="0.64347114450992" y2="-1.04228320829158" spreadMethod="pad">
   <stop stop-color="#fff6f4" offset="0" stop-opacity="0"/>
   <stop stop-color="#06081f" offset="1" stop-opacity="1"/>
  </linearGradient>
  <linearGradient id="gradient1" gradientUnits="objectBoundingBox" x1="1.70647755588159" y1="0.521751189381696" x2="-0.0202202832862661" y2="0.6124134021736" spreadMethod="pad">
   <stop stop-color="#ff0059" offset="0" stop-opacity="1"/>
   <stop stop-color="#1115b4" offset="1" stop-opacity="1"/>
  </linearGradient>
 </defs>
<rect id="shape0" transform="matrix(1.0000000113113 0 0 1.0000000113113 176.235067629669 795.738335119302)" fill="url(#gradient0)" fill-rule="evenodd" stroke="#000000" stroke-opacity="0" stroke-width="0" stroke-linecap="square" stroke-linejoin="bevel" width="684.236986159014" height="98" rx="9.77481408798592" ry="12"/><path id="shape0" transform="matrix(1.34754410133988 0 0 1.34754410133988 284.556798570201 199.94312600977)" fill="none" stroke="#122021" stroke-width="30" stroke-linecap="square" stroke-linejoin="bevel" d="M0 0C0.574822 43.5435 1.23053 98.6462 81.3526 93.5846"/><path id="shape1" transform="matrix(1.34754410133988 0 0 1.34754410133988 501.837843570021 430.040551643066)" fill="none" stroke="#122021" stroke-width="30" stroke-linecap="square" stroke-linejoin="bevel" d="M0 0L0.433677 59.1051"/><circle id="shape01" transform="matrix(1.34754403887925 0 0 1.34754403887925 437.689124865457 550.417488607775)" r="49.4974203889033" cx="49.4974203889033" cy="49.4974203889033" fill="#161cc1" fill-opacity="0.254901960784314" fill-rule="evenodd" stroke="#000000" stroke-opacity="0" stroke-width="0" stroke-linecap="square" stroke-linejoin="bevel"/><path id="shape2" transform="translate(436.2421875, 372.247670358041)" fill="#161cc1" fill-rule="evenodd" stroke="#000000" stroke-opacity="0" stroke-width="0" stroke-linecap="square" stroke-linejoin="bevel" d="M53.1152 -0.273438C57.1029 -0.273438 60.1449 -1.83431 62.2412 -4.95605L111.699 -80.5957C112.474 -81.7578 113.027 -82.88 113.357 -83.9624C113.687 -85.0448 113.853 -86.0872 113.853 -87.0898C113.853 -89.7786 112.947 -92.0003 111.135 -93.7549C109.324 -95.5094 107.039 -96.3867 104.282 -96.3867C102.391 -96.3867 100.802 -96.0107 99.5142 -95.2588C98.2267 -94.5068 96.9906 -93.2194 95.8057 -91.3965L52.876 -23.4814L30.9668 -50.8936C28.916 -53.3773 26.3525 -54.6191 23.2764 -54.6191C20.4964 -54.6191 18.2007 -53.7305 16.3892 -51.9531C14.5776 -50.1758 13.6719 -47.9199 13.6719 -45.1855C13.6719 -43.9779 13.8826 -42.8215 14.3042 -41.7163C14.7257 -40.6112 15.4492 -39.4548 16.4746 -38.2471L44.1943 -4.5459C46.5641 -1.69759 49.5378 -0.273438 53.1152 -0.273438"/><path id="shape3" transform="matrix(0.999999968963063 0 0 0.999999968963063 226.12649799755 151.233020546239)" fill="#161cc1" fill-rule="evenodd" stroke="#000000" stroke-opacity="0" stroke-width="0" stroke-linecap="square" stroke-linejoin="bevel" d="M53.1152 -0.273438C57.1029 -0.273438 60.1449 -1.83431 62.2412 -4.95605L111.699 -80.5957C112.474 -81.7578 113.027 -82.88 113.357 -83.9624C113.687 -85.0448 113.853 -86.0872 113.853 -87.0898C113.853 -89.7786 112.947 -92.0003 111.135 -93.7549C109.324 -95.5094 107.039 -96.3867 104.282 -96.3867C102.391 -96.3867 100.802 -96.0107 99.5142 -95.2588C98.2267 -94.5068 96.9906 -93.2194 95.8057 -91.3965L52.876 -23.4814L30.9668 -50.8936C28.916 -53.3773 26.3525 -54.6191 23.2764 -54.6191C20.4964 -54.6191 18.2007 -53.7305 16.3892 -51.9531C14.5776 -50.1758 13.6719 -47.9199 13.6719 -45.1855C13.6719 -43.9779 13.8826 -42.8215 14.3042 -41.7163C14.7257 -40.6112 15.4492 -39.4548 16.4746 -38.2471L44.1943 -4.5459C46.5641 -1.69759 49.5378 -0.273438 53.1152 -0.273438"/><path id="shape4" transform="translate(170.391457442006, 796.164643385431)" fill="url(#gradient1)" fill-rule="evenodd" d="M6.22691 0L429.657 -1.77636e-15C429.572 -1.33227e-15 428.985 98.2936 429.657 98L6.22691 98C2.78788 98 5.00608e-16 92.6274 9.21767e-16 86L0 12C4.21159e-16 5.37258 2.78788 -4.02456e-16 6.22691 0Z"/><path id="shape5" transform="translate(459.4369532843, 864.809605005664)" fill="#ffffff" fill-rule="evenodd" stroke="#000000" stroke-opacity="0" stroke-width="0" stroke-linecap="square" stroke-linejoin="bevel" d="M19.9688 0.75C23.0521 0.75 25.7917 0.0885417 28.1875 -1.23438C30.5833 -2.55729 32.474 -4.36979 33.8594 -6.67188C35.2448 -8.97396 35.9375 -11.6042 35.9375 -14.5625L35.9375 -14.625C35.9375 -17.4792 35.2865 -20.0313 33.9844 -22.2813C32.6823 -24.5313 30.9063 -26.3021 28.6563 -27.5938C26.4063 -28.8854 23.8438 -29.5313 20.9688 -29.5313C18.9271 -29.5313 17.0729 -29.2031 15.4063 -28.5469C13.7396 -27.8906 12.3073 -27.0156 11.1094 -25.9219C9.91146 -24.8281 9.01042 -23.6146 8.40625 -22.2813L7.75 -22.2813L7.75 -14.625L9.625 -14.625L9.625 -14.6563C9.625 -16.5729 10.0781 -18.2813 10.9844 -19.7813C11.8906 -21.2813 13.1302 -22.4583 14.7031 -23.3125C16.276 -24.1667 18.0417 -24.5938 20 -24.5938C21.9792 -24.5938 23.7396 -24.1615 25.2813 -23.2969C26.8229 -22.4323 28.0313 -21.2396 28.9063 -19.7188C29.7813 -18.1979 30.2188 -16.4583 30.2188 -14.5L30.2188 -14.4375C30.2188 -12.5417 29.7604 -10.8229 28.8438 -9.28125C27.9271 -7.73958 26.6875 -6.51563 25.125 -5.60938C23.5625 -4.70313 21.8229 -4.25 19.9063 -4.25C17.9896 -4.25 16.25 -4.71354 14.6875 -5.64063C13.125 -6.56771 11.8906 -7.81771 10.9844 -9.39063C10.0781 -10.9635 9.625 -12.7083 9.625 -14.625L8.28125 -22.0313C8.28125 -22.2396 8.28125 -22.4427 8.28125 -22.6406C8.28125 -22.8385 8.29167 -23.0417 8.3125 -23.25C8.39583 -26.4167 8.84896 -29.3333 9.67188 -32C10.4948 -34.6667 11.7708 -36.8125 13.5 -38.4375C15.2292 -40.0625 17.4896 -40.875 20.2813 -40.875C21.8229 -40.875 23.2031 -40.6302 24.4219 -40.1406C25.6406 -39.651 26.6771 -38.9583 27.5313 -38.0625C28.3854 -37.1667 29.0313 -36.0938 29.4688 -34.8438L29.5938 -34.5L35.3125 -34.5L35.2188 -34.9063C34.7188 -37.0938 33.7813 -39.0104 32.4063 -40.6563C31.0313 -42.3021 29.3177 -43.5781 27.2656 -44.4844C25.2135 -45.3906 22.9063 -45.8438 20.3438 -45.8438C16.6771 -45.8438 13.5365 -44.8958 10.9219 -43C8.30729 -41.1042 6.30729 -38.3594 4.92188 -34.7656C3.53646 -31.1719 2.84375 -26.8438 2.84375 -21.7813L2.84375 -21.7188C2.84375 -17.5313 3.33854 -14.0052 4.32813 -11.1406C5.31771 -8.27604 6.64063 -5.96875 8.29688 -4.21875C9.95313 -2.46875 11.7917 -1.20313 13.8125 -0.421875C15.8333 0.359375 17.8854 0.75 19.9688 0.75M43.375 0L73.125 0L73.125 -5L49.4375 -5L51.0938 -3.4375L51.0938 -6.90625L49.4375 -3.4375L61.8125 -16.125C64.5833 -18.9583 66.7292 -21.3385 68.25 -23.2656C69.7708 -25.1927 70.8385 -26.9271 71.4531 -28.4688C72.0677 -30.0104 72.375 -31.6042 72.375 -33.25L72.375 -33.3125C72.375 -35.6667 71.7656 -37.7917 70.5469 -39.6875C69.3281 -41.5833 67.6563 -43.0833 65.5313 -44.1875C63.4063 -45.2917 60.9792 -45.8438 58.25 -45.8438C55.4583 -45.8438 52.9115 -45.2552 50.6094 -44.0781C48.3073 -42.901 46.4792 -41.2865 45.125 -39.2344C43.7708 -37.1823 43.0938 -34.8542 43.0938 -32.25L43.0938 -32.0625L48.5313 -32.0625L48.5313 -32.2188C48.5313 -33.8438 48.9583 -35.3125 49.8125 -36.625C50.6667 -37.9375 51.8333 -38.9844 53.3125 -39.7656C54.7917 -40.5469 56.4688 -40.9375 58.3438 -40.9375C59.9896 -40.9375 61.4427 -40.599 62.7031 -39.9219C63.9635 -39.2448 64.9531 -38.3125 65.6719 -37.125C66.3906 -35.9375 66.75 -34.5729 66.75 -33.0313L66.75 -32.9688C66.75 -31.7188 66.5469 -30.5417 66.1406 -29.4375C65.7344 -28.3333 64.9948 -27.0885 63.9219 -25.7031C62.849 -24.3177 61.2917 -22.5625 59.25 -20.4375L43.375 -3.875L43.375 0M88.125 -22.8438C90.0208 -22.8438 91.651 -23.3021 93.0156 -24.2188C94.3802 -25.1354 95.4271 -26.4427 96.1563 -28.1406C96.8854 -29.8385 97.25 -31.8438 97.25 -34.1563L97.25 -34.1875C97.25 -36.5 96.8854 -38.5 96.1563 -40.1875C95.4271 -41.875 94.3802 -43.1771 93.0156 -44.0938C91.651 -45.0104 90.0208 -45.4688 88.125 -45.4688C86.2292 -45.4688 84.599 -45.0104 83.2344 -44.0938C81.8698 -43.1771 80.8229 -41.875 80.0938 -40.1875C79.3646 -38.5 79 -36.5 79 -34.1875L79 -34.1563C79 -31.8438 79.3646 -29.8385 80.0938 -28.1406C80.8229 -26.4427 81.8698 -25.1354 83.2344 -24.2188C84.599 -23.3021 86.2292 -22.8438 88.125 -22.8438M88.125 -26.5938C86.6042 -26.5938 85.4271 -27.2604 84.5938 -28.5938C83.7604 -29.9271 83.3438 -31.7813 83.3438 -34.1563L83.3438 -34.1875C83.3438 -36.5625 83.7604 -38.4115 84.5938 -39.7344C85.4271 -41.0573 86.6042 -41.7188 88.125 -41.7188C89.6458 -41.7188 90.8229 -41.0573 91.6563 -39.7344C92.4896 -38.4115 92.9063 -36.5625 92.9063 -34.1875L92.9063 -34.1563C92.9063 -31.7813 92.4896 -29.9271 91.6563 -28.5938C90.8229 -27.2604 89.6458 -26.5938 88.125 -26.5938M90.1563 0L119.031 -45.0938L113.969 -45.0938L85.0313 0L90.1563 0M115.906 0.375C117.802 0.375 119.432 -0.0833333 120.797 -1C122.161 -1.91667 123.208 -3.22396 123.938 -4.92188C124.667 -6.61979 125.031 -8.625 125.031 -10.9375L125.031 -10.9688C125.031 -13.2813 124.667 -15.2813 123.938 -16.9688C123.208 -18.6563 122.161 -19.9583 120.797 -20.875C119.432 -21.7917 117.802 -22.25 115.906 -22.25C114.01 -22.25 112.38 -21.7917 111.016 -20.875C109.651 -19.9583 108.604 -18.6563 107.875 -16.9688C107.146 -15.2813 106.781 -13.2813 106.781 -10.9688L106.781 -10.9375C106.781 -8.625 107.146 -6.61979 107.875 -4.92188C108.604 -3.22396 109.651 -1.91667 111.016 -1C112.38 -0.0833333 114.01 0.375 115.906 0.375M115.906 -3.375C114.385 -3.375 113.208 -4.04167 112.375 -5.375C111.542 -6.70833 111.125 -8.5625 111.125 -10.9375L111.125 -10.9688C111.125 -13.3438 111.542 -15.1927 112.375 -16.5156C113.208 -17.8385 114.385 -18.5 115.906 -18.5C117.427 -18.5 118.604 -17.8385 119.438 -16.5156C120.271 -15.1927 120.688 -13.3438 120.688 -10.9688L120.688 -10.9375C120.688 -8.5625 120.271 -6.70833 119.438 -5.375C118.604 -4.04167 117.427 -3.375 115.906 -3.375"/>
</svg>
