<?xml version="1.0" standalone="no"?>
<!DOCTYPE svg PUBLIC "-//W3C//DTD SVG 20010904//EN" "http://www.w3.org/TR/2001/REC-SVG-20010904/DTD/svg10.dtd">
<!-- Created using Krita: https://krita.org -->
<svg xmlns="http://www.w3.org/2000/svg" 
    xmlns:xlink="http://www.w3.org/1999/xlink"
    xmlns:krita="http://krita.org/namespaces/svg/krita"
    xmlns:sodipodi="http://sodipodi.sourceforge.net/DTD/sodipodi-0.dtd"
    width="1000.08pt"
    height="1000.08pt"
    viewBox="0 0 1000.08 1000.08">
<defs/>
<path id="shape0" transform="matrix(2.09878745572558 0 0 2.09878745572558 311.759747412372 234.161027975419)" fill="none" stroke="#122021" stroke-width="21.6" stroke-linecap="square" stroke-linejoin="bevel" d="M0 0C0.574822 43.5435 1.23053 98.6462 81.3526 93.5846"/><path id="shape1" transform="matrix(2.09878745572558 0 0 2.09878745572558 647.885850908237 594.593225119568)" fill="none" stroke="#122021" stroke-width="21.6" stroke-linecap="square" stroke-linejoin="bevel" d="M0 0L0.433677 59.1051"/><circle id="shape01" transform="matrix(2.09878735844372 0 0 2.09878735844372 558.872981624686 785.523611187736)" r="42.2130130715601" cx="42.2130130715601" cy="42.2130130715601" fill="#161cc1" fill-rule="evenodd" stroke="#000000" stroke-opacity="0" stroke-width="0" stroke-linecap="square" stroke-linejoin="bevel"/><path id="shape2" transform="matrix(1.55749073714079 0 0 1.55749073714079 565.857771458995 368.553130487011)" fill="#161cc1" fill-rule="evenodd" stroke="#000000" stroke-opacity="0" stroke-width="0" stroke-linecap="square" stroke-linejoin="bevel" d="M36.6375 89.2761C40.3415 89.2761 43.1671 87.8263 45.1143 84.9266L91.0538 14.6677C91.7737 13.5883 92.2874 12.5459 92.5939 11.5405C92.9004 10.5351 93.0546 9.56683 93.0546 8.63555C93.0546 6.13803 92.2131 4.07437 90.53 2.44458C88.8478 0.814892 86.7253 0 84.1645 0C82.408 0 80.932 0.349253 79.7358 1.04767C78.5399 1.74617 77.3917 2.94199 76.2911 4.63522L36.4153 67.7191L16.0646 42.2569C14.1597 39.9499 11.7786 38.7964 8.92127 38.7964C6.33903 38.7964 4.20664 39.6218 2.524 41.2728C0.841272 42.9236 0 45.0191 0 47.5589C0 48.6806 0.195712 49.7548 0.587321 50.7814C0.978837 51.8078 1.65087 52.882 2.60333 54.0038L28.3512 85.3076C30.5524 87.9533 33.3145 89.2761 36.6375 89.2761"/><path id="shape21" transform="matrix(1.55749071841311 0 0 1.55749071841311 251.408655762364 29.4045632921687)" fill="#161cc1" fill-rule="evenodd" stroke="#000000" stroke-opacity="0" stroke-width="0" stroke-linecap="square" stroke-linejoin="bevel" d="M36.6375 89.2761C40.3415 89.2761 43.1671 87.8263 45.1143 84.9266L91.0538 14.6677C91.7737 13.5883 92.2874 12.5459 92.5939 11.5405C92.9004 10.5351 93.0546 9.56683 93.0546 8.63555C93.0546 6.13803 92.2131 4.07437 90.53 2.44458C88.8478 0.814892 86.7253 0 84.1645 0C82.408 0 80.932 0.349253 79.7358 1.04767C78.5399 1.74617 77.3917 2.94199 76.2911 4.63522L36.4153 67.7191L16.0646 42.2569C14.1597 39.9499 11.7786 38.7964 8.92127 38.7964C6.33903 38.7964 4.20664 39.6218 2.524 41.2728C0.841272 42.9236 0 45.0191 0 47.5589C0 48.6806 0.195712 49.7548 0.587321 50.7814C0.978837 51.8078 1.65087 52.882 2.60333 54.0038L28.3512 85.3076C30.5524 87.9533 33.3145 89.2761 36.6375 89.2761"/>
</svg>
