<?xml version="1.0" standalone="no"?>
<!DOCTYPE svg PUBLIC "-//W3C//DTD SVG 20010904//EN" "http://www.w3.org/TR/2001/REC-SVG-20010904/DTD/svg10.dtd">
<!-- Created using Krita: https://krita.org -->
<svg xmlns="http://www.w3.org/2000/svg" 
    xmlns:xlink="http://www.w3.org/1999/xlink"
    xmlns:krita="http://krita.org/namespaces/svg/krita"
    xmlns:sodipodi="http://sodipodi.sourceforge.net/DTD/sodipodi-0.dtd"
    width="1000pt"
    height="1000pt"
    viewBox="0 0 1000 1000">
<defs/>
<path id="shape0" transform="matrix(0.660308385564302 0.835686107691202 -0.835686107691202 0.660308385564302 486.667220245896 254.106320820348)" fill="#00aacc" fill-rule="evenodd" d="M0 0L792.119 50.7059L364.275 593.976"/><path id="shape1" transform="matrix(1.05357889393452 0.156044701577201 -0.156044701577201 1.05357889393452 100.587060918964 439.31467250101)" fill="#ff0055" fill-rule="evenodd" d="M0 499.583L161.859 0L475.159 414.126L0 499.583"/><path id="shape2" transform="matrix(0.993951896930205 0.0234043187597467 -0.0234043187597467 0.993951896930205 74.18504645789 93.590444554727)" fill="#122021" fill-rule="evenodd" d="M70.3264 153.338C103.3 -21.0361 186.581 0.884835 154.512 0.884835C69.7362 0.884835 1.0382e-14 67.0574 0 151.833C-1.0382e-14 236.609 64.3304 306.312 149.106 306.312C162.255 309.015 50.9564 255.773 70.3264 153.338Z"/>
</svg>
