<?xml version="1.0" standalone="no"?>
<!DOCTYPE svg PUBLIC "-//W3C//DTD SVG 20010904//EN" "http://www.w3.org/TR/2001/REC-SVG-20010904/DTD/svg10.dtd">
<!-- Created using Krita: https://krita.org -->
<svg xmlns="http://www.w3.org/2000/svg" 
    xmlns:xlink="http://www.w3.org/1999/xlink"
    xmlns:krita="http://krita.org/namespaces/svg/krita"
    xmlns:sodipodi="http://sodipodi.sourceforge.net/DTD/sodipodi-0.dtd"
    width="1000pt"
    height="500pt"
    viewBox="0 0 1000 500">
<defs>
  <linearGradient id="gradient0" gradientUnits="objectBoundingBox" x1="0" y1="0" x2="1" y2="1" spreadMethod="pad">
   <stop stop-color="#ffffff" offset="0.0289256198347107" stop-opacity="0"/>
   <stop stop-color="#ffffff" offset="0.396694214876033" stop-opacity="1"/>
   <stop stop-color="#ffffff" offset="0.466942148760331" stop-opacity="1"/>
   <stop stop-color="#ffffff" offset="0.950413223140496" stop-opacity="0"/>
  </linearGradient>
  <linearGradient id="gradient1" gradientUnits="objectBoundingBox" x1="0" y1="0" x2="1" y2="1" spreadMethod="pad">
   <stop stop-color="#ffffff" offset="0.0289256198347107" stop-opacity="0"/>
   <stop stop-color="#ffffff" offset="0.396694214876033" stop-opacity="1"/>
   <stop stop-color="#ffffff" offset="0.466942148760331" stop-opacity="1"/>
   <stop stop-color="#ffffff" offset="0.950413223140496" stop-opacity="0"/>
  </linearGradient>
  <linearGradient id="gradient2" gradientUnits="objectBoundingBox" x1="0" y1="0" x2="1" y2="1" spreadMethod="pad">
   <stop stop-color="#ffffff" offset="0.0289256198347107" stop-opacity="0"/>
   <stop stop-color="#ffffff" offset="0.396694214876033" stop-opacity="1"/>
   <stop stop-color="#ffffff" offset="0.466942148760331" stop-opacity="1"/>
   <stop stop-color="#ffffff" offset="0.950413223140496" stop-opacity="0"/>
  </linearGradient>
  <linearGradient id="gradient3" gradientUnits="objectBoundingBox" x1="0" y1="0" x2="1" y2="1" spreadMethod="pad">
   <stop stop-color="#ffffff" offset="0.0289256198347107" stop-opacity="0"/>
   <stop stop-color="#ffffff" offset="0.396694214876033" stop-opacity="1"/>
   <stop stop-color="#ffffff" offset="0.466942148760331" stop-opacity="1"/>
   <stop stop-color="#ffffff" offset="0.950413223140496" stop-opacity="0"/>
  </linearGradient>
  <linearGradient id="gradient4" gradientUnits="objectBoundingBox" x1="0" y1="0" x2="1" y2="1" spreadMethod="pad">
   <stop stop-color="#ffffff" offset="0.0289256198347107" stop-opacity="0"/>
   <stop stop-color="#ffffff" offset="0.396694214876033" stop-opacity="1"/>
   <stop stop-color="#ffffff" offset="0.466942148760331" stop-opacity="1"/>
   <stop stop-color="#ffffff" offset="0.950413223140496" stop-opacity="0"/>
  </linearGradient>
  <linearGradient id="gradient5" gradientUnits="objectBoundingBox" x1="0" y1="0" x2="1" y2="1" spreadMethod="pad">
   <stop stop-color="#ffffff" offset="0.0289256198347107" stop-opacity="0"/>
   <stop stop-color="#ffffff" offset="0.396694214876033" stop-opacity="1"/>
   <stop stop-color="#ffffff" offset="0.466942148760331" stop-opacity="1"/>
   <stop stop-color="#ffffff" offset="0.950413223140496" stop-opacity="0"/>
  </linearGradient>
  <linearGradient id="gradient6" gradientUnits="objectBoundingBox" x1="0" y1="0" x2="1" y2="1" spreadMethod="pad">
   <stop stop-color="#ffffff" offset="0.0289256198347107" stop-opacity="0"/>
   <stop stop-color="#ffffff" offset="0.396694214876033" stop-opacity="1"/>
   <stop stop-color="#ffffff" offset="0.466942148760331" stop-opacity="1"/>
   <stop stop-color="#ffffff" offset="0.950413223140496" stop-opacity="0"/>
  </linearGradient>
  <linearGradient id="gradient7" gradientUnits="objectBoundingBox" x1="0" y1="0" x2="1" y2="1" spreadMethod="pad">
   <stop stop-color="#ffffff" offset="0.0289256198347107" stop-opacity="0"/>
   <stop stop-color="#ffffff" offset="0.396694214876033" stop-opacity="1"/>
   <stop stop-color="#ffffff" offset="0.466942148760331" stop-opacity="1"/>
   <stop stop-color="#ffffff" offset="0.950413223140496" stop-opacity="0"/>
  </linearGradient>
  <linearGradient id="gradient8" gradientUnits="objectBoundingBox" x1="0" y1="0" x2="1" y2="1" spreadMethod="pad">
   <stop stop-color="#ffffff" offset="0.0289256198347107" stop-opacity="0"/>
   <stop stop-color="#ffffff" offset="0.396694214876033" stop-opacity="1"/>
   <stop stop-color="#ffffff" offset="0.466942148760331" stop-opacity="1"/>
   <stop stop-color="#ffffff" offset="0.950413223140496" stop-opacity="0"/>
  </linearGradient>
  <linearGradient id="gradient9" gradientUnits="objectBoundingBox" x1="0" y1="0" x2="1" y2="1" spreadMethod="pad">
   <stop stop-color="#ffffff" offset="0.0289256198347107" stop-opacity="0"/>
   <stop stop-color="#ffffff" offset="0.396694214876033" stop-opacity="1"/>
   <stop stop-color="#ffffff" offset="0.466942148760331" stop-opacity="1"/>
   <stop stop-color="#ffffff" offset="0.950413223140496" stop-opacity="0"/>
  </linearGradient>
  <linearGradient id="gradient10" gradientUnits="objectBoundingBox" x1="0" y1="0" x2="1" y2="1" spreadMethod="pad">
   <stop stop-color="#ffffff" offset="0.0289256198347107" stop-opacity="0"/>
   <stop stop-color="#ffffff" offset="0.396694214876033" stop-opacity="1"/>
   <stop stop-color="#ffffff" offset="0.466942148760331" stop-opacity="1"/>
   <stop stop-color="#ffffff" offset="0.950413223140496" stop-opacity="0"/>
  </linearGradient>
  <linearGradient id="gradient11" gradientUnits="objectBoundingBox" x1="0" y1="0" x2="1" y2="1" spreadMethod="pad">
   <stop stop-color="#ffffff" offset="0.0289256198347107" stop-opacity="0"/>
   <stop stop-color="#ffffff" offset="0.396694214876033" stop-opacity="1"/>
   <stop stop-color="#ffffff" offset="0.466942148760331" stop-opacity="1"/>
   <stop stop-color="#ffffff" offset="0.950413223140496" stop-opacity="0"/>
  </linearGradient>
  <linearGradient id="gradient12" gradientUnits="objectBoundingBox" x1="0" y1="0" x2="1" y2="1" spreadMethod="pad">
   <stop stop-color="#ffffff" offset="0.0289256198347107" stop-opacity="0"/>
   <stop stop-color="#ffffff" offset="0.396694214876033" stop-opacity="1"/>
   <stop stop-color="#ffffff" offset="0.466942148760331" stop-opacity="1"/>
   <stop stop-color="#ffffff" offset="0.950413223140496" stop-opacity="0"/>
  </linearGradient>
  <linearGradient id="gradient13" gradientUnits="objectBoundingBox" x1="0" y1="0" x2="1" y2="1" spreadMethod="pad">
   <stop stop-color="#ffffff" offset="0.0289256198347107" stop-opacity="0"/>
   <stop stop-color="#ffffff" offset="0.396694214876033" stop-opacity="1"/>
   <stop stop-color="#ffffff" offset="0.466942148760331" stop-opacity="1"/>
   <stop stop-color="#ffffff" offset="0.950413223140496" stop-opacity="0"/>
  </linearGradient>
  <linearGradient id="gradient14" gradientUnits="objectBoundingBox" x1="0" y1="0" x2="1" y2="1" spreadMethod="pad">
   <stop stop-color="#ffffff" offset="0.0289256198347107" stop-opacity="0"/>
   <stop stop-color="#ffffff" offset="0.396694214876033" stop-opacity="1"/>
   <stop stop-color="#ffffff" offset="0.466942148760331" stop-opacity="1"/>
   <stop stop-color="#ffffff" offset="0.950413223140496" stop-opacity="0"/>
  </linearGradient>
  <linearGradient id="gradient15" gradientUnits="objectBoundingBox" x1="0" y1="0" x2="1" y2="1" spreadMethod="pad">
   <stop stop-color="#ffffff" offset="0.0289256198347107" stop-opacity="0"/>
   <stop stop-color="#ffffff" offset="0.396694214876033" stop-opacity="1"/>
   <stop stop-color="#ffffff" offset="0.466942148760331" stop-opacity="1"/>
   <stop stop-color="#ffffff" offset="0.950413223140496" stop-opacity="0"/>
  </linearGradient>
  <linearGradient id="gradient16" gradientUnits="objectBoundingBox" x1="0" y1="0" x2="1" y2="1" spreadMethod="pad">
   <stop stop-color="#ffffff" offset="0.0289256198347107" stop-opacity="0"/>
   <stop stop-color="#ffffff" offset="0.396694214876033" stop-opacity="1"/>
   <stop stop-color="#ffffff" offset="0.466942148760331" stop-opacity="1"/>
   <stop stop-color="#ffffff" offset="0.950413223140496" stop-opacity="0"/>
  </linearGradient>
  <linearGradient id="gradient17" gradientUnits="objectBoundingBox" x1="0" y1="0" x2="1" y2="1" spreadMethod="pad">
   <stop stop-color="#ffffff" offset="0.0289256198347107" stop-opacity="0"/>
   <stop stop-color="#ffffff" offset="0.396694214876033" stop-opacity="1"/>
   <stop stop-color="#ffffff" offset="0.466942148760331" stop-opacity="1"/>
   <stop stop-color="#ffffff" offset="0.950413223140496" stop-opacity="0"/>
  </linearGradient>
  <linearGradient id="gradient18" gradientUnits="objectBoundingBox" x1="0" y1="0" x2="1" y2="1" spreadMethod="pad">
   <stop stop-color="#ffffff" offset="0.0289256198347107" stop-opacity="0"/>
   <stop stop-color="#ffffff" offset="0.396694214876033" stop-opacity="1"/>
   <stop stop-color="#ffffff" offset="0.466942148760331" stop-opacity="1"/>
   <stop stop-color="#ffffff" offset="0.950413223140496" stop-opacity="0"/>
  </linearGradient>
  <linearGradient id="gradient19" gradientUnits="objectBoundingBox" x1="0" y1="0" x2="1" y2="1" spreadMethod="pad">
   <stop stop-color="#ffffff" offset="0.0289256198347107" stop-opacity="0"/>
   <stop stop-color="#ffffff" offset="0.396694214876033" stop-opacity="1"/>
   <stop stop-color="#ffffff" offset="0.466942148760331" stop-opacity="1"/>
   <stop stop-color="#ffffff" offset="0.950413223140496" stop-opacity="0"/>
  </linearGradient>
  <linearGradient id="gradient20" gradientUnits="objectBoundingBox" x1="0" y1="0" x2="1" y2="1" spreadMethod="pad">
   <stop stop-color="#ffffff" offset="0.0289256198347107" stop-opacity="0"/>
   <stop stop-color="#ffffff" offset="0.396694214876033" stop-opacity="1"/>
   <stop stop-color="#ffffff" offset="0.466942148760331" stop-opacity="1"/>
   <stop stop-color="#ffffff" offset="0.950413223140496" stop-opacity="0"/>
  </linearGradient>
  <linearGradient id="gradient21" gradientUnits="objectBoundingBox" x1="0" y1="0" x2="1" y2="1" spreadMethod="pad">
   <stop stop-color="#ffffff" offset="0.0289256198347107" stop-opacity="0"/>
   <stop stop-color="#ffffff" offset="0.396694214876033" stop-opacity="1"/>
   <stop stop-color="#ffffff" offset="0.466942148760331" stop-opacity="1"/>
   <stop stop-color="#ffffff" offset="0.950413223140496" stop-opacity="0"/>
  </linearGradient>
  <linearGradient id="gradient22" gradientUnits="objectBoundingBox" x1="0" y1="0" x2="1" y2="1" spreadMethod="pad">
   <stop stop-color="#ffffff" offset="0.0289256198347107" stop-opacity="0"/>
   <stop stop-color="#ffffff" offset="0.396694214876033" stop-opacity="1"/>
   <stop stop-color="#ffffff" offset="0.466942148760331" stop-opacity="1"/>
   <stop stop-color="#ffffff" offset="0.950413223140496" stop-opacity="0"/>
  </linearGradient>
  <linearGradient id="gradient23" gradientUnits="objectBoundingBox" x1="0" y1="0" x2="1" y2="1" spreadMethod="pad">
   <stop stop-color="#00bfff" offset="0.0702479338842975" stop-opacity="1"/>
   <stop stop-color="#ffffff" offset="1" stop-opacity="0"/>
  </linearGradient>
  <linearGradient id="gradient24" gradientUnits="objectBoundingBox" x1="0.628968384653528" y1="-0.425627738248422" x2="0.787260693426013" y2="2.10903002219659" spreadMethod="pad">
   <stop stop-color="#00bfff" offset="0.0702479338842975" stop-opacity="1"/>
   <stop stop-color="#ffffff" offset="0.628099173553719" stop-opacity="0"/>
  </linearGradient>
 </defs>
<path id="shape0" transform="translate(0, 25.636045252616)" fill="none" stroke="url(#gradient0)" stroke-width="9" stroke-linecap="square" stroke-linejoin="bevel" d="M0 394.401L64.0901 127.194L276.08 201.144L380.597 0L580.755 157.76L866.696 71.9781L828.241 321.437L986.988 332.283L928.814 456.519L1000 474.364"/><path id="shape1" transform="translate(-0.319365287634696, -17.7480313287342)" fill="none" stroke="url(#gradient1)" stroke-width="11" stroke-linecap="square" stroke-linejoin="bevel" d="M0 220.864L24.65 68.0341L244.528 142.97L388.485 0L632.027 135.082L908.108 17.748L912.052 321.437L1036.29 328.339L982.058 478.211L1032.34 499.903"/><path id="shape2" transform="translate(47.3280835432912, 170.578301103945)" fill="none" stroke="url(#gradient2)" stroke-width="11.44" stroke-linecap="square" stroke-linejoin="bevel" d="M0 295.801L57.1881 79.4217L222.836 112.404L363.835 0L526.525 93.6702L733.585 16.762L713.865 207.06L866.696 231.71L807.535 329.422"/><path id="shape3" transform="translate(119.306210598713, 260.304459488101)" fill="none" stroke="url(#gradient3)" stroke-width="11.44" stroke-linecap="square" stroke-linejoin="bevel" d="M663.579 239.696L696.117 175.508L588.643 159.732L591.601 0L452.575 60.1461L313.549 1.972L179.452 73.9501L27.608 38.4541L0 206.074"/><path id="shape4" transform="translate(454.546802363692, 335.240591764979)" fill="none" stroke="url(#gradient4)" stroke-width="11.44" stroke-linecap="square" stroke-linejoin="bevel" d="M230.724 177.48L265.234 122.264L195.228 114.376L200.158 4.93001L111.418 31.5521L0 0"/><circle id="shape5" transform="translate(801, 168)" r="17" cx="17" cy="17" fill="none" stroke="url(#gradient5)" stroke-width="11.44" stroke-linecap="square" stroke-linejoin="bevel"/><circle id="shape6" transform="translate(608, 191)" r="18" cx="18" cy="18" fill="none" stroke="url(#gradient6)" stroke-width="11.44" stroke-linecap="square" stroke-linejoin="bevel"/><ellipse id="shape7" transform="translate(67, 106)" rx="14.5" ry="15" cx="14.5" cy="15" fill="none" stroke="url(#gradient7)" stroke-width="11.44" stroke-linecap="square" stroke-linejoin="bevel"/><circle id="shape8" transform="translate(828, 427)" r="20" cx="20" cy="20" fill="none" stroke="url(#gradient8)" stroke-width="11.44" stroke-linecap="square" stroke-linejoin="bevel"/><circle id="shape9" transform="translate(658, 14)" r="17" cx="17" cy="17" fill="none" stroke="url(#gradient9)" stroke-width="11.44" stroke-linecap="square" stroke-linejoin="bevel"/><circle id="shape10" transform="translate(1, 346)" r="26" cx="26" cy="26" fill="none" stroke="url(#gradient10)" stroke-width="11.44" stroke-linecap="square" stroke-linejoin="bevel"/><circle id="shape11" transform="translate(612, 324)" r="26.5" cx="26.5" cy="26.5" fill="none" stroke="url(#gradient11)" stroke-width="11.44" stroke-linecap="square" stroke-linejoin="bevel"/><ellipse id="shape12" transform="translate(917, 188)" rx="30.5" ry="31" cx="30.5" cy="31" fill="none" stroke="url(#gradient12)" stroke-width="11.44" stroke-linecap="square" stroke-linejoin="bevel"/><circle id="shape13" transform="translate(200, 37)" r="28.5" cx="28.5" cy="28.5" fill="none" stroke="url(#gradient13)" stroke-width="11.44" stroke-linecap="square" stroke-linejoin="bevel"/><path id="shape14" transform="translate(632.580058232877, 47.5113777642719)" fill="none" stroke="url(#gradient14)" stroke-width="11.44" stroke-linecap="square" stroke-linejoin="bevel" d="M40.0453 0L0 146.607"/><path id="shape15" transform="translate(646.154737594098, 192.081712961271)" fill="none" stroke="url(#gradient15)" stroke-width="11.44" stroke-linecap="square" stroke-linejoin="bevel" d="M0 16.2896L156.788 0"/><path id="shape16" transform="translate(690.951179486125, 44.1177079239667)" fill="none" stroke="url(#gradient16)" stroke-width="11.44" stroke-linecap="square" stroke-linejoin="bevel" d="M109.955 146.607L0 0"/><path id="shape17" transform="translate(94.3440215604827, 80.7693421992622)" fill="none" stroke="url(#gradient17)" stroke-width="11.44" stroke-linecap="square" stroke-linejoin="bevel" d="M0 34.6154L110.634 0"/><path id="shape18" transform="translate(53.6199834768211, 94.3440215604827)" fill="none" stroke="url(#gradient18)" stroke-width="11.44" stroke-linecap="square" stroke-linejoin="bevel" d="M181.222 0L0 266.742"/><path id="shape19" transform="translate(29.1855606266242, 138.46172948445)" fill="none" stroke="url(#gradient19)" stroke-width="11.44" stroke-linecap="square" stroke-linejoin="bevel" d="M0 205.656L49.5476 0"/><path id="shape20" transform="translate(665.404235524157, 234.693435779326)" fill="none" stroke="url(#gradient20)" stroke-width="11.44" stroke-linecap="square" stroke-linejoin="bevel" d="M0 104.601L254.031 0"/><path id="shape21" transform="translate(862.300601121794, 250)" fill="none" stroke="url(#gradient21)" stroke-width="11.44" stroke-linecap="square" stroke-linejoin="bevel" d="M79.1101 0L0 175.437"/><path id="shape22" transform="translate(663.646232259892, 366.543680599172)" fill="none" stroke="url(#gradient22)" stroke-width="11.44" stroke-linecap="square" stroke-linejoin="bevel" d="M161.736 73.8361L0 0"/><path id="shape0" transform="translate(271.727032653392, 294.784863049328)" fill="#122021" fill-rule="evenodd" stroke="#000000" stroke-opacity="0" stroke-width="0" stroke-linecap="square" stroke-linejoin="bevel" d="M187.474 27.6788C187.052 12.1371 180.494 12.8746 178.593 12.558C175.743 12.083 180.018 24.4332 173.843 28.7083C167.668 32.9834 149.143 42.9586 139.643 43.9086C130.143 44.8586 127.292 44.8586 122.067 44.8586C116.842 44.8586 62.2163 28.7083 48.441 13.033C39.2575 2.58273 45.9994 2.57376 39.2262 0L0 14.9256C17.4699 31.6536 36.6775 46.0042 57.6227 57.9774C90.221 71.8056 128.912 87.5336 133.369 85.1281C149.303 77.1915 162.901 71.0395 184.129 45.189C187.847 37.439 187.895 28.6615 187.474 27.6788Z"/><path id="shape01" transform="translate(285.548597857396, 106.238345289488)" fill="#faca9a" fill-rule="evenodd" stroke="#000000" stroke-opacity="0" stroke-width="0" stroke-linecap="square" stroke-linejoin="bevel" d="M26.8694 195.579L35.5053 177.291C36.5213 149.182 36.352 133.264 34.9973 129.539C33.6427 125.814 32.288 122.258 30.9334 118.871C27.2081 124.629 23.8214 126.661 20.7734 124.967C17.7255 123.274 12.9842 117.009 6.54953 106.171C3.16288 91.6087 1.80823 82.6341 2.48556 79.2475C3.50155 74.1675 2.99355 54.3557 0.453567 47.2437C-1.23975 42.5024 1.80823 31.4958 9.59751 14.2239C7.56552 29.4638 8.41218 39.6237 12.1375 44.7037C15.8628 49.7837 21.2814 56.3876 28.3934 64.5156L34.4894 88.8994L52.2692 0L157.425 26.4158L200.604 20.3199L203.652 68.0716C205.992 67.2276 207.917 65.1708 209.426 61.9012C211.689 56.9967 214.451 55.6762 214.451 50.0172C214.451 44.3582 218.103 42.6605 217.348 46.8105C216.594 50.9604 218.736 60.5807 216.594 62.6557C214.451 64.7307 207.917 75.86 205.464 76.4259C203.83 76.8032 202.195 85.2288 200.56 101.703C196.913 116.794 194.398 126.477 193.015 130.752C191.631 135.028 185.344 149.364 174.151 173.761C171.259 182.438 169.058 187.657 167.549 189.417C165.286 192.058 163.776 191.304 163.588 195.265C163.462 197.906 163.633 203.334 164.101 211.55C162.412 216.687 163.745 215.343 156.943 219.39C152.868 222.756 141.928 227.889 135.807 229.276C126.972 234.778 118.473 239.185 109.639 244.687L24.7536 202.622C24.7536 202.622 25.4588 200.274 26.8694 195.579Z"/><path id="shape1" transform="translate(444.251631040039, 157.567080960014)" fill="#000000" fill-rule="evenodd" stroke="#000000" stroke-opacity="0" stroke-width="0" stroke-linecap="square" stroke-linejoin="bevel" d="M0 15.5379C8.60783 17.2886 16.2673 16.1944 22.9785 12.2552C29.6897 8.31604 33.4101 4.23097 34.1395 0"/><path id="shape2" transform="translate(359.997011360031, 149.469883744013)" fill="#000000" fill-rule="evenodd" stroke="#000000" stroke-opacity="0" stroke-width="0" stroke-linecap="square" stroke-linejoin="bevel" d="M35.2338 19.2582C19.3311 15.7567 10.1397 12.547 7.65951 9.6291C3.93918 5.25224 0.875373 2.62612 0 0"/><path id="shape4" transform="translate(322.376579302682, 250)" fill="none" stroke="#9e6609" stroke-width="1" stroke-linecap="square" stroke-linejoin="bevel" d="M0 0C15.6304 35.2257 28.4929 56.5834 38.5875 64.0729C53.7294 75.3073 95.2476 79.7033 101.597 76.7726C105.831 74.8188 114.297 66.0267 126.997 50.3964"/><path id="shape23" transform="translate(390.037830699028, 172.634225993601)" fill="none" stroke="#c28933" stroke-width="0.56" stroke-linecap="square" stroke-linejoin="bevel" d="M46.8045 2.44383C44.7001 2.88017 42.6935 5.75633 40.7846 11.0723C41.5286 29.3741 42.0075 39.1663 42.2213 40.449C42.8626 44.297 43.6643 51.3517 44.6263 54.5584C45.5883 57.765 47.1917 61.7734 47.0313 64.1784C46.9244 65.7817 46.4434 66.8506 45.5883 67.385C44.8401 64.8197 43.9315 63.9646 42.8626 64.8197C41.2593 66.1024 40.137 70.1107 38.213 70.752C36.289 71.3934 27.15 72.9967 25.226 72.5157C23.302 72.0347 20.7366 64.1784 17.8506 63.8577C14.9646 63.537 10.6356 61.4527 9.19261 63.056C7.74961 64.6594 8.23061 66.1024 6.46694 66.1024C4.70327 66.1024 -0.587734 64.98 0.0535999 63.3767C0.694934 61.7734 2.29827 54.398 4.70327 52.955C7.10827 51.512 12.8803 49.107 14.3233 40.7697C15.7663 32.4323 18.492 20.5677 18.6523 17.2007C18.8126 13.8336 19.7746 7.58064 19.1333 5.4963C18.7057 4.10675 16.6936 2.27465 13.0968 0"/><path id="shape24" transform="translate(366.846411333571, 212.051102918085)" fill="none" stroke="#c28933" stroke-width="0.56" stroke-linecap="square" stroke-linejoin="bevel" d="M1.34778 65.6919C0.149754 64.8932 -0.249589 62.4972 0.149754 58.5037C0.748768 52.5136 7.13826 34.1438 8.33628 31.1487C9.53431 28.1537 18.3199 16.5727 20.3166 11.1816C21.6477 7.58752 22.0471 3.86032 21.5146 0"/><path id="shape25" transform="translate(440.87460945681, 231.219564198816)" fill="none" stroke="#c28933" stroke-width="0.56" stroke-linecap="square" stroke-linejoin="bevel" d="M0 0C4.52589 11.9803 6.9885 19.1685 7.38784 21.5645C7.78719 23.9606 8.25309 27.355 8.78554 31.7478"/><path id="shape26" transform="translate(410.324874290645, 154.745390547567)" fill="none" stroke="#c28933" stroke-width="0.56" stroke-linecap="square" stroke-linejoin="bevel" d="M6.78883 14.9754C8.51932 10.5826 8.51932 7.4544 6.78883 5.5908C5.05834 3.7272 2.7954 1.8636 0 0"/><path id="shape27" transform="translate(439.47690915509, 155.743747905938)" fill="none" stroke="#c28933" stroke-width="0.56" stroke-linecap="square" stroke-linejoin="bevel" d="M0 9.18489C3.59409 7.85374 6.58916 6.12326 8.98522 3.99343C11.3813 1.8636 12.9121 0.532457 13.5777 0"/><path id="shape28" transform="translate(340.639530676322, 160.93520616947)" fill="none" stroke="#c28933" stroke-width="0.56" stroke-linecap="square" stroke-linejoin="bevel" d="M0 9.98357C5.05834 4.659 8.11997 1.33114 9.18489 0"/><path id="shape29" transform="translate(374.983023804298, 277.543345627249)" fill="none" stroke="#c28933" stroke-width="0.56" stroke-linecap="square" stroke-linejoin="bevel" d="M0 0C0.133114 2.92851 1.19803 5.45769 3.19474 7.58752C5.19146 9.71734 7.85374 11.3147 11.1816 12.3796"/><path id="shape30" transform="translate(440.475266513462, 281.223005605247)" fill="none" stroke="#c28933" stroke-width="0.56" stroke-linecap="square" stroke-linejoin="bevel" d="M0 2.31048C1.99671 2.4436 3.39442 1.9777 4.1931 0.912784C4.99179 -0.152131 5.32457 -0.285245 5.19146 0.513441"/><path id="shape02" transform="translate(293.615024789922, 19.9886230421829)" fill="#122021" fill-rule="evenodd" stroke="#000000" stroke-opacity="0" stroke-width="0" stroke-linecap="square" stroke-linejoin="bevel" d="M190 116.748C159.284 126.44 137.79 129.223 125.518 125.096C107.11 118.905 105.943 114.541 94.1406 113.581C70.798 106.519 55.5411 103.737 48.3699 105.233C44.7989 128.517 35.1446 139.779 34.5523 143.807C30.6043 167.573 28.5245 180.472 28.313 182.505C27.8899 186.572 27.4385 187.805 26.9589 186.205C24.7656 177.225 23.3642 171.531 22.7547 169.124C21.5359 164.311 20.9264 161.028 20.9264 159.277C20.9264 155.773 20.4722 152.659 19.5639 149.934C6.71457 137.611 0.197644 128.129 0.0131338 121.487C-0.171376 114.844 1.58817 103.204 5.29177 86.5661C6.58334 77.3406 8.24394 70.1447 10.2736 64.9784C13.318 57.229 33.2451 22.0797 40.441 18.4818C47.6369 14.8838 70.0549 1.59909 80.2952 0.492028C87.1221 -0.246014 104.835 -0.153759 133.434 0.768793C152.992 14.0535 164.155 21.8952 166.923 24.2939C171.074 27.8918 180.484 34.811 186.85 46.4351C193.216 58.0593 202.948 76.8793 206.385 89.8873C209.822 102.895 208.322 138.376 206.385 141.698C204.448 145.019 198.167 152.682 196.26 155.204C194.353 157.726 198.751 171.81 197.367 175.685C196.675 177.622 195.695 181.994 194.818 185.018C193.941 188.041 189.286 121.404 192.253 116.111"/><path id="shape03" transform="translate(379.325784300427, 269.139743394192)" fill="#e9817d" fill-rule="evenodd" stroke="#000000" stroke-opacity="0" stroke-width="0" stroke-linecap="square" stroke-linejoin="bevel" d="M0 5.06535C16.1381 2.28511 25.0948 0.624853 26.87 0.0845693C29.5328 -0.725856 33.8753 4.5524 35.1488 4.66817C36.4223 4.78395 41.0533 0.500272 42.6742 0.500272C44.295 0.500272 47.7683 3.51042 52.515 4.78395C57.2618 6.05747 63.138 8.21111 63.8326 8.21111C64.5273 8.21111 55.641 7.7941 54.3674 7.7941C53.0939 7.7941 52.7934 9.23325 0 5.06535Z"/><path id="shape11" transform="translate(380.485449853107, 274.195992201834)" fill="#da7879" fill-rule="evenodd" stroke="#000000" stroke-opacity="0" stroke-width="0" stroke-linecap="square" stroke-linejoin="bevel" d="M0 0C8.81467 6.5896 14.5485 10.3551 17.2014 11.2965C21.1809 12.7085 35.1731 16.1745 39.666 15.1475C44.1589 14.1206 58.5362 7.57377 59.8199 5.64823C61.1036 3.7227 62.644 2.69575 60.5901 2.69575C58.5362 2.69575 58.5362 2.69575 0 0Z"/><ellipse id="shape04" transform="matrix(0.999999966795579 0 0 0.999999966795579 363.367888426588 167.891581091393)" rx="16.5127933126849" ry="15.762211798472" cx="16.5127933126849" cy="15.762211798472" fill="#000000" fill-rule="evenodd" stroke="#000000" stroke-opacity="0" stroke-width="0" stroke-linecap="square" stroke-linejoin="bevel"/><circle id="shape05" transform="translate(377.319670743512, 170.89688617642)" r="3.6997299662124" cx="3.6997299662124" cy="3.6997299662124" fill="#ffffff" fill-rule="evenodd" stroke="#000000" stroke-opacity="0" stroke-width="0" stroke-linecap="square" stroke-linejoin="bevel"/><circle id="shape12" transform="translate(366.008032867756, 176.147680459013)" r="5.51863162600907" cx="5.51863162600907" cy="5.51863162600907" fill="#ffffff" fill-rule="evenodd" stroke="#000000" stroke-opacity="0" stroke-width="0" stroke-linecap="square" stroke-linejoin="bevel"/><path id="shape06" transform="translate(124.513143416181, 311.98764991828)" fill="url(#gradient23)" fill-rule="evenodd" stroke="#000000" stroke-opacity="0" stroke-width="0" stroke-linecap="square" stroke-linejoin="bevel" d="M492.414 188.012C479.258 118.428 471.114 82.2257 467.981 79.4065C463.283 75.1777 428.983 47.456 411.598 40.8779C394.213 34.2998 375.017 30.0711 375.017 26.7821C375.017 24.5894 370.922 23.3364 362.733 23.0232L333.601 9.86708C336.42 21.457 330.312 33.0469 315.277 44.6368C292.723 62.0216 283.326 68.1298 277.218 67.66C271.11 67.1901 223.184 46.0464 210.498 42.2875C202.04 39.7816 187.005 29.1314 165.391 10.3369L154.584 0L76.5873 21.6136L30.0711 116.995L0 198.281"/><path id="shape07" transform="translate(100.527532950309, 145.295323467133)" fill="#f5be86" fill-rule="evenodd" stroke="#000000" stroke-opacity="0" stroke-width="0" stroke-linecap="square" stroke-linejoin="bevel" d="M0.928844 253.626L15.6843 226.773L20.1288 210.97C15.1905 184.304 14.5321 166.361 18.1535 157.143C21.7749 147.925 25.2317 137.225 28.5239 125.044L31.9807 67.2659C33.956 53.4387 35.9313 45.0436 37.9067 42.0806C40.8696 37.6361 49.2647 36.6485 50.7462 40.1053C51.7339 42.4098 52.5569 44.8789 53.2154 47.5127C53.3474 25.7466 54.3084 13.8504 56.0954 11.8242C58.7774 8.78487 63.7834 6.99704 67.3594 7.35461C70.9344 7.71217 76.2984 10.9303 76.2984 13.612C76.2984 16.2938 70.7564 103.54 73.0804 100.858C75.4044 98.1765 77.5494 98.1765 79.8744 88.701C81.4234 82.384 85.1184 66.8894 90.9584 42.2173C92.6274 37.569 93.9384 33.5166 94.8914 30.0601C96.3224 24.8754 98.6464 10.5727 99.8974 7.71217C101.149 4.85164 105.797 1.09719 109.194 0.203278C112.591 -0.690638 116.882 1.45476 118.67 4.85164C120.457 8.24852 121.172 11.8242 120.994 14.1484C120.815 16.4726 111.21 70.0485 108.645 75.4113C106.08 80.774 93.7224 108.478 96.5204 108.478C98.3864 108.478 103.282 95.2019 111.21 68.6495C115.717 31.8098 119.215 13.4676 121.702 13.6231C125.433 13.8562 133.127 13.8562 134.06 19.9185C134.681 23.96 131.495 57.4577 124.5 120.412C122.946 151.656 124.5 169.22 129.163 173.107C133.826 176.993 137.013 180.335 138.723 183.133L162.972 167.744C174.785 155.464 183.257 148.547 188.387 146.992C196.081 144.661 207.273 147.925 208.439 151.889C209.216 154.531 209.76 156.941 210.071 159.117C196.858 170.93 188.931 178.936 186.288 183.133C182.324 189.428 150.148 209.713 147.117 217.641C144.086 225.568 106.78 241.89 101.883 241.656C98.6194 241.501 95.7434 242.434 93.2564 244.454L61.8627 288.146L45.0534 294.149L31.5459 292.348L12.6353 290.547L0.32851 279.141C1.82934 280.341 -1.52328 274.219 0.928844 253.626Z"/><path id="shape31" transform="translate(168.595190493098, 289.899141691666)" fill="none" stroke="#c28933" stroke-width="1.14" stroke-linecap="square" stroke-linejoin="bevel" d="M0 15.187C2.56321 9.93244 5.5109 7.04883 8.84308 6.53619C13.8413 5.76722 20.3775 5.38274 25.1835 3.84482C29.9896 2.30689 38.2559 0 43.8309 0C47.5476 0 51.3283 0.448562 55.1731 1.34569"/><path id="shape32" transform="translate(122.841877679691, 282.539064960578)" fill="none" stroke="#c28933" stroke-width="1.14" stroke-linecap="square" stroke-linejoin="bevel" d="M0 13.5118C7.56147 11.5894 11.9189 10.3078 13.0724 9.66697C14.8025 8.70576 14.0336 9.28248 18.6474 9.47473C23.2611 9.66697 24.6068 10.8204 29.2206 10.0514C33.8344 9.28248 50.3671 7.55232 50.9438 3.32302C51.3283 0.503488 51.3283 -0.521796 50.9438 0.247167"/><path id="shape33" transform="translate(189.164957178116, 298.946236991158)" fill="none" stroke="#c28933" stroke-width="1.14" stroke-linecap="square" stroke-linejoin="bevel" d="M0 17.2899C4.35746 8.06234 8.52268 2.93592 12.4957 1.91063C18.4551 0.372704 23.4534 -0.972981 27.8749 0.949427C30.8226 2.23103 33.4499 3.89712 35.7568 5.94769"/><path id="shape34" transform="translate(153.016787210515, 193.396909702289)" fill="none" stroke="#c28933" stroke-width="1.14" stroke-linecap="square" stroke-linejoin="bevel" d="M0 64.7301C2.15213 54.0556 3.09907 47.5561 2.84082 45.2318C2.45343 41.7453 1.16215 21.9887 1.42041 19.4062C1.67867 16.8236 2.58256 13.5954 2.96995 10.6255C3.35733 7.65553 2.31843 3.35733 1.15627 0"/><path id="shape35" transform="translate(132.033106124743, 240.159885725238)" fill="none" stroke="#c28933" stroke-width="1.14" stroke-linecap="square" stroke-linejoin="bevel" d="M0 5.04445C3.94783 1.68148 7.2377 0 9.86958 0C12.5015 0 15.7913 0.877296 19.7392 2.63189"/><path id="shape36" transform="translate(133.349050704059, 211.209104980278)" fill="none" stroke="#c28933" stroke-width="1.14" stroke-linecap="square" stroke-linejoin="bevel" d="M0 0.657972C1.90081 2.12013 4.60581 2.85121 8.11499 2.85121C11.6242 2.85121 15.2065 1.90081 18.8619 0"/><path id="shape37" transform="translate(157.036053131754, 183.793592911187)" fill="none" stroke="#c28933" stroke-width="1.14" stroke-linecap="square" stroke-linejoin="bevel" d="M0 0C1.02351 0.877296 3.14365 1.31594 6.3604 1.31594C9.57715 1.31594 12.9401 1.02351 16.4493 0.438648"/><path id="shape38" transform="translate(157.474701324859, 220.859365228598)" fill="none" stroke="#c28933" stroke-width="1.14" stroke-linecap="square" stroke-linejoin="bevel" d="M0 0.657972C4.24027 2.55878 7.67634 2.99743 10.3082 1.97392C12.9401 0.950404 14.4023 0.292432 14.6947 0"/><path id="shape39" transform="translate(200.681548345747, 175.459277242183)" fill="none" stroke="#c28933" stroke-width="1.14" stroke-linecap="square" stroke-linejoin="bevel" d="M0 0C0.877296 0.877296 3.43608 1.53527 7.67634 1.97392C11.9166 2.41257 14.183 2.63189 14.4754 2.63189"/><path id="shape40" transform="translate(189.71534351811, 212.744373656147)" fill="none" stroke="#c28933" stroke-width="1.14" stroke-linecap="square" stroke-linejoin="bevel" d="M0 0C3.50919 3.80162 6.57972 5.70243 9.21161 5.70243C11.8435 5.70243 14.7678 5.70243 17.9846 5.70243"/><path id="shape41" transform="translate(191.908584483638, 204.410057987143)" fill="none" stroke="#c28933" stroke-width="1.14" stroke-linecap="square" stroke-linejoin="bevel" d="M0 0C7.01837 0.219324 9.43094 1.53527 13.1594 3.50919C15.6451 4.82513 17.0342 6.06797 17.3266 7.2377"/><path id="shape42" transform="translate(215.376262814779, 224.149226676889)" fill="none" stroke="#c28933" stroke-width="1.14" stroke-linecap="square" stroke-linejoin="bevel" d="M0 0C3.80162 0.146216 5.70243 0.219324 5.70243 0.219324L12.7208 2.41257"/><path id="shape43" transform="translate(217.350179683754, 215.814911007885)" fill="none" stroke="#c28933" stroke-width="1.14" stroke-linecap="square" stroke-linejoin="bevel" d="M0 0C2.92432 1.46216 5.55621 2.19324 7.89567 2.19324C10.2351 2.19324 11.2586 2.19324 10.9662 2.19324"/><path id="shape44" transform="translate(153.336176621641, 351.970306948148)" fill="none" stroke="#c28933" stroke-width="1.14" stroke-linecap="square" stroke-linejoin="bevel" d="M0 9.89266C5.38022 7.11577 8.41744 3.81822 9.11166 0"/><path id="shape45" transform="translate(127.042536827438, 355.09430375538)" fill="none" stroke="#c28933" stroke-width="1.14" stroke-linecap="square" stroke-linejoin="bevel" d="M0 0C3.81822 0.867777 9.11166 1.21489 15.8803 1.04133C22.649 0.867777 25.773 0.607444 25.2523 0.260333"/><path id="shape46" transform="translate(269.772906581179, 309.639943140226)" fill="none" stroke="#c28933" stroke-width="1.14" stroke-linecap="square" stroke-linejoin="bevel" d="M0 0C1.43021 5.00573 3.63511 8.34288 6.61471 10.0115C9.59431 11.68 12.8719 12.8719 16.4474 13.587"/><path id="shape47" transform="translate(241.347530738629, 328.947745599317)" fill="none" stroke="#c28933" stroke-width="1.14" stroke-linecap="square" stroke-linejoin="bevel" d="M0 0C2.38368 3.09878 3.93307 6.85308 4.64817 11.2629C5.36328 15.6727 6.01879 20.738 6.61471 26.4588"/><path id="shape48" transform="translate(156.321943885071, 214.525557638667)" fill="none" stroke="#c28933" stroke-width="1.33" stroke-linecap="square" stroke-linejoin="bevel" d="M0 2.88772C4.9626 0.320858 8.89846 -0.534763 11.8076 0.320858C14.7167 1.17648 16.1712 1.60429 16.1712 1.60429"/><path id="shape49" transform="translate(131.680061105159, 246.16214152017)" fill="none" stroke="#c28933" stroke-width="1.33" stroke-linecap="square" stroke-linejoin="bevel" d="M0 3.83786C7.01609 3.83786 13.7755 2.55857 20.2782 0"/><path id="shape08" transform="matrix(1.00000004095514 0 0 1.00000004095514 20.6417310020756 396.665266027242)" fill="url(#gradient24)" fill-rule="evenodd" stroke="#000000" stroke-opacity="0" stroke-width="0" stroke-linecap="square" stroke-linejoin="bevel" d="M12.256 85.1901L78.6966 0.68806C81.2768 -1.03209 82.1369 0.473042 81.2768 5.20344C79.9867 12.299 76.1164 30.3605 89.6625 36.166C103.209 41.9715 133.526 45.1968 141.267 38.1012C146.427 33.3708 150.083 27.7803 152.233 21.3298L120.625 103.335L0 117.443C0 117.443 4.08534 106.692 12.256 85.1901Z"/><ellipse id="shape09" transform="matrix(0.999999964959162 0 0 0.999999964959162 441.250605709855 175.228457992423)" rx="16.5127933126849" ry="15.762211798472" cx="16.5127933126849" cy="15.762211798472" fill="#000000" fill-rule="evenodd" stroke="#000000" stroke-opacity="0" stroke-width="0" stroke-linecap="square" stroke-linejoin="bevel"/><circle id="shape13" transform="matrix(0.99999996438692 0 0 0.99999996438692 444.766017851745 182.785709504528)" r="5.51863162600907" cx="5.51863162600907" cy="5.51863162600907" fill="#ffffff" fill-rule="evenodd" stroke="#000000" stroke-opacity="0" stroke-width="0" stroke-linecap="square" stroke-linejoin="bevel"/><circle id="shape010" transform="matrix(0.999999970560061 0 0 0.999999970560061 455.10547865744 177.30115401972)" r="3.6997299662124" cx="3.6997299662124" cy="3.6997299662124" fill="#ffffff" fill-rule="evenodd" stroke="#000000" stroke-opacity="0" stroke-width="0" stroke-linecap="square" stroke-linejoin="bevel"/>
</svg>
