<?xml version="1.0" standalone="no"?>
<!DOCTYPE svg PUBLIC "-//W3C//DTD SVG 20010904//EN" "http://www.w3.org/TR/2001/REC-SVG-20010904/DTD/svg10.dtd">
<!-- Created using Krita: https://krita.org -->
<svg xmlns="http://www.w3.org/2000/svg" 
    xmlns:xlink="http://www.w3.org/1999/xlink"
    xmlns:krita="http://krita.org/namespaces/svg/krita"
    xmlns:sodipodi="http://sodipodi.sourceforge.net/DTD/sodipodi-0.dtd"
    width="1000pt"
    height="700pt"
    viewBox="0 0 1000 700">
<defs/>
<path id="shape0" transform="translate(314.228883558812, 490.521488281731)" fill="#122021" fill-rule="evenodd" d="M187.144 30.3636C183.344 20.5467 180.494 15.4799 178.593 15.1633C175.743 14.6883 180.018 27.0385 173.843 31.3136C167.668 35.5887 149.143 45.5639 139.643 46.5139C130.143 47.4639 127.292 47.4639 122.067 47.4639C116.842 47.4639 62.2163 31.3136 48.441 15.6383C39.2575 5.18808 34.3107 -0.0246476 33.6007 8.76139e-05L0 17.5309L84.0667 79.2895L166.243 94.4898C177.143 67.1902 187.307 52.2505 196.734 49.6706C210.876 45.8008 180.177 51.739 187.144 30.3636Z"/><path id="shape1" transform="translate(328.050446791561, 304.342352955085)" fill="#faca9a" fill-rule="evenodd" d="M26.8694 195.579L35.5053 177.291C36.5213 149.182 36.352 133.264 34.9973 129.539C33.6427 125.814 32.288 122.258 30.9334 118.871C27.2081 124.629 23.8214 126.661 20.7734 124.967C17.7255 123.274 12.9842 117.009 6.54953 106.171C3.16288 91.6087 1.80823 82.6341 2.48556 79.2475C3.50155 74.1675 2.99355 54.3557 0.453569 47.2437C-1.23975 42.5024 1.80823 31.4958 9.59751 14.2239C7.56552 29.4638 8.41218 39.6237 12.1375 44.7037C15.8628 49.7837 21.2814 56.3876 28.3934 64.5156L34.4894 88.8994L52.2692 0L157.425 26.4158L200.604 20.3199L203.652 68.0716C205.992 67.2276 207.917 65.1708 209.426 61.9012C211.689 56.9967 214.451 55.6762 214.451 50.0172C214.451 44.3582 218.103 42.6605 217.348 46.8105C216.594 50.9604 218.736 60.5807 216.594 62.6557C214.451 64.7307 207.917 75.86 205.464 76.4259C203.83 76.8032 202.195 85.2288 200.56 101.703C196.913 116.794 194.398 126.477 193.015 130.752C191.631 135.028 185.344 149.364 174.151 173.761C171.259 182.438 169.058 187.657 167.549 189.417C165.286 192.058 163.776 191.304 163.588 195.265C163.462 197.906 163.633 203.334 164.101 211.55C162.412 216.687 163.745 215.343 156.943 219.39C152.868 222.756 141.928 227.889 135.807 229.276C126.972 234.778 118.473 239.185 109.639 244.687L24.7536 202.622C24.7536 202.622 25.4588 200.274 26.8694 195.579Z"/><path id="shape2" transform="translate(486.753481945458, 355.909051851972)" fill="#000000" fill-rule="evenodd" d="M0 15.5379C8.60783 17.2886 16.2673 16.1944 22.9785 12.2552C29.6897 8.31604 33.4101 4.23097 34.1395 0"/><path id="shape3" transform="translate(402.498862265451, 347.811854635971)" fill="#000000" fill-rule="evenodd" stroke="#000000" stroke-opacity="0" stroke-width="0" stroke-linecap="square" stroke-linejoin="bevel" d="M35.2338 19.2582C19.3311 15.7567 10.1397 12.547 7.65951 9.6291C3.93918 5.25224 0.875373 2.62612 0 0"/><path id="shape4" transform="translate(435.848373038655, 373.712458734385)" fill="#f9be6c" fill-rule="evenodd" stroke="#000000" stroke-opacity="0" stroke-width="0" stroke-linecap="square" stroke-linejoin="bevel" d="M13.4431 10.1087C19.7883 30.6457 12.3098 53.6565 10.6071 56.8491C8.05298 61.638 -0.886299 64.5114 0.0714807 68.3425C0.71 70.8966 2.19988 72.5993 4.54112 73.4506L7.0952 70.5773C9.86212 69.3003 11.9905 69.4067 13.4804 70.8966C15.7152 73.1314 20.7654 79.3257 23.7551 79.7978C26.7448 80.2698 34.6125 78.8537 36.0287 77.1228C37.4449 75.3919 38.5464 71.6154 40.7494 71.9301C42.9523 72.2448 40.592 75.0772 42.3229 75.0772C44.0538 75.0772 45.7847 74.133 45.47 71.6154C45.2602 69.9369 43.3195 66.58 39.6479 61.5447C32.9719 30.51 30.9817 13.6457 33.6772 10.9518C62.5915 1.85244 -9.34236 -7.89903 13.4431 10.1087Z"/><path id="shape5" transform="translate(364.878430208102, 448.341970891958)" fill="none" stroke="#9e6609" stroke-width="1" stroke-linecap="square" stroke-linejoin="bevel" d="M0 0C15.6304 35.2257 28.4929 56.5834 38.5875 64.0729C53.7294 75.3073 95.2476 79.7033 101.597 76.7726C105.831 74.8188 114.297 66.0267 126.997 50.3964"/><path id="shape6" transform="translate(336.116875639792, 218.330594082289)" fill="#122021" fill-rule="evenodd" d="M190 116.748C159.284 126.44 137.79 129.223 125.518 125.096C107.11 118.905 105.943 114.541 94.1406 113.581C70.798 106.519 55.5411 103.737 48.3699 105.233C44.7989 128.517 35.1446 139.779 34.5523 143.807C30.6043 167.573 28.5245 180.472 28.313 182.505C27.8899 186.572 27.4385 187.805 26.9589 186.205C24.7656 177.225 23.3642 171.531 22.7547 169.124C21.5359 164.311 20.9264 161.028 20.9264 159.277C20.9264 155.773 20.4722 152.659 19.5639 149.934C6.71457 137.611 0.197644 128.129 0.0131339 121.487C-0.171376 114.844 1.58817 103.204 5.29177 86.5661C6.58334 77.3406 8.24394 70.1447 10.2736 64.9784C13.318 57.229 33.2451 22.0797 40.441 18.4818C47.6369 14.8838 70.0549 1.59909 80.2952 0.492028C87.1221 -0.246014 104.835 -0.153759 133.434 0.768793C152.992 14.0535 164.155 21.8952 166.923 24.2939C171.074 27.8918 180.484 34.811 186.85 46.4351C193.216 58.0593 202.948 76.8793 206.385 89.8873C209.822 102.895 208.322 138.376 206.385 141.698C204.448 145.019 198.167 152.682 196.26 155.204C194.353 157.726 198.751 171.81 197.367 175.685C196.675 177.622 195.695 181.994 194.818 185.018C193.941 188.041 189.286 121.404 192.253 116.111"/><path id="shape7" transform="translate(421.827635205846, 467.481714286154)" fill="#e9817d" fill-rule="evenodd" stroke="#000000" stroke-opacity="0" stroke-width="0" stroke-linecap="square" stroke-linejoin="bevel" d="M0 5.06535C16.1381 2.28511 25.0948 0.624853 26.87 0.0845693C29.5328 -0.725856 33.8753 4.5524 35.1488 4.66817C36.4223 4.78395 41.0533 0.500272 42.6742 0.500272C44.295 0.500272 47.7683 3.51042 52.515 4.78395C57.2618 6.05747 63.138 8.21111 63.8326 8.21111C64.5273 8.21111 55.641 7.7941 54.3674 7.7941C53.0939 7.7941 52.7934 9.23325 0 5.06535Z"/><path id="shape8" transform="translate(422.987300758526, 472.537963093792)" fill="#da7879" fill-rule="evenodd" d="M0 0C8.81467 6.5896 14.5485 10.3551 17.2014 11.2965C21.1809 12.7085 35.1731 16.1745 39.666 15.1475C44.1589 14.1206 58.5362 7.57377 59.8199 5.64823C61.1036 3.7227 62.644 2.69575 60.5901 2.69575C58.5362 2.69575 58.5362 2.69575 0 0Z"/><ellipse id="shape0" transform="matrix(0.999999966795579 0 0 0.999999966795579 409.501845177657 368.610364295935)" rx="11" ry="10.5" cx="11" cy="10.5" fill="#000000" fill-rule="evenodd" stroke="#000000" stroke-opacity="0" stroke-width="0" stroke-linecap="square" stroke-linejoin="bevel"/><ellipse id="shape01" transform="matrix(0.999999929511768 0 0 0.999999929511768 487.281144036053 373.786487135381)" rx="11" ry="10.5" cx="11" cy="10.5" fill="#000000" fill-rule="evenodd" stroke="#000000" stroke-opacity="0" stroke-width="0" stroke-linecap="square" stroke-linejoin="bevel"/><circle id="shape9" transform="translate(416.307936324916, 370.174323115796)" r="2.5" cx="2.5" cy="2.5" fill="#ffffff" fill-rule="evenodd"/><circle id="shape10" transform="translate(411.50185090542, 374.676649296736)" r="3" cx="3" cy="3" fill="#ffffff" fill-rule="evenodd"/><circle id="shape02" transform="matrix(0.999999963178397 0 0 0.999999963178397 489.370102094192 379.466139009695)" r="3" cx="3" cy="3" fill="#ffffff" fill-rule="evenodd" stroke="#000000" stroke-opacity="0" stroke-width="0" stroke-linecap="square" stroke-linejoin="bevel"/><circle id="shape03" transform="matrix(0.999999995858092 0 0 0.999999995858092 494.873567706681 375.063818687984)" r="2.5" cx="2.5" cy="2.5" fill="#ffffff" fill-rule="evenodd" stroke="#000000" stroke-opacity="0" stroke-width="0" stroke-linecap="square" stroke-linejoin="bevel"/><path id="shape11" transform="translate(167.014994321601, 510.329620810238)" fill="#00a9cb" fill-rule="evenodd" stroke="#00aacc" stroke-width="2.3" stroke-linecap="square" stroke-linejoin="bevel" d="M492.414 188.012C479.258 118.428 471.114 82.2257 467.981 79.4065C463.283 75.1777 428.983 47.456 411.598 40.8779C394.213 34.2998 375.017 30.0711 375.017 26.7821C375.017 24.5894 370.922 23.3364 362.733 23.0232L333.601 9.86708C336.42 21.457 330.312 33.0469 315.277 44.6368C292.723 62.0216 283.326 68.1298 277.218 67.66C271.11 67.1901 223.184 46.0464 210.498 42.2875C202.04 39.7816 187.005 29.1314 165.391 10.3369L154.584 0L76.5873 21.6136L30.0711 116.995L0 198.281"/><path id="shape12" transform="translate(95.9217625431177, 343.637294084755)" fill="#f5be86" fill-rule="evenodd" stroke="#000000" stroke-opacity="0" stroke-width="0" stroke-linecap="square" stroke-linejoin="bevel" d="M46.0017 256.403L62.7919 226.773L67.2364 210.97C62.2981 184.304 61.6397 166.361 65.2611 157.143C68.8825 147.925 72.3393 137.225 75.6315 125.044L79.0883 67.2659C81.0636 53.4387 83.0389 45.0436 85.0143 42.0806C87.9772 37.6361 96.3723 36.6485 97.8538 40.1053C98.8415 42.4098 99.6645 44.8789 100.323 47.5127C100.455 25.7466 101.416 13.8504 103.203 11.8242C105.885 8.78487 110.891 6.99704 114.467 7.35461C118.042 7.71217 123.406 10.9303 123.406 13.612C123.406 16.2938 117.864 103.54 120.188 100.858C122.512 98.1765 124.657 98.1765 126.982 88.701C128.531 82.384 132.226 66.8894 138.066 42.2173C139.735 37.569 141.046 33.5166 141.999 30.0601C143.43 24.8754 145.754 10.5727 147.005 7.71217C148.257 4.85164 152.905 1.09719 156.302 0.203278C159.699 -0.690638 163.99 1.45476 165.778 4.85164C167.565 8.24852 168.28 11.8242 168.102 14.1484C167.923 16.4726 158.318 70.0485 155.753 75.4113C153.188 80.774 140.83 108.478 143.628 108.478C145.494 108.478 150.39 95.2019 158.318 68.6495C162.825 31.8098 166.323 13.4676 168.81 13.6231C172.541 13.8562 180.235 13.8562 181.168 19.9185C181.789 23.96 178.603 57.4577 171.608 120.412C170.054 151.656 171.608 169.22 176.271 173.107C180.934 176.993 184.121 180.335 185.831 183.133L210.08 167.744C221.893 155.464 230.365 148.547 235.495 146.992C243.189 144.661 254.381 147.925 255.547 151.889C256.324 154.531 256.868 156.941 257.179 159.117C243.966 170.93 236.039 178.936 233.396 183.133C229.432 189.428 197.256 209.713 194.225 217.641C191.194 225.568 153.888 241.89 148.991 241.656C145.727 241.501 142.851 242.434 140.364 244.454L98.6279 300.88L83.2392 328.626L67.1509 355.207L18.653 351.709L0 350.777C0 350.777 15.3339 319.319 46.0017 256.403Z"/><path id="shape04" transform="matrix(1.00000004095514 0 0 1.00000004095514 63.1435819074952 595.007237613422)" fill="#00c2e9" fill-rule="evenodd" stroke="#000000" stroke-opacity="0" stroke-width="0" stroke-linecap="square" stroke-linejoin="bevel" d="M12.256 85.1901L78.6966 0.688059C81.2768 -1.03209 82.1369 0.473041 81.2768 5.20344C79.9867 12.299 76.1164 30.3605 89.6625 36.166C103.209 41.9715 133.526 45.1968 141.267 38.1012C146.427 33.3708 150.083 27.7803 152.233 21.3298L120.625 103.335L0 117.443C0 117.443 4.08534 106.692 12.256 85.1901Z"/>
</svg>
