<?xml version="1.0" standalone="no"?>
<!DOCTYPE svg PUBLIC "-//W3C//DTD SVG 20010904//EN" "http://www.w3.org/TR/2001/REC-SVG-20010904/DTD/svg10.dtd">
<!-- Created using Krita: https://krita.org -->
<svg xmlns="http://www.w3.org/2000/svg" 
    xmlns:xlink="http://www.w3.org/1999/xlink"
    xmlns:krita="http://krita.org/namespaces/svg/krita"
    xmlns:sodipodi="http://sodipodi.sourceforge.net/DTD/sodipodi-0.dtd"
    width="1080pt"
    height="1080pt"
    viewBox="0 0 1080 1080">
<defs/>
<path id="shape0" transform="translate(540, 389.240127057911)" fill="#ffffff" fill-rule="evenodd" d="M157.435 150.76C157.435 150.76 158.537 117.047 160.742 49.6198L104.507 0L0 64.5058L172.872 180.837C172.872 180.837 167.726 170.811 157.435 150.76Z"/><path id="shape1" transform="translate(435.23961682926, 29.5707154087776)" fill="#e3af99" fill-rule="evenodd" d="M178.764 365.96L44.1599 284.162C45.5404 269.666 45.5404 256.55 44.1599 244.816C42.7793 233.081 41.9994 224.844 41.8201 220.105C34.3893 228.725 28.8905 231.549 25.3237 228.577C19.9735 224.118 22.6486 212.972 16.8525 207.176C11.0565 201.38 8.82721 190.679 8.38136 183.1C7.93551 175.52 6.15211 172.399 3.47701 165.712C0.80191 159.024 -4.10244 138.961 6.59796 140.298C17.2984 141.636 40.9284 169.278 41.3743 169.278C41.6715 169.278 43.7521 132.422 47.6162 58.7076L89.972 16.3519L89.0803 12.3392C134.557 -6.68374 170.968 -3.7114 198.314 21.2562C225.659 46.2238 241.115 62.7203 244.682 70.7456L261.624 134.056C256.274 175.075 253.153 200.042 252.261 208.959C250.924 222.335 242.899 273.607 237.994 284.308C233.09 295.008 224.619 310.613 217.485 312.396C212.729 313.585 210.203 314.031 209.906 313.734C207.231 321.462 205.001 328.298 203.218 334.243C201.435 340.188 195.787 352.969 186.276 372.586C186.276 372.586 183.772 370.377 178.764 365.96Z"/><path id="shape2" transform="translate(521.447871986772, 29.8270004826903)" fill="#db9470" fill-rule="evenodd" d="M39.0342 334.064L104.74 376.182L122.966 320.545L123.584 312.838C123.944 313.739 126.469 313.108 131.156 310.944C138.188 307.699 155.421 280.451 159.363 250.606C161.99 230.709 168.185 192.98 177.945 137.419C167.059 87.4894 158.612 60.4597 152.605 56.3302C143.595 50.1358 104.208 -1.10795 61.3799 0.0182881C32.8281 0.769113 12.3681 5.83718 0 15.2225C50.4261 12.4662 80.8949 14.0914 91.4064 20.098C107.174 29.1079 113.366 50.9853 112.803 58.3058C112.24 65.6264 79.9628 105.885 77.7104 118.273C75.4579 130.662 75.4579 145.866 88.4096 145.866C101.361 145.866 100.235 157.128 102.488 171.769C104.74 186.411 110.371 211.188 110.934 221.324C111.497 231.46 97.9826 233.149 97.4195 238.781C97.0441 242.535 99.8597 261.868 105.866 296.782C91.6006 300.161 81.8399 305.229 76.5841 311.986C68.7005 322.122 67.0111 322.685 54.6225 325.501C42.2339 328.316 42.2339 328.316 39.0342 334.064Z"/><path id="shape3" transform="translate(553.588336677751, 276.250368401078)" fill="#64575a" fill-rule="evenodd" d="M0 32.9905C8.45911 11.9636 14.1388 0.966755 17.0391 0"/><path id="shape4" transform="translate(421.232980000906, 43.1080458604364)" fill="#64575a" fill-rule="evenodd" d="M63.1562 162.553C43.2096 140.716 30.6117 130.113 25.3626 130.743C20.1134 131.373 16.0191 132.213 13.0796 133.263C5.79475 128.585 1.55601 123.861 0.363374 119.09C-1.42558 111.934 3.94128 100.008 4.5376 90.467C5.13391 80.926 37.9314 61.2475 38.5277 49.3211C39.124 37.3948 51.0503 27.8537 61.7841 21.2942C72.5178 14.7347 74.3067 1.61575 87.4257 0.423119C96.1717 -0.37197 108.49 -0.0465117 124.382 1.3995C118.553 0.0748663 111.93 3.78383 104.512 12.5264C93.3855 25.6402 91.7959 29.6141 84.6429 33.1906C77.4899 36.7671 72.3239 53.06 72.3239 63.3921C72.3239 73.7243 70.7343 94.7859 75.503 99.5545C80.2716 104.323 61.197 144.857 63.1839 154.394C65.1709 163.931 65.1709 163.931 63.1562 162.553Z"/><path id="shape5" transform="translate(639.687799457139, 56.4936990366025)" fill="#64575a" fill-rule="evenodd" d="M52.7045 140.201C58.905 122.747 63.2683 111.954 65.7945 107.82C69.5837 101.62 67.5169 95.4192 70.2727 90.5966C73.0284 85.774 79.229 79.9179 77.8511 74.0619C76.4732 68.2058 72.684 74.7508 65.7945 71.6505C58.905 68.5503 50.6376 69.2392 47.8819 60.6274C45.1261 52.0155 35.1363 20.6684 28.9358 15.5013C22.7353 10.3342 14.8124 2.75579 7.57842 1.72237C2.75579 1.03342 0.229649 0.459298 0 0C21.8167 19.0609 34.3326 35.1363 37.5476 48.2263C42.3703 67.8613 50.2932 111.265 50.2932 120.221C50.2932 129.178 50.2932 129.178 52.7045 140.201Z"/><path id="shape6" transform="translate(549.237937175372, 271.7718418574)" fill="#64575a" fill-rule="evenodd" d="M0 47.9825C9.18418 20.9134 15.7098 7.01626 19.5768 6.29119C25.3773 5.20359 47.4919 -0.959473 64.5309 0.128127C81.57 1.21573 93.1711 3.75346 99.6967 7.74133C106.222 11.7292 119.305 15.4403 119.133 24.5501C119.017 30.6233 121.811 41.0993 127.513 55.9782C120.049 45.9812 114.262 39.8951 110.153 37.7199C103.99 34.4571 73.5943 36.3815 59.4555 34.9313C45.3167 33.4812 29.7277 32.0311 24.6523 30.9435C19.5768 29.8559 0.362533 46.5324 0 47.9825Z"/><path id="shape7" transform="translate(535.571803924629, 165.920443628845)" fill="#64575a" fill-rule="evenodd" d="M67.2278 16.6353C67.2278 11.9472 64.1336 8.85299 57.9453 7.35279C48.6628 5.10249 25.3159 -0.523269 19.9714 0.0393065C16.4084 0.414357 9.75131 3.88357 0 10.447C9.93883 8.00913 17.1586 6.88397 21.6592 7.0715C28.4101 7.35279 46.4125 11.0095 52.8821 13.5411C59.3517 16.0727 59.3517 18.8856 63.2897 17.7604C67.2278 16.6353 67.2278 16.6353 67.2278 16.6353Z"/><path id="shape8" transform="translate(635.991517160497, 169.06692975807)" fill="#64575a" fill-rule="evenodd" d="M0 10.6759C15.2227 3.96613 25.1781 0.423704 29.8662 0.0486534C36.8984 -0.513922 43.037 3.92501 45.5686 7.01918C47.2563 9.08195 48.1002 10.1133 48.1002 10.1133C43.5996 7.30047 39.1928 5.89403 34.8797 5.89403C28.4101 5.89403 28.4101 5.89403 0 10.6759Z"/><circle id="shape9" transform="translate(548.427263007629, 180.310463992816)" r="20.5" cx="20.5" cy="20.5" fill="#000000" fill-rule="evenodd" stroke="#000000" stroke-opacity="0" stroke-width="0" stroke-linecap="square" stroke-linejoin="bevel"/><ellipse id="shape10" transform="translate(560.89555205086, 202.570932558449)" rx="3.33160949284013" ry="3.74806067944515" cx="3.33160949284013" cy="3.74806067944515" fill="#ffffff" fill-rule="evenodd"/><circle id="shape11" transform="translate(567.958398072676, 193.295200671872)" r="4.53840869979719" cx="4.53840869979719" cy="4.53840869979719" fill="#ffffff" fill-rule="evenodd"/><circle id="shape12" transform="translate(553.177628707685, 187.000648682557)" r="6.66519710721465" cx="6.66519710721465" cy="6.66519710721465" fill="#ffffff" fill-rule="evenodd"/><circle id="shape0" transform="matrix(0.999999996686401 0 0 0.999999996686401 639.427018065501 182.03644416593)" r="20.5" cx="20.5" cy="20.5" fill="#000000" fill-rule="evenodd" stroke="#000000" stroke-opacity="0" stroke-width="0" stroke-linecap="square" stroke-linejoin="bevel"/><ellipse id="shape1" transform="matrix(0.999999996686401 0 0 0.999999996686401 651.895307067418 204.296912657801)" rx="3.33160949284013" ry="3.74806067944515" cx="3.33160949284013" cy="3.74806067944515" fill="#ffffff" fill-rule="evenodd" stroke="#000000" stroke-opacity="0" stroke-width="0" stroke-linecap="square" stroke-linejoin="bevel"/><circle id="shape2" transform="matrix(0.999999996686401 0 0 0.999999996686401 658.95815306583 195.02118080196)" r="4.53840869979719" cx="4.53840869979719" cy="4.53840869979719" fill="#ffffff" fill-rule="evenodd" stroke="#000000" stroke-opacity="0" stroke-width="0" stroke-linecap="square" stroke-linejoin="bevel"/><circle id="shape3" transform="matrix(0.999999996686401 0 0 0.999999996686401 644.177383749817 188.726628833503)" r="6.66519710721465" cx="6.66519710721465" cy="6.66519710721465" fill="#ffffff" fill-rule="evenodd" stroke="#000000" stroke-opacity="0" stroke-width="0" stroke-linecap="square" stroke-linejoin="bevel"/><path id="shape13" transform="matrix(0.972324266809334 -0.233635442888468 0.233635442888468 0.972324266809334 204.065743581702 322.717767622456)" fill="#7ab24b" fill-rule="evenodd" d="M126.34 69.4596C124.747 56.2364 122.834 43.0133 120.603 29.7901C117.257 9.95539 113.911 -9.2395 111.52 4.83675C109.13 18.913 108.174 31.0698 110.086 47.7053C111.361 58.7957 111.68 69.033 111.042 78.4172C107.537 59.2223 104.031 45.3593 100.525 36.8282C95.2664 24.0316 88.0956 8.0359 88.0956 22.752C88.0956 32.5627 88.255 49.6248 88.5737 73.9384L97.6567 96.3324C95.1071 83.5358 89.8485 71.5923 81.8809 60.5019C73.9133 49.4116 67.6986 46.2124 63.2367 50.9045C62.918 63.7011 64.5115 73.2985 68.0173 79.6968C71.523 86.0951 78.0564 96.759 87.6175 111.688C64.3522 80.1234 50.9666 64.3409 47.4609 64.3409C42.2023 64.3409 43.6364 80.9765 51.7634 95.0527C59.8903 109.129 63.2367 116.167 71.3637 119.366C79.4906 122.565 46.0267 114.248 34.5534 109.769C23.08 105.29 3.95779 109.129 24.5142 122.565C38.2185 131.523 52.0821 136.642 66.105 137.921C24.3548 126.404 2.36427 123.845 0.133348 130.243C-3.21304 139.841 57.5 151.358 61.3245 152.637C63.8741 153.491 85.8647 164.368 127.296 185.269C154.705 188.255 162.672 185.909 151.199 178.231C139.726 170.553 126.181 162.235 110.564 153.277C135.423 155.837 153.111 156.69 163.628 155.837C179.404 154.557 164.106 146.239 141.638 136.642C126.659 130.243 120.922 128.111 124.428 130.243C165.541 138.774 188.328 142.187 192.79 140.481C199.483 137.921 174.146 120.646 155.023 111.688C142.275 105.717 135.264 102.091 133.989 100.811C173.827 113.181 196.933 117.873 203.307 114.887C212.868 110.409 165.063 86.0951 155.98 82.896C146.896 79.6968 189.921 77.1375 208.088 82.2561C226.254 87.3748 192.312 52.1841 173.668 57.9426C161.238 61.7816 152.314 64.5542 146.896 66.2604C160.919 57.3028 168.409 48.3452 169.365 39.3876C170.799 25.9511 165.541 16.3537 153.111 32.3494C140.682 48.3452 140.682 48.3452 126.34 69.4596Z"/><path id="shape14" transform="matrix(0.99864358479011 0.0520671735122928 -0.0520671735122928 0.99864358479011 304.337535859572 352.615594055057)" fill="none" stroke="#1f3b0b" stroke-opacity="0.298039215686275" stroke-width="2" stroke-linecap="square" stroke-linejoin="bevel" d="M62.9239 0C41.5281 25.3263 28.7328 44.5814 24.5379 57.7655C20.3429 70.9495 12.1637 92.1454 0 121.353"/><path id="shape15" transform="translate(583.825323923179, 391.890788068402)" fill="#af0028" fill-rule="evenodd" d="M32.9994 3.48735C6.84433 36.3265 -3.76302 52.8915 1.17739 53.1821C8.588 53.618 18.1782 54.4898 28.2043 66.2596C38.2305 78.0294 54.7954 111.159 65.2574 120.314C72.2321 126.416 88.5064 139.203 114.08 158.674C130.819 114.699 130.166 74.2019 90.9766 41.4123L47.8207 0C47.5301 0 42.5897 1.16245 32.9994 3.48735Z"/><ellipse id="shape16" transform="translate(644, 436)" rx="3" ry="2.5" cx="3" cy="2.5" fill="#ffffff" fill-rule="evenodd"/><ellipse id="shape01" transform="translate(644.223556967476, 451.850092025152)" rx="3" ry="2.5" cx="3" cy="2.5" fill="#ffffff" fill-rule="evenodd" stroke="#000000" stroke-opacity="0" stroke-width="0" stroke-linecap="square" stroke-linejoin="bevel"/><ellipse id="shape02" transform="matrix(0.999999986640001 0 0 0.999999986640001 641.281374807805 420.412006643848)" rx="3" ry="2.5" cx="3" cy="2.5" fill="#ffffff" fill-rule="evenodd" stroke="#000000" stroke-opacity="0" stroke-width="0" stroke-linecap="square" stroke-linejoin="bevel"/><ellipse id="shape03" transform="matrix(0.999999977587712 0 0 0.999999977587712 636.360606021371 409.946928243828)" rx="3" ry="2.5" cx="3" cy="2.5" fill="#ffffff" fill-rule="evenodd" stroke="#000000" stroke-opacity="0" stroke-width="0" stroke-linecap="square" stroke-linejoin="bevel"/><ellipse id="shape04" transform="matrix(0.999999941861356 0 0 0.999999941861356 618.974737396775 396.513965725345)" rx="3" ry="2.5" cx="3" cy="2.5" fill="#ffffff" fill-rule="evenodd" stroke="#000000" stroke-opacity="0" stroke-width="0" stroke-linecap="square" stroke-linejoin="bevel"/><ellipse id="shape05" transform="matrix(0.999999923011805 0 0 0.999999923011805 619.989734439372 409.989748632384)" rx="3" ry="2.5" cx="3" cy="2.5" fill="#ffffff" fill-rule="evenodd" stroke="#000000" stroke-opacity="0" stroke-width="0" stroke-linecap="square" stroke-linejoin="bevel"/><ellipse id="shape06" transform="matrix(0.999999938612093 0 0 0.999999938612093 623.972611624078 422.476254799013)" rx="3" ry="2.5" cx="3" cy="2.5" fill="#ffffff" fill-rule="evenodd" stroke="#000000" stroke-opacity="0" stroke-width="0" stroke-linecap="square" stroke-linejoin="bevel"/><ellipse id="shape07" transform="matrix(0.999999902958287 0 0 0.999999902958287 626.966164516684 436.743464935954)" rx="3" ry="2.5" cx="3" cy="2.5" fill="#ffffff" fill-rule="evenodd" stroke="#000000" stroke-opacity="0" stroke-width="0" stroke-linecap="square" stroke-linejoin="bevel"/><ellipse id="shape08" transform="matrix(0.999999876982532 0 0 0.999999876982532 627.387569872401 453.780696115342)" rx="3" ry="2.5" cx="3" cy="2.5" fill="#ffffff" fill-rule="evenodd" stroke="#000000" stroke-opacity="0" stroke-width="0" stroke-linecap="square" stroke-linejoin="bevel"/><ellipse id="shape09" transform="matrix(0.999999864210917 0 0 0.999999864210917 604.263824316527 425.112629135414)" rx="3" ry="2.5" cx="3" cy="2.5" fill="#ffffff" fill-rule="evenodd" stroke="#000000" stroke-opacity="0" stroke-width="0" stroke-linecap="square" stroke-linejoin="bevel"/><ellipse id="shape010" transform="matrix(0.999999848885187 0 0 0.999999848885187 607.257406216553 439.973422055663)" rx="3" ry="2.5" cx="3" cy="2.5" fill="#ffffff" fill-rule="evenodd" stroke="#000000" stroke-opacity="0" stroke-width="0" stroke-linecap="square" stroke-linejoin="bevel"/><ellipse id="shape011" transform="matrix(0.999999817833009 0 0 0.999999817833009 612.823122242719 457.406378651375)" rx="3" ry="2.5" cx="3" cy="2.5" fill="#ffffff" fill-rule="evenodd" stroke="#000000" stroke-opacity="0" stroke-width="0" stroke-linecap="square" stroke-linejoin="bevel"/><ellipse id="shape012" transform="matrix(0.999999805161517 0 0 0.999999805161517 641.142576839775 474.443615235841)" rx="3" ry="2.5" cx="3" cy="2.5" fill="#ffffff" fill-rule="evenodd" stroke="#000000" stroke-opacity="0" stroke-width="0" stroke-linecap="square" stroke-linejoin="bevel"/><ellipse id="shape013" transform="matrix(0.999999796861817 0 0 0.999999796861817 657.788379971108 472.288585151829)" rx="3" ry="2.5" cx="3" cy="2.5" fill="#ffffff" fill-rule="evenodd" stroke="#000000" stroke-opacity="0" stroke-width="0" stroke-linecap="square" stroke-linejoin="bevel"/><ellipse id="shape014" transform="matrix(0.999999759346318 0 0 0.999999759346318 658.011911683751 493.678704008036)" rx="3" ry="2.5" cx="3" cy="2.5" fill="#ffffff" fill-rule="evenodd" stroke="#000000" stroke-opacity="0" stroke-width="0" stroke-linecap="square" stroke-linejoin="bevel"/><ellipse id="shape015" transform="matrix(0.999999737369042 0 0 0.999999737369042 675.25129793439 493.700108275457)" rx="3" ry="2.5" cx="3" cy="2.5" fill="#ffffff" fill-rule="evenodd" stroke="#000000" stroke-opacity="0" stroke-width="0" stroke-linecap="square" stroke-linejoin="bevel"/><ellipse id="shape016" transform="matrix(0.999999739529304 0 0 0.999999739529304 658.656886840933 452.171248254217)" rx="3" ry="2.5" cx="3" cy="2.5" fill="#ffffff" fill-rule="evenodd" stroke="#000000" stroke-opacity="0" stroke-width="0" stroke-linecap="square" stroke-linejoin="bevel"/><ellipse id="shape017" transform="matrix(0.999999761424313 0 0 0.999999761424313 657.49544996734 434.583270384647)" rx="3" ry="2.5" cx="3" cy="2.5" fill="#ffffff" fill-rule="evenodd" stroke="#000000" stroke-opacity="0" stroke-width="0" stroke-linecap="square" stroke-linejoin="bevel"/><ellipse id="shape018" transform="matrix(0.999999743651792 0 0 0.999999743651792 671.371236539273 451.818363375976)" rx="3" ry="2.5" cx="3" cy="2.5" fill="#ffffff" fill-rule="evenodd" stroke="#000000" stroke-opacity="0" stroke-width="0" stroke-linecap="square" stroke-linejoin="bevel"/><ellipse id="shape019" transform="matrix(0.999999758616036 0 0 0.999999758616036 674.76054738601 470.636338542014)" rx="3" ry="2.5" cx="3" cy="2.5" fill="#ffffff" fill-rule="evenodd" stroke="#000000" stroke-opacity="0" stroke-width="0" stroke-linecap="square" stroke-linejoin="bevel"/><ellipse id="shape020" transform="matrix(0.999999714609969 0 0 0.999999714609969 640.428177274376 491.919384155318)" rx="3" ry="2.5" cx="3" cy="2.5" fill="#ffffff" fill-rule="evenodd" stroke="#000000" stroke-opacity="0" stroke-width="0" stroke-linecap="square" stroke-linejoin="bevel"/><ellipse id="shape021" transform="matrix(0.999999712891345 0 0 0.999999712891345 673.496273165662 516.27737519682)" rx="3" ry="2.5" cx="3" cy="2.5" fill="#ffffff" fill-rule="evenodd" stroke="#000000" stroke-opacity="0" stroke-width="0" stroke-linecap="square" stroke-linejoin="bevel"/><ellipse id="shape022" transform="matrix(0.999999754569744 0 0 0.999999754569744 658.880473301697 515.111661271016)" rx="3" ry="2.5" cx="3" cy="2.5" fill="#ffffff" fill-rule="evenodd" stroke="#000000" stroke-opacity="0" stroke-width="0" stroke-linecap="square" stroke-linejoin="bevel"/><path id="shape17" transform="translate(463.569342949828, 339.954402119571)" fill="#556058" fill-rule="evenodd" d="M242.65 218.683C143.055 120.899 81.4868 64.7634 57.9462 50.2768C22.6352 28.547 19.919 23.1146 11.7703 10.4388C6.33786 1.98835 2.41442 -1.33148 0 0.479334L133.095 355.4L239.933 290.21C239.933 290.21 240.839 266.368 242.65 218.683Z"/><path id="shape18" transform="translate(609.340171494598, 354.920278195962)" fill="#3c443e" fill-rule="evenodd" d="M0 332.285C80.8832 319.006 128.266 303.312 142.149 285.204C156.032 267.096 149.996 220.014 124.041 143.96L65.1894 28.0677L38.0272 0C41.0452 24.7478 45.2704 44.9686 50.7029 60.6624C58.8516 84.203 95.9733 122.983 76.9598 185.08C57.9462 247.177 45.2704 258.947 0 332.285Z"/><path id="shape19" transform="translate(233.595489220812, 325.418097111115)" fill="#001904" fill-rule="evenodd" stroke="#000000" stroke-opacity="0" stroke-width="0" stroke-linecap="square" stroke-linejoin="bevel" d="M55.2299 124.946C108.347 100.802 139.735 86.3156 149.392 81.4868C163.879 74.2435 170.217 81.4868 181.987 63.3786C189.834 51.3065 205.528 30.1803 229.068 0C243.555 30.7839 255.325 52.8155 264.379 66.0948C273.433 79.3742 296.672 127.663 334.096 210.96C374.537 322.627 393.249 383.592 390.231 393.853C387.213 404.114 372.123 415.884 344.961 429.164C350.393 422.524 328.663 392.646 279.771 339.528C230.879 286.411 137.622 255.325 0 246.271C12.0721 225.749 18.7118 207.339 19.919 191.041C21.7298 166.595 47.9867 126.757 55.2299 124.946Z"/><path id="shape20" transform="translate(650.988979650246, 357.636504814808)" fill="#001904" fill-rule="evenodd" stroke="#000000" stroke-opacity="0" stroke-width="0" stroke-linecap="square" stroke-linejoin="bevel" d="M0 0C7.24327 12.0721 20.5226 20.5226 39.838 25.3514C68.8111 32.5947 117.703 57.0408 136.717 79.676C155.73 102.311 169.311 143.584 176.555 162.974C183.798 182.363 190.136 170.064 194.663 182.363C199.19 194.663 188.325 199.19 200.095 210.055C211.866 220.92 238.123 256.231 239.028 278.866C239.933 301.501 149.983 350.071 141.244 340.434C132.504 330.797 86.9193 210.807 75.1489 182.363C63.3786 153.92 31.6893 52.5137 20.8244 33.5001C9.9595 14.4865 9.9595 14.4865 0 0Z"/><path id="shape21" transform="translate(422.678040175461, 353.765760092527)" fill="#000000" fill-rule="evenodd" stroke="#000000" stroke-opacity="0" stroke-width="0" stroke-linecap="square" stroke-linejoin="bevel" d="M199.297 367.591C139.198 293.941 101.814 246.846 87.143 226.308C72.4725 205.769 43.4248 157.063 0 80.189L48.4128 92.5123L51.5009 0C113.993 106.86 149.64 177.015 158.442 210.463C171.645 260.637 197.536 316.447 199.297 346.375C201.057 376.303 201.937 368.471 199.297 367.591Z"/><path id="shape22" transform="translate(661.110737786215, 370.536147852101)" fill="#000000" fill-rule="evenodd" stroke="#000000" stroke-opacity="0" stroke-width="0" stroke-linecap="square" stroke-linejoin="bevel" d="M128.92 326.254C50.6671 131.689 10.0735 29.1253 7.13942 18.5625C4.20532 7.99971 1.82551 1.81221 0 0L35.5507 28.0799L44.9792 22.3181C42.8444 32.4646 70.8247 133.777 128.92 326.254Z"/><path id="shape23" transform="translate(463.865615598735, 293.880673130395)" fill="#ffffff" fill-rule="evenodd" d="M154.126 103.081C142.563 133.477 133.312 148.675 126.374 148.675C119.435 148.675 113.158 146.858 107.541 143.223C68.886 106.881 46.9152 87.7182 41.629 85.7358C36.3427 83.7535 22.4664 68.2252 0 39.1511C1.32155 22.3012 3.63427 11.5636 6.93816 6.93816C10.242 2.31272 14.0415 0 18.3366 0C9.08569 5.61661 6.44258 9.91166 10.4072 12.8852C16.3542 17.3454 78.3021 59.9655 93.1696 65.9125C108.037 71.8595 150.162 92.1784 152.144 97.1343C154.126 102.09 154.126 102.09 154.126 103.081Z"/><path id="shape24" transform="translate(617.991904542331, 346.967515804472)" fill="#ffffff" fill-rule="evenodd" d="M0 49.4988C0.991166 47.8469 4.79063 41.4043 11.3984 30.1711C21.3101 13.3213 23.788 9.35661 23.788 3.40961C23.788 -2.53738 27.2571 -0.05947 28.7438 5.88753C30.2306 11.8345 45.098 70.3133 44.6025 76.2603C44.2721 80.225 44.1069 82.2073 44.1069 82.2073C25.6051 62.0536 14.3719 50.9856 10.4072 49.0032C4.46025 46.0297 4.46025 46.0297 0 49.4988Z"/>
</svg>
