<?xml version="1.0" standalone="no"?>
<!DOCTYPE svg PUBLIC "-//W3C//DTD SVG 20010904//EN" "http://www.w3.org/TR/2001/REC-SVG-20010904/DTD/svg10.dtd">
<!-- Created using Krita: https://krita.org -->
<svg xmlns="http://www.w3.org/2000/svg" 
    xmlns:xlink="http://www.w3.org/1999/xlink"
    xmlns:krita="http://krita.org/namespaces/svg/krita"
    xmlns:sodipodi="http://sodipodi.sourceforge.net/DTD/sodipodi-0.dtd"
    width="1000pt"
    height="1000pt"
    viewBox="0 0 1000 1000">
<defs/>
<path id="shape0" transform="translate(34.2770220278138, 113.794530483449)" fill="#43bfd1" fill-rule="evenodd" d="M0 6.17505C219.274 256.018 360.667 527.378 424.178 820.254C429.019 817.078 430.807 732.117 429.544 565.372L163.063 0C63.2869 3.57465 9.50388 5.633 1.71385 6.17505"/><path id="shape0" transform="matrix(1.51080013398386 -0.00228473663871718 0.00228473663871718 1.51080013398386 466.867921763015 79.5336820148653)" fill="#ff0055" fill-rule="evenodd" stroke="#000000" stroke-opacity="0" stroke-width="0" stroke-linecap="square" stroke-linejoin="bevel" d="M26.2206 6.23848C122.742 -38.3972 -64.5906 171.122 25.0335 171.122C114.657 171.122 187.312 97.0183 187.312 5.60669"/><path id="shape4" transform="matrix(-1.51079539155404 0.00439875638674264 0.00439875638674264 1.51079539155404 496.515583497501 76.5346963153983)" fill="none" stroke="#122021" stroke-width="60" stroke-linecap="square" stroke-linejoin="miter" stroke-miterlimit="2" d="M277.047 0L0 7.10543e-15"/><path id="shape3" transform="matrix(1.51080111129955 0.0015255791378855 -0.0015255791378855 1.51080111129955 509.128469620041 76.6975529060675)" fill="none" stroke="#122021" stroke-width="60" stroke-linecap="square" stroke-linejoin="miter" stroke-miterlimit="2" d="M263.656 0L0 2.84217e-14"/><path id="shape2" transform="matrix(1.5108010691706 0.00152557909534446 -0.00152557909534446 1.5108010691706 500.395420185249 108.41018307793)" fill="none" stroke="#122021" stroke-width="60" stroke-linecap="square" stroke-linejoin="miter" stroke-miterlimit="2" d="M0 0L5.68434e-14 518.387"/>
</svg>
