<?xml version="1.0" standalone="no"?>
<!DOCTYPE svg PUBLIC "-//W3C//DTD SVG 20010904//EN" "http://www.w3.org/TR/2001/REC-SVG-20010904/DTD/svg10.dtd">
<!-- Created using Krita: https://krita.org -->
<svg xmlns="http://www.w3.org/2000/svg" 
    xmlns:xlink="http://www.w3.org/1999/xlink"
    xmlns:krita="http://krita.org/namespaces/svg/krita"
    xmlns:sodipodi="http://sodipodi.sourceforge.net/DTD/sodipodi-0.dtd"
    width="2000.16pt"
    height="1000.08pt"
    viewBox="0 0 2000.16 1000.08">
<defs>
  <linearGradient id="gradient0" gradientUnits="objectBoundingBox" x1="0.502594203176035" y1="0" x2="0.484948637758013" y2="1.02298710068349" spreadMethod="pad">
   <stop stop-color="#7f7aff" offset="0" stop-opacity="0.368627450980392"/>
   <stop stop-color="#ff002e" offset="0.0371900834143162" stop-opacity="0.949019607843137"/>
   <stop stop-color="#def9ff" offset="1" stop-opacity="0"/>
  </linearGradient>
  <linearGradient id="gradient1" gradientUnits="objectBoundingBox" x1="0.484657276121782" y1="0.136170561866498" x2="0.484861134185023" y2="1.06189570993932" spreadMethod="pad">
   <stop stop-color="#a7e9fc" offset="0" stop-opacity="0.780392156862745"/>
   <stop stop-color="#44cbe8" offset="0.276470601558685" stop-opacity="0.309803921568627"/>
   <stop stop-color="#161cc1" offset="0.921487603305785" stop-opacity="0.729411764705882"/>
  </linearGradient>
  <linearGradient id="gradient2" gradientUnits="objectBoundingBox" x1="0.55309534492596" y1="-0.0134600916789311" x2="0.528730315470397" y2="1.08162442939054" spreadMethod="pad">
   <stop stop-color="#7f7aff" offset="0" stop-opacity="0.368627450980392"/>
   <stop stop-color="#ff002e" offset="0.0454545468091965" stop-opacity="0.941176470588235"/>
   <stop stop-color="#def9ff" offset="0.823529422283173" stop-opacity="0"/>
  </linearGradient>
  <linearGradient id="gradient3" gradientUnits="objectBoundingBox" x1="0.484657276121782" y1="0.136170561866498" x2="0.484861134185023" y2="1.06189570993932" spreadMethod="pad">
   <stop stop-color="#a7e9fc" offset="0" stop-opacity="0.780392156862745"/>
   <stop stop-color="#44cbe8" offset="0.276470601558685" stop-opacity="0.768627450980392"/>
   <stop stop-color="#161cc1" offset="0.923529386520386" stop-opacity="0.611764705882353"/>
  </linearGradient>
  <linearGradient id="gradient4" gradientUnits="objectBoundingBox" x1="0.01645814306967" y1="0.569766722291423" x2="0.98902790462022" y2="0.379766428795008" spreadMethod="pad">
   <stop stop-color="#ffb5bd" offset="0" stop-opacity="0.16078431372549"/>
   <stop stop-color="#ffb5bd" offset="0.229411765933037" stop-opacity="0.368627450980392"/>
   <stop stop-color="#ffb5bd" offset="0.494117647409439" stop-opacity="1"/>
   <stop stop-color="#ffb5bd" offset="0.811764717102051" stop-opacity="0.490196078431373"/>
   <stop stop-color="#ffb5bd" offset="0.970588207244873" stop-opacity="0.168627450980392"/>
  </linearGradient>
 </defs>
<path id="shape5" transform="matrix(-4.07589738154116 0 0 4.07589738154116 1077.92043068641 475.325107581604)" fill="#ffffff" fill-rule="evenodd" stroke="#000000" stroke-opacity="0" stroke-width="0" stroke-linecap="square" stroke-linejoin="bevel" d="M12.7937 4.07063C16.449 5.01831 18.4121 5.8983 18.6829 6.7106C19.089 7.92905 17.0583 9.75672 18.8859 8.94442C20.7136 8.13212 24.1659 2.85219 24.3689 4.67986C24.572 6.50753 25.9253 12.3967 30.4271 8.94442C34.9288 5.49216 32.4919 0.212218 36.3503 0.00914304C40.2088 -0.193931 43.2549 3.05526 46.7071 2.85219C49.0087 2.7168 50.4302 2.03989 50.9717 0.821441L65.9992 35.9533L56.0486 36.1564C64.3069 39.4056 68.5038 41.504 68.6392 42.4517C68.8423 43.8732 56.2516 42.8579 51.784 43.6702C47.3164 44.4825 27.212 44.2794 25.9935 43.8732C25.1812 43.6025 22.7443 43.8056 18.6829 44.4825L44.4733 36.1564L0 37.1718C0 37.1718 4.26457 26.1381 12.7937 4.07063Z"/><path id="shape0" transform="matrix(1.09446650316861 0 0 1.09446650316861 216.549854382308 347.912126107654)" fill="#032332" fill-rule="evenodd" d="M53.2053 11.7232C292.479 45.3898 428.347 65.5296 460.812 72.1427C509.508 82.0623 874.73 146.991 919.82 174.946C964.909 202.901 1088.45 304.803 1100.18 316.526C1111.9 328.249 1119.11 358.008 1111.9 383.258C1104.69 408.508 1087.55 406.705 1070.42 391.374C1053.28 376.044 990.159 277.749 971.221 259.714C952.284 241.678 928.837 208.312 899.079 201.098C869.32 193.884 407.606 128.955 363.419 120.839C319.232 112.723 80.2588 82.9641 48.6963 77.5534C27.6547 73.9463 11.4226 63.1249 0 45.0892L9.01784 0C9.01784 0 23.747 3.90773 53.2053 11.7232Z"/><path id="shape1" transform="translate(417.919344299074, 370.220345927912)" fill="#021a25" fill-rule="evenodd" d="M1222.37 65.7388C826.951 123.622 613.156 155.596 580.988 161.66C532.737 170.756 391.336 184.132 364.876 184.132C338.415 184.132 235.879 180.678 162.284 284.041C88.6899 387.404 66.3635 411.384 43.2102 415.519C20.0569 419.653 1.86505 422.961 0.211248 406.423C-1.44256 389.885 6.82647 353.501 17.5762 342.751C28.326 332.002 158.977 220.224 182.957 202.178C206.937 184.132 291.281 148.429 325.184 142.641C359.087 136.852 684.06 77.3154 712.175 74.0078C740.29 70.7002 1011.51 28.5282 1047.9 22.7398C1084.28 16.9515 1181.03 1.24035 1206.66 0.413452C1223.75 -0.137817 1235.88 -0.137817 1243.05 0.413452C1243.05 0.413452 1236.16 22.1886 1222.37 65.7388Z"/><path id="shape0" transform="matrix(-4.07589699845925 0 0 3.78407589667321 1598.27397928635 341.515720666492)" fill="url(#gradient0)" fill-rule="evenodd" stroke="#000000" stroke-opacity="0" stroke-width="0" stroke-linecap="square" stroke-linejoin="bevel" d="M0.47803 33.4362C-1.29751 12.1297 1.8731 1.34957 9.98987 1.09592C22.165 0.715451 131.741 -2.32834 135.927 3.75924C140.112 9.84682 140.319 41.0108 135.754 50.5226C132.71 56.8638 88.1138 48.9088 0.0975538 52.4599C0.0975538 52.4599 0.224381 46.1187 0.47803 33.4362Z"/><path id="shape1" transform="matrix(-4.07589699845925 0 0 3.98795965996179 1565.68244178265 618.602521676072)" fill="url(#gradient1)" fill-rule="evenodd" stroke="#000000" stroke-opacity="0" stroke-width="0" stroke-linecap="square" stroke-linejoin="bevel" d="M0 2.68347C3.26123 18.7248 7.76502 27.3286 13.5114 28.4945C22.1309 30.2435 94.3192 36.0735 103.477 23.2477C109.583 14.697 112.784 5.97872 115.07 0C-2.91303 3.60506 78.7032 -0.0902908 0 2.68347Z"/><path id="shape2" transform="matrix(-4.07589699845925 0 0 4.07589699845925 1366.74037539446 648.505120580735)" fill="#aeecfe" fill-rule="evenodd" stroke="#000000" stroke-opacity="0" stroke-width="0" stroke-linecap="square" stroke-linejoin="bevel" d="M0 10.7131L37.908 0C37.908 0 25.272 3.57105 0 10.7131Z"/><path id="shape01" transform="matrix(4.07589647089748 0 0 3.78407540688318 293.780772662571 340.973473825966)" fill="url(#gradient2)" fill-rule="evenodd" stroke="#000000" stroke-opacity="0" stroke-width="0" stroke-linecap="square" stroke-linejoin="bevel" d="M0.47803 37.5949C-1.29751 13.6384 1.8731 1.51743 9.98987 1.23223C22.165 0.804442 131.741 -2.61794 135.927 4.22681C140.112 11.0716 141.253 31.6058 136.688 42.3007C133.644 49.4306 88.1138 54.992 0.0975535 58.9848C0.0975535 58.9848 0.224381 51.8549 0.47803 37.5949Z"/><path id="shape011" transform="matrix(4.07589626732939 0 0 3.98795894460605 326.4768518881 610.69918867179)" fill="url(#gradient3)" fill-rule="evenodd" stroke="#000000" stroke-opacity="0" stroke-width="0" stroke-linecap="square" stroke-linejoin="bevel" d="M0 3.22173C3.26123 18.0449 7.76502 25.9952 13.5114 27.0726C22.1309 28.6888 94.3192 34.076 103.477 22.2242C109.583 14.323 114.234 5.52467 116.52 0C-1.46312 3.33128 78.7032 0.658626 0 3.22173Z"/><path id="shape3" transform="matrix(4.07589644289756 0 0 4.02186708642198 409.546561330394 611.566170684828)" fill="url(#gradient4)" fill-rule="evenodd" stroke="#000000" stroke-opacity="0" stroke-width="0" stroke-linecap="square" stroke-linejoin="bevel" d="M0.368404 0.826193C-0.862841 21.0641 0.984154 18.6851 6.02939 30.7652C17.6888 32.4863 44.1032 30.7077 62.9292 28.12C57.8543 6.33753 61.9577 20.0907 59.8187 0C6.73012 3.09189 58.4413 -0.0928779 0.368404 0.826193Z"/><path id="shape52" transform="matrix(-4.07589757879019 0 0 4.07589757879019 835.099925574529 395.847492711736)" fill="#50d9fd" fill-opacity="0.831372549019608" fill-rule="evenodd" stroke="#000000" stroke-opacity="0" stroke-width="0" stroke-linecap="square" stroke-linejoin="bevel" d="M0 28.755L13.0022 0L23.0397 24.7024C20.172 25.5296 1.61369 27.9592 0 28.755Z"/><path id="shape53" transform="matrix(-4.07589757879019 0 0 4.07589757879019 723.152598780857 400.869743071231)" fill="#50d9fd" fill-opacity="0.831372549019608" fill-rule="evenodd" stroke="#000000" stroke-opacity="0" stroke-width="0" stroke-linecap="square" stroke-linejoin="bevel" d="M0 11.7779L9.22802 0L16.4338 12.3116C11.7807 12.0418 16.222 12.0097 0 11.7779Z"/><path id="shape54" transform="matrix(-4.07589757879019 0 0 4.07589757879019 380.120247019612 409.029381601031)" fill="#50d9fd" fill-opacity="0.831372549019608" fill-rule="evenodd" stroke="#000000" stroke-opacity="0" stroke-width="0" stroke-linecap="square" stroke-linejoin="bevel" d="M0 0L3.87385 17.8819L20.8569 20.5092C20.8569 20.5092 13.9046 13.6728 0 0Z"/><path id="shape55" transform="matrix(-4.07589757879019 0 0 4.07589757879019 729.121109330282 477.173087226133)" fill="#063d4a" fill-opacity="0.709803921568627" fill-rule="evenodd" stroke="#000000" stroke-opacity="0" stroke-width="0" stroke-linecap="square" stroke-linejoin="bevel" d="M11.9693 0C7.87633 5.85868 4.03294 10.6413 0 16.5L10.3028 27.8969C10.0293 26.2557 11.9693 4.37575 11.9693 0Z"/><path id="shape56" transform="matrix(-4.07589757879019 0 0 4.07589757879019 817.923918559112 498.290324342095)" fill="#063d4a" fill-opacity="0.709803921568627" fill-rule="evenodd" stroke="#000000" stroke-opacity="0" stroke-width="0" stroke-linecap="square" stroke-linejoin="bevel" d="M0 3.12853L19.1188 0L7.99513 27.8091C7.99513 27.8091 5.33009 19.5823 0 3.12853Z"/><path id="shape57" transform="matrix(-4.07589757879019 0 0 4.07589757879019 654.511576177018 450.984263053248)" fill="#063d4a" fill-opacity="0.709803921568627" fill-rule="evenodd" stroke="#000000" stroke-opacity="0" stroke-width="0" stroke-linecap="square" stroke-linejoin="bevel" d="M5.24063 0L0 13.2499L15.5259 22.73C15.5259 22.73 6.52281 2.92893 5.24063 0Z"/><path id="shape58" transform="matrix(-4.07589757879019 0 0 4.07589757879019 582.270875575274 443.071737213242)" fill="#063d4a" fill-opacity="0.709803921568627" fill-rule="evenodd" stroke="#000000" stroke-opacity="0" stroke-width="0" stroke-linecap="square" stroke-linejoin="bevel" d="M18.3036 26.9345L0 12.5L16.0714 0C16.2946 0.0744047 16.9132 10.9442 18.3036 26.9345Z"/><path id="shape60" transform="matrix(-4.07589757879019 0 0 4.07589757879019 486.383274092304 525.21029120051)" fill="#063d4a" fill-opacity="0.709803921568627" fill-rule="evenodd" stroke="#000000" stroke-opacity="0" stroke-width="0" stroke-linecap="square" stroke-linejoin="bevel" d="M0 12.5141L7.64752 0L42.0613 6.25706C42.0613 6.25706 28.0409 8.34274 0 12.5141Z"/><path id="shape61" transform="matrix(-4.07589757879019 0 0 4.07589757879019 665.738516673192 542.212375532142)" fill="#063d4a" fill-opacity="0.709803921568627" fill-rule="evenodd" stroke="#000000" stroke-opacity="0" stroke-width="0" stroke-linecap="square" stroke-linejoin="bevel" d="M0 7.41872L40.0322 6.68836L8.19959 0C8.19959 0 1.46043 5.90492 0 7.41872Z"/><path id="shape62" transform="matrix(-4.07589757879019 0 0 4.07589757879019 627.965451930604 442.137372886039)" fill="#50d9fd" fill-opacity="0.831372549019608" fill-rule="evenodd" stroke="#000000" stroke-opacity="0" stroke-width="0" stroke-linecap="square" stroke-linejoin="bevel" d="M10.8035 12.2418L26.1085 0L0 3.70861C0.23486 4.3349 10.4652 11.6335 10.8035 12.2418Z"/><path id="shape63" transform="matrix(-4.07589757879019 0 0 4.07589757879019 744.54937343091 476.860468690669)" fill="#a5eafd" fill-rule="evenodd" stroke="#000000" stroke-opacity="0" stroke-width="0" stroke-linecap="square" stroke-linejoin="bevel" d="M0 10.9802L4.54354 14.7665L14.7665 0C14.7665 0 9.84433 3.66007 0 10.9802Z"/><path id="shape64" transform="matrix(-4.07589757879019 0 0 4.07589757879019 743.915014238368 481.520030947656)" fill="#cbf2fd" fill-opacity="0.788235294117647" fill-rule="evenodd" stroke="#000000" stroke-opacity="0" stroke-width="0" stroke-linecap="square" stroke-linejoin="bevel" d="M0 8.70844L2.46108 0L7.57256 4.16491C7.57256 4.16491 5.04837 5.67942 0 8.70844Z"/><path id="shape65" transform="matrix(-4.07589757879019 0 0 4.07589757879019 576.797766779793 403.418027656016)" fill="#cbf2fd" fill-opacity="0.788235294117647" fill-rule="evenodd" stroke="#000000" stroke-opacity="0" stroke-width="0" stroke-linecap="square" stroke-linejoin="bevel" d="M0 0L28.6713 15.2368L22.6094 6.04182C22.6094 4.96299 15.0729 2.94905 0 0Z"/><path id="shape66" transform="matrix(-4.07589757879019 0 0 4.07589757879019 459.93629981519 427.271261837659)" fill="#cbf2fd" fill-opacity="0.788235294117647" fill-rule="evenodd" stroke="#000000" stroke-opacity="0" stroke-width="0" stroke-linecap="square" stroke-linejoin="bevel" d="M0 0L8.35565 7.72042L20.1519 0C20.1519 0.45031 13.4346 0.45031 0 0Z"/><path id="shape68" transform="matrix(-4.07589757879019 0 0 4.07589757879019 403.175015860953 412.766945013185)" fill="#cbf2fd" fill-opacity="0.788235294117647" fill-rule="evenodd" stroke="#000000" stroke-opacity="0" stroke-width="0" stroke-linecap="square" stroke-linejoin="bevel" d="M0 3.74811L4.25974 0L5.89811 3.74811C5.89811 3.43385 3.93207 3.43385 0 3.74811Z"/><path id="shape69" transform="matrix(-4.07589757879019 0 0 4.07589757879019 481.973033585658 420.112522936674)" fill="#50d9fd" fill-opacity="0.831372549019608" fill-rule="evenodd" stroke="#000000" stroke-opacity="0" stroke-width="0" stroke-linecap="square" stroke-linejoin="bevel" d="M0 0L7.53647 13.1069L14.0899 10.8132C14.0899 10.8132 9.39328 7.2088 0 0Z"/><path id="shape70" transform="matrix(-4.07589757879019 0 0 4.07589757879019 779.399108236889 527.897882516124)" fill="#157388" fill-opacity="0.776470588235294" fill-rule="evenodd" stroke="#000000" stroke-opacity="0" stroke-width="0" stroke-linecap="square" stroke-linejoin="bevel" d="M0 18.8261L7.79279 0L22.105 15.8433C22.105 15.8433 13.293 17.2245 0 18.8261Z"/><path id="shape71" transform="matrix(-4.07589757879019 0 0 4.07589757879019 684.662089919617 476.001715812728)" fill="#157388" fill-opacity="0.776470588235294" fill-rule="evenodd" stroke="#000000" stroke-opacity="0" stroke-width="0" stroke-linecap="square" stroke-linejoin="bevel" d="M0 26.9789L1.84648 0L12.2078 15.7275C13.832 14.6448 12.5959 15.1978 0 26.9789Z"/><path id="shape72" transform="matrix(-4.07589757879019 0 0 4.07589757879019 625.239879937999 463.272467376046)" fill="#157388" fill-opacity="0.776470588235294" fill-rule="evenodd" stroke="#000000" stroke-opacity="0" stroke-width="0" stroke-linecap="square" stroke-linejoin="bevel" d="M0 0L9.49943 20.8151L32.3372 26.2474C31.2285 26.9125 20.6602 16.4961 0 0Z"/><path id="shape73" transform="matrix(-4.07589757879019 0 0 4.07589757879019 513.614162877866 447.605700069361)" fill="#157388" fill-opacity="0.776470588235294" fill-rule="evenodd" stroke="#000000" stroke-opacity="0" stroke-width="0" stroke-linecap="square" stroke-linejoin="bevel" d="M0 0L2.16211 25.2247L14.6543 17.2969C14.6543 17.2969 9.76955 11.5313 0 0Z"/><path id="shape74" transform="matrix(-4.07589757879019 0 0 4.07589757879019 450.947093651124 440.751489372686)" fill="#157388" fill-opacity="0.776470588235294" fill-rule="evenodd" stroke="#000000" stroke-opacity="0" stroke-width="0" stroke-linecap="square" stroke-linejoin="bevel" d="M17.7774 0L0 19.2188L23.3028 24.0235C23.3028 24.0235 21.461 16.0157 17.7774 0Z"/><path id="shape75" transform="matrix(-4.07589757879019 0 0 4.07589757879019 362.665746530179 488.886745270248)" fill="#2fa7c4" fill-opacity="0.741176470588235" fill-rule="evenodd" stroke="#000000" stroke-opacity="0" stroke-width="0" stroke-linecap="square" stroke-linejoin="bevel" d="M0 0L2.43262 12.4951L16.9297 15.4819C16.7112 16.429 11.3711 9.12893 0 0Z"/><path id="shape76" transform="matrix(-4.07589757879019 0 0 4.07589757879019 361.361558282611 484.289799664)" fill="#157388" fill-opacity="0.776470588235294" fill-rule="evenodd" stroke="#000000" stroke-opacity="0" stroke-width="0" stroke-linecap="square" stroke-linejoin="bevel" d="M0 0L16.2455 14.7885L15.6627 2.98684C14.4243 2.98684 2.17928 0.33477 0 0Z"/><path id="shape77" transform="matrix(-4.07589757879019 0 0 4.07589757879019 506.917878350048 452.256819277215)" fill="#157388" fill-opacity="0.776470588235294" fill-rule="evenodd" stroke="#000000" stroke-opacity="0" stroke-width="0" stroke-linecap="square" stroke-linejoin="bevel" d="M0 0L13.3637 15.6633L20.9543 7.2025C21.2927 7.2992 12.9713 4.75924 0 0Z"/><path id="shape78" transform="matrix(-4.07589757879019 0 0 4.07589757879019 734.45416603992 449.191763253813)" fill="#157388" fill-opacity="0.776470588235294" fill-rule="evenodd" stroke="#000000" stroke-opacity="0" stroke-width="0" stroke-linecap="square" stroke-linejoin="bevel" d="M5.14161 10.8837L0 6.32299L23.7215 0C23.2494 0.404617 13.8233 4.6718 5.14161 10.8837Z"/><path id="shape79" transform="matrix(-4.07589757879019 0 0 4.07589757879019 734.707560622659 450.951153105718)" fill="#157388" fill-opacity="0.776470588235294" fill-rule="evenodd" stroke="#000000" stroke-opacity="0" stroke-width="0" stroke-linecap="square" stroke-linejoin="bevel" d="M0 5.17607L2.39393 0L18.9102 0.478069C20.4697 -0.0417744 9.4301 3.23017 0 5.17607Z"/><path id="shape80" transform="matrix(-4.07589757879019 0 0 4.07589757879019 677.227613618938 449.717629887918)" fill="#157388" fill-opacity="0.776470588235294" fill-rule="evenodd" stroke="#000000" stroke-opacity="0" stroke-width="0" stroke-linecap="square" stroke-linejoin="bevel" d="M0 5.33734L5.39664 12.712L10.5261 0.0659227C9.91713 -0.499514 7.01178 2.68423 0 5.33734Z"/><path id="shape81" transform="matrix(-4.07589757879019 0 0 4.07589757879019 843.909987732143 428.043876134484)" fill="#157388" fill-opacity="0.776470588235294" fill-rule="evenodd" stroke="#000000" stroke-opacity="0" stroke-width="0" stroke-linecap="square" stroke-linejoin="bevel" d="M0 2.99016L3.53583 16.1513L10.8039 0C10.8039 0.683871 7.20262 1.68059 0 2.99016Z"/><path id="shape82" transform="matrix(-4.07589757879019 0 0 4.07589757879019 781.459354434699 573.066271332819)" fill="#157388" fill-opacity="0.776470588235294" fill-rule="evenodd" stroke="#000000" stroke-opacity="0" stroke-width="0" stroke-linecap="square" stroke-linejoin="bevel" d="M0 8.4646L71.7901 0L71.0807 11.5725C71.9676 11.5725 47.1444 10.5599 0 8.4646Z"/><path id="shape83" transform="matrix(-4.07589757879019 0 0 4.07589757879019 487.598375487789 581.946348027218)" fill="#063d4a" fill-opacity="0.709803921568627" fill-rule="evenodd" stroke="#000000" stroke-opacity="0" stroke-width="0" stroke-linecap="square" stroke-linejoin="bevel" d="M0.196435 0L0 9.23245L39.8763 10.6075C39.8763 10.6075 26.6497 7.07166 0.196435 0Z"/><path id="shape84" transform="matrix(-4.07589757879019 0 0 4.07589757879019 478.813977685549 553.122978813013)" fill="#063d4a" fill-opacity="0.709803921568627" fill-rule="evenodd" stroke="#000000" stroke-opacity="0" stroke-width="0" stroke-linecap="square" stroke-linejoin="bevel" d="M0 6.67879L43.805 0L39.287 18.072C39.287 18.072 26.1913 14.2743 0 6.67879Z"/><path id="shape85" transform="matrix(-4.07589757879019 0 0 4.07589757879019 687.661034267706 571.45164235211)" fill="#2fa7c4" fill-opacity="0.741176470588235" fill-rule="evenodd" stroke="#000000" stroke-opacity="0" stroke-width="0" stroke-linecap="square" stroke-linejoin="bevel" d="M0 5.6238L4.48799 0.61047L48.2601 0C50.5657 0 29.3343 2.34988 0 5.6238Z"/><path id="shape86" transform="matrix(-4.07589757879019 0 0 4.07589757879019 510.334278952503 525.900907888486)" fill="#2fa7c4" fill-opacity="0.741176470588235" fill-rule="evenodd" stroke="#000000" stroke-opacity="0" stroke-width="0" stroke-linecap="square" stroke-linejoin="bevel" d="M0 7.35725L5.69366 11.3112L12.6443 0C12.6443 0 1.40521 6.62226 0 7.35725Z"/><path id="shape87" transform="matrix(-4.07589757879019 0 0 4.07589757879019 619.757512968294 408.251112846771)" fill="#157388" fill-opacity="0.776470588235294" fill-rule="evenodd" stroke="#000000" stroke-opacity="0" stroke-width="0" stroke-linecap="square" stroke-linejoin="bevel" d="M0 11.2792L11.3293 0L25.1906 7.57886C25.1906 7.57886 1.0514 11.1357 0 11.2792Z"/><path id="shape88" transform="matrix(-4.07589757879019 0 0 4.07589757879019 437.020291826037 438.970532771073)" fill="#157388" fill-opacity="0.776470588235294" fill-rule="evenodd" stroke="#000000" stroke-opacity="0" stroke-width="0" stroke-linecap="square" stroke-linejoin="bevel" d="M0 8.65555L4.03492 9.82698L13.0809 0C13.0809 0 8.72063 2.88518 0 8.65555Z"/><path id="shape89" transform="matrix(-4.07589757879019 0 0 4.07589757879019 671.118953559439 631.156716738798)" fill="#063d4a" fill-opacity="0.709803921568627" fill-rule="evenodd" stroke="#000000" stroke-opacity="0" stroke-width="0" stroke-linecap="square" stroke-linejoin="bevel" d="M25.0403 7.10099L0 9.15654L9.90402 0C9.90402 0 14.9495 2.367 25.0403 7.10099Z"/><path id="shape90" transform="matrix(-4.07589757879019 0 0 4.07589757879019 682.359639451501 630.106023734749)" fill="#063d4a" fill-opacity="0.709803921568627" fill-rule="evenodd" stroke="#000000" stroke-opacity="0" stroke-width="0" stroke-linecap="square" stroke-linejoin="bevel" d="M2.06406 9.34896L11.8987 0.48566L0 0C0.00566997 0.377434 0.693689 3.49375 2.06406 9.34896Z"/><path id="shape91" transform="matrix(-4.07589757879019 0 0 4.07589757879019 764.490701588682 630.106023734749)" fill="#157388" fill-opacity="0.776470588235294" fill-rule="evenodd" stroke="#000000" stroke-opacity="0" stroke-width="0" stroke-linecap="square" stroke-linejoin="bevel" d="M19.5433 0L22.0931 9.47037L0 5.49009C0.695594 5.31824 7.21004 3.48821 19.5433 0Z"/><path id="shape01" transform="matrix(1.00000000949245 0 0 1.00000000949245 591.212559782149 508.495863255857)" fill="#50d9fd" fill-opacity="0.831372549019608" fill-rule="evenodd" stroke="#000000" stroke-opacity="0" stroke-width="0" stroke-linecap="square" stroke-linejoin="bevel" d="M0 37.4716L60.8091 0L38.4577 31.2263C38.4577 31.2263 25.6384 33.3081 0 37.4716Z"/><path id="shape4" transform="matrix(-4.07589754770988 0 0 4.07589754770988 1906.81036463901 491.294283285619)" fill="#ffffff" fill-rule="evenodd" stroke="#000000" stroke-opacity="0" stroke-width="0" stroke-linecap="square" stroke-linejoin="bevel" d="M0 50.3804L93.9933 44.7408L65.4193 34.9655L83.842 34.5895L73.6908 0.375973C73.1895 -0.375973 70.9336 1.31687e-07 66.9232 1.50389C60.9077 3.75973 41.733 18.0467 26.6941 15.7909C16.6681 14.287 8.89803 13.535 3.38376 13.535C3.38376 13.535 2.25584 25.8168 0 50.3804Z"/><path id="shape6" transform="matrix(-4.07589754770988 0 0 4.07589754770988 307.56881237999 474.210921116109)" fill="#ffffff" fill-rule="evenodd" stroke="#000000" stroke-opacity="0" stroke-width="0" stroke-linecap="square" stroke-linejoin="bevel" d="M7.868 3.93337C17.6975 9.48073 24.7534 12.3517 29.0356 12.5464C35.4588 12.8383 42.612 15.3201 44.8017 13.4223C46.9915 11.5245 54.0259 0.914464 61.2094 0.540324C68.3929 0.166183 68.6174 -1.48003 69.216 3.75793C69.8146 8.9959 68.8418 41.6958 68.5425 42.5189C68.343 43.0676 45.4955 41.6958 0 38.4033C0 38.4033 2.62267 26.9133 7.868 3.93337Z"/><path id="shape7" transform="matrix(-4.07589747249398 0 0 4.07589747249398 1277.47669167733 396.866459038866)" fill="#1b22f2" fill-opacity="0.807843137254902" fill-rule="evenodd" stroke="#000000" stroke-opacity="0" stroke-width="0" stroke-linecap="square" stroke-linejoin="bevel" d="M24.969 15.317L0 10.7023L14.5846 0C14.5846 0 18.0461 5.10566 24.969 15.317Z"/><path id="shape8" transform="matrix(-4.07589747249398 0 0 4.07589747249398 1574.83348646147 527.223746650378)" fill="#1b22f2" fill-opacity="0.807843137254902" fill-rule="evenodd" stroke="#000000" stroke-opacity="0" stroke-width="0" stroke-linecap="square" stroke-linejoin="bevel" d="M0.473433 6.78587L20.6732 0L21.4623 8.6796L0 8.99522C0 8.99522 0.157811 8.25877 0.473433 6.78587Z"/><path id="shape9" transform="matrix(-4.07589747249398 0 0 4.07589747249398 1284.10369831618 466.5296978126)" fill="#b7b8fc" fill-rule="evenodd" stroke="#000000" stroke-opacity="0" stroke-width="0" stroke-linecap="square" stroke-linejoin="bevel" d="M0 3.14203L9.77521 13.9646L18.5031 0C18.5031 0 12.3354 1.04734 0 3.14203Z"/><path id="shape10" transform="matrix(-4.07589747249398 0 0 4.07589747249398 1186.54795254061 520.601981903078)" fill="#d9dafe" fill-opacity="0.8" fill-rule="evenodd" stroke="#000000" stroke-opacity="0" stroke-width="0" stroke-linecap="square" stroke-linejoin="bevel" d="M0 2.26924L10.1243 12.5681L33.6895 0C33.6895 0 22.4597 0.756415 0 2.26924Z"/><path id="shape11" transform="matrix(-4.07589747249398 0 0 4.07589747249398 1239.28062071486 466.5296978126)" fill="#9192fc" fill-opacity="0.764705882352941" fill-rule="evenodd" stroke="#000000" stroke-opacity="0" stroke-width="0" stroke-linecap="square" stroke-linejoin="bevel" d="M0 13.9646L7.85508 0L27.4055 5.76039C27.4055 5.76039 18.2703 8.49512 0 13.9646Z"/><path id="shape12" transform="matrix(-4.07589747249398 0 0 4.07589747249398 1443.23940028959 472.294162367393)" fill="#d9dafe" fill-opacity="0.8" fill-rule="evenodd" stroke="#000000" stroke-opacity="0" stroke-width="0" stroke-linecap="square" stroke-linejoin="bevel" d="M0 0.305736L11.9237 9.93643L22.4716 0C22.4716 0 14.9811 0.101912 0 0.305736Z"/><path id="shape13" transform="matrix(-4.07589747249398 0 0 4.07589747249398 1427.35360805034 393.317295252695)" fill="#d9dafe" fill-opacity="0.8" fill-rule="evenodd" stroke="#000000" stroke-opacity="0" stroke-width="0" stroke-linecap="square" stroke-linejoin="bevel" d="M0 0L36.2054 12.4037L31.6797 2.17903C31.6797 2.17903 21.1198 1.45269 0 0Z"/><path id="shape14" transform="matrix(-4.07589747249398 0 0 4.07589747249398 1294.24269563198 395.366872733852)" fill="#d9dafe" fill-opacity="0.8" fill-rule="evenodd" stroke="#000000" stroke-opacity="0" stroke-width="0" stroke-linecap="square" stroke-linejoin="bevel" d="M0 1.67618L3.01712 10.2247L18.4379 0C18.4379 0 12.292 0.558726 0 1.67618Z"/><path id="shape15" transform="matrix(-4.07589747249398 0 0 4.07589747249398 1270.33095835182 372.821520441134)" fill="#9192fc" fill-opacity="0.764705882352941" fill-rule="evenodd" stroke="#000000" stroke-opacity="0" stroke-width="0" stroke-linecap="square" stroke-linejoin="bevel" d="M0 5.02853L7.20756 0L13.4094 4.52568C13.4094 4.52568 8.93961 4.6933 0 5.02853Z"/><path id="shape16" transform="matrix(-4.07589747249398 0 0 4.07589747249398 1432.91092940885 374.623700926131)" fill="#9192fc" fill-opacity="0.764705882352941" fill-rule="evenodd" stroke="#000000" stroke-opacity="0" stroke-width="0" stroke-linecap="square" stroke-linejoin="bevel" d="M0 0L1.79451 3.9255L6.39295 4.82275C6.39295 4.82275 4.26197 3.21517 0 0Z"/><path id="shape17" transform="matrix(-4.07589747249398 0 0 4.07589747249398 1383.08261447787 382.395089493349)" fill="#9192fc" fill-opacity="0.764705882352941" fill-rule="evenodd" stroke="#000000" stroke-opacity="0" stroke-width="0" stroke-linecap="square" stroke-linejoin="bevel" d="M0 0L0.785099 2.69177L6.84158 3.47687C6.84158 3.47687 4.56105 2.31791 0 0Z"/><path id="shape18" transform="matrix(-4.07589747249398 0 0 4.07589747249398 1357.77547857091 469.708925748567)" fill="#9192fc" fill-opacity="0.764705882352941" fill-rule="evenodd" stroke="#000000" stroke-opacity="0" stroke-width="0" stroke-linecap="square" stroke-linejoin="bevel" d="M0 4.71059L5.04707 0L12.4494 10.0941C12.4494 10.0941 8.29962 8.29962 0 4.71059Z"/><path id="shape19" transform="matrix(-4.07589747249398 0 0 4.07589747249398 1238.31820396317 477.803329954188)" fill="#6264fb" fill-opacity="0.741176470588235" fill-rule="evenodd" stroke="#000000" stroke-opacity="0" stroke-width="0" stroke-linecap="square" stroke-linejoin="bevel" d="M0 10.9113L35.6271 0L43.0666 10.746C43.0666 10.746 28.7111 10.8011 0 10.9113Z"/><path id="shape20" transform="matrix(-4.07589747249398 0 0 4.07589747249398 1425.00291547447 396.832911562268)" fill="#9192fc" fill-opacity="0.764705882352941" fill-rule="evenodd" stroke="#000000" stroke-opacity="0" stroke-width="0" stroke-linecap="square" stroke-linejoin="bevel" d="M0 0L5.53873 17.8944L50.4166 15.9061C50.4166 15.9061 33.6111 10.6041 0 0Z"/><path id="shape21" transform="matrix(-4.07589747249398 0 0 4.07589747249398 1483.83001743931 466.874194243411)" fill="#06096c" fill-opacity="0.8" fill-rule="evenodd" stroke="#000000" stroke-opacity="0" stroke-width="0" stroke-linecap="square" stroke-linejoin="bevel" d="M0 23.007L0.142019 0L40.0493 26.6995C40.0493 26.6995 26.6995 25.4687 0 23.007Z"/><path id="shape22" transform="matrix(-4.07589747249398 0 0 4.07589747249398 1393.33698804376 492.343751582008)" fill="#03064c" fill-opacity="0.819607843137255" fill-rule="evenodd" stroke="#000000" stroke-opacity="0" stroke-width="0" stroke-linecap="square" stroke-linejoin="bevel" d="M0 7.52699L8.23708 0L27.2676 24.2852C27.2676 24.2852 18.1784 18.6991 0 7.52699Z"/><path id="shape23" transform="matrix(-4.07589747249398 0 0 4.07589747249398 1327.7555147271 523.601844679378)" fill="#03064c" fill-opacity="0.819607843137255" fill-rule="evenodd" stroke="#000000" stroke-opacity="0" stroke-width="0" stroke-linecap="square" stroke-linejoin="bevel" d="M44.4518 14.2019L32.9483 0.994131L0 0L13.4918 18.3204C13.4918 18.3204 23.8118 16.9476 44.4518 14.2019Z"/><path id="shape24" transform="matrix(-4.07589747249398 0 0 4.07589747249398 1143.10122402227 530.548087589905)" fill="#03064c" fill-opacity="0.819607843137255" fill-rule="evenodd" stroke="#000000" stroke-opacity="0" stroke-width="0" stroke-linecap="square" stroke-linejoin="bevel" d="M0 11.7876L19.3145 0L15.48 14.3439C15.48 14.3439 10.32 13.4918 0 11.7876Z"/><path id="shape25" transform="matrix(-4.07589747249398 0 0 4.07589747249398 1576.6625523543 473.24158357806)" fill="#03064c" fill-opacity="0.819607843137255" fill-rule="evenodd" stroke="#000000" stroke-opacity="0" stroke-width="0" stroke-linecap="square" stroke-linejoin="bevel" d="M0 19.3145L22.0129 12.0716L21.8709 8.52651e-14C21.8709 8.52651e-14 14.5806 6.43818 0 19.3145Z"/><path id="shape26" transform="matrix(-4.07589747249398 0 0 4.07589747249398 1575.50484520254 470.926169274551)" fill="#1b22f2" fill-opacity="0.807843137254902" fill-rule="evenodd" stroke="#000000" stroke-opacity="0" stroke-width="0" stroke-linecap="square" stroke-linejoin="bevel" d="M0.284037 17.4683L0 7.66901L20.3087 0C20.3087 0 13.6338 5.82277 0.284037 17.4683Z"/><path id="shape27" transform="matrix(-4.07589747249398 0 0 4.07589747249398 1479.99331530012 373.276981532162)" fill="#03064c" fill-opacity="0.819607843137255" fill-rule="evenodd" stroke="#000000" stroke-opacity="0" stroke-width="0" stroke-linecap="square" stroke-linejoin="bevel" d="M14.9024 12.7933L10.5896 0L0 16.4464C0.521874 16.3885 4.05789 15.1685 14.9024 12.7933Z"/><path id="shape28" transform="matrix(-4.07589747249398 0 0 4.07589747249398 1606.86810715241 407.323919207443)" fill="#06096c" fill-opacity="0.8" fill-rule="evenodd" stroke="#000000" stroke-opacity="0" stroke-width="0" stroke-linecap="square" stroke-linejoin="bevel" d="M35.9043 0L25.939 15.0944L0.73274 24.9132L0 18.7581L7.18085 17.1461C7.18085 17.1461 16.7553 11.4307 35.9043 0Z"/><path id="shape29" transform="matrix(-4.07589747249398 0 0 4.07589747249398 1486.68958232325 428.0438548257)" fill="#9192fc" fill-opacity="0.764705882352941" fill-rule="evenodd" stroke="#000000" stroke-opacity="0" stroke-width="0" stroke-linecap="square" stroke-linejoin="bevel" d="M19.2192 9.84904L17.0554 0L0 3.86692C0 3.86692 6.40639 5.86096 19.2192 9.84904Z"/><path id="shape30" transform="matrix(-4.07589747249398 0 0 4.07589747249398 1500.17778218189 446.91769713088)" fill="#6264fb" fill-opacity="0.741176470588235" fill-rule="evenodd" stroke="#000000" stroke-opacity="0" stroke-width="0" stroke-linecap="square" stroke-linejoin="bevel" d="M20.8738 5.72756L3.6911 0L0 5.60028C0 5.60028 6.95793 5.64271 20.8738 5.72756Z"/><path id="shape31" transform="matrix(-4.07589747249398 0 0 4.07589747249398 1468.01361328822 472.856543012871)" fill="#9192fc" fill-opacity="0.764705882352941" fill-rule="evenodd" stroke="#000000" stroke-opacity="0" stroke-width="0" stroke-linecap="square" stroke-linejoin="bevel" d="M0 0.254558L5.09117 0L18.5828 11.5824C18.5828 11.5824 12.3885 7.80646 0 0.254558Z"/><path id="shape32" transform="matrix(-4.07589747249398 0 0 4.07589747249398 1392.2721833128 469.225104589392)" fill="#e8f9fe" fill-rule="evenodd" stroke="#000000" stroke-opacity="0" stroke-width="0" stroke-linecap="square" stroke-linejoin="bevel" d="M0 10.6915L10.8187 0L13.4916 0.127279C13.4916 0.127279 8.9944 3.64867 0 10.6915Z"/><path id="shape33" transform="matrix(-4.07589747249398 0 0 4.07589747249398 1392.2721833128 480.638196777468)" fill="#dadafd" fill-rule="evenodd" stroke="#000000" stroke-opacity="0" stroke-width="0" stroke-linecap="square" stroke-linejoin="bevel" d="M0 8.52771L0.636396 10.0551L10.4369 0C10.4369 0 6.95793 2.84257 0 8.52771Z"/><path id="shape34" transform="matrix(-4.07589747249398 0 0 4.07589747249398 1357.25346672944 490.930133080502)" fill="#b7b8fc" fill-rule="evenodd" stroke="#000000" stroke-opacity="0" stroke-width="0" stroke-linecap="square" stroke-linejoin="bevel" d="M0 0L6.2524 7.8155L13.5162 7.99939C13.5162 7.99939 9.01081 5.33293 0 0Z"/><path id="shape35" transform="matrix(-4.07589747249398 0 0 4.07589747249398 1350.88243418152 493.553499423761)" fill="#6264fb" fill-rule="evenodd" stroke="#000000" stroke-opacity="0" stroke-width="0" stroke-linecap="square" stroke-linejoin="bevel" d="M0 0L11.2175 4.6893L12.229 6.98797C12.229 6.98797 8.15264 4.65865 0 0Z"/><path id="shape36" transform="matrix(-4.07589747249398 0 0 4.07589747249398 1171.44434058904 449.837560885204)" fill="#03064c" fill-opacity="0.819607843137255" fill-rule="evenodd" stroke="#000000" stroke-opacity="0" stroke-width="0" stroke-linecap="square" stroke-linejoin="bevel" d="M0 4.87065L13.8479 0L19.0051 6.5897C19.0051 6.5897 12.6701 6.01668 0 4.87065Z"/><path id="shape37" transform="matrix(-4.07589747249398 0 0 4.07589747249398 1204.531445865 465.797223430079)" fill="#06096c" fill-opacity="0.8" fill-rule="evenodd" stroke="#000000" stroke-opacity="0" stroke-width="0" stroke-linecap="square" stroke-linejoin="bevel" d="M26.8363 2.96059L18.9096 5.44367L0 0C0 0 8.94544 0.986863 26.8363 2.96059Z"/><path id="shape38" transform="matrix(-4.07589747249398 0 0 4.07589747249398 1231.52545418561 455.917278024669)" fill="#06096c" fill-rule="evenodd" stroke="#000000" stroke-opacity="0" stroke-width="0" stroke-linecap="square" stroke-linejoin="bevel" d="M14.8158 3.02604L14.2656 1.13968L8.52651e-14 0C8.52651e-14 0 4.93861 1.00868 14.8158 3.02604Z"/><path id="shape39" transform="matrix(-4.07589747249398 0 0 4.07589747249398 1223.35628850395 459.120872409631)" fill="#03064c" fill-rule="evenodd" stroke="#000000" stroke-opacity="0" stroke-width="0" stroke-linecap="square" stroke-linejoin="bevel" d="M0 0L2.51515 1.61127L10.4536 2.08286C10.4536 2.08286 6.96907 1.38857 0 0Z"/><path id="shape40" transform="matrix(-4.07589747249398 0 0 4.07589747249398 1335.03076570763 465.726498900755)" fill="#06096c" fill-opacity="0.8" fill-rule="evenodd" stroke="#000000" stroke-opacity="0" stroke-width="0" stroke-linecap="square" stroke-linejoin="bevel" d="M0 0.507421L12.0766 2.84156L29.0245 0C29.0245 0 19.3497 0.16914 0 0.507421Z"/><path id="shape41" transform="matrix(-4.07589747249398 0 0 4.07589747249398 1297.80323176112 480.617512479359)" fill="#06096c" fill-opacity="0.8" fill-rule="evenodd" stroke="#000000" stroke-opacity="0" stroke-width="0" stroke-linecap="square" stroke-linejoin="bevel" d="M0 10.3514L2.94304 0L12.6855 11.2647C12.6855 11.2647 8.45702 10.9603 0 10.3514Z"/><path id="shape42" transform="matrix(-4.07589747249398 0 0 4.07589747249398 1333.61397320126 471.545448419647)" fill="#d9dafe" fill-opacity="0.8" fill-rule="evenodd" stroke="#000000" stroke-opacity="0" stroke-width="0" stroke-linecap="square" stroke-linejoin="bevel" d="M0 0L8.54793 12.1261L11.4304 1.7891C11.4304 1.7891 7.62024 1.19273 0 0Z"/><path id="shape43" transform="matrix(-4.07589747249398 0 0 4.07589747249398 1577.61827010139 570.413728086979)" fill="#03064c" fill-opacity="0.819607843137255" fill-rule="evenodd" stroke="#000000" stroke-opacity="0" stroke-width="0" stroke-linecap="square" stroke-linejoin="bevel" d="M0 0L3.794 15.8535L25.745 15.8535C25.745 15.8535 17.1633 10.569 0 0Z"/><path id="shape44" transform="matrix(-4.07589747249398 0 0 4.07589747249398 1480.41619669965 567.100021039191)" fill="#03064c" fill-opacity="0.819607843137255" fill-rule="evenodd" stroke="#000000" stroke-opacity="0" stroke-width="0" stroke-linecap="square" stroke-linejoin="bevel" d="M0 0L6.91051 15.8535L31.978 15.718C31.978 15.718 21.3187 10.4787 0 0Z"/><path id="shape45" transform="matrix(-4.07589747249398 0 0 4.07589747249398 1344.5542077404 574.727426283327)" fill="#03064c" fill-opacity="0.819607843137255" fill-rule="evenodd" stroke="#000000" stroke-opacity="0" stroke-width="0" stroke-linecap="square" stroke-linejoin="bevel" d="M0 13.008L6.6395 0L23.306 12.8725C23.306 12.8725 15.5373 12.9177 0 13.008Z"/><path id="shape46" transform="matrix(-4.07589747249398 0 0 4.07589747249398 1211.45364132097 583.668556278124)" fill="#03064c" fill-opacity="0.819607843137255" fill-rule="evenodd" stroke="#000000" stroke-opacity="0" stroke-width="0" stroke-linecap="square" stroke-linejoin="bevel" d="M29.1325 2.8455L17.073 0L0 11.2465C0 11.2465 9.71084 8.44617 29.1325 2.8455Z"/><path id="shape47" transform="matrix(-4.07589747249398 0 0 4.07589747249398 1194.33282157408 598.580237993165)" fill="#03064c" fill-opacity="0.819607843137255" fill-rule="evenodd" stroke="#000000" stroke-opacity="0" stroke-width="0" stroke-linecap="square" stroke-linejoin="bevel" d="M0 7.31701L24.932 0L22.764 6.775C22.764 6.775 15.176 6.95567 0 7.31701Z"/><path id="shape48" transform="matrix(-4.07589747249398 0 0 4.07589747249398 1575.9614165775 565.995452023263)" fill="#03064c" fill-opacity="0.819607843137255" fill-rule="evenodd" stroke="#000000" stroke-opacity="0" stroke-width="0" stroke-linecap="square" stroke-linejoin="bevel" d="M0 0.542L28.0485 16.9375L22.6285 0C22.6285 0 15.0857 0.180667 0 0.542Z"/><path id="shape49" transform="matrix(-4.07589747249398 0 0 4.07589747249398 1474.65081977747 565.443167515299)" fill="#06096c" fill-opacity="0.8" fill-rule="evenodd" stroke="#000000" stroke-opacity="0" stroke-width="0" stroke-linecap="square" stroke-linejoin="bevel" d="M0 0L30.352 15.0405L37.669 2.8455C37.669 2.8455 25.1127 1.897 0 0Z"/><path id="shape50" transform="matrix(-4.07589747249398 0 0 4.07589747249398 1277.95472691454 584.390775329103)" fill="#03064c" fill-opacity="0.819607843137255" fill-rule="evenodd" stroke="#000000" stroke-opacity="0" stroke-width="0" stroke-linecap="square" stroke-linejoin="bevel" d="M0 4.23067L31.8262 0L14.9997 10.769C14.9997 10.769 9.99977 8.58954 0 4.23067Z"/><path id="shape51" transform="matrix(-4.07589747249398 0 0 4.07589747249398 1274.10408739263 607.045114903854)" fill="#1318c0" fill-opacity="0.764705882352941" fill-rule="evenodd" stroke="#000000" stroke-opacity="0" stroke-width="0" stroke-linecap="square" stroke-linejoin="bevel" d="M0 0L6.84191 5.25282L12.7568 5.42938C12.7568 5.42938 8.50456 3.61959 0 0Z"/><path id="shape92" transform="matrix(-4.07589747945291 0 0 4.07589747945291 1680.84626849678 313.130293568688)" fill="#000000" fill-rule="evenodd" stroke="#000000" stroke-opacity="0" stroke-width="0" stroke-linecap="square" stroke-linejoin="bevel" d="M49.1968 3.37757C46.5368 2.88528 66.4301 2.32511 72.7728 1.99129C79.1148 1.65747 137.534 3.32657 146.881 3.66039C156.228 3.99421 173.934 3.94355 182.127 3.26393C190.325 3.88324 205.31 3.45589 214.655 3.0533C223.999 2.6507 279.096 -0.267301 285.441 0.0198411C291.786 0.306978 323.944 1.87997 321.288 2.39183C329.463 2.88504 337.951 3.37001 342.85 3.77906C347.749 4.18812 352.543 5.37688 357.231 7.34535C360.199 17.6351 361.684 22.8542 361.686 23.0025C361.689 23.3364 350.717 29.4095 349.715 29.4168C348.714 29.4242 338.771 84.5957 330.524 98.0095C322.277 111.423 283.528 108.036 259.813 106.208C236.098 104.379 226.034 97.7769 219.979 91.4788C213.389 85.1806 190.241 30.5689 195.789 25.2248C198.421 19.8807 197.069 17.5373 192.729 17.5692C190.909 17.5826 189.022 17.4122 179.409 15.9448C169.807 17.4829 170.733 18.0146 168.913 18.0146C164.573 18.0146 163.238 20.3679 165.909 25.6925C168.579 31.0171 148.216 85.7801 142.207 92.1227C136.199 98.4652 126.184 105.142 102.483 107.145C78.7818 109.147 40.0583 112.82 31.7128 99.4667C23.3673 86.1139 13.0189 31.0171 12.0175 31.0171C11.016 31.0171 0 25.0249 0 24.691C0 24.5427 1.44653 19.3128 4.3396 9.00151C9.0131 6.99859 13.7978 5.77458 18.6939 5.32949C23.5899 4.88439 30.1236 4.38517 38.2949 3.83182M41.4746 12.0083C37.6373 14.0096 35.2736 15.4554 34.3834 16.3455C30.155 18.1039 27.707 22.9944 27.0394 31.0171C26.0379 43.0511 24.3688 59.7421 27.3732 69.7567C30.3776 79.7713 32.3805 91.1212 36.7201 94.7932C41.0598 98.4652 62.7581 105.809 84.1228 102.471C105.487 99.1329 129.856 103.473 137.2 84.111C144.544 64.7494 157.897 33.0365 156.562 26.3601C155.226 19.6837 151.221 14.0088 145.212 12.6735C139.203 11.3382 100.48 8.00005 87.4608 9.00151C74.4418 10.003 54.4629 9.55421 50.3324 10.6455M320.119 10.6253C323.971 12.5983 326.345 14.0267 327.242 14.9103C331.483 16.6375 333.967 21.5098 334.694 29.5274C335.784 41.5537 337.576 58.232 334.645 68.2684C331.715 78.3048 329.795 89.6692 325.483 93.373C321.17 97.0768 299.527 104.581 278.138 101.4C256.75 98.2186 232.414 102.737 224.927 83.4305C217.441 64.1235 203.855 32.5097 205.141 25.8236C206.428 19.1376 210.391 13.4334 216.39 12.0539C222.389 10.6744 261.086 7.05139 274.112 7.95702C287.138 8.86265 307.113 8.26688 311.252 9.32778"/><ellipse id="shape2" transform="translate(1609.80840531836, 353.302887337677)" rx="8.73143831751122" ry="10.08" cx="8.73143831751122" cy="10.08" fill="#ccd2d4" fill-rule="evenodd"/><ellipse id="shape02" transform="matrix(0.999999968473577 0 0 0.999999968473577 1608.10760406839 382.464367834675)" rx="8.73143831751122" ry="10.08" cx="8.73143831751122" cy="10.08" fill="#ccd2d4" fill-rule="evenodd" stroke="#000000" stroke-opacity="0" stroke-width="0" stroke-linecap="square" stroke-linejoin="bevel"/><ellipse id="shape3" transform="translate(262.417881400859, 346.831643060469)" rx="8.73143831751122" ry="10.08" cx="8.73143831751122" cy="10.08" fill="#ccd2d4" fill-rule="evenodd"/><ellipse id="shape03" transform="matrix(0.999999968473577 0 0 0.999999968473577 260.717080150891 375.993123557467)" rx="8.73143831751122" ry="10.08" cx="8.73143831751122" cy="10.08" fill="#ccd2d4" fill-rule="evenodd" stroke="#000000" stroke-opacity="0" stroke-width="0" stroke-linecap="square" stroke-linejoin="bevel"/>
</svg>
