<?xml version="1.0" standalone="no"?>
<!DOCTYPE svg PUBLIC "-//W3C//DTD SVG 20010904//EN" "http://www.w3.org/TR/2001/REC-SVG-20010904/DTD/svg10.dtd">
<!-- Created using Krita: https://krita.org -->
<svg xmlns="http://www.w3.org/2000/svg" 
    xmlns:xlink="http://www.w3.org/1999/xlink"
    xmlns:krita="http://krita.org/namespaces/svg/krita"
    xmlns:sodipodi="http://sodipodi.sourceforge.net/DTD/sodipodi-0.dtd"
    width="1000.08pt"
    height="1000.08pt"
    viewBox="0 0 1000.08 1000.08">
<defs>
  <linearGradient id="gradient0" gradientUnits="objectBoundingBox" x1="0.325926894211305" y1="0.428488889241483" x2="0.854807951924584" y2="0.88220348864887" spreadMethod="pad">
   <stop stop-color="#fc005f" offset="0" stop-opacity="1"/>
   <stop stop-color="#bd2fc1" offset="0.454545468091965" stop-opacity="1"/>
   <stop stop-color="#50bad4" offset="0.942148745059967" stop-opacity="1"/>
  </linearGradient>
  <linearGradient id="gradient1" gradientUnits="objectBoundingBox" x1="0.910736904556885" y1="0.55911400693247" x2="0.0562818360954208" y2="0.831603474519002" spreadMethod="pad">
   <stop stop-color="#fc005f" offset="0" stop-opacity="0"/>
   <stop stop-color="#50bad4" offset="0.727272748947144" stop-opacity="0"/>
  </linearGradient>
 </defs>
<path id="shape0" transform="matrix(1.56894411512791 0.0461685797168642 -0.0486476990220706 1.47891764166657 219.143937251636 336.887385769584)" fill="url(#gradient0)" fill-rule="evenodd" stroke="#000000" stroke-opacity="0" stroke-width="0" stroke-linecap="square" stroke-linejoin="bevel" d="M0 338.051L210.239 0L477.47 380.824L0 338.051"/><path id="shape01" transform="matrix(1.56894404123846 0.0461685775425536 -0.0486476967310061 1.4789175720169 77.5145099627727 445.47341756066)" fill="url(#gradient1)" fill-rule="evenodd" stroke="#000000" stroke-opacity="0" stroke-width="0" stroke-linecap="square" stroke-linejoin="bevel" d="M0 256.322L159.411 0L362.035 288.754L0 256.322"/><path id="shape1" transform="matrix(0.160117172975503 0.496516365152202 -0.571718264215906 0.139055898158643 259.073737994365 126.734698528067)" fill="#161cc0" fill-rule="evenodd" stroke="#000000" stroke-opacity="0" stroke-width="0" stroke-linecap="square" stroke-linejoin="bevel" d="M0 7.17261C2.31861 136.732 121.663 225.427 251.237 224.268C380.813 223.108 481.503 129.58 481.503 0C329.842 144.522 171.118 175.483 0 7.17261Z"/>
</svg>
