<?xml version="1.0" standalone="no"?>
<!DOCTYPE svg PUBLIC "-//W3C//DTD SVG 20010904//EN" "http://www.w3.org/TR/2001/REC-SVG-20010904/DTD/svg10.dtd">
<!-- Created using Krita: https://krita.org -->
<svg xmlns="http://www.w3.org/2000/svg" 
    xmlns:xlink="http://www.w3.org/1999/xlink"
    xmlns:krita="http://krita.org/namespaces/svg/krita"
    xmlns:sodipodi="http://sodipodi.sourceforge.net/DTD/sodipodi-0.dtd"
    width="2000.16pt"
    height="1000.08pt"
    viewBox="0 0 2000.16 1000.08">
<defs>
  <linearGradient id="gradient0" gradientUnits="objectBoundingBox" x1="0.502594203176035" y1="0" x2="0.603915826636105" y2="0.990811480283204" spreadMethod="pad">
   <stop stop-color="#7f7aff" offset="0" stop-opacity="0.368627450980392"/>
   <stop stop-color="#bdf3ff" offset="0.411764711141586" stop-opacity="1"/>
   <stop stop-color="#def9ff" offset="0.823529422283173" stop-opacity="0.490196078431373"/>
  </linearGradient>
  <linearGradient id="gradient1" gradientUnits="objectBoundingBox" x1="0.484657276121782" y1="0.136170561866498" x2="0.484861134185023" y2="1.06189570993932" spreadMethod="pad">
   <stop stop-color="#a7e9fc" offset="0" stop-opacity="1"/>
   <stop stop-color="#44cbe8" offset="0.276470601558685" stop-opacity="1"/>
   <stop stop-color="#161cc1" offset="0.923529386520386" stop-opacity="1"/>
  </linearGradient>
  <linearGradient id="gradient2" gradientUnits="objectBoundingBox" x1="0.01645814306967" y1="0.569766722291423" x2="0.98902790462022" y2="0.379766428795008" spreadMethod="pad">
   <stop stop-color="#ffb5bd" offset="0" stop-opacity="0.16078431372549"/>
   <stop stop-color="#ffb5bd" offset="0.229411765933037" stop-opacity="0.368627450980392"/>
   <stop stop-color="#ffb5bd" offset="0.494117647409439" stop-opacity="0.96078431372549"/>
   <stop stop-color="#ffb5bd" offset="0.811764717102051" stop-opacity="0.490196078431373"/>
   <stop stop-color="#ffb5bd" offset="0.970588207244873" stop-opacity="0.168627450980392"/>
  </linearGradient>
  <linearGradient id="gradient3" gradientUnits="objectBoundingBox" x1="0.55554915354033" y1="0.0639217331652784" x2="0.528730315470397" y2="0.856513666207383" spreadMethod="pad">
   <stop stop-color="#7f7aff" offset="0" stop-opacity="0.368627450980392"/>
   <stop stop-color="#bdf3ff" offset="0.411764711141586" stop-opacity="1"/>
   <stop stop-color="#def9ff" offset="0.823529422283173" stop-opacity="0.490196078431373"/>
  </linearGradient>
  <linearGradient id="gradient4" gradientUnits="objectBoundingBox" x1="0.484657276121782" y1="0.136170561866498" x2="0.484861134185023" y2="1.06189570993932" spreadMethod="pad">
   <stop stop-color="#a7e9fc" offset="0" stop-opacity="1"/>
   <stop stop-color="#44cbe8" offset="0.276470601558685" stop-opacity="1"/>
   <stop stop-color="#161cc1" offset="0.923529386520386" stop-opacity="1"/>
  </linearGradient>
 </defs>
<g id="group0" transform="matrix(4.07589761736076 0 0 4.07589761736076 333.209229996112 338.606269537459)" fill="none">
  <path id="shape0" transform="matrix(1 0 0 0.92840321973388 8.86360112417606e-07 -7.73610395299329e-07)" fill="url(#gradient0)" fill-rule="evenodd" stroke="#000000" stroke-opacity="0" stroke-width="0" stroke-linecap="square" stroke-linejoin="bevel" d="M0.47803 33.4362C-1.29751 12.1297 1.8731 1.34957 9.98987 1.09592C22.165 0.715451 131.741 -2.32834 135.927 3.75924C140.112 9.84682 141.253 28.1096 136.688 37.6214C133.644 43.9626 88.1138 48.9088 0.0975565 52.4599C0.0975565 52.4599 0.224381 46.1187 0.47803 33.4362Z"/>
  <path id="shape1" transform="matrix(1 0 0 0.978425034162864 7.99616707176102 70.3104617857794)" fill="url(#gradient1)" fill-rule="evenodd" stroke="#000000" stroke-opacity="0" stroke-width="0" stroke-linecap="square" stroke-linejoin="bevel" d="M0 2.47967C3.26123 17.3028 7.76502 25.2531 13.5114 26.3305C22.1309 27.9467 94.3192 33.3339 103.477 21.4821C109.583 13.5809 112.784 5.52467 115.07 0C-2.91303 3.33128 78.7032 -0.0834337 0 2.47967Z"/>
  <path id="shape2" transform="translate(56.8055620254104, 75.3182381433423)" fill="#aeecfe" fill-rule="evenodd" stroke="#000000" stroke-opacity="0" stroke-width="0" stroke-linecap="square" stroke-linejoin="bevel" d="M0 10.7131L37.908 0C37.908 0 25.272 3.57105 0 10.7131Z"/>
  <path id="shape3" transform="matrix(1 0 0 0.986744178309601 34.2277574266996 69.9638663316347)" fill="url(#gradient2)" fill-rule="evenodd" stroke="#000000" stroke-opacity="0" stroke-width="0" stroke-linecap="square" stroke-linejoin="bevel" d="M0.321499 1.75626C-0.909746 21.9942 1.44799 18.6851 6.49323 30.7652C18.1526 32.4863 45.3902 27.8687 64.2162 25.281C59.1413 3.49851 62.4215 20.0907 60.2825 0C7.19396 3.09189 58.3944 0.837189 0.321499 1.75626Z"/>
 </g><g id="group1" transform="matrix(4.07589761736076 0 0 4.07589761736076 1065.51624875396 339.577127252778)" fill="none">
  <path id="shape01" transform="matrix(-1.0000000214359 0 0 0.92840323963504 139.627094868317 -4.35715918456481e-07)" fill="url(#gradient3)" fill-rule="evenodd" stroke="#000000" stroke-opacity="0" stroke-width="0" stroke-linecap="square" stroke-linejoin="bevel" d="M0.47803 33.4362C-1.29751 12.1297 1.8731 1.34957 9.98987 1.09592C22.165 0.715451 131.741 -2.32834 135.927 3.75924C140.112 9.84682 141.253 28.1096 136.688 37.6214C133.644 43.9626 88.1138 48.9088 0.0975562 52.4599C0.0975562 52.4599 0.224381 46.1187 0.47803 33.4362Z"/>
  <path id="shape01" transform="matrix(-0.999999971491528 0 0 0.978425006269461 132.020386222564 66.5184142829859)" fill="url(#gradient4)" fill-rule="evenodd" stroke="#000000" stroke-opacity="0" stroke-width="0" stroke-linecap="square" stroke-linejoin="bevel" d="M0 3.22173C3.26123 18.0449 7.76502 25.9952 13.5114 27.0726C22.1309 28.6888 94.3192 34.076 103.477 22.2242C109.583 14.323 114.234 5.52467 116.52 0C-1.46312 3.33128 78.7032 0.658626 0 3.22173Z"/>
 </g><path id="shape4" transform="matrix(4.07589761736076 0 0 4.07589761736076 24.6730410479202 493.412235439148)" fill="#b4b4b4" fill-rule="evenodd" stroke="#000000" stroke-opacity="0" stroke-width="0" stroke-linecap="square" stroke-linejoin="bevel" d="M0 50.3804L93.9933 44.7408L65.4193 34.9655L83.842 34.5895L73.6908 0.375973C73.1895 -0.375973 70.9336 7.4074e-08 66.9232 1.50389C60.9077 3.75973 41.733 18.0467 26.6941 15.7909C16.6681 14.287 8.89803 13.535 3.38376 13.535C3.38376 13.535 2.25584 25.8168 0 50.3804Z"/><path id="shape5" transform="matrix(4.07589761736076 0 0 4.07589761736076 851.287086823861 475.325112428188)" fill="#b4b4b4" fill-rule="evenodd" stroke="#000000" stroke-opacity="0" stroke-width="0" stroke-linecap="square" stroke-linejoin="bevel" d="M12.7937 4.07063C16.449 5.01831 18.4121 5.8983 18.6829 6.7106C19.089 7.92905 17.0583 9.75672 18.8859 8.94442C20.7136 8.13212 24.1659 2.85219 24.3689 4.67986C24.572 6.50753 25.9253 12.3967 30.4271 8.94442C34.9288 5.49216 32.4919 0.212218 36.3503 0.00914304C40.2088 -0.193931 43.2549 3.05526 46.7071 2.85219C49.0087 2.7168 50.4302 2.03989 50.9717 0.821441L65.9992 35.9533L56.0486 36.1564C64.3069 39.4056 68.5038 41.504 68.6392 42.4517C68.8423 43.8732 56.2516 42.8579 51.784 43.6702C47.3164 44.4825 27.212 44.2794 25.9935 43.8732C25.1812 43.6025 22.7443 43.8056 18.6829 44.4825L44.4733 36.1564L0 37.1718C0 37.1718 4.26457 26.1381 12.7937 4.07063Z"/><path id="shape6" transform="matrix(4.07589761736076 0 0 4.07589761736076 1623.91462063554 472.092984179632)" fill="#b4b4b4" fill-rule="evenodd" stroke="#000000" stroke-opacity="0" stroke-width="0" stroke-linecap="square" stroke-linejoin="bevel" d="M7.868 3.93337C17.6975 9.48073 24.7534 12.3517 29.0356 12.5464C35.4588 12.8383 42.612 15.3201 44.8017 13.4223C46.9915 11.5245 54.0259 0.914464 61.2094 0.540324C68.3929 0.166183 68.6174 -1.48003 69.216 3.75793C69.8146 8.9959 68.8418 41.6958 68.5425 42.5189C68.343 43.0676 45.4955 41.6958 0 38.4033C0 38.4033 2.62267 26.9133 7.868 3.93337Z"/><g id="group2" transform="matrix(4.07589761736076 0 0 4.07589761736076 323.820478790934 372.821533692068)" fill="none">
  <path id="shape7" transform="translate(78.459834925783, 5.89929917521195)" fill="#ff0055" fill-rule="evenodd" stroke="#000000" stroke-opacity="0" stroke-width="0" stroke-linecap="square" stroke-linejoin="bevel" d="M27.5186 15.317L0 12.9805L17.1342 0C17.1342 0 20.5957 5.10566 27.5186 15.317Z"/>
  <path id="shape8" transform="translate(8.05452964972746, 37.8817738304804)" fill="#ff0055" fill-rule="evenodd" stroke="#000000" stroke-opacity="0" stroke-width="0" stroke-linecap="square" stroke-linejoin="bevel" d="M0.473433 6.78587L20.6732 0L21.4623 8.6796L0 8.99522C0 8.99522 0.157811 8.25877 0.473433 6.78587Z"/>
  <path id="shape9" transform="translate(79.383553529073, 22.9908082830472)" fill="#ffeeef" fill-rule="evenodd" stroke="#000000" stroke-opacity="0" stroke-width="0" stroke-linecap="square" stroke-linejoin="bevel" d="M0 3.14203L9.77521 13.9646L18.5031 0C18.5031 0 12.3354 1.04734 0 3.14203Z"/>
  <path id="shape10" transform="translate(103.12333846676, 36.2571586894015)" fill="#ffeeef" fill-rule="evenodd" stroke="#000000" stroke-opacity="0" stroke-width="0" stroke-linecap="square" stroke-linejoin="bevel" d="M0 2.26924L10.1243 12.5681L33.6895 0C33.6895 0 22.4597 0.756415 0 2.26924Z"/>
  <path id="shape11" transform="translate(90.3806597869719, 22.9908082830472)" fill="#ffd2d7" fill-rule="evenodd" stroke="#000000" stroke-opacity="0" stroke-width="0" stroke-linecap="square" stroke-linejoin="bevel" d="M0 13.9646L7.85508 0L27.4055 5.76039C27.4055 5.76039 18.2703 8.49512 0 13.9646Z"/>
  <path id="shape12" transform="translate(40.1454423147462, 24.4050893324835)" fill="#ffeeef" fill-rule="evenodd" stroke="#000000" stroke-opacity="0" stroke-width="0" stroke-linecap="square" stroke-linejoin="bevel" d="M0 0.305736L11.9237 9.93643L22.4716 0C22.4716 0 14.9811 0.101912 0 0.305736Z"/>
  <path id="shape13" transform="translate(44.0429378593355, 5.02853051380129)" fill="#ffeeef" fill-rule="evenodd" stroke="#000000" stroke-opacity="0" stroke-width="0" stroke-linecap="square" stroke-linejoin="bevel" d="M0 0L36.2054 12.4037L31.6797 2.17903C31.6797 2.17903 21.1198 1.45269 0 0Z"/>
  <path id="shape14" transform="translate(76.8960038828372, 5.53138356518141)" fill="#ffeeef" fill-rule="evenodd" stroke="#000000" stroke-opacity="0" stroke-width="0" stroke-linecap="square" stroke-linejoin="bevel" d="M0 1.67618L3.01712 10.2247L18.4379 0C18.4379 0 12.292 0.558726 0 1.67618Z"/>
  <path id="shape15" transform="translate(82.7626228156054, 0)" fill="#ff97a4" fill-rule="evenodd" stroke="#000000" stroke-opacity="0" stroke-width="0" stroke-linecap="square" stroke-linejoin="bevel" d="M0 5.02853L7.20756 0L13.4094 4.52568C13.4094 4.52568 8.93961 4.6933 0 5.02853Z"/>
  <path id="shape16" transform="translate(42.8744823130052, 0.442155500023887)" fill="#ff97a4" fill-rule="evenodd" stroke="#000000" stroke-opacity="0" stroke-width="0" stroke-linecap="square" stroke-linejoin="bevel" d="M0 0L1.79451 3.9255L6.39295 4.82275C6.39295 4.82275 4.26197 3.21517 0 0Z"/>
  <path id="shape17" transform="translate(55.0995972152452, 2.3488247967035)" fill="#ff97a4" fill-rule="evenodd" stroke="#000000" stroke-opacity="0" stroke-width="0" stroke-linecap="square" stroke-linejoin="bevel" d="M0 0L0.785099 2.69177L6.84158 3.47687C6.84158 3.47687 4.56105 2.31791 0 0Z"/>
  <path id="shape18" transform="translate(61.4925472099945, 23.7708151299864)" fill="#ffb5bd" fill-rule="evenodd" stroke="#000000" stroke-opacity="0" stroke-width="0" stroke-linecap="square" stroke-linejoin="bevel" d="M0 4.71059L5.04707 0L12.4494 10.0941C12.4494 10.0941 8.29962 8.29962 0 4.71059Z"/>
  <path id="shape19" transform="translate(90.6167836733522, 26.2445526784523)" fill="#ffb5bd" fill-rule="evenodd" stroke="#000000" stroke-opacity="0" stroke-width="0" stroke-linecap="square" stroke-linejoin="bevel" d="M0 10.9113L35.6271 0L43.0666 10.746C43.0666 10.746 28.7111 10.8011 0 10.9113Z"/>
  <path id="shape20" transform="translate(44.8146719246807, 5.8910684783348)" fill="#ffd2d7" fill-rule="evenodd" stroke="#000000" stroke-opacity="0" stroke-width="0" stroke-linecap="square" stroke-linejoin="bevel" d="M0 0L5.53873 17.8944L50.4166 15.9061C50.4166 15.9061 33.6111 10.6041 0 0Z"/>
  <path id="shape21" transform="translate(30.1867479600302, 23.0753286698174)" fill="#370005" fill-rule="evenodd" stroke="#000000" stroke-opacity="0" stroke-width="0" stroke-linecap="square" stroke-linejoin="bevel" d="M0 23.007L0.142019 0L40.0493 26.6995C40.0493 26.6995 26.6995 25.4687 0 23.007Z"/>
  <path id="shape22" transform="translate(52.767717963714, 29.3241505576293)" fill="#370005" fill-rule="evenodd" stroke="#000000" stroke-opacity="0" stroke-width="0" stroke-linecap="square" stroke-linejoin="bevel" d="M0 7.52699L8.23708 0L27.2676 24.2852C27.2676 24.2852 18.1784 18.6991 0 7.52699Z"/>
  <path id="shape23" transform="translate(68.6738100417805, 36.9931592381257)" fill="#00011e" fill-rule="evenodd" stroke="#000000" stroke-opacity="0" stroke-width="0" stroke-linecap="square" stroke-linejoin="bevel" d="M44.4518 14.2019L32.9483 0.994131L0 0L13.4918 18.3204C13.4918 18.3204 23.8118 16.9476 44.4518 14.2019Z"/>
  <path id="shape24" transform="translate(113.977768728416, 38.6973833893471)" fill="#120002" fill-rule="evenodd" stroke="#000000" stroke-opacity="0" stroke-width="0" stroke-linecap="square" stroke-linejoin="bevel" d="M0 11.7876L19.3145 0L15.48 14.3439C15.48 14.3439 10.32 13.4918 0 11.7876Z"/>
  <path id="shape25" transform="translate(7.60577795634646, 24.6375341417703)" fill="#680014" fill-rule="evenodd" stroke="#000000" stroke-opacity="0" stroke-width="0" stroke-linecap="square" stroke-linejoin="bevel" d="M0 19.3145L22.0129 12.0716L21.8709 8.52651e-14C21.8709 8.52651e-14 14.5806 6.43818 0 19.3145Z"/>
  <path id="shape26" transform="translate(7.88981531488336, 24.0694594246966)" fill="#b50039" fill-rule="evenodd" stroke="#000000" stroke-opacity="0" stroke-width="0" stroke-linecap="square" stroke-linejoin="bevel" d="M0.284037 17.4683L0 7.66901L20.3087 0C20.3087 0 13.6338 5.82277 0.284037 17.4683Z"/>
  <path id="shape27" transform="translate(30.775083774455, 0.111744982326314)" fill="#b50039" fill-rule="evenodd" stroke="#000000" stroke-opacity="0" stroke-width="0" stroke-linecap="square" stroke-linejoin="bevel" d="M16.2668 13.4368L11.1376 0L0 16.9996C0 16.9996 5.42228 15.812 16.2668 13.4368Z"/>
  <path id="shape28" transform="translate(0, 8.46498200682123)" fill="#370005" fill-rule="evenodd" stroke="#000000" stroke-opacity="0" stroke-width="0" stroke-linecap="square" stroke-linejoin="bevel" d="M35.9043 0L25.939 15.0944L0.73274 24.9132L0 18.7581L7.18085 17.1461C7.18085 17.1461 16.7553 11.4307 35.9043 0Z"/>
  <path id="shape29" transform="translate(29.6801727707953, 13.5485091951484)" fill="#ff97a4" fill-rule="evenodd" stroke="#000000" stroke-opacity="0" stroke-width="0" stroke-linecap="square" stroke-linejoin="bevel" d="M19.2192 9.84904L17.0554 0L0 3.86692C0 3.86692 6.40639 5.86096 19.2192 9.84904Z"/>
  <path id="shape30" transform="translate(26.3709139021266, 18.1791071021243)" fill="#ff97a4" fill-rule="evenodd" stroke="#000000" stroke-opacity="0" stroke-width="0" stroke-linecap="square" stroke-linejoin="bevel" d="M20.8738 5.72756L3.6911 0L0 5.60028C0 5.60028 6.95793 5.64271 20.8738 5.72756Z"/>
  <path id="shape31" transform="translate(34.262223512029, 24.5430664649489)" fill="#ff97a4" fill-rule="evenodd" stroke="#000000" stroke-opacity="0" stroke-width="0" stroke-linecap="square" stroke-linejoin="bevel" d="M0 0.254558L5.09117 0L18.5828 11.5824C18.5828 11.5824 12.3885 7.80646 0 0.254558Z"/>
  <path id="shape32" transform="translate(52.8449848514767, 23.6521121541534)" fill="#e8f9fe" fill-rule="evenodd" stroke="#000000" stroke-opacity="0" stroke-width="0" stroke-linecap="square" stroke-linejoin="bevel" d="M0 10.6915L10.8187 0L13.4916 0.127279C13.4916 0.127279 8.9944 3.64867 0 10.6915Z"/>
  <path id="shape33" transform="translate(52.8449848514767, 26.4522542737962)" fill="#dadafd" fill-rule="evenodd" stroke="#000000" stroke-opacity="0" stroke-width="0" stroke-linecap="square" stroke-linejoin="bevel" d="M0 8.52771L0.636396 10.0551L10.4369 0C10.4369 0 6.95793 2.84257 0 8.52771Z"/>
  <path id="shape34" transform="translate(61.4366427181649, 28.9773266958796)" fill="#ffd2d7" fill-rule="evenodd" stroke="#000000" stroke-opacity="0" stroke-width="0" stroke-linecap="square" stroke-linejoin="bevel" d="M0 0L6.2524 7.8155L13.5162 7.99939C13.5162 7.99939 9.01081 5.33293 0 0Z"/>
  <path id="shape35" transform="translate(62.9997420333242, 29.6209558256511)" fill="#ffd2d7" fill-rule="evenodd" stroke="#000000" stroke-opacity="0" stroke-width="0" stroke-linecap="square" stroke-linejoin="bevel" d="M0 0L11.2175 4.6893L12.229 6.98797C12.229 6.98797 8.15264 4.65865 0 0Z"/>
  <path id="shape36" transform="translate(107.02393420288, 18.895480311713)" fill="#680014" fill-rule="evenodd" stroke="#000000" stroke-opacity="0" stroke-width="0" stroke-linecap="square" stroke-linejoin="bevel" d="M0 4.87065L13.8479 0L19.0051 6.5897C19.0051 6.5897 12.6701 6.01668 0 4.87065Z"/>
  <path id="shape37" transform="translate(98.9061870075088, 22.8110995471273)" fill="#b50039" fill-rule="evenodd" stroke="#000000" stroke-opacity="0" stroke-width="0" stroke-linecap="square" stroke-linejoin="bevel" d="M26.8363 2.96059L18.9096 5.44367L0 0C0 0 8.94544 0.986863 26.8363 2.96059Z"/>
  <path id="shape38" transform="translate(92.2833490919874, 20.387106924132)" fill="#370005" fill-rule="evenodd" stroke="#000000" stroke-opacity="0" stroke-width="0" stroke-linecap="square" stroke-linejoin="bevel" d="M14.8158 3.02604L14.2656 1.13968L8.52651e-14 0C8.52651e-14 0 4.93861 1.00868 14.8158 3.02604Z"/>
  <path id="shape39" transform="translate(94.2876109108345, 21.1730919511308)" fill="#370005" fill-rule="evenodd" stroke="#000000" stroke-opacity="0" stroke-width="0" stroke-linecap="square" stroke-linejoin="bevel" d="M0 0L2.51515 1.61127L10.4536 2.08286C10.4536 2.08286 6.96907 1.38857 0 0Z"/>
  <path id="shape40" transform="translate(66.8888654916218, 22.7937476559669)" fill="#b50039" fill-rule="evenodd" stroke="#000000" stroke-opacity="0" stroke-width="0" stroke-linecap="square" stroke-linejoin="bevel" d="M0 0.507421L12.0766 2.84156L29.0245 0C29.0245 0 19.3497 0.16914 0 0.507421Z"/>
  <path id="shape41" transform="translate(76.0224450769124, 26.4471794900831)" fill="#500008" fill-rule="evenodd" stroke="#000000" stroke-opacity="0" stroke-width="0" stroke-linecap="square" stroke-linejoin="bevel" d="M0 10.3514L2.94304 0L12.6855 11.2647C12.6855 11.2647 8.45702 10.9603 0 10.3514Z"/>
  <path id="shape42" transform="translate(67.041464069004, 24.2213963046781)" fill="#ffeeef" fill-rule="evenodd" stroke="#000000" stroke-opacity="0" stroke-width="0" stroke-linecap="square" stroke-linejoin="bevel" d="M0 0L8.54793 12.1261L11.4304 1.7891C11.4304 1.7891 7.62024 1.19273 0 0Z"/>
  <path id="shape43" transform="translate(7.37129763549814, 48.4782085367178)" fill="#00011e" fill-rule="evenodd" stroke="#000000" stroke-opacity="0" stroke-width="0" stroke-linecap="square" stroke-linejoin="bevel" d="M0 0L3.794 15.8535L25.745 15.8535C25.745 15.8535 17.1633 10.569 0 0Z"/>
  <path id="shape44" transform="translate(31.2193149268319, 47.6652079472404)" fill="#00011e" fill-rule="evenodd" stroke="#000000" stroke-opacity="0" stroke-width="0" stroke-linecap="square" stroke-linejoin="bevel" d="M0 0L6.91051 15.8535L31.978 15.718C31.978 15.718 21.3187 10.4787 0 0Z"/>
  <path id="shape45" transform="translate(64.5523390954007, 49.5365516931536)" fill="#00011e" fill-rule="evenodd" stroke="#000000" stroke-opacity="0" stroke-width="0" stroke-linecap="square" stroke-linejoin="bevel" d="M0 13.008L6.6395 0L23.306 12.8725C23.306 12.8725 15.5373 12.9177 0 13.008Z"/>
  <path id="shape46" transform="translate(97.2078627727384, 51.7302108946269)" fill="#120002" fill-rule="evenodd" stroke="#000000" stroke-opacity="0" stroke-width="0" stroke-linecap="square" stroke-linejoin="bevel" d="M29.1325 2.8455L17.073 0L0 11.2465C0 11.2465 9.71084 8.44617 29.1325 2.8455Z"/>
  <path id="shape47" transform="translate(101.408365818371, 55.3887135472747)" fill="#120002" fill-rule="evenodd" stroke="#000000" stroke-opacity="0" stroke-width="0" stroke-linecap="square" stroke-linejoin="bevel" d="M0 7.31701L24.932 0L22.764 6.775C22.764 6.775 15.176 6.95567 0 7.31701Z"/>
  <path id="shape48" transform="translate(7.77779793023679, 47.3942077507481)" fill="#120002" fill-rule="evenodd" stroke="#000000" stroke-opacity="0" stroke-width="0" stroke-linecap="square" stroke-linejoin="bevel" d="M0 0.542L28.0485 16.9375L22.6285 0C22.6285 0 15.0857 0.180667 0 0.542Z"/>
  <path id="shape49" transform="translate(32.4388158110478, 47.2587076525019)" fill="#370005" fill-rule="evenodd" stroke="#000000" stroke-opacity="0" stroke-width="0" stroke-linecap="square" stroke-linejoin="bevel" d="M0 0L30.352 15.0405L37.669 2.8455C37.669 2.8455 25.1127 1.897 0 0Z"/>
  <path id="shape50" transform="translate(80.8921713103437, 51.9074035389102)" fill="#120002" fill-rule="evenodd" stroke="#000000" stroke-opacity="0" stroke-width="0" stroke-linecap="square" stroke-linejoin="bevel" d="M0 4.23067L31.8262 0L14.9997 10.769C14.9997 10.769 9.99977 8.58954 0 4.23067Z"/>
  <path id="shape51" transform="translate(81.8369054573362, 57.465526560314)" fill="#370005" fill-rule="evenodd" stroke="#000000" stroke-opacity="0" stroke-width="0" stroke-linecap="square" stroke-linejoin="bevel" d="M0 0L6.84191 5.25282L12.7568 5.42938C12.7568 5.42938 8.50456 3.61959 0 0Z"/>
 </g><g id="group3" transform="matrix(4.07589761736076 0 0 4.07589761736076 1087.57347402475 383.850550515453)" fill="none">
  <path id="shape52" transform="translate(2.43278902330741, 0)" fill="#ff0055" fill-rule="evenodd" stroke="#000000" stroke-opacity="0" stroke-width="0" stroke-linecap="square" stroke-linejoin="bevel" d="M0 31.9285L14.5497 0L23.037 24.6536C23.037 24.6536 15.358 27.0786 0 31.9285Z"/>
  <path id="shape53" transform="translate(27.5800186386241, 6.52510629109355)" fill="#ff0055" fill-rule="evenodd" stroke="#000000" stroke-opacity="0" stroke-width="0" stroke-linecap="square" stroke-linejoin="bevel" d="M0 10.0808L7.64752 0L24.333 10.4284C24.333 10.4284 16.222 10.3126 0 10.0808Z"/>
  <path id="shape54" transform="translate(113.78836973872, 6.17749197214158)" fill="#ff0055" fill-rule="evenodd" stroke="#000000" stroke-opacity="0" stroke-width="0" stroke-linecap="square" stroke-linejoin="bevel" d="M0 0L5.21421 16.3379L20.8569 20.5092C20.8569 20.5092 13.9046 13.6728 0 0Z"/>
  <path id="shape55" transform="translate(29.3180902333841, 21.8201363249816)" fill="#120002" fill-rule="evenodd" stroke="#000000" stroke-opacity="0" stroke-width="0" stroke-linecap="square" stroke-linejoin="bevel" d="M11.1237 0L0 16.6855L11.1237 26.7663C11.1237 26.7663 11.1237 17.8442 11.1237 0Z"/>
  <path id="shape56" transform="translate(6.37554518255195, 28.0771940661177)" fill="#120002" fill-rule="evenodd" stroke="#000000" stroke-opacity="0" stroke-width="0" stroke-linecap="square" stroke-linejoin="bevel" d="M0 3.12853L19.1188 0L7.99513 27.8091C7.99513 27.8091 5.33009 19.5823 0 3.12853Z"/>
  <path id="shape57" transform="translate(46.3511918620321, 18.3439931354616)" fill="#120002" fill-rule="evenodd" stroke="#000000" stroke-opacity="0" stroke-width="0" stroke-linecap="square" stroke-linejoin="bevel" d="M5.56183 0L0 12.8617L15.6426 20.8569C15.6426 20.8569 12.2824 13.9046 5.56183 0Z"/>
  <path id="shape58" transform="translate(63.7319078096322, 15.5630785838456)" fill="#120002" fill-rule="evenodd" stroke="#000000" stroke-opacity="0" stroke-width="0" stroke-linecap="square" stroke-linejoin="bevel" d="M17.7283 23.9854L0 12.1665L15.6426 0C15.6426 0 16.3379 7.99513 17.7283 23.9854Z"/>
  <path id="shape59" transform="translate(65.1223650854403, 1.65850582576553)" fill="#120002" fill-rule="evenodd" stroke="#000000" stroke-opacity="0" stroke-width="0" stroke-linecap="square" stroke-linejoin="bevel" d="M40.3233 9.18409L25.3758 0L0 1.73807C0 1.73807 13.4411 4.22008 40.3233 9.18409Z"/>
  <path id="shape60" transform="translate(87.7172958173203, 34.6818661262057)" fill="#120002" fill-rule="evenodd" stroke="#000000" stroke-opacity="0" stroke-width="0" stroke-linecap="square" stroke-linejoin="bevel" d="M0 12.5141L7.64752 0L42.0613 6.25706C42.0613 6.25706 28.0409 8.34274 0 12.5141Z"/>
  <path id="shape61" transform="translate(42.1798200346082, 38.8532379536297)" fill="#120002" fill-rule="evenodd" stroke="#000000" stroke-opacity="0" stroke-width="0" stroke-linecap="square" stroke-linejoin="bevel" d="M0 6.95229L37.89 6.25706L9.7332 0C9.7332 0 6.4888 2.31743 0 6.95229Z"/>
  <path id="shape62" transform="translate(55.0464664189371, 14.3003632281056)" fill="#ffeeef" fill-rule="evenodd" stroke="#000000" stroke-opacity="0" stroke-width="0" stroke-linecap="square" stroke-linejoin="bevel" d="M8.1405 12.4947L24.0429 0L0 3.59697C0 3.59697 2.7135 6.56288 8.1405 12.4947Z"/>
  <path id="shape63" transform="translate(24.3776033083556, 22.8194918699338)" fill="#ffd2d7" fill-rule="evenodd" stroke="#000000" stroke-opacity="0" stroke-width="0" stroke-linecap="square" stroke-linejoin="bevel" d="M0 10.9802L4.54354 14.7665L14.7665 0C14.7665 0 9.84433 3.66007 0 10.9802Z"/>
  <path id="shape64" transform="translate(24.5332399945772, 23.7660617190258)" fill="#ffeeef" fill-rule="evenodd" stroke="#000000" stroke-opacity="0" stroke-width="0" stroke-linecap="square" stroke-linejoin="bevel" d="M0 8.70844L2.46108 0L7.57256 4.16491C7.57256 4.16491 5.04837 5.67942 0 8.70844Z"/>
  <path id="shape65" transform="translate(65.5345763206427, 4.80077584114395)" fill="#ffd2d7" fill-rule="evenodd" stroke="#000000" stroke-opacity="0" stroke-width="0" stroke-linecap="square" stroke-linejoin="bevel" d="M0 0L28.6713 15.2368L22.6094 6.04182C22.6094 4.96299 15.0729 2.94905 0 0Z"/>
  <path id="shape66" transform="translate(94.2059216392098, 10.8425980416365)" fill="#ffeeef" fill-rule="evenodd" stroke="#000000" stroke-opacity="0" stroke-width="0" stroke-linecap="square" stroke-linejoin="bevel" d="M0 0L8.35565 7.72042L20.1519 0C20.1519 0.45031 13.4346 0.45031 0 0Z"/>
  <path id="shape67" transform="translate(93.0590678264671, 2.50706821565856)" fill="#e8f9fe" fill-rule="evenodd" stroke="#000000" stroke-opacity="0" stroke-width="0" stroke-linecap="square" stroke-linejoin="bevel" d="M0 0L12.7792 8.33553L20.1519 2.94905C20.1519 2.94905 13.4346 1.96604 0 0Z"/>
  <path id="shape68" transform="translate(108.132003651085, 7.0944834666293)" fill="#e8f9fe" fill-rule="evenodd" stroke="#000000" stroke-opacity="0" stroke-width="0" stroke-linecap="square" stroke-linejoin="bevel" d="M0 3.74811L4.25974 0L5.89811 3.74811C5.89811 3.43385 3.93207 3.43385 0 3.74811Z"/>
  <path id="shape69" transform="translate(88.7993250934229, 8.89668231522495)" fill="#ffeeef" fill-rule="evenodd" stroke="#000000" stroke-opacity="0" stroke-width="0" stroke-linecap="square" stroke-linejoin="bevel" d="M0 0L7.53647 13.1069L14.0899 10.8132C14.0899 10.8132 9.39328 7.2088 0 0Z"/>
  <path id="shape70" transform="translate(17.854554940077, 35.3412524978354)" fill="#680014" fill-rule="evenodd" stroke="#000000" stroke-opacity="0" stroke-width="0" stroke-linecap="square" stroke-linejoin="bevel" d="M0 16.5762L5.76564 0L19.9395 14.1739C19.9395 14.1739 13.293 14.9746 0 16.5762Z"/>
  <path id="shape71" transform="translate(40.9171079171843, 22.6088013750574)" fill="#680014" fill-rule="evenodd" stroke="#000000" stroke-opacity="0" stroke-width="0" stroke-linecap="square" stroke-linejoin="bevel" d="M0.720705 21.8614L0 0L11.0508 14.8946C11.0508 14.8946 7.60744 17.2168 0.720705 21.8614Z"/>
  <path id="shape72" transform="translate(53.6495590399623, 19.4857473260741)" fill="#680014" fill-rule="evenodd" stroke="#000000" stroke-opacity="0" stroke-width="0" stroke-linecap="square" stroke-linejoin="bevel" d="M0 0L8.88869 18.7383L30.9903 24.7442C30.9903 24.7442 20.6602 16.4961 0 0Z"/>
  <path id="shape73" transform="translate(81.0363407002772, 15.6419884965563)" fill="#680014" fill-rule="evenodd" stroke="#000000" stroke-opacity="0" stroke-width="0" stroke-linecap="square" stroke-linejoin="bevel" d="M0 0L2.16211 25.2247L14.6543 17.2969C14.6543 17.2969 9.76955 11.5313 0 0Z"/>
  <path id="shape74" transform="translate(96.4113760183487, 13.9603440086422)" fill="#680014" fill-rule="evenodd" stroke="#000000" stroke-opacity="0" stroke-width="0" stroke-linecap="square" stroke-linejoin="bevel" d="M17.7774 0L0 19.2188L23.3028 24.0235C23.3028 24.0235 21.461 16.0157 17.7774 0Z"/>
  <path id="shape75" transform="translate(118.272754361232, 25.9720903508855)" fill="#b50039" fill-rule="evenodd" stroke="#000000" stroke-opacity="0" stroke-width="0" stroke-linecap="square" stroke-linejoin="bevel" d="M0 0L2.40235 11.291L17.0567 13.6934C17.0567 13.6934 11.3711 9.12893 0 0Z"/>
  <path id="shape76" transform="translate(120.19463377599, 25.0111506435061)" fill="#680014" fill-rule="evenodd" stroke="#000000" stroke-opacity="0" stroke-width="0" stroke-linecap="square" stroke-linejoin="bevel" d="M0 0L12.4922 11.7715L13.2129 0.720705C13.2129 0.720705 8.80861 0.48047 0 0Z"/>
  <path id="shape77" transform="translate(82.6792388345832, 16.7831160931026)" fill="#680014" fill-rule="evenodd" stroke="#000000" stroke-opacity="0" stroke-width="0" stroke-linecap="square" stroke-linejoin="bevel" d="M0 0L12.738 14.5577L19.4569 7.13885C19.4569 7.13885 12.9713 4.75924 0 0Z"/>
  <path id="shape78" transform="translate(27.1461925951859, 17.5969699202997)" fill="#370005" fill-rule="evenodd" stroke="#000000" stroke-opacity="0" stroke-width="0" stroke-linecap="square" stroke-linejoin="bevel" d="M5.05184 9.31784L0 4.82731L18.0744 0C18.0744 0 13.7335 3.10595 5.05184 9.31784Z"/>
  <path id="shape79" transform="translate(28.493350221457, 17.0356542426867)" fill="#370005" fill-rule="evenodd" stroke="#000000" stroke-opacity="0" stroke-width="0" stroke-linecap="square" stroke-linejoin="bevel" d="M0 3.48016L0.224526 0L14.1452 0.561316C14.1452 0.561316 9.4301 1.53426 0 3.48016Z"/>
  <path id="shape80" transform="translate(41.0686231075457, 17.8657823838713)" fill="#370005" fill-rule="evenodd" stroke="#000000" stroke-opacity="0" stroke-width="0" stroke-linecap="square" stroke-linejoin="bevel" d="M0 3.97966L5.30621 11.6547L10.5177 0C10.5177 0 7.01178 1.32655 0 3.97966Z"/>
  <path id="shape81" transform="translate(0, 10.8425980416365)" fill="#370005" fill-rule="evenodd" stroke="#000000" stroke-opacity="0" stroke-width="0" stroke-linecap="square" stroke-linejoin="bevel" d="M0 2.99016L3.53583 16.1513L10.8039 0C10.8039 0.683871 7.20262 1.68059 0 2.99016Z"/>
  <path id="shape82" transform="translate(15.3219339029565, 46.4409732448159)" fill="#370005" fill-rule="evenodd" stroke="#000000" stroke-opacity="0" stroke-width="0" stroke-linecap="square" stroke-linejoin="bevel" d="M0 8.44671L71.3059 0L70.7166 11.5897C70.7166 11.5897 47.1444 10.542 0 8.44671Z"/>
  <path id="shape83" transform="translate(87.2171622168294, 48.6017587952329)" fill="#170001" fill-rule="evenodd" stroke="#000000" stroke-opacity="0" stroke-width="0" stroke-linecap="square" stroke-linejoin="bevel" d="M0.196435 0L0 9.23245L39.8763 10.6075C39.8763 10.6075 26.6497 7.07166 0.196435 0Z"/>
  <path id="shape84" transform="translate(89.5743828172842, 41.5300969938683)" fill="#170001" fill-rule="evenodd" stroke="#000000" stroke-opacity="0" stroke-width="0" stroke-linecap="square" stroke-linejoin="bevel" d="M0 6.67879L43.805 0L39.287 18.072C39.287 18.072 26.1913 14.2743 0 6.67879Z"/>
  <path id="shape85" transform="translate(39.0905749575429, 45.8516680947022)" fill="#b50039" fill-rule="evenodd" stroke="#000000" stroke-opacity="0" stroke-width="0" stroke-linecap="square" stroke-linejoin="bevel" d="M0 4.91088L3.73227 0.78574L44.0015 0C44.0015 0 29.3343 1.63696 0 4.91088Z"/>
  <path id="shape86" transform="translate(84.074201416223, 34.8513052925795)" fill="#b50039" fill-rule="evenodd" stroke="#000000" stroke-opacity="0" stroke-width="0" stroke-linecap="square" stroke-linejoin="bevel" d="M0 6.87523L3.9287 11.0004L10.4111 0C10.4111 0 6.94071 2.29174 0 6.87523Z"/>
  <path id="shape87" transform="translate(62.135656085173, 5.98654783303706)" fill="#680014" fill-rule="evenodd" stroke="#000000" stroke-opacity="0" stroke-width="0" stroke-linecap="square" stroke-linejoin="bevel" d="M0 8.47635L4.18831 0L18.0496 7.57886C18.0496 7.57886 12.0331 7.87802 0 8.47635Z"/>
  <path id="shape88" transform="translate(99.8282434827224, 13.5233956881347)" fill="#680014" fill-rule="evenodd" stroke="#000000" stroke-opacity="0" stroke-width="0" stroke-linecap="square" stroke-linejoin="bevel" d="M0 8.65555L4.03492 9.82698L13.0809 0C13.0809 0 8.72063 2.88518 0 8.65555Z"/>
  <path id="shape89" transform="translate(42.0961625011419, 60.6752635289279)" fill="#120002" fill-rule="evenodd" stroke="#000000" stroke-opacity="0" stroke-width="0" stroke-linecap="square" stroke-linejoin="bevel" d="M25.0403 7.10099L0 9.15654L9.90402 0C9.90402 0 14.9495 2.367 25.0403 7.10099Z"/>
  <path id="shape90" transform="translate(39.6355269379941, 60.4174815352104)" fill="#120002" fill-rule="evenodd" stroke="#000000" stroke-opacity="0" stroke-width="0" stroke-linecap="square" stroke-linejoin="bevel" d="M2.06406 9.34896L11.8987 0.48566L0 0C0.00566997 0.377434 0.693689 3.49375 2.06406 9.34896Z"/>
  <path id="shape91" transform="translate(19.485103491495, 60.4174815352104)" fill="#370005" fill-rule="evenodd" stroke="#000000" stroke-opacity="0" stroke-width="0" stroke-linecap="square" stroke-linejoin="bevel" d="M19.5433 0L22.0931 9.47037L0 5.49009C0.695594 5.31824 7.21004 3.48821 19.5433 0Z"/>
 </g><path id="shape92" transform="matrix(4.07589761736076 0 0 4.07589761736076 130.902755597345 311.5652048349)" fill="#042b35" fill-rule="evenodd" stroke="#000000" stroke-opacity="0" stroke-width="0" stroke-linecap="square" stroke-linejoin="bevel" d="M78.573 3.37757C75.913 2.88528 95.8063 2.32511 102.149 1.99129C108.491 1.65747 166.91 3.32657 176.257 3.66039C185.604 3.99421 203.31 3.94355 211.503 3.26393C219.701 3.88324 234.686 3.45589 244.031 3.0533C253.375 2.6507 308.472 -0.267301 314.817 0.0198411C321.162 0.306978 353.32 1.87997 350.664 2.39183C358.839 2.88504 367.327 3.37001 372.226 3.77906C377.125 4.18812 381.919 5.37688 386.607 7.34535L407.306 7.52686L420.302 4.42676L420.455 25.1231L407.426 23.8836C396.515 23.0737 391.06 22.78 391.062 23.0025C391.065 23.3364 380.093 29.4095 379.091 29.4168C378.09 29.4242 368.147 84.5957 359.9 98.0095C351.653 111.423 312.904 108.036 289.189 106.208C265.474 104.379 255.41 97.7769 249.355 91.4788C242.765 85.1806 219.617 30.5689 225.165 25.2248C227.797 19.8807 226.445 17.5373 222.105 17.5692C220.285 17.5826 218.398 17.4122 208.785 15.9448C199.183 17.4829 200.109 18.0146 198.289 18.0146C193.949 18.0146 192.614 20.3679 195.285 25.6925C197.955 31.0171 177.592 85.7801 171.583 92.1227C165.575 98.4652 155.56 105.142 131.859 107.145C108.158 109.147 69.4345 112.82 61.089 99.4667C52.7435 86.1139 42.3951 31.0171 41.3937 31.0171C40.3922 31.0171 29.3762 25.0249 29.3762 24.691C29.3762 24.4685 23.9238 24.8023 13.019 25.6925L0 27.0278L0 6.33095L13.019 9.33533L33.7158 9.00151C38.3893 6.99859 43.174 5.77458 48.0701 5.32949C52.9661 4.88439 59.4998 4.38517 67.6711 3.83182M70.8508 12.0083C67.0135 14.0096 64.6498 15.4554 63.7596 16.3455C59.5312 18.1039 57.0832 22.9944 56.4156 31.0171C55.4141 43.0511 53.745 59.7421 56.7494 69.7567C59.7538 79.7713 61.7567 91.1212 66.0963 94.7932C70.436 98.4652 92.1343 105.809 113.499 102.471C134.863 99.1329 159.232 103.473 166.576 84.111C173.92 64.7494 187.273 33.0365 185.938 26.3601C184.602 19.6837 180.597 14.0088 174.588 12.6735C168.579 11.3382 129.856 8.00005 116.837 9.00151C103.818 10.003 83.8391 9.55421 79.7086 10.6455M349.495 10.6253C353.347 12.5983 355.721 14.0267 356.618 14.9103C360.859 16.6375 363.343 21.5098 364.07 29.5274C365.16 41.5537 366.952 58.232 364.021 68.2684C361.091 78.3048 359.171 89.6692 354.859 93.373C350.546 97.0768 328.903 104.581 307.514 101.4C286.126 98.2186 261.79 102.737 254.303 83.4305C246.817 64.1235 233.231 32.5097 234.517 25.8236C235.804 19.1376 239.767 13.4334 245.766 12.0539C251.765 10.6744 290.462 7.05139 303.488 7.95702C316.514 8.86265 336.489 8.26688 340.628 9.32778"/>
</svg>
