<?xml version="1.0" standalone="no"?>
<!DOCTYPE svg PUBLIC "-//W3C//DTD SVG 20010904//EN" "http://www.w3.org/TR/2001/REC-SVG-20010904/DTD/svg10.dtd">
<!-- Created using Krita: https://krita.org -->
<svg xmlns="http://www.w3.org/2000/svg" 
    xmlns:xlink="http://www.w3.org/1999/xlink"
    xmlns:krita="http://krita.org/namespaces/svg/krita"
    xmlns:sodipodi="http://sodipodi.sourceforge.net/DTD/sodipodi-0.dtd"
    width="2000.16pt"
    height="1000.08pt"
    viewBox="0 0 2000.16 1000.08">
<defs>
  <linearGradient id="gradient0" gradientUnits="objectBoundingBox" x1="0.502594203176035" y1="0" x2="0.603915826636105" y2="0.990811480283204" spreadMethod="pad">
   <stop stop-color="#7f7aff" offset="0" stop-opacity="0.368627450980392"/>
   <stop stop-color="#ff002e" offset="0.417355358600616" stop-opacity="0.341176470588235"/>
   <stop stop-color="#def9ff" offset="0.823529422283173" stop-opacity="0"/>
  </linearGradient>
  <linearGradient id="gradient1" gradientUnits="objectBoundingBox" x1="0.484657276121782" y1="0.136170561866498" x2="0.484861134185023" y2="1.06189570993932" spreadMethod="pad">
   <stop stop-color="#a7e9fc" offset="0" stop-opacity="1"/>
   <stop stop-color="#44cbe8" offset="0.276470601558685" stop-opacity="1"/>
   <stop stop-color="#161cc1" offset="0.923529386520386" stop-opacity="1"/>
  </linearGradient>
  <linearGradient id="gradient2" gradientUnits="objectBoundingBox" x1="0.55554915354033" y1="0.0639217331652784" x2="0.528730315470397" y2="0.856513666207383" spreadMethod="pad">
   <stop stop-color="#7f7aff" offset="0" stop-opacity="0.368627450980392"/>
   <stop stop-color="#ff002e" offset="0.411764711141586" stop-opacity="0.27843137254902"/>
   <stop stop-color="#def9ff" offset="0.823529422283173" stop-opacity="0"/>
  </linearGradient>
  <linearGradient id="gradient3" gradientUnits="objectBoundingBox" x1="0.484657276121782" y1="0.136170561866498" x2="0.484861134185023" y2="1.06189570993932" spreadMethod="pad">
   <stop stop-color="#a7e9fc" offset="0" stop-opacity="1"/>
   <stop stop-color="#44cbe8" offset="0.276470601558685" stop-opacity="1"/>
   <stop stop-color="#161cc1" offset="0.923529386520386" stop-opacity="1"/>
  </linearGradient>
  <linearGradient id="gradient4" gradientUnits="objectBoundingBox" x1="0.01645814306967" y1="0.569766722291423" x2="0.98902790462022" y2="0.379766428795008" spreadMethod="pad">
   <stop stop-color="#ffb5bd" offset="0" stop-opacity="0.16078431372549"/>
   <stop stop-color="#ffb5bd" offset="0.229411765933037" stop-opacity="0.368627450980392"/>
   <stop stop-color="#ffb5bd" offset="0.494117647409439" stop-opacity="0.96078431372549"/>
   <stop stop-color="#ffb5bd" offset="0.811764717102051" stop-opacity="0.490196078431373"/>
   <stop stop-color="#ffb5bd" offset="0.970588207244873" stop-opacity="0.168627450980392"/>
  </linearGradient>
 </defs>
<g id="group0" transform="matrix(0.999999987779756 0 0 0.999999987779756 1029.16839305987 341.515738156817)" fill="none">
  <path id="shape0" transform="matrix(-4.07589733523889 0 0 3.78407620934052 569.105693953166 -1.77593329908632e-06)" fill="url(#gradient0)" fill-rule="evenodd" stroke="#000000" stroke-opacity="0" stroke-width="0" stroke-linecap="square" stroke-linejoin="bevel" d="M0.47803 33.4362C-1.29751 12.1297 1.8731 1.34957 9.98987 1.09592C22.165 0.715451 131.741 -2.32834 135.927 3.75924C140.112 9.84682 141.253 28.1096 136.688 37.6214C133.644 43.9626 88.1138 48.9088 0.097555 52.4599C0.097555 52.4599 0.224381 46.1187 0.47803 33.4362Z"/>
  <path id="shape1" transform="matrix(-4.07589733523889 0 0 3.98795998947543 536.514148311832 286.578234088963)" fill="url(#gradient1)" fill-rule="evenodd" stroke="#000000" stroke-opacity="0" stroke-width="0" stroke-linecap="square" stroke-linejoin="bevel" d="M0 2.47967C3.26123 17.3028 7.76502 25.2531 13.5114 26.3305C22.1309 27.9467 94.3192 33.3339 103.477 21.4821C109.583 13.5809 112.784 5.52467 115.07 0C-2.91303 3.33128 78.7032 -0.0834337 0 2.47967Z"/>
  <path id="shape2" transform="matrix(-4.07589733523889 0 0 4.07589733523889 337.57206548563 306.989416400227)" fill="#aeecfe" fill-rule="evenodd" stroke="#000000" stroke-opacity="0" stroke-width="0" stroke-linecap="square" stroke-linejoin="bevel" d="M0 10.7131L37.908 0C37.908 0 25.272 3.57105 0 10.7131Z"/>
 </g><g id="group01" transform="matrix(0.999999963022904 0 0 0.999999963022904 295.521711690685 339.577065804445)" fill="none">
  <path id="shape01" transform="matrix(4.07589722447164 0 0 3.78407610650386 1.36117364490929e-06 -1.7759332422429e-06)" fill="url(#gradient2)" fill-rule="evenodd" stroke="#000000" stroke-opacity="0" stroke-width="0" stroke-linecap="square" stroke-linejoin="bevel" d="M0.47803 33.4362C-1.29751 12.1297 1.8731 1.34957 9.98987 1.09592C22.165 0.715451 131.741 -2.32834 135.927 3.75924C140.112 9.84682 141.253 28.1096 136.688 37.6214C133.644 43.9626 88.1138 48.9088 0.0975547 52.4599C0.0975547 52.4599 0.224381 46.1187 0.47803 33.4362Z"/>
  <path id="shape011" transform="matrix(4.07589702090351 0 0 3.98795968192184 31.0041565472898 271.122223220196)" fill="url(#gradient3)" fill-rule="evenodd" stroke="#000000" stroke-opacity="0" stroke-width="0" stroke-linecap="square" stroke-linejoin="bevel" d="M0 3.22173C3.26123 18.0449 7.76502 25.9952 13.5114 27.0726C22.1309 28.6888 94.3192 34.076 103.477 22.2242C109.583 14.323 114.234 5.52467 116.52 0C-1.46312 3.33128 78.7032 0.658626 0 3.22173Z"/>
  <path id="shape3" transform="matrix(4.07589719647172 0 0 4.02186783000689 115.765814942106 273.425009363275)" fill="url(#gradient4)" fill-rule="evenodd" stroke="#000000" stroke-opacity="0" stroke-width="0" stroke-linecap="square" stroke-linejoin="bevel" d="M0.368404 0.826193C-0.862841 21.0641 0.984154 18.6851 6.02939 30.7652C17.6888 32.4863 44.1032 30.7077 62.9292 28.12C57.8543 6.33753 61.9577 20.0907 59.8187 0C6.73012 3.09189 58.4413 -0.0928779 0.368404 0.826193Z"/>
 </g><path id="shape4" transform="matrix(-4.07589754770988 0 0 4.07589754770988 1906.81036463901 491.294283285619)" fill="#ffffff" fill-rule="evenodd" stroke="#000000" stroke-opacity="0" stroke-width="0" stroke-linecap="square" stroke-linejoin="bevel" d="M0 50.3804L93.9933 44.7408L65.4193 34.9655L83.842 34.5895L73.6908 0.375973C73.1895 -0.375973 70.9336 1.31687e-07 66.9232 1.50389C60.9077 3.75973 41.733 18.0467 26.6941 15.7909C16.6681 14.287 8.89803 13.535 3.38376 13.535C3.38376 13.535 2.25584 25.8168 0 50.3804Z"/><path id="shape5" transform="matrix(-4.07589754770988 0 0 4.07589754770988 1080.19633298864 475.325104301623)" fill="#ffffff" fill-rule="evenodd" stroke="#000000" stroke-opacity="0" stroke-width="0" stroke-linecap="square" stroke-linejoin="bevel" d="M12.7937 4.07063C16.449 5.01831 18.4121 5.8983 18.6829 6.7106C19.089 7.92905 17.0583 9.75672 18.8859 8.94442C20.7136 8.13212 24.1659 2.85219 24.3689 4.67986C24.572 6.50753 25.9253 12.3967 30.4271 8.94442C34.9288 5.49216 32.4919 0.212218 36.3503 0.00914304C40.2088 -0.193931 43.2549 3.05526 46.7071 2.85219C49.0087 2.7168 50.4302 2.03989 50.9717 0.821441L65.9992 35.9533L56.0486 36.1564C64.3069 39.4056 68.5038 41.504 68.6392 42.4517C68.8423 43.8732 56.2516 42.8579 51.784 43.6702C47.3164 44.4825 27.212 44.2794 25.9935 43.8732C25.1812 43.6025 22.7443 43.8056 18.6829 44.4825L44.4733 36.1564L0 37.1718C0 37.1718 4.26457 26.1381 12.7937 4.07063Z"/><path id="shape6" transform="matrix(-4.07589754770988 0 0 4.07589754770988 307.56881237999 474.210921116109)" fill="#ffffff" fill-rule="evenodd" stroke="#000000" stroke-opacity="0" stroke-width="0" stroke-linecap="square" stroke-linejoin="bevel" d="M7.868 3.93337C17.6975 9.48073 24.7534 12.3517 29.0356 12.5464C35.4588 12.8383 42.612 15.3201 44.8017 13.4223C46.9915 11.5245 54.0259 0.914464 61.2094 0.540324C68.3929 0.166183 68.6174 -1.48003 69.216 3.75793C69.8146 8.9959 68.8418 41.6958 68.5425 42.5189C68.343 43.0676 45.4955 41.6958 0 38.4033C0 38.4033 2.62267 26.9133 7.868 3.93337Z"/><g id="group02" transform="matrix(-0.999999990773088 0 0 0.999999990773088 1607.66292350292 372.821520441134)" fill="none">
  <path id="shape7" transform="matrix(4.07589751010193 0 0 4.07589751010193 319.794245817008 24.0449388195931)" fill="#1b22f2" fill-rule="evenodd" stroke="#000000" stroke-opacity="0" stroke-width="0" stroke-linecap="square" stroke-linejoin="bevel" d="M27.5186 15.317L0 12.9805L17.1342 0C17.1342 0 20.5957 5.10566 27.5186 15.317Z"/>
  <path id="shape8" transform="matrix(4.07589751010193 0 0 4.07589751010193 32.8294373443666 154.4022276339)" fill="#1b22f2" fill-rule="evenodd" stroke="#000000" stroke-opacity="0" stroke-width="0" stroke-linecap="square" stroke-linejoin="bevel" d="M0.473433 6.78587L20.6732 0L21.4623 8.6796L0 8.99522C0 8.99522 0.157811 8.25877 0.473433 6.78587Z"/>
  <path id="shape9" transform="matrix(4.07589751010193 0 0 4.07589751010193 323.559228172192 93.708178236103)" fill="#b7b8fc" fill-rule="evenodd" stroke="#000000" stroke-opacity="0" stroke-width="0" stroke-linecap="square" stroke-linejoin="bevel" d="M0 3.14203L9.77521 13.9646L18.5031 0C18.5031 0 12.3354 1.04734 0 3.14203Z"/>
  <path id="shape10" transform="matrix(4.07589751010193 0 0 4.07589751010193 420.320158490066 147.780462825502)" fill="#d9dafe" fill-rule="evenodd" stroke="#000000" stroke-opacity="0" stroke-width="0" stroke-linecap="square" stroke-linejoin="bevel" d="M0 2.26924L10.1243 12.5681L33.6895 0C33.6895 0 22.4597 0.756415 0 2.26924Z"/>
  <path id="shape11" transform="matrix(4.07589751010193 0 0 4.07589751010193 368.382306187088 93.708178236103)" fill="#9192fc" fill-rule="evenodd" stroke="#000000" stroke-opacity="0" stroke-width="0" stroke-linecap="square" stroke-linejoin="bevel" d="M0 13.9646L7.85508 0L27.4055 5.76039C27.4055 5.76039 18.2703 8.49512 0 13.9646Z"/>
  <path id="shape12" transform="matrix(4.07589751010193 0 0 4.07589751010193 163.628708372614 99.4726428440849)" fill="#d9dafe" fill-rule="evenodd" stroke="#000000" stroke-opacity="0" stroke-width="0" stroke-linecap="square" stroke-linejoin="bevel" d="M0 0.305736L11.9237 9.93643L22.4716 0C22.4716 0 14.9811 0.101912 0 0.305736Z"/>
  <path id="shape13" transform="matrix(4.07589751010193 0 0 4.07589751010193 179.51450075844 20.4957750006743)" fill="#d9dafe" fill-rule="evenodd" stroke="#000000" stroke-opacity="0" stroke-width="0" stroke-linecap="square" stroke-linejoin="bevel" d="M0 0L36.2054 12.4037L31.6797 2.17903C31.6797 2.17903 21.1198 1.45269 0 0Z"/>
  <path id="shape14" transform="matrix(4.07589751010193 0 0 4.07589751010193 313.420230762845 22.545352500742)" fill="#d9dafe" fill-rule="evenodd" stroke="#000000" stroke-opacity="0" stroke-width="0" stroke-linecap="square" stroke-linejoin="bevel" d="M0 1.67618L3.01712 10.2247L18.4379 0C18.4379 0 12.292 0.558726 0 1.67618Z"/>
  <path id="shape15" transform="matrix(4.07589751010193 0 0 4.07589751010193 337.331968263632 0)" fill="#9192fc" fill-rule="evenodd" stroke="#000000" stroke-opacity="0" stroke-width="0" stroke-linecap="square" stroke-linejoin="bevel" d="M0 5.02853L7.20756 0L13.4094 4.52568C13.4094 4.52568 8.93961 4.6933 0 5.02853Z"/>
  <path id="shape16" transform="matrix(4.07589751010193 0 0 4.07589751010193 174.751995706488 1.80218050162546)" fill="#9192fc" fill-rule="evenodd" stroke="#000000" stroke-opacity="0" stroke-width="0" stroke-linecap="square" stroke-linejoin="bevel" d="M0 0L1.79451 3.9255L6.39295 4.82275C6.39295 4.82275 4.26197 3.21517 0 0Z"/>
  <path id="shape17" transform="matrix(4.07589751010193 0 0 4.07589751010193 224.580311097237 9.57356914054935)" fill="#9192fc" fill-rule="evenodd" stroke="#000000" stroke-opacity="0" stroke-width="0" stroke-linecap="square" stroke-linejoin="bevel" d="M0 0L0.785099 2.69177L6.84158 3.47687C6.84158 3.47687 4.56105 2.31791 0 0Z"/>
  <path id="shape18" transform="matrix(4.07589751010193 0 0 4.07589751010193 249.887447237703 96.8874062014048)" fill="#9192fc" fill-rule="evenodd" stroke="#000000" stroke-opacity="0" stroke-width="0" stroke-linecap="square" stroke-linejoin="bevel" d="M0 4.71059L5.04707 0L12.4494 10.0941C12.4494 10.0941 8.29962 8.29962 0 4.71059Z"/>
  <path id="shape19" transform="matrix(4.07589751010193 0 0 4.07589751010193 369.344722947662 106.970106915843)" fill="#6264fb" fill-rule="evenodd" stroke="#000000" stroke-opacity="0" stroke-width="0" stroke-linecap="square" stroke-linejoin="bevel" d="M0 10.9113L35.6271 0L43.0666 10.746C43.0666 10.746 28.7111 10.8011 0 10.9113Z"/>
  <path id="shape20" transform="matrix(4.07589751010193 0 0 4.07589751010193 182.660009713841 24.0113913426853)" fill="#9192fc" fill-rule="evenodd" stroke="#000000" stroke-opacity="0" stroke-width="0" stroke-linecap="square" stroke-linejoin="bevel" d="M0 0L5.53873 17.8944L50.4166 15.9061C50.4166 15.9061 33.6111 10.6041 0 0Z"/>
  <path id="shape21" transform="matrix(4.07589751010193 0 0 4.07589751010193 123.038090848362 94.0526746700929)" fill="#04098b" fill-rule="evenodd" stroke="#000000" stroke-opacity="0" stroke-width="0" stroke-linecap="square" stroke-linejoin="bevel" d="M0 23.007L0.142019 0L40.0493 26.6995C40.0493 26.6995 26.6995 25.4687 0 23.007Z"/>
  <path id="shape22" transform="matrix(4.07589751010193 0 0 4.07589751010193 214.325937436724 119.522232243695)" fill="#06096c" fill-rule="evenodd" stroke="#000000" stroke-opacity="0" stroke-width="0" stroke-linecap="square" stroke-linejoin="bevel" d="M0 7.52699L8.23708 0L27.2676 24.2852C27.2676 24.2852 18.1784 18.6991 0 7.52699Z"/>
  <path id="shape23" transform="matrix(4.07589751010193 0 0 4.07589751010193 279.907411358506 150.780325629481)" fill="#03064c" fill-rule="evenodd" stroke="#000000" stroke-opacity="0" stroke-width="0" stroke-linecap="square" stroke-linejoin="bevel" d="M44.4518 14.2019L32.9483 0.994131L0 0L13.4918 18.3204C13.4918 18.3204 23.8118 16.9476 44.4518 14.2019Z"/>
  <path id="shape24" transform="matrix(4.07589751010193 0 0 4.07589751010193 464.561703767124 157.7265686041)" fill="#03064c" fill-rule="evenodd" stroke="#000000" stroke-opacity="0" stroke-width="0" stroke-linecap="square" stroke-linejoin="bevel" d="M0 11.7876L19.3145 0L15.48 14.3439C15.48 14.3439 10.32 13.4918 0 11.7876Z"/>
  <path id="shape25" transform="matrix(4.07589751010193 0 0 4.07589751010193 31.0003714346605 100.420064063493)" fill="#06096c" fill-rule="evenodd" stroke="#000000" stroke-opacity="0" stroke-width="0" stroke-linecap="square" stroke-linejoin="bevel" d="M0 19.3145L22.0129 12.0716L21.8709 8.52651e-14C21.8709 8.52651e-14 14.5806 6.43818 0 19.3145Z"/>
  <path id="shape26" transform="matrix(4.07589751010193 0 0 4.07589751010193 32.158078597097 98.1046497386202)" fill="#1b22f2" fill-rule="evenodd" stroke="#000000" stroke-opacity="0" stroke-width="0" stroke-linecap="square" stroke-linejoin="bevel" d="M0.284037 17.4683L0 7.66901L20.3087 0C20.3087 0 13.6338 5.82277 0.284037 17.4683Z"/>
  <path id="shape27" transform="matrix(4.07589751010193 0 0 4.07589751010193 125.43608732948 0.455461095230589)" fill="#06096c" fill-rule="evenodd" stroke="#000000" stroke-opacity="0" stroke-width="0" stroke-linecap="square" stroke-linejoin="bevel" d="M16.2668 13.4368L11.1376 0L0 16.9996C0 16.9996 5.42228 15.812 16.2668 13.4368Z"/>
  <path id="shape28" transform="matrix(4.07589751010193 0 0 4.07589751010193 5.6843418860808e-14 34.5023990846601)" fill="#04098b" fill-rule="evenodd" stroke="#000000" stroke-opacity="0" stroke-width="0" stroke-linecap="square" stroke-linejoin="bevel" d="M35.9043 0L25.939 15.0944L0.73274 24.9132L0 18.7581L7.18085 17.1461C7.18085 17.1461 16.7553 11.4307 35.9043 0Z"/>
  <path id="shape29" transform="matrix(4.07589751010193 0 0 4.07589751010193 120.97334229588 55.2223348940984)" fill="#9192fc" fill-rule="evenodd" stroke="#000000" stroke-opacity="0" stroke-width="0" stroke-linecap="square" stroke-linejoin="bevel" d="M19.2192 9.84904L17.0554 0L0 3.86692C0 3.86692 6.40639 5.86096 19.2192 9.84904Z"/>
  <path id="shape30" transform="matrix(4.07589751010193 0 0 4.07589751010193 107.48514231279 74.0961773734249)" fill="#6264fb" fill-rule="evenodd" stroke="#000000" stroke-opacity="0" stroke-width="0" stroke-linecap="square" stroke-linejoin="bevel" d="M20.8738 5.72756L3.6911 0L0 5.60028C0 5.60028 6.95793 5.64271 20.8738 5.72756Z"/>
  <path id="shape31" transform="matrix(4.07589751010193 0 0 4.07589751010193 139.649311503236 100.035023494752)" fill="#9192fc" fill-rule="evenodd" stroke="#000000" stroke-opacity="0" stroke-width="0" stroke-linecap="square" stroke-linejoin="bevel" d="M0 0.254558L5.09117 0L18.5828 11.5824C18.5828 11.5824 12.3885 7.80646 0 0.254558Z"/>
  <path id="shape32" transform="matrix(4.07589751010193 0 0 4.07589751010193 215.390742177508 96.4035850377661)" fill="#e8f9fe" fill-rule="evenodd" stroke="#000000" stroke-opacity="0" stroke-width="0" stroke-linecap="square" stroke-linejoin="bevel" d="M0 10.6915L10.8187 0L13.4916 0.127279C13.4916 0.127279 8.9944 3.64867 0 10.6915Z"/>
  <path id="shape33" transform="matrix(4.07589751010193 0 0 4.07589751010193 215.390742177508 107.816677331149)" fill="#dadafd" fill-rule="evenodd" stroke="#000000" stroke-opacity="0" stroke-width="0" stroke-linecap="square" stroke-linejoin="bevel" d="M0 8.52771L0.636396 10.0551L10.4369 0C10.4369 0 6.95793 2.84257 0 8.52771Z"/>
  <path id="shape34" transform="matrix(4.07589751010193 0 0 4.07589751010193 250.40945908399 118.108613729146)" fill="#b7b8fc" fill-rule="evenodd" stroke="#000000" stroke-opacity="0" stroke-width="0" stroke-linecap="square" stroke-linejoin="bevel" d="M0 0L6.2524 7.8155L13.5162 7.99939C13.5162 7.99939 9.01081 5.33293 0 0Z"/>
  <path id="shape35" transform="matrix(4.07589751010193 0 0 4.07589751010193 256.78049169069 120.731980096611)" fill="#6264fb" fill-rule="evenodd" stroke="#000000" stroke-opacity="0" stroke-width="0" stroke-linecap="square" stroke-linejoin="bevel" d="M0 0L11.2175 4.6893L12.229 6.98797C12.229 6.98797 8.15264 4.65865 0 0Z"/>
  <path id="shape36" transform="matrix(4.07589751010193 0 0 4.07589751010193 436.218586938832 77.0160411546908)" fill="#04098b" fill-rule="evenodd" stroke="#000000" stroke-opacity="0" stroke-width="0" stroke-linecap="square" stroke-linejoin="bevel" d="M0 4.87065L13.8479 0L19.0051 6.5897C19.0051 6.5897 12.6701 6.01668 0 4.87065Z"/>
  <path id="shape37" transform="matrix(4.07589751010193 0 0 4.07589751010193 403.131481357581 92.9757038468235)" fill="#1319c1" fill-rule="evenodd" stroke="#000000" stroke-opacity="0" stroke-width="0" stroke-linecap="square" stroke-linejoin="bevel" d="M26.8363 2.96059L18.9096 5.44367L0 0C0 0 8.94544 0.986863 26.8363 2.96059Z"/>
  <path id="shape38" transform="matrix(4.07589751010193 0 0 4.07589751010193 376.137472787899 83.0957583502523)" fill="#06096c" fill-rule="evenodd" stroke="#000000" stroke-opacity="0" stroke-width="0" stroke-linecap="square" stroke-linejoin="bevel" d="M14.8158 3.02604L14.2656 1.13968L8.52651e-14 0C8.52651e-14 0 4.93861 1.00868 14.8158 3.02604Z"/>
  <path id="shape39" transform="matrix(4.07589751010193 0 0 4.07589751010193 384.306638544931 86.2993527647737)" fill="#03064c" fill-rule="evenodd" stroke="#000000" stroke-opacity="0" stroke-width="0" stroke-linecap="square" stroke-linejoin="bevel" d="M0 0L2.51515 1.61127L10.4536 2.08286C10.4536 2.08286 6.96907 1.38857 0 0Z"/>
  <path id="shape40" transform="matrix(4.07589751010193 0 0 4.07589751010193 272.632160310845 92.9049793168477)" fill="#1319c1" fill-rule="evenodd" stroke="#000000" stroke-opacity="0" stroke-width="0" stroke-linecap="square" stroke-linejoin="bevel" d="M0 0.507421L12.0766 2.84156L29.0245 0C29.0245 0 19.3497 0.16914 0 0.507421Z"/>
  <path id="shape41" transform="matrix(4.07589751010193 0 0 4.07589751010193 309.859694600849 107.795993032849)" fill="#04098b" fill-rule="evenodd" stroke="#000000" stroke-opacity="0" stroke-width="0" stroke-linecap="square" stroke-linejoin="bevel" d="M0 10.3514L2.94304 0L12.6855 11.2647C12.6855 11.2647 8.45702 10.9603 0 10.3514Z"/>
  <path id="shape42" transform="matrix(4.07589751010193 0 0 4.07589751010193 273.254136472442 98.7239288894302)" fill="#d9dafe" fill-rule="evenodd" stroke="#000000" stroke-opacity="0" stroke-width="0" stroke-linecap="square" stroke-linejoin="bevel" d="M0 0L8.54793 12.1261L11.4304 1.7891C11.4304 1.7891 7.62024 1.19273 0 0Z"/>
  <path id="shape43" transform="matrix(4.07589751010193 0 0 4.07589751010193 30.0446536787472 197.592209469011)" fill="#03064c" fill-rule="evenodd" stroke="#000000" stroke-opacity="0" stroke-width="0" stroke-linecap="square" stroke-linejoin="bevel" d="M0 0L3.794 15.8535L25.745 15.8535C25.745 15.8535 17.1633 10.569 0 0Z"/>
  <path id="shape44" transform="matrix(4.07589751010193 0 0 4.07589751010193 127.246727977362 194.278502390648)" fill="#03064c" fill-rule="evenodd" stroke="#000000" stroke-opacity="0" stroke-width="0" stroke-linecap="square" stroke-linejoin="bevel" d="M0 0L6.91051 15.8535L31.978 15.718C31.978 15.718 21.3187 10.4787 0 0Z"/>
  <path id="shape45" transform="matrix(4.07589751010193 0 0 4.07589751010193 263.108718190199 201.905907705161)" fill="#03064c" fill-rule="evenodd" stroke="#000000" stroke-opacity="0" stroke-width="0" stroke-linecap="square" stroke-linejoin="bevel" d="M0 13.008L6.6395 0L23.306 12.8725C23.306 12.8725 15.5373 12.9177 0 13.008Z"/>
  <path id="shape46" transform="matrix(4.07589751010193 0 0 4.07589751010193 396.209285837735 210.847037782458)" fill="#03064c" fill-rule="evenodd" stroke="#000000" stroke-opacity="0" stroke-width="0" stroke-linecap="square" stroke-linejoin="bevel" d="M29.1325 2.8455L17.073 0L0 11.2465C0 11.2465 9.71084 8.44617 29.1325 2.8455Z"/>
  <path id="shape47" transform="matrix(4.07589751010193 0 0 4.07589751010193 413.330105742604 225.758719635087)" fill="#03064c" fill-rule="evenodd" stroke="#000000" stroke-opacity="0" stroke-width="0" stroke-linecap="square" stroke-linejoin="bevel" d="M0 7.31701L24.932 0L22.764 6.775C22.764 6.775 15.176 6.95567 0 7.31701Z"/>
  <path id="shape48" transform="matrix(4.07589751010193 0 0 4.07589751010193 31.7015072179285 193.173933364528)" fill="#03064c" fill-rule="evenodd" stroke="#000000" stroke-opacity="0" stroke-width="0" stroke-linecap="square" stroke-linejoin="bevel" d="M0 0.542L28.0485 16.9375L22.6285 0C22.6285 0 15.0857 0.180667 0 0.542Z"/>
  <path id="shape49" transform="matrix(4.07589751010193 0 0 4.07589751010193 132.217288594905 192.621648851468)" fill="#06096c" fill-rule="evenodd" stroke="#000000" stroke-opacity="0" stroke-width="0" stroke-linecap="square" stroke-linejoin="bevel" d="M0 0L30.352 15.0405L37.669 2.8455C37.669 2.8455 25.1127 1.897 0 0Z"/>
  <path id="shape50" transform="matrix(4.07589751010193 0 0 4.07589751010193 329.708199630569 211.5692568401)" fill="#03064c" fill-rule="evenodd" stroke="#000000" stroke-opacity="0" stroke-width="0" stroke-linecap="square" stroke-linejoin="bevel" d="M0 4.23067L31.8262 0L14.9997 10.769C14.9997 10.769 9.99977 8.58954 0 4.23067Z"/>
  <path id="shape51" transform="matrix(4.07589751010193 0 0 4.07589751010193 333.558839188004 234.223596623881)" fill="#370005" fill-rule="evenodd" stroke="#000000" stroke-opacity="0" stroke-width="0" stroke-linecap="square" stroke-linejoin="bevel" d="M0 0L6.84191 5.25282L12.7568 5.42938C12.7568 5.42938 8.50456 3.61959 0 0Z"/>
 </g><path id="shape92" transform="matrix(-4.07589754770988 0 0 4.07589754770988 1800.58065190489 311.565199694055)" fill="#042b35" fill-rule="evenodd" stroke="#000000" stroke-opacity="0" stroke-width="0" stroke-linecap="square" stroke-linejoin="bevel" d="M78.573 3.37757C75.913 2.88528 95.8063 2.32511 102.149 1.99129C108.491 1.65747 166.91 3.32657 176.257 3.66039C185.604 3.99421 203.31 3.94355 211.503 3.26393C219.701 3.88324 234.686 3.45589 244.031 3.0533C253.375 2.6507 308.472 -0.267301 314.817 0.0198411C321.162 0.306978 353.32 1.87997 350.664 2.39183C358.839 2.88504 367.327 3.37001 372.226 3.77906C377.125 4.18812 381.919 5.37688 386.607 7.34535L407.306 7.52686L420.302 4.42676L420.455 25.1231L407.426 23.8836C396.515 23.0737 391.06 22.78 391.062 23.0025C391.065 23.3364 380.093 29.4095 379.091 29.4168C378.09 29.4242 368.147 84.5957 359.9 98.0095C351.653 111.423 312.904 108.036 289.189 106.208C265.474 104.379 255.41 97.7769 249.355 91.4788C242.765 85.1806 219.617 30.5689 225.165 25.2248C227.797 19.8807 226.445 17.5373 222.105 17.5692C220.285 17.5826 218.398 17.4122 208.785 15.9448C199.183 17.4829 200.109 18.0146 198.289 18.0146C193.949 18.0146 192.614 20.3679 195.285 25.6925C197.955 31.0171 177.592 85.7801 171.583 92.1227C165.575 98.4652 155.56 105.142 131.859 107.145C108.158 109.147 69.4345 112.82 61.089 99.4667C52.7435 86.1139 42.3951 31.0171 41.3937 31.0171C40.3922 31.0171 29.3762 25.0249 29.3762 24.691C29.3762 24.4685 23.9238 24.8023 13.019 25.6925L0 27.0278L0 6.33095L13.019 9.33533L33.7158 9.00151C38.3893 6.99859 43.174 5.77458 48.0701 5.32949C52.9661 4.88439 59.4998 4.38517 67.6711 3.83182M70.8508 12.0083C67.0135 14.0096 64.6498 15.4554 63.7596 16.3455C59.5312 18.1039 57.0832 22.9944 56.4156 31.0171C55.4141 43.0511 53.745 59.7421 56.7494 69.7567C59.7538 79.7713 61.7567 91.1212 66.0963 94.7932C70.436 98.4652 92.1343 105.809 113.499 102.471C134.863 99.1329 159.232 103.473 166.576 84.111C173.92 64.7494 187.273 33.0365 185.938 26.3601C184.602 19.6837 180.597 14.0088 174.588 12.6735C168.579 11.3382 129.856 8.00005 116.837 9.00151C103.818 10.003 83.8391 9.55421 79.7086 10.6455M349.495 10.6253C353.347 12.5983 355.721 14.0267 356.618 14.9103C360.859 16.6375 363.343 21.5098 364.07 29.5274C365.16 41.5537 366.952 58.232 364.021 68.2684C361.091 78.3048 359.171 89.6692 354.859 93.373C350.546 97.0768 328.903 104.581 307.514 101.4C286.126 98.2186 261.79 102.737 254.303 83.4305C246.817 64.1235 233.231 32.5097 234.517 25.8236C235.804 19.1376 239.767 13.4334 245.766 12.0539C251.765 10.6744 290.462 7.05139 303.488 7.95702C316.514 8.86265 336.489 8.26688 340.628 9.32778"/><g id="group03" transform="matrix(1.00000000949245 0 0 1.00000000949245 293.661941897944 395.847492711736)" fill="none">
  <path id="shape52" transform="matrix(-4.07589754009995 0 0 4.07589754009995 542.210592826504 -5.6843418860808e-14)" fill="#50d9fd" fill-rule="evenodd" stroke="#000000" stroke-opacity="0" stroke-width="0" stroke-linecap="square" stroke-linejoin="bevel" d="M0 28.755L13.0022 0L23.0397 24.7024C20.172 25.5296 1.61369 27.9592 0 28.755Z"/>
  <path id="shape53" transform="matrix(-4.07589754009995 0 0 4.07589754009995 430.263267095486 5.02225031182127)" fill="#50d9fd" fill-rule="evenodd" stroke="#000000" stroke-opacity="0" stroke-width="0" stroke-linecap="square" stroke-linejoin="bevel" d="M0 11.7779L9.22802 0L16.4338 12.3116C11.7807 12.0418 16.222 12.0097 0 11.7779Z"/>
  <path id="shape54" transform="matrix(-4.07589754009995 0 0 4.07589754009995 86.4583043009665 13.1818887641663)" fill="#50d9fd" fill-rule="evenodd" stroke="#000000" stroke-opacity="0" stroke-width="0" stroke-linecap="square" stroke-linejoin="bevel" d="M0 0L3.87385 17.8819L20.8569 20.5092C20.8569 20.5092 13.9046 13.6728 0 0Z"/>
  <path id="shape55" transform="matrix(-4.07589754009995 0 0 4.07589754009995 435.459163298765 81.3255937424176)" fill="#063d4a" fill-rule="evenodd" stroke="#000000" stroke-opacity="0" stroke-width="0" stroke-linecap="square" stroke-linejoin="bevel" d="M11.9693 0C7.87633 5.85868 4.03294 10.6413 0 16.5L10.3028 27.8969C10.0293 26.2557 11.9693 4.37575 11.9693 0Z"/>
  <path id="shape56" transform="matrix(-4.07589754009995 0 0 4.07589754009995 524.261971684639 102.442830657925)" fill="#063d4a" fill-rule="evenodd" stroke="#000000" stroke-opacity="0" stroke-width="0" stroke-linecap="square" stroke-linejoin="bevel" d="M0 3.12853L19.1188 0L7.99513 27.8091C7.99513 27.8091 5.33009 19.5823 0 3.12853Z"/>
  <path id="shape57" transform="matrix(-4.07589754009995 0 0 4.07589754009995 360.849630853728 55.1367698181288)" fill="#063d4a" fill-rule="evenodd" stroke="#000000" stroke-opacity="0" stroke-width="0" stroke-linecap="square" stroke-linejoin="bevel" d="M5.24063 0L0 13.2499L15.5259 22.73C15.5259 22.73 6.52281 2.92893 5.24063 0Z"/>
  <path id="shape58" transform="matrix(-4.07589754009995 0 0 4.07589754009995 288.608930937725 47.2242440532316)" fill="#063d4a" fill-rule="evenodd" stroke="#000000" stroke-opacity="0" stroke-width="0" stroke-linecap="square" stroke-linejoin="bevel" d="M18.3036 26.9345L0 12.5L16.0714 0C16.2946 0.0744047 16.9132 10.9442 18.3036 26.9345Z"/>
  <path id="shape60" transform="matrix(-4.07589754009995 0 0 4.07589754009995 192.721330364963 129.362797260804)" fill="#063d4a" fill-rule="evenodd" stroke="#000000" stroke-opacity="0" stroke-width="0" stroke-linecap="square" stroke-linejoin="bevel" d="M0 12.5141L7.64752 0L42.0613 6.25706C42.0613 6.25706 28.0409 8.34274 0 12.5141Z"/>
  <path id="shape61" transform="matrix(-4.07589754009995 0 0 4.07589754009995 372.07657124333 146.364881431045)" fill="#063d4a" fill-rule="evenodd" stroke="#000000" stroke-opacity="0" stroke-width="0" stroke-linecap="square" stroke-linejoin="bevel" d="M0 7.41872L40.0322 6.68836L8.19959 0C8.19959 0 1.46043 5.90492 0 7.41872Z"/>
  <path id="shape62" transform="matrix(-4.07589754009995 0 0 4.07589754009995 334.303506859302 46.2898797348985)" fill="#50d9fd" fill-rule="evenodd" stroke="#000000" stroke-opacity="0" stroke-width="0" stroke-linecap="square" stroke-linejoin="bevel" d="M10.8035 12.2418L26.1085 0L0 3.70861C0.23486 4.3349 10.4652 11.6335 10.8035 12.2418Z"/>
  <path id="shape63" transform="matrix(-4.07589754009995 0 0 4.07589754009995 450.887427252941 81.012975209921)" fill="#a5eafd" fill-rule="evenodd" stroke="#000000" stroke-opacity="0" stroke-width="0" stroke-linecap="square" stroke-linejoin="bevel" d="M0 10.9802L4.54354 14.7665L14.7665 0C14.7665 0 9.84433 3.66007 0 10.9802Z"/>
  <path id="shape64" transform="matrix(-4.07589754009995 0 0 4.07589754009995 450.25306806642 84.8710969293675)" fill="#cbf2fd" fill-rule="evenodd" stroke="#000000" stroke-opacity="0" stroke-width="0" stroke-linecap="square" stroke-linejoin="bevel" d="M0 8.70844L2.46108 0L7.57256 4.16491C7.57256 4.16491 5.04837 5.67942 0 8.70844Z"/>
  <path id="shape65" transform="matrix(-4.07589754009995 0 0 4.07589754009995 283.135822194197 7.57053487241672)" fill="#a5eafd" fill-rule="evenodd" stroke="#000000" stroke-opacity="0" stroke-width="0" stroke-linecap="square" stroke-linejoin="bevel" d="M0 0L28.6713 15.2368L22.6094 6.04182C22.6094 4.96299 15.0729 2.94905 0 0Z"/>
  <path id="shape66" transform="matrix(-4.07589754009995 0 0 4.07589754009995 166.274356338895 32.196383117125)" fill="#a5eafd" fill-rule="evenodd" stroke="#000000" stroke-opacity="0" stroke-width="0" stroke-linecap="square" stroke-linejoin="bevel" d="M0 0L8.35565 7.72042L20.1519 0C20.1519 0.45031 13.4346 0.45031 0 0Z"/>
  <path id="shape68" transform="matrix(-4.07589754009995 0 0 4.07589754009995 109.513072923462 16.9194521408413)" fill="#cbf2fd" fill-rule="evenodd" stroke="#000000" stroke-opacity="0" stroke-width="0" stroke-linecap="square" stroke-linejoin="bevel" d="M0 3.74811L4.25974 0L5.89811 3.74811C5.89811 3.43385 3.93207 3.43385 0 3.74811Z"/>
  <path id="shape69" transform="matrix(-4.07589754009995 0 0 4.07589754009995 188.311089900181 24.2650299946033)" fill="#50d9fd" fill-rule="evenodd" stroke="#000000" stroke-opacity="0" stroke-width="0" stroke-linecap="square" stroke-linejoin="bevel" d="M0 0L7.53647 13.1069L14.0899 10.8132C14.0899 10.8132 9.39328 7.2088 0 0Z"/>
  <path id="shape70" transform="matrix(-4.07589754009995 0 0 4.07589754009995 485.73716172811 132.050388550906)" fill="#157388" fill-rule="evenodd" stroke="#000000" stroke-opacity="0" stroke-width="0" stroke-linecap="square" stroke-linejoin="bevel" d="M0 18.8261L7.79279 0L22.105 15.8433C22.105 15.8433 13.293 17.2245 0 18.8261Z"/>
  <path id="shape71" transform="matrix(-4.07589754009995 0 0 4.07589754009995 391.000144310124 80.1542223401318)" fill="#157388" fill-rule="evenodd" stroke="#000000" stroke-opacity="0" stroke-width="0" stroke-linecap="square" stroke-linejoin="bevel" d="M0 26.9789L1.84648 0L12.2078 15.7275C13.832 14.6448 12.5959 15.1978 0 26.9789Z"/>
  <path id="shape72" transform="matrix(-4.07589754009995 0 0 4.07589754009995 331.577934892569 67.4249740242817)" fill="#157388" fill-rule="evenodd" stroke="#000000" stroke-opacity="0" stroke-width="0" stroke-linecap="square" stroke-linejoin="bevel" d="M0 0L9.49943 20.8151L32.3372 26.2474C31.2285 26.9125 20.6602 16.4961 0 0Z"/>
  <path id="shape73" transform="matrix(-4.07589754009995 0 0 4.07589754009995 219.952218892037 51.7582068663127)" fill="#157388" fill-rule="evenodd" stroke="#000000" stroke-opacity="0" stroke-width="0" stroke-linecap="square" stroke-linejoin="bevel" d="M0 0L2.16211 25.2247L14.6543 17.2969C14.6543 17.2969 9.76955 11.5313 0 0Z"/>
  <path id="shape74" transform="matrix(-4.07589754009995 0 0 4.07589754009995 157.285150260159 44.9039962347013)" fill="#157388" fill-rule="evenodd" stroke="#000000" stroke-opacity="0" stroke-width="0" stroke-linecap="square" stroke-linejoin="bevel" d="M17.7774 0L0 19.2188L23.3028 24.0235C23.3028 24.0235 21.461 16.0157 17.7774 0Z"/>
  <path id="shape75" transform="matrix(-4.07589754009995 0 0 4.07589754009995 69.0038039772196 93.0392516753417)" fill="#2fa7c4" fill-rule="evenodd" stroke="#000000" stroke-opacity="0" stroke-width="0" stroke-linecap="square" stroke-linejoin="bevel" d="M0 0L2.43262 12.4951L16.9297 15.4819C16.7112 16.429 11.3711 9.12893 0 0Z"/>
  <path id="shape76" transform="matrix(-4.07589754009995 0 0 4.07589754009995 67.6996157420318 88.4423061127292)" fill="#157388" fill-rule="evenodd" stroke="#000000" stroke-opacity="0" stroke-width="0" stroke-linecap="square" stroke-linejoin="bevel" d="M0 0L16.2455 14.7885L15.6627 2.98684C14.4243 2.98684 2.17928 0.33477 0 0Z"/>
  <path id="shape77" transform="matrix(-4.07589754009995 0 0 4.07589754009995 213.255934427783 56.4093260300156)" fill="#157388" fill-rule="evenodd" stroke="#000000" stroke-opacity="0" stroke-width="0" stroke-linecap="square" stroke-linejoin="bevel" d="M0 0L13.3637 15.6633L20.9543 7.2025C21.2927 7.2992 12.9713 4.75924 0 0Z"/>
  <path id="shape78" transform="matrix(-4.07589754009995 0 0 4.07589754009995 440.792219957779 53.344270035709)" fill="#157388" fill-rule="evenodd" stroke="#000000" stroke-opacity="0" stroke-width="0" stroke-linecap="square" stroke-linejoin="bevel" d="M5.14161 10.8837L0 6.32299L23.7215 0C23.2494 0.404617 13.8233 4.6718 5.14161 10.8837Z"/>
  <path id="shape79" transform="matrix(-4.07589754009995 0 0 4.07589754009995 441.045614538112 55.1036598709125)" fill="#157388" fill-rule="evenodd" stroke="#000000" stroke-opacity="0" stroke-width="0" stroke-linecap="square" stroke-linejoin="bevel" d="M0 5.17607L2.39393 0L18.9102 0.478069C20.4697 -0.0417744 9.4301 3.23017 0 5.17607Z"/>
  <path id="shape80" transform="matrix(-4.07589754009995 0 0 4.07589754009995 383.565668080017 53.870136664822)" fill="#157388" fill-rule="evenodd" stroke="#000000" stroke-opacity="0" stroke-width="0" stroke-linecap="square" stroke-linejoin="bevel" d="M0 5.33734L5.39664 12.712L10.5261 0.0659227C9.91713 -0.499514 7.01178 2.68423 0 5.33734Z"/>
  <path id="shape81" transform="matrix(-4.07589754009995 0 0 4.07589754009995 550.248040610998 32.196383117125)" fill="#218da6" fill-rule="evenodd" stroke="#000000" stroke-opacity="0" stroke-width="0" stroke-linecap="square" stroke-linejoin="bevel" d="M0 2.99016L3.53583 16.1513L10.8039 0C10.8039 0.683871 7.20262 1.68059 0 2.99016Z"/>
  <path id="shape82" transform="matrix(-4.07589754009995 0 0 4.07589754009995 487.797407906364 177.218776938843)" fill="#157388" fill-rule="evenodd" stroke="#000000" stroke-opacity="0" stroke-width="0" stroke-linecap="square" stroke-linejoin="bevel" d="M0 8.4646L71.7901 0L71.0807 11.5725C71.9676 11.5725 47.1444 10.5599 0 8.4646Z"/>
  <path id="shape83" transform="matrix(-4.07589754009995 0 0 4.07589754009995 193.936431748913 186.098853548948)" fill="#063d4a" fill-rule="evenodd" stroke="#000000" stroke-opacity="0" stroke-width="0" stroke-linecap="square" stroke-linejoin="bevel" d="M0.196435 0L0 9.23245L39.8763 10.6075C39.8763 10.6075 26.6497 7.07166 0.196435 0Z"/>
  <path id="shape84" transform="matrix(-4.07589754009995 0 0 4.07589754009995 185.152034030059 157.275484608347)" fill="#063d4a" fill-rule="evenodd" stroke="#000000" stroke-opacity="0" stroke-width="0" stroke-linecap="square" stroke-linejoin="bevel" d="M0 6.67879L43.805 0L39.287 18.072C39.287 18.072 26.1913 14.2743 0 6.67879Z"/>
  <path id="shape85" transform="matrix(-4.07589754009995 0 0 4.07589754009995 393.999088629746 175.604147973461)" fill="#2fa7c4" fill-rule="evenodd" stroke="#000000" stroke-opacity="0" stroke-width="0" stroke-linecap="square" stroke-linejoin="bevel" d="M0 5.6238L4.48799 0.61047L48.2601 0C50.5657 0 29.3343 2.34988 0 5.6238Z"/>
  <path id="shape86" transform="matrix(-4.07589754009995 0 0 4.07589754009995 216.672334997808 130.053413942224)" fill="#2fa7c4" fill-rule="evenodd" stroke="#000000" stroke-opacity="0" stroke-width="0" stroke-linecap="square" stroke-linejoin="bevel" d="M0 7.35725L5.69366 11.3112L12.6443 0C12.6443 0 1.40521 6.62226 0 7.35725Z"/>
  <path id="shape87" transform="matrix(-4.07589754009995 0 0 4.07589754009995 326.095567974905 12.4036200172937)" fill="#218da6" fill-rule="evenodd" stroke="#000000" stroke-opacity="0" stroke-width="0" stroke-linecap="square" stroke-linejoin="bevel" d="M0 11.2792L11.3293 0L25.1906 7.57886C25.1906 7.57886 1.0514 11.1357 0 11.2792Z"/>
  <path id="shape88" transform="matrix(-4.07589754009995 0 0 4.07589754009995 143.358348567271 43.1230396499936)" fill="#157388" fill-rule="evenodd" stroke="#000000" stroke-opacity="0" stroke-width="0" stroke-linecap="square" stroke-linejoin="bevel" d="M0 8.65555L4.03492 9.82698L13.0809 0C13.0809 0 8.72063 2.88518 0 8.65555Z"/>
  <path id="shape89" transform="matrix(-4.07589754009995 0 0 4.07589754009995 378.668395424947 235.309221793401)" fill="#063d4a" fill-rule="evenodd" stroke="#000000" stroke-opacity="0" stroke-width="0" stroke-linecap="square" stroke-linejoin="bevel" d="M25.0403 7.10099L0 9.15654L9.90402 0C9.90402 0 14.9495 2.367 25.0403 7.10099Z"/>
  <path id="shape90" transform="matrix(-4.07589754009995 0 0 4.07589754009995 388.697693863864 234.258528799326)" fill="#063d4a" fill-rule="evenodd" stroke="#000000" stroke-opacity="0" stroke-width="0" stroke-linecap="square" stroke-linejoin="bevel" d="M2.06406 9.34896L11.8987 0.48566L0 0C0.00566997 0.377434 0.693689 3.49375 2.06406 9.34896Z"/>
  <path id="shape91" transform="matrix(-4.07589754009995 0 0 4.07589754009995 470.828755221421 234.258528799326)" fill="#157388" fill-rule="evenodd" stroke="#000000" stroke-opacity="0" stroke-width="0" stroke-linecap="square" stroke-linejoin="bevel" d="M19.5433 0L22.0931 9.47037L0 5.49009C0.695594 5.31824 7.21004 3.48821 19.5433 0Z"/>
  <path id="shape01" transform="translate(298.323229349212, 112.648369474812)" fill="#50d9fd" fill-rule="evenodd" stroke="#000000" stroke-opacity="0" stroke-width="0" stroke-linecap="square" stroke-linejoin="bevel" d="M0 37.4716L60.8091 0L38.4577 31.2263C38.4577 31.2263 25.6384 33.3081 0 37.4716Z"/>
 </g>
</svg>
