<?xml version="1.0" standalone="no"?>
<!DOCTYPE svg PUBLIC "-//W3C//DTD SVG 20010904//EN" "http://www.w3.org/TR/2001/REC-SVG-20010904/DTD/svg10.dtd">
<!-- Created using Krita: https://krita.org -->
<svg xmlns="http://www.w3.org/2000/svg" 
    xmlns:xlink="http://www.w3.org/1999/xlink"
    xmlns:krita="http://krita.org/namespaces/svg/krita"
    xmlns:sodipodi="http://sodipodi.sourceforge.net/DTD/sodipodi-0.dtd"
    width="480pt"
    height="288pt"
    viewBox="0 0 480 288">
<defs/>
<g id="group0" transform="matrix(-0.0132075699424305 0 0 0.0132075699424305 43.8671675348765 281.321670692343)" fill="none">
  <path id="shape0" transform="translate(-5.05866161459867e-07, 8.92036921662509e-07)" fill="#1319c1" fill-rule="evenodd" stroke="#000000" stroke-opacity="0" stroke-width="0" stroke-linecap="square" stroke-linejoin="bevel" d="M81.876 21.7407C77.8342 29.8244 77.5233 35.1099 80.9433 37.5972C86.0733 41.3282 80.0105 54.3865 113.123 35.7318C146.235 17.0771 226.916 38.0636 234.378 62.7811C241.84 87.4985 240.907 83.7676 245.105 81.4358C249.302 79.1039 279.616 48.79 283.813 40.3954C288.01 32.0008 317.858 -5.77492 350.504 0.754219C383.149 7.28336 395.741 11.0143 399.006 34.3327C401.182 49.8782 402.27 57.651 402.27 57.651C398.85 34.3327 393.409 21.1189 385.947 18.0098C374.755 13.3461 335.58 -0.644883 321.589 14.7452C307.598 30.1354 262.827 87.9649 253.499 90.7631C244.172 93.5613 240.907 96.3595 238.109 103.821C235.311 111.283 232.046 110.351 227.383 118.279C222.719 126.207 217.123 133.669 208.262 133.203C202.354 132.892 199.401 133.047 199.401 133.669C208.106 131.182 212.148 128.539 211.526 125.741C210.593 121.543 201.732 120.144 188.674 120.611C175.616 121.077 152.297 109.884 146.701 115.014C142.97 118.434 142.97 124.808 146.701 134.135C140.794 139.732 136.286 141.753 133.176 140.198C128.513 137.866 139.706 133.669 137.84 128.539C135.975 123.409 119.185 109.418 104.728 116.413C90.2706 123.409 58.5576 134.602 52.9612 133.203C47.3648 131.803 44.5666 129.938 50.6294 129.005C56.6922 128.072 66.9523 121.077 68.3514 115.481C69.7505 109.884 54.8267 94.494 49.6967 91.2295C44.5666 87.9649 18.9164 91.2295 12.3873 85.1667C5.85814 79.1039 -2.53647 74.4403 0.728103 68.8438C3.99267 63.2474 14.2528 52.9874 23.1137 48.79C31.9747 44.5927 36.6384 44.1264 36.6384 38.0636C36.6384 32.0008 35.7056 26.4044 41.3021 25.0053C46.8985 23.6062 47.8312 29.2026 51.0958 31.0681C54.3603 32.9336 58.5576 29.669 60.4231 24.539C62.2886 19.4089 68.3514 8.68246 74.8805 11.947C81.4096 15.2116 82.3424 20.808 81.876 21.7407Z"/>
  <path id="shape1" transform="translate(156.269922206928, 112.771349830042)" fill="#1319c1" fill-rule="evenodd" stroke="#000000" stroke-opacity="0" stroke-width="0" stroke-linecap="square" stroke-linejoin="bevel" d="M0 0C5.50906 1.46908 9.82449 3.58089 12.9463 6.33542C16.0681 9.08995 14.2285 11.949 7.42761 14.9126L18.1799 14.8745L25.0662 3.85634C25.0662 3.85634 16.7108 2.5709 0 0Z"/>
 </g><circle id="shape01" transform="matrix(0.0189323808698301 -6.37002058613203e-05 6.37002058613199e-05 0.0189323808698302 208.296797224258 259.066206262166)" r="133.68" cx="133.68" cy="133.68" fill="#1319c1" fill-rule="evenodd" stroke="#000000" stroke-opacity="0" stroke-width="0" stroke-linecap="square" stroke-linejoin="bevel"/><path id="shape11" transform="matrix(0.0189323808698301 -6.37002058613203e-05 6.37002058613199e-05 0.0189323808698302 204.997228249077 264.752646513665)" fill="#1319c1" fill-rule="evenodd" stroke="#000000" stroke-opacity="0" stroke-width="0" stroke-linecap="square" stroke-linejoin="bevel" d="M1.92599 474.848C-2.35399 237.309 0.49933 103.024 10.486 71.9945C25.4659 25.45 68.2657 1.91008 111.066 1.91008C153.865 1.91008 491.984 -4.5099 530.504 6.19006C569.024 16.89 613.964 66.1098 613.964 98.2097C613.964 119.61 613.25 246.582 611.824 479.128C590.424 504.808 570.45 514.081 551.904 506.948C524.084 496.248 513.384 500.528 513.384 412.788C513.384 325.049 526.224 162.409 509.104 151.709C491.984 141.01 468.444 138.87 470.584 188.089C472.011 220.903 470.584 469.142 466.304 932.806C447.758 962.766 426.358 977.033 402.104 975.606C365.725 973.466 342.185 962.766 333.625 928.526C327.918 905.7 325.778 768.74 327.205 517.648C324.012 505.463 317.439 500.437 307.485 502.57C292.555 505.769 286.157 524.965 287.223 551.626C287.934 569.399 286.868 694.528 284.024 927.01C274.782 956.87 253.808 972.155 221.104 972.866C172.049 973.933 146.454 939.807 147.521 919.545C148.232 906.037 148.587 652.226 148.587 158.112C147.876 150.292 141.122 145.67 128.325 144.248C109.129 142.116 111.262 150.647 106.996 162.378C104.152 170.198 104.152 273.642 106.996 472.71C97.0428 494.749 79.6244 505.769 54.741 505.769C17.4159 505.769 2.4326 481.253 1.92599 474.848Z"/><path id="shape02" transform="matrix(0.172103524506673 0 0 0.172103524506674 411.187438311 15.1205668759574)" fill="#b7b8fc" fill-rule="evenodd" stroke="#000000" stroke-opacity="0" stroke-width="0" stroke-linecap="square" stroke-linejoin="bevel" d="M120.201 1091.37C142.299 1007.71 155.716 956.406 160.452 937.465C167.555 909.052 238.586 712.532 243.322 686.488C248.057 660.443 271.734 540.873 272.918 489.968C274.102 439.062 263.447 234.255 237.402 191.636C211.357 149.018 136.775 34.1838 82.3173 19.9775C27.86 5.77129 5.36681 -6.06725 0.63139 3.40358C-2.52556 9.71747 6.15604 38.5246 26.6762 89.8249L207.806 463.923L158.084 811.976C158.084 811.976 145.456 905.106 120.201 1091.37Z"/><path id="shape12" transform="matrix(0.172103524506673 0 0 0.172103524506674 386.509424545837 15.6102771188601)" fill="#1319c1" fill-rule="evenodd" stroke="#000000" stroke-opacity="0" stroke-width="0" stroke-linecap="square" stroke-linejoin="bevel" d="M45.3513 1564.2C112.65 1542.83 150.259 1520.26 158.176 1496.51C170.053 1460.88 153.426 1397.94 160.552 1369.43C167.677 1340.93 212.807 1327.87 219.933 1291.05C227.059 1254.23 266.251 1079.65 268.626 1054.71C271.001 1029.77 310.193 823.123 318.507 786.306C324.049 761.762 338.3 700.169 361.261 601.528C366.012 594.866 375.909 603.807 390.952 628.351C413.517 665.168 449.146 678.232 462.21 692.483C475.274 706.735 480.024 725.737 483.587 710.298C487.15 694.858 487.15 666.355 474.086 627.163C461.022 587.972 408.766 529.778 392.14 521.464C375.513 513.151 373.138 519.089 373.138 500.087C373.138 481.085 363.636 405.076 344.634 376.573C325.632 348.07 309.005 302.94 305.443 286.313C301.88 269.686 211.62 141.422 187.867 98.6675C164.114 55.9127 142.737 1.28169 141.549 0.0940622C140.362 -1.09357 124.923 8.40748 135.611 60.6633C146.3 112.919 173.615 206.742 166.49 225.744C159.364 244.746 134.424 302.94 134.424 358.759C134.424 414.577 132.048 440.705 140.362 488.211C148.675 535.716 148.675 552.343 147.488 587.972C146.3 623.601 137.987 819.56 133.236 856.376C128.485 893.193 121.36 938.323 117.797 962.075C114.234 985.828 115.422 1020.27 108.296 1038.08C101.17 1055.9 70.2916 1092.71 71.4792 1108.15C72.6668 1123.59 75.0421 1096.28 90.4813 1121.22C105.92 1146.16 86.9184 1139.03 86.9184 1179.41C86.9184 1219.79 77.4173 1262.55 84.5431 1301.74C91.6689 1340.93 94.0442 1359.93 94.0442 1365.87C94.0442 1371.81 72.6668 1387.25 54.8524 1401.5C37.0379 1415.75 -3.34158 1432.38 0.221311 1446.63C3.78421 1460.88 2.59657 1439.5 14.4729 1438.32C26.3492 1437.13 29.9121 1449 52.4771 1441.88C67.5204 1437.13 77.8132 1433.96 83.3555 1432.38C76.2297 1476.72 71.8751 1504.43 70.2916 1515.51C67.9163 1532.14 52.4771 1563.02 45.3513 1564.2Z"/><ellipse id="shape2" transform="matrix(0.411554807524735 0 0 0.411554807524735 418.028422965665 64.270891953508)" rx="34.92" ry="35.04" cx="34.92" cy="35.04" fill="#000000" fill-rule="evenodd" stroke="#000000" stroke-width="1" stroke-linecap="square" stroke-linejoin="bevel"/><circle id="shape3" transform="matrix(0.411554807524735 0 0 0.411554807524735 424.744997424469 67.0365402600742)" r="12.72" cx="12.72" cy="12.72" fill="#ffffff" fill-rule="evenodd" stroke="#000000" stroke-opacity="0" stroke-width="0" stroke-linecap="square" stroke-linejoin="bevel"/><ellipse id="shape4" transform="matrix(0.411554807524735 0 0 0.411554807524735 421.683029656485 78.7905455629807)" rx="6.83999999999992" ry="6.83999999999997" cx="6.83999999999992" cy="6.83999999999997" fill="#ffffff" fill-rule="evenodd" stroke="#000000" stroke-opacity="0" stroke-width="0" stroke-linecap="square" stroke-linejoin="bevel"/>
</svg>
